<?xml version="1.0" encoding="UTF-8" standalone="no"?>
<!DOCTYPE svg  PUBLIC '-//W3C//DTD SVG 1.1//EN'  'http://www.w3.org/Graphics/SVG/1.1/DTD/svg11.dtd'>
<svg version="1.1" xmlns="http://www.w3.org/2000/svg">
<defs>
<font id="Izvestija" horiz-adv-x="450">
<font-face font-weight="400" bbox="-14 -174 720 975" font-family="Izvestija" panose-1="4 3 11 0 6 0 0 2 0 3" underline-position="-343" units-per-em="1000" underline-thickness="20" unicode-range="U+0020-04F9" x-height="636" descent="-200" ascent="800" cap-height="800"/>
<missing-glyph/>
<glyph horiz-adv-x="229" unicode=" " glyph-name="uni0020"/>
<glyph horiz-adv-x="259" unicode="!" glyph-name="exclam" d="M158 97q3 -32 -9 -61q-14 -38 -43 -40q-52 -5 -58 76q-3 36 6 69q10 44 41 46q55 6 63 -90zM197 793q-23 -42 -34 -89t-16 -97.5t-7 -104.5t-6 -112q-3 -42 -3.5 -78t-0.5 -72q0 -15 -11 -18h-25q-20 0 -24.5 3.5t-4.5 22.5v145v54q0 33 -1.5 69.5t-5 75.5t-10.5 75.5 t-17.5 67.5t-26.5 52q-4 4 -4 5q0 8 14 8h159q12 0 15 -0.5t7 -1.5q2 -6 2 -5z"/>
<glyph horiz-adv-x="385" unicode='&quot;' glyph-name="quotedbl" d="M120 719q0 -58 -23 -102q-29 -56 -81 -56q-4 3 -4 4q0 2 23 22q24 19 30 41q-4 17 -8 21.5t-23 7.5q-34 21 -34 75q0 15 5 28.5t14 24.5t21 17.5t26 6.5q27 0 42 -33q12 -26 12 -57zM305 719q0 -58 -23 -102q-29 -56 -81 -56q-4 3 -4 4q0 2 23 22q24 19 30 41 q-4 17 -8 21.5t-23 7.5q-34 21 -34 75q0 15 5 28.5t14 24.5t21 17.5t26 6.5q27 0 42 -33q12 -26 12 -57z"/>
<glyph horiz-adv-x="398" unicode="#" glyph-name="numbersign"/>
<glyph horiz-adv-x="441" unicode="$" glyph-name="dollar"/>
<glyph horiz-adv-x="787" unicode="%" glyph-name="percent" d="M517 810l2 -1l-214 -800q-19 3 -61 -6q-23 -4 -33 -6.5t-8 -2.5q-2 0 -3 1l214 800q17 -3 63 5q21 5 31 7.5t9 2.5zM187 545q0 81 -44 81q-25 0 -39 -17.5t-14 -42.5v-40q0 -23 10 -46q13 -26 34 -26q53 0 53 70v21zM277 452q0 -39 -11 -70q-17 -42 -51 -67t-79 -25 q-29 0 -50 8q-43 15 -67 63q-19 44 -19 94v165q0 74 35 124q41 56 112 56q32 0 70 -27q33 -26 46.5 -60t13.5 -93v-168v0zM617 245q0 81 -44 81q-25 0 -39 -17.5t-14 -42.5v-40q0 -23 10 -46q13 -26 34 -26q53 0 53 70v21zM707 152q0 -39 -11 -70q-17 -42 -51 -67t-79 -25 q-29 0 -50 8q-43 15 -67 63q-19 44 -19 94v165q0 74 35 124q41 56 112 56q32 0 70 -27q33 -26 46.5 -60t13.5 -93v-168v0z"/>
<glyph horiz-adv-x="401" unicode="&amp;" glyph-name="ampersand" d="M0 557q0 -72 54 -109q-7 -6 -16 -15.5t-21 -23.5q-17 -26 -17 -74v-147q0 -96 48 -154q36 -44 107 -44q52 0 89 37q32 32 49 86q2 8 5 20.5t5 29.5q3 25 18 36q-14 5 -32 13t-40 19q-30 19 -58 45v-9q2 -86 -50 -86q-43 0 -43 110q0 23 1.5 42t4.5 27q11 33 48 33 q79 0 81 1q-14 29 -22.5 53t-12.5 44h-38q-62 0 -62 76q0 69 59 69q49 0 101 -50q-9 48 -9 106q0 75 28 106q-2 2 -6 2h-178q-45 0 -71 -38q-22 -34 -22 -81v-124z"/>
<glyph horiz-adv-x="200" unicode="&apos;" glyph-name="quotesingle" d="M120 718q0 -58 -23 -102q-29 -56 -81 -56q-4 3 -4 4q0 2 23 22q24 19 30 41q-4 17 -8 21.5t-23 7.5q-34 21 -34 75q0 15 5 28.5t14 24.5t21 17.5t26 6.5q27 0 42 -33q12 -26 12 -57z"/>
<glyph horiz-adv-x="261" unicode="(" glyph-name="parenleft" d="M182 -95q-12 -2 -25 -3.5t-27 -1.5q-37 1 -65 12q-25 9 -45 29t-20 57v802q0 37 20 57t45 29q28 11 65 12q14 0 27 -1.5t25 -3.5l-1 -35q-23 4 -41 0q-15 -4 -27.5 -17t-12.5 -43v-798q0 -30 12.5 -43t27.5 -17q18 -4 41 0z"/>
<glyph horiz-adv-x="262" unicode=")" glyph-name="parenright" d="M1 -60q22 -4 40 0q15 4 28 17t13 43v798q0 30 -13 43t-28 17q-18 4 -40 0l-1 35q12 2 25 3.5t27 1.5q36 -1 65 -12q24 -9 44.5 -29t20.5 -57v-802q0 -37 -20.5 -57t-44.5 -29q-29 -11 -65 -12q-14 0 -27 1.5t-25 3.5z"/>
<glyph horiz-adv-x="437" unicode="*" glyph-name="asterisk" d="M215 625q0 14 -10.5 25t-25.5 11q-16 0 -26.5 -11t-10.5 -26t10.5 -25.5t26.5 -10.5q15 0 25.5 10.5t10.5 25.5v1zM357 667q1 -17 -4 -30q-5 -11 -17 -20.5t-38 -9.5h-59l67 -117q-14 -10 -28 -12q-12 -2 -26 4.5t-27 29.5l-29 50l-68 -116q-15 7 -24 18q-8 10 -10 25.5 t12 38.5l29 50h-134q-1 17 4 30q5 11 17.5 20.5t38.5 9.5h58l-67 117q14 9 28 11q12 2 26 -4t27 -29l30 -51l67 117q15 -7 24 -18q8 -10 9.5 -25.5t-11.5 -38.5l-29 -50h134z"/>
<glyph unicode="+" glyph-name="plus" d="M232 588q2 0 3 -1v-136h96q1 -18 21 -59q20 -40 20 -36q0 -2 -1 -3h-136v-96q-19 -1 -58 -21q-42 -20 -37 -20q-2 0 -3 1v136h-96q-1 19 -21 58q-20 42 -20 37q0 2 1 3h136v96q18 1 59 21q40 20 36 20z"/>
<glyph horiz-adv-x="200" unicode="," glyph-name="comma" d="M120 99q0 -58 -23 -102q-29 -56 -81 -56q-4 3 -4 4q0 3 23 23q24 20 30 40q-4 17 -8 21.5t-23 7.5q-34 21 -34 75q0 15 5 28.5t14 24.5t21 17.5t26 6.5q27 0 42 -33q12 -26 12 -57z"/>
<glyph horiz-adv-x="290" unicode="-" glyph-name="hyphen" d="M212 348q0 -2 -1 -3h-170q-1 19 -21 58q-20 42 -20 37q0 2 1 3h170q1 -18 21 -59q20 -40 20 -36z"/>
<glyph horiz-adv-x="199" unicode="." glyph-name="period" d="M119 99q1 -54 -23 -82q-15 -21 -26 -21h-10q-29 0 -47 34q-13 29 -13 61q0 37 14 64q18 35 50 35q29 0 43 -33q5 -13 8.5 -27.5t3.5 -30.5z"/>
<glyph horiz-adv-x="398" unicode="/" glyph-name="slash" d="M317 810l2 -1l-214 -800q-19 3 -61 -6q-23 -4 -33 -6.5t-8 -2.5q-2 0 -3 1l214 800q17 -3 63 5q21 5 31 7.5t9 2.5z"/>
<glyph horiz-adv-x="382" unicode="0" glyph-name="zero" d="M204 590q0 11 -4.5 22t-16.5 11h-65q-12 0 -16.5 -11t-4.5 -22v-380q0 -11 4.5 -22t16.5 -11h65q12 0 16.5 11t4.5 22v380zM47 0q-9 0 -17.5 7t-15 18t-10.5 24.5t-4 26.5v648q0 13 4 26.5t10.5 24.5t15 18t17.5 7h207q9 0 17.5 -7t15 -18t10.5 -24.5t4 -26.5v-648 q0 -13 -4 -26.5t-10.5 -24.5t-15 -18t-17.5 -7h-207z"/>
<glyph horiz-adv-x="276" unicode="1" glyph-name="one" d="M0 554q37 93 37 152q0 24 -6 65q-5 16 -9 27q0 2 8 2h200q3 0 5 -3q-5 -4 -9.5 -6.5t-7.5 -4.5q-22 -16 -22 -58v-646q0 -30 10 -46q2 -4 10 -12l22 -22q0 -2 -2 -2h-176q-4 0 -6 2q5 5 11 9t11 9q16 15 16 37v566q-21 -12 -41.5 -27t-49.5 -46z"/>
<glyph horiz-adv-x="441" unicode="2" glyph-name="two" d="M180 623q-26 0 -38.5 -28.5t-11.5 -71.5v-9q-28 26 -58 45q-22 11 -40 19t-32 13q15 10 18 36q2 17 5 29.5t5 20.5q17 54 49 86q37 37 89 37h73q48 0 63 -5q66 -23 66 -115q0 -115 -165 -364q-52 -78 -54 -85v-49q0 -7 3 -8q4 -2 41 -2q66 0 125 30q30 16 43 23l-14 -42 t-14 -43q-14 -50 -14 -87q0 -11 1.5 -24t3.5 -29h-320q-2 0 -4 2q13 7 28.5 16t15.5 30v223q17 20 38 51t42 65t41.5 68.5t36 63t25 48t9.5 22.5q0 28 -26 34h-30z"/>
<glyph horiz-adv-x="401" unicode="3" glyph-name="three" d="M223 233q0 12 0.5 31t0.5 38q0 20 -1.5 36t-5.5 22q-10 14 -19.5 23.5t-28.5 9.5q-79 0 -81 1q14 29 22.5 53t12.5 44h38q62 0 62 76q0 17 -10.5 30t-26.5 21.5t-33.5 13t-32.5 4.5q-49 0 -101 -50q9 48 9 106q0 75 -28 106q2 2 6 2h222q23 0 41 -10.5t29.5 -27.5 t17.5 -38t5 -43v-124q0 -72 -54 -109q26 -20 40 -46.5t14 -66.5v-216q0 -47 -22 -81q-26 -38 -71 -38h-222q-4 0 -6 2q28 31 28 106q0 58 -9 106q52 -50 101 -50q15 0 32.5 4.5t33.5 13t26.5 21.5t10.5 30z"/>
<glyph horiz-adv-x="438" unicode="4" glyph-name="four" d="M323 69q0 -29 6 -39q8 -9 35 -25q2 -1 2.5 -2t1.5 -2l-2 -1h-182q-6 0 -6 2q13 9 26.5 19.5t13.5 24.5l1 134h-90q-48 0 -63 5q-66 22 -66 115q0 26 19 79t50 116t70 128t80 116q1 7 -2.5 16t-10 17.5t-15 16t-16.5 11.5h193q-23 -16 -34 -32.5t-11 -48.5v-362 q20 -8 41.5 -0.5t38.5 21.5q-7 -18 -15.5 -42.5t-12.5 -53t-1 -60t19 -63.5q-17 14 -33.5 21.5t-36.5 -0.5v-111zM132 391q0 -28 26 -34h50q9 0 11 3v193q-1 0 -2 1h-1q-13 -12 -28 -37t-27.5 -51.5t-20.5 -48t-8 -26.5z"/>
<glyph horiz-adv-x="441" unicode="5" glyph-name="five" d="M210 177q26 6 26 34q0 3 -9.5 22.5t-25 48t-36 63t-41.5 68.5t-42 64.5t-38 51.5v223q0 21 -15.5 30t-28.5 16q2 2 4 2h320q-2 -16 -3.5 -29t-1.5 -24q0 -37 14 -87q7 -22 14 -43l14 -42q-13 7 -43 23q-59 30 -125 30q-37 0 -41 -2q-3 -2 -3 -8v-49q2 -7 54 -85 q165 -249 165 -364q0 -93 -66 -115q-15 -5 -63 -5h-73q-52 0 -89 37q-32 32 -49 86q-2 8 -5 20.5t-5 29.5q-3 25 -18 36q14 5 32 13t40 19q30 19 58 45v-9q-1 -43 11.5 -71.5t38.5 -28.5h30z"/>
<glyph horiz-adv-x="375" unicode="6" glyph-name="six" d="M1 604q0 82 38 140q43 66 123 66q47 0 104 -27q-4 -17 -9.5 -41.5t-12.5 -57.5q-6 -38 -12 -141h-2q-18 39 -26 53q-20 29 -47 29q-14 0 -24 -8t-16.5 -20.5t-9 -27.5t-1.5 -30q40 -51 79.5 -113t70.5 -121t50 -109t19 -76q0 -93 -66 -115q-15 -5 -63 -5h-148 q-9 0 -17.5 7t-15 18t-10.5 24.5t-4 26.5v528zM193 211q0 5 -8 23.5t-20.5 41t-27.5 44.5t-28 34h-1q-1 0 -1 -1h-1v-173q1 -3 11 -3h50q26 6 26 34z"/>
<glyph horiz-adv-x="453" unicode="7" glyph-name="seven" d="M426 800q0 -1 -1 -1t-1.5 -0.5t-1.5 -0.5q-40 -25 -51 -51q-18 -42 -39.5 -119.5t-46.5 -174t-54.5 -203.5t-63.5 -208q-2 -7 3.5 -14t14.5 -14q5 -4 9.5 -7t9.5 -7h-3h-198q-2 0 -3 1q34 13 55 53q2 3 13 39.5t27 91.5t35 121.5t37 130t33 116.5t23 81q-37 3 -60 1.5 t-41.5 -8t-37.5 -19t-48 -31.5q-11 -8 -20 -15t-15 -12l-1 4q37 93 37 152q0 24 -6 65q-5 16 -9 27q0 2 8 2h396z"/>
<glyph horiz-adv-x="408" unicode="8" glyph-name="eight" d="M192 800q50 0 74 -15q10 -7 20 -18t17.5 -24t12 -26.5t4.5 -25.5v-31q-1 -28 -23 -82q-9 -22 -20 -43.5t-24 -43.5q-6 -10 -12 -21t-13 -22v-4l45 -105q55 -119 55 -217q0 -52 -22 -84q-26 -38 -74 -38h-136q-48 0 -74 38q-22 32 -22 84q0 98 55 217l45 105v4 q-7 11 -13 22t-12 21q-13 22 -24 43.5t-20 43.5q-22 54 -23 82v31q0 12 4.5 25.5t12 26.5t17 24t20.5 18q24 15 74 15h56zM164 518q15 25 23.5 45t8.5 37q0 31 -24 31h-16q-24 0 -24 -31q0 -17 8.5 -37t23.5 -45zM168 166q44 0 44 36q0 15 -4.5 35.5t-12 42t-16 42 t-15.5 34.5q-8 -15 -16 -35.5t-15 -41.5t-11.5 -41t-5.5 -36q-2 -36 44 -36h8z"/>
<glyph horiz-adv-x="405" unicode="9" glyph-name="nine" d="M325 196q0 -82 -38 -140q-44 -66 -123 -66q-47 0 -104 27q4 17 9.5 41.5t12.5 57.5q6 37 12 141h2q18 -39 26 -53q20 -29 47 -29q14 0 24 8t16.5 20.5t9 27.5t1.5 30q-27 34 -53.5 73t-51 80t-45.5 81t-36.5 75.5t-24 63.5t-8.5 46q0 92 66 115q15 5 63 5h148 q9 0 17.5 -7t15 -18t10.5 -24.5t4 -26.5v-528zM133 589q0 -5 8 -23.5t20.5 -41t27.5 -44.5t28 -34h1l2 1v173q-2 3 -11 3h-50q-26 -6 -26 -34z"/>
<glyph horiz-adv-x="199" unicode=":" glyph-name="colon" d="M119 100q1 -55 -21 -83q-17 -20 -27 -21h-10q-28 -1 -47 33q-13 28 -14 61q-2 36 13 64q17 34 49 36q29 2 44 -32q5 -13 8.5 -27.5t4.5 -30.5zM118 493q4 -53 -19 -84q-15 -20 -26 -22h-10q-28 -1 -48 32q-14 27 -15 60q-1 17 1.5 34t9.5 31q18 36 49 37q29 2 44 -32 q13 -25 14 -56z"/>
<glyph horiz-adv-x="202" unicode=";" glyph-name="semicolon" d="M120 99q0 -58 -23 -102q-29 -56 -81 -56q-4 3 -4 4q0 3 23 23q24 20 30 40q-4 17 -8 21.5t-23 7.5q-34 21 -34 75q0 15 5 28.5t14 24.5t21 17.5t26 6.5q27 0 42 -33q12 -26 12 -57zM119 491q1 -53 -22 -83q-18 -21 -27 -21h-10q-29 -1 -46 34q-12 25 -14 60q-1 34 13 65 q19 33 51 35q29 0 42 -33q11 -24 13 -57z"/>
<glyph horiz-adv-x="409" unicode="&lt;" glyph-name="less" d="M0 378q5 22 12.5 47.5t5.5 35.5l319 85l2 -2q-1 2 -10 -40q-9 -45 -5 -63l-237 -63l237 -63q-4 -18 5 -63q9 -42 10 -40l-2 -2l-319 85q2 10 -5.5 35.5t-12.5 47.5z"/>
<glyph unicode="=" glyph-name="equal" d="M372 435q0 -2 -1 -3h-330q-1 19 -21 58q-20 42 -20 37q0 2 1 3h330q1 -18 21 -59q20 -40 20 -36zM372 275q0 -2 -1 -3h-330q-1 19 -21 58q-20 42 -20 37q0 2 1 3h330q1 -18 21 -59q20 -40 20 -36z"/>
<glyph horiz-adv-x="401" unicode="&gt;" glyph-name="greater" d="M339 378q-5 -22 -12.5 -47.5t-5.5 -35.5l-319 -85l-2 2q1 -2 10 40q9 45 5 63l237 63l-237 63q4 18 -5 63q-9 42 -10 40l2 2l319 -85q-2 -10 5.5 -35.5t12.5 -47.5z"/>
<glyph horiz-adv-x="376" unicode="?" glyph-name="question" d="M204 101q3 -53 -19 -83q-16 -21 -26 -22h-10q-30 -1 -48 32q-13 24 -16 60q-2 37 11 65q18 36 49 37q29 2 44 -31q12 -25 15 -58zM296 660q0 -48 -35 -135q-50 -119 -54 -135q-17 -59 -17 -91q0 -27 4 -49t4 -21q0 -4 -26 -4h-40q-14 1 -24 1h-17q-9 0 -9 21q0 98 40 171 q10 17 20 33.5t21 33.5q24 42 24 71q0 68 -52 68q-40 0 -88 -85v23v45q0 14 -4 31t-10.5 34.5t-15 33.5t-17.5 28q8 18 51 40q39 20 62 26q13 4 46 4q61 0 99 -41t38 -103z"/>
<glyph horiz-adv-x="770" unicode="@" glyph-name="at" d="M416 385l-1 3q-9 2 -23 -8t-27.5 -24.5t-23.5 -28t-10 -18.5q0 -29 26 -35q2 -1 14 -1h34h11v112zM478 9q-27 -9 -56.5 -14t-61.5 -5q-85 0 -151.5 32.5t-113 88t-71 130t-24.5 159.5t24.5 159.5t71 130t113 88t151.5 32.5t151.5 -32.5t113 -88t71 -130t24.5 -159.5 q0 -49 -12.5 -88.5t-32 -70.5t-43.5 -53t-47.5 -36.5t-44.5 -21.5t-33 -7h-188q-17 0 -35 8.5t-33 22.5t-24.5 32t-9.5 38q0 33 8.5 58.5t26.5 51t44.5 55t62.5 68.5l30 30t22 21v20q0 9 -15.5 18.5t-41.5 9.5q-19 0 -42 -20t-47 -62q-2 -4 -5.5 -9.5t-8.5 -13.5 q-1 -1 -2 -1l-1 -1q-1 1 -1 3q0 8 1 20t3 28t3 28.5t1 20.5q0 50 -26 122q3 8 15 16.5t30.5 15.5t41.5 11.5t49 4.5q35 0 67.5 -18.5t46.5 -44.5q14 -23 22.5 -51t8.5 -62l-3 -359q43 13 76 41q14 12 28 28t25 37.5t17.5 48.5t6.5 61q0 72 -19.5 136t-58 111.5t-94.5 75 t-128 27.5t-128 -27.5t-94.5 -75t-58 -111.5t-19.5 -136t19.5 -136t58 -111.5t94.5 -75t128 -27.5q55 0 103 17z"/>
<glyph horiz-adv-x="555" unicode="A" glyph-name="A" d="M432 800q8 0 7 -4q-26 -11 -34 -25.5t-8 -44.5q0 -2 0.5 -6.5t4 -23.5t9.5 -59t16.5 -112.5t27 -183.5t39.5 -273q5 -36 13 -44l23 -23q-2 -1 -4 -1h-1h-159h-9l-1 2l2 3q32 11 32 46q0 -8 -2 9t-5.5 40.5t-7.5 44.5t-8 21h-106q-4 0 -8 -21t-7.5 -44.5t-5.5 -40.5t-2 -9 q0 -35 32 -46l2 -3l-1 -2h-9h-159h-1q-3 0 -4 1l23 23q8 8 13 44q23 162 39.5 273t27 183.5t16.5 112.5t9.5 59t4 23.5t0.5 6.5q0 30 -8 44.5t-34 25.5q-1 4 7 4h236zM347 327q-1 30 -4 57.5t-7 56t-9.5 59.5t-12.5 69q-7 -38 -12.5 -69t-9.5 -59.5t-7 -56t-4 -57.5h66z"/>
<glyph horiz-adv-x="452" unicode="B" glyph-name="B" d="M256 202q0 22 -8.5 43.5t-16.5 42.5q-4 11 -10 28t-14 40q-4 2 -6 2q-1 0 -7 -3q-7 -5 -13 -11t-13 -11q-20 -17 -20 -22v-145h64q44 0 44 36zM240 600q0 31 -24 31h-68v-184h6q15 14 29 31.5t27 39.5q30 49 30 82zM372 122q0 -52 -22 -84q-26 -38 -74 -38h-275l-1 1 q7 4 15 8.5t19 11.5q18 13 18 37v666q0 32 -11 46q-4 6 -39 26l-2 1v2q3 1 12 1h224q50 0 74 -15q10 -7 20 -18t17.5 -24t12 -26.5t4.5 -25.5v-31q-1 -28 -23 -82q-9 -22 -20 -43.5t-24 -43.5q-6 -10 -12 -21t-13 -22v-1v-3l45 -105q55 -119 55 -217z"/>
<glyph horiz-adv-x="351" unicode="C" glyph-name="C" d="M271 42q-3 -9 -14.5 -18t-29 -16.5t-39 -12.5t-45.5 -5q-15 0 -32 5.5t-32.5 15t-28.5 21.5t-21 26q-29 50 -29 123v423q0 82 38 140q43 66 123 66q47 0 104 -27q-4 -17 -9.5 -41.5t-12.5 -57.5q-6 -38 -12 -141h-2q-18 39 -26 53q-20 29 -47 29q-22 0 -38 -25 q-13 -19 -13 -60v-310q0 -20 8 -41q11 -23 30 -22h7q30 2 82 89q3 7 15 25l1 1q1 0 2 1q1 -1 1 -3q0 -8 -1 -21.5t-3 -30.5t-3 -30.5t-1 -22.5q0 -58 28 -133z"/>
<glyph horiz-adv-x="546" unicode="D" glyph-name="D" d="M346 800q2 0 2 -2q-11 -13 -17 -20t-7 -8q-7 -10 -7 -38v-4l88 -505q3 -17 6 -28.5t5 -19.5q23 0 59 17q-3 -24 -6 -35q-3 -36 -3 -94q0 -29 1 -52t3 -40q4 -26 6 -46t4 -34q-34 62 -64 86q-29 23 -88 23h-176q-59 0 -88 -23q-30 -24 -64 -86q2 14 4 34t6 46q2 17 3 40 t1 52q0 58 -3 94q-3 11 -6 35q36 -17 59 -17q2 8 5 19.5t6 28.5l88 505v4q0 28 -7 38q-1 1 -7 8t-17 20q0 2 2 2h212zM312 176l-70 381h-4l-70 -381h144z"/>
<glyph horiz-adv-x="429" unicode="E" glyph-name="E" d="M377 1q-1 -1 -5 -1h-367q-2 0 -4 2q7 4 24 17q15 16 15 44v689q0 30 -39 45l-1 2q1 1 4 1h328q5 0 5 -2l-6 -28q-9 -47 -9 -70q0 -54 26 -127q2 -6 2 -9q-2 -2 -2 -1q-29 36 -73 54q-33 13 -63 14h-69q-5 0 -5 -6v-140h118q5 -23 15 -47t26 -48l-1 -3h-155q-3 0 -3 -4 v-213q0 -7 22 -7h76q63 6 101 71q1 4 4 4q1 -1 1 -5q0 -6 -1 -15.5t-3 -22.5q-3 -26 -3 -39q0 -92 42 -155z"/>
<glyph horiz-adv-x="594" unicode="F" glyph-name="F" d="M311 255q20 -29 47 -29q22 0 38 25q13 19 13 60v183q0 41 -13 60q-16 25 -38 25q-27 0 -47 -29v-295zM203 550q-20 29 -47 29q-22 0 -38 -25q-13 -19 -13 -60v-183q0 -41 13 -60q16 -25 38 -25q27 0 47 29v295zM170 0q-3 0 -5 2q5 5 11 9t11 8q4 3 7 10t5 15t3 16t1 14 q-5 -8 -14.5 -15.5t-27.5 -7.5q-80 0 -123 66q-38 58 -38 140v291q0 82 38 140q43 66 123 66q12 0 24 -7.5t18 -21.5q0 11 -4 29t-12 25q-5 5 -11 9.5t-11 9.5q2 2 3 2h178q1 0 3 -2q-5 -5 -11 -9.5t-11 -9.5q-8 -7 -12 -25t-4 -29q6 14 18 21.5t24 7.5q79 0 123 -66 q38 -58 38 -140v-291q0 -82 -38 -140q-44 -66 -123 -66q-18 0 -27.5 7.5t-14.5 15.5q0 -6 1 -14t3 -16t5 -15t7 -10q5 -4 11 -8t11 -9q-2 -2 -5 -2h-174z"/>
<glyph horiz-adv-x="375" unicode="G" glyph-name="G" d="M1 604q0 82 38 140q43 66 123 66q47 0 104 -27q-4 -17 -9.5 -41.5t-12.5 -57.5q-6 -38 -12 -141h-2q-18 39 -26 53q-20 29 -47 29q-14 0 -24 -8t-16.5 -20.5t-9 -27.5t-1.5 -30q40 -51 79.5 -113t70.5 -121t50 -109t19 -76q0 -93 -66 -115q-15 -5 -63 -5h-148 q-9 0 -17.5 7t-15 18t-10.5 24.5t-4 26.5v528zM193 211q0 5 -8 23.5t-20.5 41t-27.5 44.5t-28 34h-1q-1 0 -1 -1h-1v-173q1 -3 11 -3h50q26 6 26 34z"/>
<glyph horiz-adv-x="449" unicode="H" glyph-name="H" d="M409 799q-2 -3 -23 -19q-17 -12 -17 -32v-714q0 -8 19 -20q20 -11 20 -12l-1 -2h-184v2l6 3q1 1 4 3t10 6q22 15 22 41v382h-121v-398q0 -11 17 -25q5 -3 9.5 -6t9.5 -6l-2 -2h-176l-1 1q10 7 30 27q11 20 11 47l-1 665q0 27 -20 44l-21 16h178q2 0 3 -1q-5 -5 -10.5 -9 t-10.5 -8q-16 -13 -16 -38v-112h121v112q0 26 -19 39q-5 4 -11 8l-12 8l2 1h181q2 0 3 -1z"/>
<glyph horiz-adv-x="226" unicode="I" glyph-name="I" d="M184 2q-2 -2 -5 -2h-177l-2 2l4 4l4 4q21 16 27 27q8 14 8 37v651q0 29 -11 43q-8 8 -16 15t-16 15q0 2 3 2h178q1 0 3 -2q-5 -5 -11 -9.5t-11 -9.5q-16 -13 -16 -34v-691q0 -22 16 -35q5 -4 11 -8t11 -9z"/>
<glyph horiz-adv-x="396" unicode="J" glyph-name="J" d="M151 173q29 0 45 18.5t16 44.5v387q-2 2 -14 2q-66 0 -86 -7q-19 -5 -76 -41q-11 -8 -20 -15t-15 -12l-1 4q37 93 37 152q0 24 -6 65q-5 16 -9 27q0 2 8 2h320q3 0 5 -3q-5 -4 -9.5 -6.5t-7.5 -4.5q-22 -16 -22 -58v-541q0 -73 -29 -123q-8 -14 -21 -26t-29.5 -21.5 t-35.5 -15t-38 -5.5q-28 0 -53 5t-45 12.5t-33.5 16.5t-16.5 18q28 75 28 133q0 9 -1 22.5t-3 30.5t-3 30.5t-1 21.5q0 2 1 3l1 -1q1 0 2 -1q12 -18 15 -25q26 -45 51.5 -67t45.5 -22z"/>
<glyph horiz-adv-x="467" unicode="K" glyph-name="K" d="M425 0h-198q-2 0 -4 1l27 30q9 13 9 42q0 90 -25 164q-39 119 -84 170q-10 -1 -10 -6v-345q0 -22 9 -32q5 -6 28 -19l2 -3l-2 -2h-177v2q0 1 6 3q35 14 35 58v690q0 20 -38 43l-2 3l3 1h171q2 0 4 -2l-17 -14q-16 -13 -16 -28l1 -252l2 -1q25 1 43 21q26 29 34 80 q2 22 5 43.5t5 43.5q24 113 126 113q48 0 48 -10q0 1 -1.5 -6.5t-3.5 -24.5q-8 -46 -8 -73q0 -36 6 -69q2 -7 3.5 -17t3.5 -24q-4 4 -9 9.5t-13 12.5q-29 26 -51 26t-33 -38q-4 -14 -7 -28l-6 -28q-10 -34 -23 -50q-13 -14 -43 -33v-3q92 -115 130 -229q2 -5 10 -43t22 -108 q10 -54 38 -63q1 0 3 -2z"/>
<glyph horiz-adv-x="388" unicode="L" glyph-name="L" d="M357 251q-6 -5 -15 -12t-20 -15q-57 -36 -76 -41q-20 -7 -86 -7q-12 0 -14 2v566q0 22 16 37q5 5 11 9t11 9q-2 2 -6 2h-176q-2 0 -2 -2l22 -22t10 -12q10 -16 10 -46v-646q0 -42 -22 -58q-3 -2 -7.5 -4.5t-9.5 -6.5q1 -3 5 -3h320q8 0 8 2q-5 11 -9 27q-6 41 -6 65 q0 59 37 152z"/>
<glyph horiz-adv-x="655" unicode="M" glyph-name="M" d="M647 0h-182q-6 0 -6 2q13 9 26.5 19.5t13.5 24.5v552l-128 -148l-126 148v-530q0 -46 40 -65v-2q-1 -1 -4 -1q-186 0 -187 1q6 4 12 7.5t11 7.5q22 16 22 32v673q0 41 -22 60q-6 5 -12 9l-12 8l1 2h218l59 -83l60 83l218 -1q-6 -5 -12 -9.5t-12 -9.5q-22 -19 -22 -61 l1 -650q0 -29 6 -39q8 -9 35 -25q2 -1 2.5 -2t1.5 -2z"/>
<glyph horiz-adv-x="424" unicode="N" glyph-name="N" d="M27 798q6 -5 12 -9t11 -9q14 -12 14 -23v-708q0 -22 -36 -47q2 -2 4 -2h164v2q-14 9 -24 16.5t-10 27.5v437q4 -4 26 -33t60 -85q25 -37 25 -46v-14v-1v-1v-1v-258q0 -15 -36 -40q-1 -4 4 -4h165q1 0 2 1q-3 3 -9.5 8t-13 11t-11 12t-4.5 12v714q0 10 19 23q18 13 18 18 l-2 1h-164h-3v-1l-1 -1q1 -1 19 -18q17 -14 17 -20v-176q0 -10 -3 -11q-19 26 -46 66t-62 94v27q0 9 33 39l-2 1h-162z"/>
<glyph horiz-adv-x="382" unicode="O" glyph-name="O" d="M204 533q0 88 -48 88q-26 0 -41.5 -19t-15.5 -46v-311q0 -26 11 -50q13 -28 37 -28q57 0 57 76v290zM302 165q0 -45 -12 -76q-18 -46 -55.5 -73t-85.5 -27q-31 0 -55 8q-47 16 -72 69q-21 45 -21 102v447q0 81 38 134q43 61 122 61q36 0 76 -29q36 -28 50.5 -65 t14.5 -101v-450v0z"/>
<glyph horiz-adv-x="405" unicode="P" glyph-name="P" d="M226 575q0 37 -35 37h-44v-175q0 -5 6 -5q4 0 12 5q59 47 60 118l1 20v0zM355 649q0 -137 -99 -237q-18 -17 -37.5 -33.5t-41.5 -32.5q-10 -6 -20 -13t-10 -16v-271q0 -27 40 -45q-1 -1 -5 -1h-177q-2 0 -5 1q2 3 22 20q19 16 19 25v678q0 51 -41 74l1 1q1 1 5 1h193 q88 0 122 -32q34 -31 34 -119z"/>
<glyph horiz-adv-x="447" unicode="Q" glyph-name="Q" d="M263 -43q0 -22 16 -37q5 -5 11 -9t11 -9q-2 -2 -6 -2h-176q-4 0 -6 2q5 5 11 9t11 9q16 15 16 37v43h-148q-2 0 -3 1q54 31 54 62v692q0 14 -17 25q-24 18 -25 19q3 1 5 1h168h1l2 -2q-30 -15 -30 -47v-566h105v573q0 12 -12 22t-23 19l6 1h-4h79h59h28l1 -1 q-30 -17 -30 -51v-661q0 -32 11 -49q4 -8 34 -37q-1 -1 -2 -1h-147v-43zM263 -43q0 -22 16 -37q5 -5 11 -9t11 -9q-2 -2 -6 -2h-176q-4 0 -6 2q5 5 11 9t11 9q16 15 16 37v43h-148q-2 0 -3 1q54 31 54 62v692q0 14 -17 25q-24 18 -25 19q3 1 5 1h168h1l2 -2q-30 -15 -30 -47 v-566h105v573q0 12 -12 22t-23 19l6 1h-4h79h59h28l1 -1q-30 -17 -30 -51v-661q0 -32 11 -49q4 -8 34 -37q-1 -1 -2 -1h-147v-43z"/>
<glyph horiz-adv-x="434" unicode="R" glyph-name="R" d="M139 637h11q49 0 53 -1q28 -6 28 -38q0 -21 -37 -80t-54 -60l-2 3zM12 798q28 -22 28 -39v-725q0 -7 -27 -32q0 -1 1 -2h162q1 0 1 2q0 -1 -16 14q-17 15 -17 27v284q20 18 56 56q2 0 3 1q3 0 6 -7q42 -92 42 -266q0 -39 -3 -58q-1 -2 -2 -8.5t-3 -17.5q-5 -23 -5 -24v-1 q0 -1 1 -1v-1h149q4 0 6 1q-5 4 -10.5 8.5t-12.5 9.5q-9 7 -10 28v55q0 133 -39 237q-13 38 -32 71q-4 7 -9.5 16.5t-12.5 22.5q-3 7 -3 9q1 0 1 2q19 23 34 50.5t28 58.5q27 67 27 121q0 21 -17 50q-36 60 -94 60h-231l-1 -2v0z"/>
<glyph horiz-adv-x="441" unicode="S" glyph-name="S" d="M158 649q-26 -6 -26 -34q4 -24 24.5 -57.5t46.5 -73.5q165 -249 165 -364q0 -93 -66 -115q-15 -5 -63 -5h-73q-52 0 -89 37q-32 32 -49 86q-2 8 -5 20.5t-5 29.5q-3 25 -18 36q14 5 32 13t40 19q30 19 58 45v-9q-1 -43 11.5 -71.5t38.5 -28.5h30q26 6 26 34q0 3 -10 22 t-26.5 47t-37 62t-42 68.5t-41.5 65.5t-35 53q-17 26 -30.5 68t-13.5 109q0 92 66 115q15 5 63 5h73q52 0 89 -37q32 -32 49 -86q2 -8 5 -20.5t5 -29.5q3 -26 18 -36q-14 -5 -32 -13t-40 -19q-30 -19 -58 -45v9q1 43 -11.5 71.5t-38.5 28.5h-30z"/>
<glyph horiz-adv-x="426" unicode="T" glyph-name="T" d="M355 532l-1 1q-41 57 -51 67q-35 35 -72 34h-4v-585q0 -28 39 -46q1 -3 -4 -3h-178q-1 0 -2 1q0 1 1 2q17 4 30.5 16.5t13.5 29.5v585h-6q-3 0 -21 -8q-46 -23 -83 -72q-5 -9 -17 -22q27 109 27 143q0 61 -13 125h7h315q-1 -16 -1.5 -39t-0.5 -54t5.5 -74.5t16.5 -100.5 h-1z"/>
<glyph horiz-adv-x="447" unicode="U" glyph-name="U" d="M418 1q2 0 3 1q-54 32 -54 62v688q0 32 30 47l-2 2h-159h-1l-2 -2q30 -15 30 -47v-566h-105v566q0 32 30 47l-2 2h-1h-159l-2 -2q30 -15 30 -47v-688q0 -30 -54 -62q1 -1 3 -1h415z"/>
<glyph horiz-adv-x="488" unicode="V" glyph-name="V" d="M340 2v2q-4 4 -8 7t-8 5q-28 28 -28 62v33q0 3 2 16t6 36l75 412q13 70 20 109.5t9 49.5q13 56 42 61q6 3 6 4q0 3 -4 3h-171q-3 0 -3 -2q26 -18 26 -44v-4l-74 -426h-4l-74 426v4q0 26 26 44q0 2 -3 2h-171q-4 0 -4 -3q0 -1 6 -4q29 -5 42 -61q2 -10 9 -49.5t20 -109.5 l75 -412q4 -23 6 -36t2 -16v-33q0 -34 -28 -62q-4 -2 -8 -5t-8 -7v-2h116h108z"/>
<glyph horiz-adv-x="655" unicode="W" glyph-name="W" d="M647 801h-182q-6 0 -6 -2q13 -9 26.5 -19.5t13.5 -24.5v-552l-128 148l-126 -148v530q0 46 40 65v2q-1 1 -4 1q-186 0 -187 -1q6 -4 12 -7.5t11 -7.5q22 -16 22 -32v-673q0 -41 -22 -60q-6 -5 -12 -9l-12 -8l1 -2h218l59 83l60 -83l218 1q-6 5 -12 9.5t-12 9.5 q-22 19 -22 61l1 650q0 29 6 39q8 9 35 25q2 1 2.5 2t1.5 2z"/>
<glyph horiz-adv-x="491" unicode="X" glyph-name="X" d="M471 1v-1l-149 1q-52 0 -54 -1h1l-3 1q8 5 13.5 9.5t9.5 7.5q14 14 14 24q-19 61 -35.5 113.5t-31.5 98.5h-2q-5 -13 -14 -40.5t-23 -69.5q-30 -92 -30 -102q0 -15 18 -28q5 -4 9.5 -7t9.5 -7h-3h-198q-2 0 -3 1q34 13 55 53q10 19 28 74l96 288v7q0 -3 -59 185 q-4 13 -9 31.5t-13 43.5q-2 8 -6.5 19t-9.5 26q-10 30 -24 44q-14 13 -42 27q1 1 6 1l188 -1q-1 -1 -3 -2.5t-4 -3.5q-20 -18 -15 -30l46 -152l5 -12q8 17 33 86q24 69 24 80q0 19 -27 34l2 1h20l165 -1q0 -1 -1 -1t-1.5 -0.5t-1.5 -0.5q-40 -25 -51 -50q-19 -45 -73 -218 q-33 -108 -33 -102q0 -5 42 -137q11 -40 29.5 -99.5t44.5 -139.5q9 -26 58 -48q2 0 4 -2h-2z"/>
<glyph horiz-adv-x="460" unicode="Y" glyph-name="Y" d="M429 798q0 6 -19 -28q-21 -39 -32 -193q-3 -115 -18 -343q-14 -118 -38 -161q-39 -73 -137 -73h-91q-9 125 -60 218l1 2q77 -50 119 -50q63 0 88 67q7 19 9 32q-52 -1 -106 46q-51 45 -62 101q-17 84 -21 162q-8 111 -9 118q-12 65 -53 103l1 1h190l1 -2 q-27 -93 -27 -146q0 -20 6 -80q6 -54 25 -77q22 -30 73 -30q4 0 6 2q1 8 2 27.5t2.5 44.5t3 52t2.5 47.5t2 31.5t1 6q0 90 -39 122v1q1 1 5 1h173q2 0 2 -2z"/>
<glyph horiz-adv-x="401" unicode="Z" glyph-name="Z" d="M321 557q0 -72 -54 -109q7 -6 16 -15.5t21 -23.5q17 -26 17 -74v-147q0 -96 -48 -154q-36 -44 -107 -44q-52 0 -89 37q-32 32 -49 86q-2 8 -5 20.5t-5 29.5q-3 25 -18 36q14 5 32 13t40 19q30 19 58 45v-9q-2 -86 50 -86q43 0 43 110q0 23 -1.5 42t-4.5 27q-11 33 -48 33 q-79 0 -81 1q14 29 22.5 53t12.5 44h38q62 0 62 76q0 69 -59 69q-49 0 -101 -50q9 48 9 106q0 75 -28 106q2 2 6 2h178q45 0 71 -38q22 -34 22 -81v-124z"/>
<glyph horiz-adv-x="261" unicode="[" glyph-name="bracketleft" d="M0 -65v930h182l-1 -35l-81 -30v-800l81 -31l1 -35z"/>
<glyph horiz-adv-x="398" unicode="\" glyph-name="backslash" d="M1 810q-1 0 9 -2.5t31 -7.5q46 -8 63 -5l214 -800q-1 -1 -3 -1q2 0 -8 2.5t-33 6.5q-42 9 -61 6l-214 800z"/>
<glyph horiz-adv-x="261" unicode="]" glyph-name="bracketright" d="M0 -66l1 35l81 31v800l-81 30l-1 35h182v-930z"/>
<glyph horiz-adv-x="417" unicode="^" glyph-name="asciicircum" d="M169 817q22 -5 47.5 -12.5t35.5 -5.5l85 -269l-2 -2q2 1 -40 10q-45 9 -63 5l-63 187l-63 -187q-18 4 -63 -5q-42 -9 -40 -10l-2 2l85 269q10 -2 35.5 5.5t47.5 12.5z"/>
<glyph unicode="_" glyph-name="underscore" d="M372 3q0 -2 -1 -3h-330q-1 19 -21 58q-20 42 -20 37q0 2 1 3h330q1 -18 21 -59q20 -40 20 -36z"/>
<glyph horiz-adv-x="200" unicode="`" glyph-name="grave" d="M0 731q0 15 5 28.5t14 24.5t21 17.5t26 6.5q28 0 42 -33q12 -26 12 -57q0 -58 -23 -102q-29 -56 -81 -56q-2 1 -2.5 2t-1.5 2q0 2 24 22q23 20 29 41q-4 17 -8 21.5t-23 7.5q-34 21 -34 75z"/>
<glyph horiz-adv-x="369" unicode="a" glyph-name="a" d="M142 334l30 30t22 21v40q0 24 -15.5 41t-41.5 17q-19 0 -42 -20t-47 -62q-2 -4 -5.5 -9.5t-8.5 -13.5q-1 -1 -2 -1l-1 -1q-1 1 -1 3q0 8 1 20t3 28t3 28.5t1 20.5q0 50 -26 122q3 8 15 16.5t30.5 15.5t41.5 11.5t49 4.5q35 0 67.5 -18.5t46.5 -44.5q27 -45 27 -113 l1 -432q0 -15 25 -36l-1 -2h-212q-17 0 -35 8.5t-33 22.5t-24.5 32t-9.5 38q0 33 8.5 58.5t26.5 51t44.5 55t62.5 68.5zM199 262l-1 3q-9 2 -23 -8t-27.5 -24.5t-23.5 -28t-10 -18.5q0 -29 26 -35q2 -1 14 -1h34h11v112z"/>
<glyph horiz-adv-x="376" unicode="b" glyph-name="b" d="M208 208q0 -34 -32 -34h-41v271q0 5 6 5q3 0 11 -5q27 -22 40.5 -83t15.5 -154zM326 140q0 147 -44.5 243.5t-118.5 145.5q-9 5 -18.5 11.5t-9.5 14.5v210q0 25 37 41q-1 1 -5 1h-163h-1q-2 0 -3 -1q2 -3 20 -18t18 -23v-694q0 -47 -38 -68l1 -1q1 -1 4 -1h178 q81 0 112 29q31 30 31 110z"/>
<glyph horiz-adv-x="329" unicode="c" glyph-name="c" d="M249 38q-3 -8 -13.5 -16.5t-26.5 -15.5t-36 -11.5t-42 -4.5q-29 0 -59.5 19t-45.5 44q-26 46 -26 113v290q0 76 35 129q40 61 113 61q40 0 95 -25q-3 -15 -8.5 -38t-11.5 -53q-2 -17 -5 -49.5t-6 -80.5h-2q-16 36 -24 49q-18 26 -43 26q-21 0 -35 -23q-12 -17 -12 -55 v-186q0 -19 8 -38q10 -21 27 -20h7q27 2 75 82q5 10 14 23l1 1q1 0 2 1q1 -1 1 -3q0 -8 -1 -20t-3 -28t-3 -28t-1 -20q0 -55 26 -123z"/>
<glyph horiz-adv-x="376" unicode="d" glyph-name="d" d="M118 208q0 -34 32 -34h41v271q0 5 -6 5q-3 0 -11 -5q-27 -22 -40.5 -83t-15.5 -154zM0 140q0 147 44.5 243.5t118.5 145.5q9 5 18.5 11.5t9.5 14.5v210q0 25 -37 41q1 1 5 1h163h1q2 0 3 -1q-2 -3 -20 -18t-18 -23v-694q0 -47 38 -68l-1 -1q-1 -1 -4 -1h-178 q-81 0 -112 29q-31 30 -31 110z"/>
<glyph horiz-adv-x="320" unicode="e" glyph-name="e" d="M265 38q-8 -15 -40 -31q-17 -8 -39 -12.5t-51 -4.5q-14 0 -29.5 5t-30 14t-26.5 20.5t-19 23.5q-14 26 -22 54t-8 59v321q0 6 1 15t3 20q12 79 71 112q22 11 51 11q68 0 121 -42q-4 -10 -5 -24t-1 -33q0 -27 3.5 -69.5t20.5 -93.5l-2 1q-10 10 -23.5 25.5t-29.5 29 t-33 23.5t-33 10q-19 0 -30.5 -9t-17.5 -23t-7.5 -31t-1.5 -33h122q2 -22 7.5 -35.5t16.5 -28.5q2 -3 5.5 -7t7.5 -9h-159v-85q0 -22 12 -40.5t34 -18.5q28 0 72 54q21 26 31.5 34.5t9.5 8.5q1 0 1 -2q0 -8 -1 -15t-3 -23q-3 -32 -3 -48q0 -54 25 -123z"/>
<glyph horiz-adv-x="553" unicode="f" glyph-name="f" d="M286 -102q0 -11 3 -27.5t11 -23.5q5 -3 10.5 -7t10.5 -8q-2 -2 -5 -2h-160q-3 0 -5 2q5 4 10.5 8t10.5 7q8 7 11 23.5t3 27.5v75v48q-4 -8 -12.5 -14.5t-25.5 -6.5q-74 0 -113 61q-35 53 -35 128v257q0 76 35 129q40 61 113 61q11 0 22 -7t16 -20v121q0 10 -3 26.5 t-11 23.5q-5 5 -10.5 9t-10.5 8q2 2 3 2h164q1 0 3 -2q-5 -4 -10.5 -8t-10.5 -9q-8 -7 -11 -23.5t-3 -26.5v-121q5 13 16 20t22 7q73 0 114 -61q35 -53 35 -129v-257q0 -75 -35 -128q-40 -61 -114 -61q-8 0 -15 5t-12 10t-8 7.5t-3 -1.5v-123zM286 187q18 -27 43 -27 q21 0 35 23q12 18 12 55v159q0 38 -12 55q-14 23 -35 23q-25 0 -43 -26v-262zM186 449q-18 26 -43 26q-21 0 -35 -23q-12 -17 -12 -55v-159q0 -37 12 -55q14 -23 35 -23q25 0 43 27v262z"/>
<glyph horiz-adv-x="364" unicode="g" glyph-name="g" d="M325 33q0 -82 -38 -140q-44 -66 -123 -66q-47 0 -104 27q4 17 9.5 41.5t12.5 57.5q6 37 12 141h2q18 -39 26 -53q20 -29 47 -29q14 0 24 8t16.5 20.5t9 27.5t1.5 30q-27 34 -53.5 73t-51 80t-45.5 81t-36.5 75.5t-24 63.5t-8.5 46q0 92 66 115q15 5 63 5h148q9 0 17.5 -7 t15 -18t10.5 -24.5t4 -26.5v-528zM133 426q0 -5 8 -23.5t20.5 -41t27.5 -44.5t28 -34h1l2 1v173q-2 3 -11 3h-50q-26 -6 -26 -34z"/>
<glyph horiz-adv-x="402" unicode="h" glyph-name="h" d="M10 1q2 2 5 4q30 22 30 47v546q0 13 -17 25q-4 3 -7.5 5t-5.5 4q-3 2 -4 3v1h163l1 -1q-5 -3 -10 -5.5t-8 -4.5q-4 -2 -6 -4q-9 -7 -9 -25v-202q43 -2 82 -13q33 -11 62 -40q32 -31 38 -63q10 -40 10 -69v-152q0 -35 33 -56l-1 -1h-162v2q6 3 12 9.5t11 15t8 17.5t3 16 v76q0 79 -89 79q-5 0 -8 -3v-154q0 -22 17 -41l16 -16l-1 -1h-158q-4 0 -5 1z"/>
<glyph horiz-adv-x="226" unicode="i" glyph-name="i" d="M160 753q0 -23 -21 -36t-45 -13q-23 0 -44 13t-21 36t21 36t44 13q24 0 45 -13t21 -36zM177 2q-2 -2 -5 -2h-163l-2 2q2 2 4 3.5t4 3.5q10 8 16 14t9 11q7 14 7 34v499q0 25 -10 40l-30 27q0 2 3 2h164q1 0 3 -2q-5 -4 -10.5 -8t-10.5 -9q-14 -13 -14 -32v-535 q0 -20 14 -33q5 -3 10.5 -7t10.5 -8z"/>
<glyph horiz-adv-x="371" unicode="j" glyph-name="j" d="M139 -11q26 0 41 17t15 41v426q-2 2 -12 2q-61 0 -80 -6q-9 -3 -26.5 -12.5t-43.5 -25.5q-10 -8 -18 -14t-14 -11l-1 4q34 86 34 140q0 11 -1 25.5t-4 33.5q-2 8 -4 14t-4 11q0 2 7 2h294q3 0 5 -3q-5 -3 -9 -5.5t-7 -4.5q-20 -15 -20 -53v-568q0 -68 -27 -113 q-14 -25 -46.5 -44t-67.5 -19q-26 0 -49 4.5t-41.5 11.5t-30.5 15.5t-15 16.5q26 68 26 123q0 8 -1 20t-3 28t-2.5 28t-0.5 20v3l1 -1q1 0 2 -1q9 -13 14 -23q49 -82 89 -82z"/>
<glyph unicode="k" glyph-name="k" d="M391 0h-182q-2 0 -4 1l25 28q8 13 8 38t-8 57t-21.5 64.5t-31.5 62.5t-39 53q-10 0 -10 -5v-247q0 -20 9 -30q5 -5 26 -17l1 -3l-1 -2h-163v2q0 1 5 3q32 12 32 53v535q0 19 -35 39l-1 3l2 1h158q1 0 3 -2l-15 -13q-15 -12 -15 -25l1 -202l2 -1q34 5 49.5 17t21.5 46 q2 20 4.5 40t4.5 40q11 52 39.5 79.5t76.5 27.5q44 0 44 -13q0 1 -1.5 -6t-3.5 -22q-3 -20 -5 -37t-2 -30q0 -17 1.5 -32.5t3.5 -31.5q2 -6 3.5 -15t3.5 -22q-4 3 -8.5 8.5t-11.5 11.5q-14 11 -25 17.5t-22 6.5q-20 0 -31 -35q-5 -20 -9 -34.5t-11.5 -26t-19.5 -20.5 t-32 -17v-3q39 -53 63.5 -88t39.5 -63.5t25 -57.5t21 -70q7 -25 14.5 -39.5t20.5 -18.5q2 0 2 -2z"/>
<glyph horiz-adv-x="226" unicode="l" glyph-name="l" d="M177 2q-2 -2 -5 -2h-163l-2 2q2 2 4 3.5t4 3.5q10 8 16 14t9 11q7 14 7 34v499q0 25 -10 40l-30 27q0 2 3 2h164q1 0 3 -2q-5 -4 -10.5 -8t-10.5 -9q-14 -13 -14 -32v-535q0 -20 14 -33q5 -3 10.5 -7t10.5 -8z"/>
<glyph horiz-adv-x="549" unicode="m" glyph-name="m" d="M509 0h-167q-6 0 -6 2q12 8 24.5 17.5t12.5 22.5v408l-118 -136l-116 136v-387q0 -42 37 -60v-2q-1 -1 -2 -1h-1h-173q6 4 11.5 7.5t10.5 7.5q20 15 20 29v519q0 38 -20 56q-6 4 -11.5 8t-10.5 7v2h201l54 -76l56 76l200 -1q-5 -5 -11 -9t-11 -8q-11 -9 -15 -23.5 t-4 -33.5v-498q0 -25 5 -35q7 -8 32 -23q2 -1 2.5 -2t1.5 -2z"/>
<glyph horiz-adv-x="418" unicode="n" glyph-name="n" d="M381 635q-26 -14 -34.5 -29t-8.5 -29v-529q0 -32 28 -47l-1 -1h-153h4l-6 1q11 8 21.5 17.5t10.5 20.5v427h-96v-421q0 -30 27 -43l-1 -2h-1h-155q-2 0 -5 1q1 2 7 5.5t16 11.5q16 10 16 23v537q0 29 -50 57q1 1 3 1h377z"/>
<glyph horiz-adv-x="357" unicode="o" glyph-name="o" d="M187 391q0 81 -44 81q-25 0 -39 -17.5t-14 -42.5v-186q0 -23 10 -46q13 -26 34 -26q53 0 53 70v167zM277 152q0 -39 -11 -70q-17 -42 -51 -67t-79 -25q-29 0 -50 8q-43 15 -67 63q-19 44 -19 94v311q0 74 35 124q41 56 112 56q32 0 70 -27q33 -26 46.5 -60t13.5 -93v-314 v0z"/>
<glyph horiz-adv-x="376" unicode="p" glyph-name="p" d="M208 429q0 34 -32 34h-41v-271q0 -5 6 -5q3 0 11 5q27 22 40.5 83t15.5 154zM326 497q0 -147 -44.5 -243.5t-118.5 -145.5q-9 -5 -18.5 -11.5t-9.5 -14.5v-210q0 -25 37 -41q-1 -1 -5 -1h-163h-1q-2 0 -3 1q2 3 20 18t18 23v694q0 47 -38 68l1 1q1 1 4 1h178 q81 0 112 -29q31 -30 31 -110z"/>
<glyph horiz-adv-x="376" unicode="q" glyph-name="q" d="M118 429q0 34 32 34h41v-271q0 -5 -6 -5q-3 0 -11 5q-27 22 -40.5 83t-15.5 154zM0 497q0 -147 44.5 -243.5t118.5 -145.5q9 -5 18.5 -11.5t9.5 -14.5v-210q0 -25 -37 -41q1 -1 5 -1h163h1q2 0 3 1q-2 3 -20 18t-18 23v694q0 47 38 68l-1 1q-1 1 -4 1h-178 q-81 0 -112 -29q-31 -30 -31 -110z"/>
<glyph horiz-adv-x="360" unicode="r" glyph-name="r" d="M329 406q-6 5 -14 11t-18 14q-53 33 -70 38q-20 6 -79 6q-11 0 -13 -2v-421q0 -20 14 -34q5 -4 10.5 -8t10.5 -8q-2 -2 -6 -2h-162q-2 0 -2 2q13 12 20.5 20t9.5 11q9 15 9 42v495q0 39 -20 53q-5 4 -16 10q1 3 5 3h294q7 0 7 -2q-2 -5 -4 -11t-4 -14q-2 -19 -3.5 -33.5 t-1.5 -25.5q0 -54 34 -140z"/>
<glyph horiz-adv-x="409" unicode="s" glyph-name="s" d="M155 477q-24 -6 -24 -31q0 -14 15.5 -31.5t38.5 -39.5t50 -49t50 -59.5t38.5 -71.5t15.5 -85q0 -85 -61 -105q-13 -5 -58 -5h-67q-48 0 -82 34q-30 30 -45 79q-2 7 -4.5 18.5t-4.5 27.5q-3 24 -17 33q23 11 58.5 26t61.5 25v-8q-1 -40 10.5 -56t35.5 -16h17q24 6 24 31 q0 22 -15.5 42.5t-38.5 43t-49.5 47t-49.5 54.5t-38.5 66.5t-15.5 82.5q0 82 61 101q13 5 58 5h67q23 0 44 -6.5t38 -23.5q30 -30 45 -79q4 -13 9 -46q3 -25 17 -33q-12 -5 -27 -11.5t-31.5 -13.5t-32.5 -14t-29 -12v8q1 40 -11 56t-35 16h-18z"/>
<glyph horiz-adv-x="397" unicode="t" glyph-name="t" d="M326 389l-1 1q-39 54 -47 62q-32 32 -66 31h-4v-438q0 -26 36 -42q1 -3 -3 -3h-164q-1 0 -2 1q0 1 1 2q16 3 28 14.5t12 27.5v438h-5q-5 0 -19 -7q-26 -13 -50 -36t-42 -51q6 25 10.5 51t7.5 48t4.5 38.5t1.5 24.5q0 13 -0.5 22.5t-2 18.5t-4 19t-5.5 25h297 q-1 -14 -1.5 -35.5t-0.5 -50.5q0 -28 4.5 -68t15.5 -93h-1z"/>
<glyph horiz-adv-x="418" unicode="u" glyph-name="u" d="M381 2q-26 14 -34.5 29t-8.5 29v529q0 32 28 47l-1 1h-153h4l-6 -1q11 -8 21.5 -17.5t10.5 -20.5v-427h-96v421q0 30 27 43l-1 2h-1h-155q-2 0 -5 -1q1 -2 7 -5.5t16 -11.5q16 -10 16 -23v-537q0 -29 -50 -57q1 -1 3 -1h377z"/>
<glyph unicode="v" glyph-name="v" d="M312 1v2q-3 3 -7 6t-7 5q-26 25 -26 57v30q0 3 2 15t5 33l96 425q12 53 39 57q5 2 5 3q0 3 -4 3h-157q-3 0 -3 -2q24 -16 24 -40v-4l-68 -312h-3l-69 312v4q0 22 24 40q0 2 -2 2h-158q-3 0 -3 -3q0 -2 5 -3q27 -4 39 -57q1 -4 8.5 -37.5t20 -89.5t29.5 -132t37 -166 q4 -21 6 -33t2 -15v-30q0 -32 -26 -57q-4 -2 -7.5 -5t-7.5 -6v-2h206z"/>
<glyph horiz-adv-x="549" unicode="w" glyph-name="w" d="M509 636h-167q-6 0 -6 -2q12 -8 24.5 -17.5t12.5 -22.5v-408l-118 136l-116 -136v387q0 42 37 60v2q-1 1 -2 1h-1h-173q6 -4 11.5 -7.5t10.5 -7.5q20 -15 20 -29v-519q0 -38 -20 -56q-6 -4 -11.5 -8t-10.5 -7v-2h201l54 76l56 -76l200 1q-5 5 -11 9t-11 8q-11 9 -15 23.5 t-4 33.5v498q0 25 5 35q7 8 32 23q2 1 2.5 2t1.5 2z"/>
<glyph horiz-adv-x="475" unicode="x" glyph-name="x" d="M164 335q-2 7 -8.5 27t-16 47.5t-20.5 58.5t-22.5 59.5t-23 50.5t-20.5 32q-11 13 -39 25q1 1 6 1l173 -1q-1 -1 -7 -5q-17 -16 -14 -28l43 -140q1 -1 4 -11q5 8 12.5 28t18.5 51q11 32 16.5 50.5t5.5 23.5q0 18 -25 31l2 1h18l152 -1q0 -1 -1 -1t-1.5 -0.5t-1.5 -0.5 q-36 -23 -47 -46q0 1 -4.5 -11.5t-13 -33.5t-19 -48.5t-21.5 -55.5t-21 -55t-18 -48q18 -60 48 -129.5t59 -158.5q7 -23 53 -44q2 0 4 -2h-2v-1h-137h-50h1l-3 1q8 5 13 9t8 7q13 12 13 22q-17 56 -32 104.5t-29 90.5h-2q-2 -2 -7 -16.5t-12 -36t-14.5 -45.5t-14 -45 t-10.5 -35.5t-4 -16.5q0 -14 17 -26q5 -4 9 -6.5t8 -6.5h-3h-182q-2 0 -2 1q30 11 50 49z"/>
<glyph horiz-adv-x="437" unicode="y" glyph-name="y" d="M395 634q0 7 -18 -26q-20 -34 -29 -177q-1 -27 -2.5 -71t-3.5 -96.5t-5 -109.5t-6 -109q-12 -108 -35 -148q-36 -67 -126 -67h-84q-7 114 -55 201l1 1q72 -46 110 -46q57 0 81 62q7 20 8 29q-49 0 -98 43q-24 21 -38 44.5t-19 48.5q-6 32 -9 77.5t-4.5 92.5t-4.5 89.5 t-9 67.5q-12 61 -49 95l1 1h175l1 -2q-25 -84 -25 -134q0 -12 1.5 -43.5t4.5 -66t8.5 -65t13.5 -40.5q21 -27 67 -27q4 0 6 2q3 28 5 71t3.5 84t2.5 71.5t1 35.5q0 83 -36 112v1q1 1 5 1h159q2 0 2 -2z"/>
<glyph horiz-adv-x="375" unicode="z" glyph-name="z" d="M295 436q0 -33 -12 -48t-37 -32q10 -9 34 -36q15 -23 15 -68v-80q0 -88 -44 -141q-33 -41 -98 -41q-48 0 -82 34q-30 32 -45 79q-2 8 -4.5 19t-4.5 27q-3 23 -17 34q14 5 30 12t36 17q15 9 28 19.5t26 21.5v-8q-2 -79 46 -79q20 0 29.5 21.5t9.5 49.5q0 29 -9.5 49 t-39.5 20h-75q26 56 32 90h35q29 0 43 11t14 39q0 24 -13.5 33.5t-40.5 9.5q-45 0 -93 -46q5 23 6.5 47t1.5 51q0 35 -6 57t-19 36q0 2 5 2h164q42 0 65 -35q20 -30 20 -74v-91z"/>
<glyph horiz-adv-x="296" unicode="{" glyph-name="braceleft" d="M217 -95q-12 -2 -25 -3.5t-27 -1.5q-37 1 -65 12q-25 9 -45 29t-20 57v352q-10 0 -16.5 4.5t-10.5 10.5q-5 6 -8 15q3 8 8 14q5 5 11 9.5t16 4.5v390q0 37 20 57t45 29q28 11 65 12q14 0 27 -1.5t25 -3.5l-1 -35q-23 4 -41 0q-15 -4 -27.5 -17t-12.5 -43v-332 q0 -34 -10.5 -54t-19.5 -30q9 -9 19 -29t10 -54l1 -297q0 -30 12.5 -43t27.5 -17q18 -4 41 0z"/>
<glyph horiz-adv-x="180" unicode="|" glyph-name="bar" d="M0 798l100 70v-869l-100 -70v869z"/>
<glyph horiz-adv-x="296" unicode="}" glyph-name="braceright" d="M0 -60q22 -4 40 0q15 4 28 17t13 43l1 297q0 34 10 54t19 29q-9 10 -19.5 30t-10.5 54v332q0 30 -13 43t-28 17q-18 4 -40 0l-1 35q12 2 25 3.5t27 1.5q36 -1 65 -12q24 -9 44.5 -29t20.5 -57v-390q9 0 15.5 -4.5t11.5 -9.5q5 -6 8 -14q-4 -9 -8 -15q-5 -6 -11 -10.5 t-16 -4.5v-352q0 -37 -20.5 -57t-44.5 -29q-29 -11 -65 -12q-14 0 -27 1.5t-25 3.5z"/>
<glyph horiz-adv-x="360" unicode="~" glyph-name="asciitilde" d="M193 424l87 28q-1 -14 -4.5 -29.5t-10 -29.5t-17.5 -24.5t-26 -13.5l-33 -8l-102 30l-87 -29q1 14 4.5 30t10 29.5t17.5 24t26 14.5l33 8z"/>
<glyph horiz-adv-x="229" unicode=" " glyph-name="uni00A0"/>
<glyph horiz-adv-x="178" unicode="¦" glyph-name="brokenbar" d="M95 838q2 0 3 -1v-330q-19 -1 -58 -21q-42 -20 -37 -20q-2 0 -3 1v330q18 1 59 21q40 20 36 20zM95 332q2 0 3 -1v-330q-19 -1 -58 -21q-42 -20 -37 -20q-2 0 -3 1v330q18 1 59 21q40 20 36 20z"/>
<glyph horiz-adv-x="441" unicode="§" glyph-name="section"/>
<glyph horiz-adv-x="0" unicode="¨" glyph-name="dieresis" d="M381 875q0 -23 -23 -37q-19 -12 -43 -12t-45 13t-21 36t21 36t45 13t43 -12q23 -14 23 -37zM214 875q0 -23 -21 -36t-45 -13t-43 12q-23 14 -23 37t23 37q19 12 43 12t45 -13t21 -36z"/>
<glyph horiz-adv-x="770" unicode="©" glyph-name="copyright" d="M60 400q0 -72 19.5 -136t58 -111.5t94.5 -75t128 -27.5t128 27.5t94.5 75t58 111.5t19.5 136t-19.5 136t-58 111.5t-94.5 75t-128 27.5t-128 -27.5t-94.5 -75t-58 -111.5t-19.5 -136zM466 138q-26 68 -26 123q0 8 1 20t3 28t3 28t1 20q0 2 -1 3q-1 -1 -2 -1l-1 -1 q-9 -13 -14 -23q-48 -80 -75 -82h-7q-17 -1 -27 20q-8 19 -8 38v146q0 38 12 55q14 23 35 23q25 0 43 -26q8 -13 24 -49h2q3 48 6 80.5t5 49.5q6 30 11.5 53t8.5 38q-55 25 -95 25q-73 0 -113 -61q-35 -53 -35 -129v-250q0 -67 26 -113q15 -25 45.5 -44t59.5 -19 q22 0 42 4.5t36 11.5t26.5 15.5t13.5 16.5zM0 400q0 85 24.5 159.5t71 130t113 88t151.5 32.5t151.5 -32.5t113 -88t71 -130t24.5 -159.5t-24.5 -159.5t-71 -130t-113 -88t-151.5 -32.5t-151.5 32.5t-113 88t-71 130t-24.5 159.5z"/>
<glyph horiz-adv-x="406" unicode="«" glyph-name="guillemotleft" d="M354 99q0 -58 -23 -102q-29 -56 -81 -56q-4 3 -4 4q0 3 23.5 22.5t29.5 40.5q-4 17 -8 21.5t-23 7.5q-34 21 -34 75q0 29 19 53t47 24q27 0 42 -33q12 -26 12 -57zM169 99q0 -58 -23 -102q-29 -56 -81 -56q-4 3 -4 4q0 3 23.5 22.5t29.5 40.5q-4 17 -8 21.5t-23 7.5 q-34 21 -34 75q0 29 19 53t47 24q27 0 42 -33q12 -26 12 -57z"/>
<glyph horiz-adv-x="290" unicode="­" glyph-name="uni00AD" d="M212 348q0 -2 -1 -3h-170q-1 19 -21 58q-20 42 -20 37q0 2 1 3h170q1 -18 21 -59q20 -40 20 -36z"/>
<glyph horiz-adv-x="770" unicode="®" glyph-name="registered"/>
<glyph horiz-adv-x="357" unicode="°" glyph-name="degree" d="M187 615q0 81 -44 81q-25 0 -39 -17.5t-14 -42.5v-40q0 -23 10 -46q13 -26 34 -26q53 0 53 70v21zM277 582q0 -39 -11 -70q-17 -42 -51 -67t-79 -25q-29 0 -50 8q-43 15 -67 63q-19 44 -19 94v45q0 74 35 124q41 56 112 56q32 0 70 -27q33 -26 46.5 -60t13.5 -93v-48v0z "/>
<glyph unicode="±" glyph-name="plusminus" d="M372 163q0 -2 -1 -3h-330q-1 19 -21 58q-20 42 -20 37q0 2 1 3h330q1 -18 21 -59q20 -40 20 -36zM232 658q2 0 3 -1v-136h96q1 -18 21 -59q20 -40 20 -36q0 -2 -1 -3h-136v-96q-19 -1 -58 -21q-42 -20 -37 -20q-2 0 -3 1v136h-96q-1 19 -21 58q-20 42 -20 37q0 2 1 3h136 v96q18 1 59 21q40 20 36 20z"/>
<glyph horiz-adv-x="199" unicode="·" glyph-name="periodcentered" d="M119 403q1 -54 -23 -82q-15 -21 -26 -21h-10q-29 0 -47 34q-13 29 -13 61q0 37 14 64q18 35 50 35q29 0 43 -33q5 -13 8.5 -27.5t3.5 -30.5z"/>
<glyph horiz-adv-x="395" unicode="»" glyph-name="guillemotright" d="M354 638q0 -28 -19.5 -52.5t-46.5 -24.5q-28 0 -42 33q-12 26 -12 57q0 58 23 103q29 55 81 55q4 -2 4 -4q0 -3 -23 -21q-24 -21 -30 -41q4 -18 8 -22t23 -7q34 -22 34 -76zM169 638q0 -28 -19.5 -52.5t-46.5 -24.5q-28 0 -42 33q-12 26 -12 57q0 58 23 103q29 55 81 55 q4 -2 4 -4q0 -3 -23 -21q-24 -21 -30 -41q4 -18 8 -22t23 -7q34 -22 34 -76z"/>
<glyph horiz-adv-x="429" unicode="Ѐ" glyph-name="uni0400" d="M123 966q-15 -46 13 -75q20 -20 70 -36q2 -1 16.5 -4.5t40.5 -11.5l2 1q13 31 32 56q2 3 9 10l-1 3q-18 -5 -40.5 -2.5t-50.5 11.5q-74 22 -85 57l-2 -1q-2 -1 -4 -8zM377 1q-1 -1 -5 -1h-367q-2 0 -4 2q7 4 24 17q15 16 15 44v689q0 30 -39 45l-1 2q1 1 4 1h328 q5 0 5 -2l-6 -28q-9 -47 -9 -70q0 -54 26 -127q2 -6 2 -9q-2 -2 -2 -1q-29 36 -73 54q-33 13 -63 14h-69q-5 0 -5 -6v-140h118q5 -23 15 -47t26 -48l-1 -3h-155q-3 0 -3 -4v-213q0 -7 22 -7h76q63 6 101 71q1 4 4 4q1 -1 1 -5q0 -6 -1 -15.5t-3 -22.5q-3 -26 -3 -39 q0 -92 42 -155z"/>
<glyph horiz-adv-x="430" unicode="Ё" glyph-name="uni0401" d="M160 875q0 -23 -21 -36t-45 -13t-43 12q-23 14 -23 37t23 37q19 12 43 12t45 -13t21 -36zM327 875q0 -23 -23 -37q-20 -12 -43 -12q-24 0 -45 13t-21 36t21 36t45 13q23 0 43 -12q23 -14 23 -37zM377 1q-1 -1 -5 -1h-367q-2 0 -4 2q7 4 24 17q15 16 15 44v689 q0 30 -39 45l-1 2q1 1 4 1h328q5 0 5 -2l-6 -28q-9 -47 -9 -70q0 -54 26 -127q2 -6 2 -9q-2 -2 -2 -1q-29 36 -73 54q-33 13 -63 14h-69q-5 0 -5 -6v-140h118q5 -23 15 -47t26 -48l-1 -3h-155q-3 0 -3 -4v-213q0 -7 22 -7h76q63 6 101 71q1 4 4 4q1 -1 1 -5q0 -6 -1 -15.5 t-3 -22.5q-3 -26 -3 -39q0 -92 42 -155z"/>
<glyph horiz-adv-x="438" unicode="Ђ" glyph-name="uni0402" d="M222 177q18 0 27 7t7 27q-1 12 -12.5 36t-27.5 50t-33.5 50.5t-30.5 36.5h-1q-1 0 -1 -1h-1v-203v-141q0 -11 17 -25q5 -3 9.5 -6t9.5 -6l-2 -2h-173q-5 0 -3 3q37 19 37 73v676q0 21 -15.5 30t-28.5 16q2 2 4 2h320q-2 -16 -3.5 -29t-1.5 -24q0 -37 14 -87q7 -22 14 -43 l14 -42q-13 7 -43 23q-59 30 -125 30q-37 0 -41 -2q-3 -2 -3 -8v-49q38 -52 80 -106t77.5 -110t58.5 -114.5t23 -118.5q0 -93 -66 -115q-15 -5 -63 -5h-37v177z"/>
<glyph horiz-adv-x="388" unicode="Ѓ" glyph-name="uni0403" d="M277 966q15 -46 -13 -75q-20 -20 -70 -36q-2 -1 -16.5 -4.5t-40.5 -11.5l-2 1q-13 31 -32 56q-2 3 -9 10l1 3q18 -5 40.5 -2.5t50.5 11.5q74 22 85 57l2 -1q2 -1 4 -8zM357 550q-6 5 -15 12t-20 15q-57 36 -76 41q-20 7 -86 7q-12 0 -14 -2v-566q0 -22 16 -37q5 -5 11 -9 t11 -9q-2 -2 -6 -2h-176q-2 0 -2 2l22 22t10 12q10 16 10 46v646q0 42 -22 58q-3 2 -7.5 4.5t-9.5 6.5q1 3 5 3h320q8 0 8 -2q-5 -11 -9 -27q-6 -41 -6 -65q0 -59 37 -152z"/>
<glyph horiz-adv-x="368" unicode="Є" glyph-name="uni0404" d="M288 48q-10 -17 -44 -34q-38 -18 -98 -18q-15 0 -32 5.5t-32.5 15t-28.5 21.5t-21 26q-32 56 -32 123v446q0 6 1 15.5t3 22.5q13 85 77 121q22 12 55 12q75 0 132 -45q-7 -20 -7 -62q0 -81 6 -123q4 -11 9 -27t12 -38l-3 1q-26 37 -57 65q-44 41 -72 41q-42 0 -55 -43 q-7 -21 -7 -77v-17h133q3 -46 26 -80q2 -3 5.5 -7.5t8.5 -10.5h-173v-145q0 -24 13.5 -44t36.5 -20q32 0 78 58t45 58q1 0 1 -2q0 -8 -1 -21.5t-3 -30.5t-3 -30.5t-1 -22.5q0 -58 28 -133z"/>
<glyph horiz-adv-x="441" unicode="Ѕ" glyph-name="uni0405" d="M158 649q-26 -6 -26 -34q4 -24 24.5 -57.5t46.5 -73.5q165 -249 165 -364q0 -93 -66 -115q-15 -5 -63 -5h-73q-52 0 -89 37q-32 32 -49 86q-2 8 -5 20.5t-5 29.5q-3 25 -18 36q14 5 32 13t40 19q30 19 58 45v-9q-1 -43 11.5 -71.5t38.5 -28.5h30q26 6 26 34q0 3 -10 22 t-26.5 47t-37 62t-42 68.5t-41.5 65.5t-35 53q-17 26 -30.5 68t-13.5 109q0 92 66 115q15 5 63 5h73q52 0 89 -37q32 -32 49 -86q2 -8 5 -20.5t5 -29.5q3 -26 18 -36q-14 -5 -32 -13t-40 -19q-30 -19 -58 -45v9q1 43 -11.5 71.5t-38.5 28.5h-30z"/>
<glyph horiz-adv-x="226" unicode="І" glyph-name="uni0406" d="M160 875q0 -23 -21 -36t-45 -13q-23 0 -44 13t-21 36t21 36t44 13q24 0 45 -13t21 -36zM184 2q-2 -2 -5 -2h-177l-2 2l4 4l4 4q21 16 27 27q8 14 8 37v651q0 29 -11 43q-8 8 -16 15t-16 15q0 2 3 2h178q1 0 3 -2q-5 -5 -11 -9.5t-11 -9.5q-16 -13 -16 -34v-691 q0 -22 16 -35q5 -4 11 -8t11 -9z"/>
<glyph horiz-adv-x="379" unicode="Ї" glyph-name="uni0407" d="M132 875q0 -23 -21 -36t-45 -13t-43 12q-23 14 -23 37t23 37q19 12 43 12t45 -13t21 -36zM299 875q0 -23 -23 -37q-20 -12 -43 -12q-24 0 -45 13t-21 36t21 36t45 13q23 0 43 -12q23 -14 23 -37zM237 2q-2 -2 -5 -2h-177l-2 2l4 4l4 4q21 16 27 27q8 14 8 37v651 q0 29 -11 43q-8 8 -16 15t-16 15q0 2 3 2h178q1 0 3 -2q-5 -5 -11 -9.5t-11 -9.5q-16 -13 -16 -34v-691q0 -22 16 -35q5 -4 11 -8t11 -9z"/>
<glyph horiz-adv-x="396" unicode="Ј" glyph-name="uni0408" d="M151 173q29 0 45 18.5t16 44.5v387q-2 2 -14 2q-66 0 -86 -7q-19 -5 -76 -41q-11 -8 -20 -15t-15 -12l-1 4q37 93 37 152q0 24 -6 65q-5 16 -9 27q0 2 8 2h320q3 0 5 -3q-5 -4 -9.5 -6.5t-7.5 -4.5q-22 -16 -22 -58v-541q0 -73 -29 -123q-8 -14 -21 -26t-29.5 -21.5 t-35.5 -15t-38 -5.5q-28 0 -53 5t-45 12.5t-33.5 16.5t-16.5 18q28 75 28 133q0 9 -1 22.5t-3 30.5t-3 30.5t-1 21.5q0 2 1 3l1 -1q1 0 2 -1q12 -18 15 -25q26 -45 51.5 -67t45.5 -22z"/>
<glyph horiz-adv-x="671" unicode="Љ" glyph-name="uni0409" d="M472 207q-2 9 -14.5 35t-30.5 56t-38.5 58t-37.5 42h-1q-1 0 -1 -1h-1l43 -236q3 -3 12 -1l49 9q24 11 20 38zM315 580q45 -44 95.5 -103t95 -121.5t76.5 -124t39 -111.5t-18 -82.5t-93 -37.5h-229q-3 0 -3 2q26 18 26 44v4l-74 426h-4l-74 -426v-4q0 -26 26 -44 q0 -2 -3 -2h-171q-4 0 -4 3q0 1 6 4q29 5 42 61q1 3 2.5 11.5t5.5 30t11 59.5t18 100.5t27.5 153t39.5 216.5q4 23 6 36t2 16v33q0 34 -28 62q-4 2 -8 5t-8 7v2h224v-2q-4 -4 -8 -7t-8 -5q-28 -28 -28 -62v-33q0 -3 1.5 -16t6.5 -36z"/>
<glyph horiz-adv-x="637" unicode="Њ" glyph-name="uni040A" d="M456 211q0 34 -54 127q-25 46 -30 46h-1q-1 0 -1 -1h-1v-203q1 -3 11 -3h50q26 6 26 34zM369 569q2 -7 54 -85q165 -249 165 -364q0 -93 -66 -115q-15 -5 -63 -5h-236v2l20 12q22 15 22 41v382h-121v-398q0 -11 17 -25q5 -3 9.5 -6t9.5 -6l-2 -2h-176l-1 1q10 7 30 27 q11 20 11 47l-1 665q0 27 -20 44l-21 16h178q2 0 3 -1q-5 -5 -10.5 -9t-10.5 -8q-16 -13 -16 -38v-112h121v112q0 26 -19 39q-5 4 -11 8l-12 8l2 1h181q2 0 3 -1q-2 -3 -23 -19q-17 -12 -17 -32v-179z"/>
<glyph horiz-adv-x="445" unicode="Ћ" glyph-name="uni040B" d="M225 0q-2 0 -4 1l27 30q9 13 9 42q0 40 -8 84.5t-22 86.5t-33 78.5t-42 61.5h-1q-1 0 -1 -1h-1v-203v-141q0 -11 17 -25q5 -3 9.5 -6t9.5 -6l-2 -2h-173q-5 0 -3 3q37 19 37 73v676q0 21 -15.5 30t-28.5 16q2 2 4 2h320q-2 -16 -3.5 -29t-1.5 -24q0 -37 14 -87 q7 -22 14 -43l14 -42q-13 7 -43 23q-59 30 -125 30q-37 0 -41 -2q-3 -2 -3 -8v-49q53 -62 90.5 -119t64.5 -116.5t46 -124t35 -141.5q10 -54 38 -63q1 0 3 -2l-3 -3h-198z"/>
<glyph horiz-adv-x="467" unicode="Ќ" glyph-name="uni040C" d="M307 966q15 -46 -13 -75q-20 -20 -70 -36q-2 -1 -16.5 -4.5t-40.5 -11.5l-2 1q-13 31 -32 56q-2 3 -9 10l1 3q18 -5 40.5 -2.5t50.5 11.5q74 22 85 57l2 -1q2 -1 4 -8zM425 0h-198q-2 0 -4 1l27 30q9 13 9 42q0 90 -25 164q-39 119 -84 170q-10 -1 -10 -6v-345 q0 -22 9 -32q5 -6 28 -19l2 -3l-2 -2h-177v2q0 1 6 3q35 14 35 58v690q0 20 -38 43l-2 3l3 1h171q2 0 4 -2l-17 -14q-16 -13 -16 -28l1 -252l2 -1q25 1 43 21q26 29 34 80q2 22 5 43.5t5 43.5q24 113 126 113q48 0 48 -10q0 1 -1.5 -6.5t-3.5 -24.5q-8 -46 -8 -73 q0 -36 6 -69q2 -7 3.5 -17t3.5 -24q-4 4 -9 9.5t-13 12.5q-29 26 -51 26t-33 -38q-4 -14 -7 -28l-6 -28q-10 -34 -23 -50q-13 -14 -43 -33v-3q92 -115 130 -229q2 -5 10 -43t22 -108q10 -54 38 -63q1 0 3 -2z"/>
<glyph horiz-adv-x="424" unicode="Ѝ" glyph-name="uni040D" d="M123 966q-15 -46 13 -75q20 -20 70 -36q2 -1 16.5 -4.5t40.5 -11.5l2 1q13 31 32 56q2 3 9 10l-1 3q-18 -5 -40.5 -2.5t-50.5 11.5q-74 22 -85 57l-2 -1q-2 -1 -4 -8zM381 798q-6 -5 -12 -9t-11 -9q-14 -12 -14 -23v-708q0 -22 36 -47q-2 -2 -4 -2h-164v2q14 9 24 16.5 t10 27.5v437q-4 -4 -26 -33t-60 -85q-25 -37 -25 -46v-14v-1v-1v-1v-258q0 -15 36 -40q1 -4 -4 -4h-165q-1 0 -2 1q3 3 9.5 8t13 11t11 12t4.5 12v714q0 10 -19 23q-18 13 -18 18l2 1h164h3v-1l1 -1q-1 -1 -19 -18q-17 -14 -17 -20v-176q0 -10 3 -11q19 26 46 66t62 94v27 q0 9 -33 39l2 1h162z"/>
<glyph horiz-adv-x="462" unicode="Ў" glyph-name="uni040E" d="M340 908q0 -48 -35 -68q-25 -13 -77 -13q-3 0 -18 0.5t-41 1.5l-2 1q-3 34 -14 64q-1 2 -2 5t-3 7l1 2q31 -19 90 -19q78 0 98 29l2 -1q1 -2 1 -9zM429 798q0 6 -19 -28q-21 -39 -32 -193q-3 -115 -18 -343q-14 -118 -38 -161q-39 -73 -137 -73h-91q-9 125 -60 218l1 2 q77 -50 119 -50q63 0 88 67q7 19 9 32q-52 -1 -106 46q-51 45 -62 101q-17 84 -21 162q-8 111 -9 118q-12 65 -53 103l1 1h190l1 -2q-27 -93 -27 -146q0 -20 6 -80q6 -54 25 -77q22 -30 73 -30q4 0 6 2q1 8 2 27.5t2.5 44.5t3 52t2.5 47.5t2 31.5t1 6q0 90 -39 122v1 q1 1 5 1h173q2 0 2 -2z"/>
<glyph horiz-adv-x="447" unicode="Џ" glyph-name="uni040F" d="M263 -43q0 -22 16 -37q5 -5 11 -9t11 -9q-2 -2 -6 -2h-176q-4 0 -6 2q5 5 11 9t11 9q16 15 16 37v43h-148q-2 0 -3 1q54 31 54 62v692q0 14 -17 25q-24 18 -25 19q3 1 5 1h168h1l2 -2q-30 -15 -30 -47v-566h105v573q0 12 -12 22t-23 19l6 1h-4h79h59h28l1 -1 q-30 -17 -30 -51v-661q0 -32 11 -49q4 -8 34 -37q-1 -1 -2 -1h-147v-43zM263 -43q0 -22 16 -37q5 -5 11 -9t11 -9q-2 -2 -6 -2h-176q-4 0 -6 2q5 5 11 9t11 9q16 15 16 37v43h-148q-2 0 -3 1q54 31 54 62v692q0 14 -17 25q-24 18 -25 19q3 1 5 1h168h1l2 -2q-30 -15 -30 -47 v-566h105v573q0 12 -12 22t-23 19l6 1h-4h79h59h28l1 -1q-30 -17 -30 -51v-661q0 -32 11 -49q4 -8 34 -37q-1 -1 -2 -1h-147v-43z"/>
<glyph horiz-adv-x="476" unicode="А" glyph-name="uni0410" d="M334 800q8 0 7 -4q-26 -11 -34 -25.5t-8 -44.5q0 -2 0.5 -6.5t4 -23.5t9.5 -59t16.5 -112.5t27 -183.5t39.5 -273q5 -36 13 -44l23 -23q-2 -1 -4 -1h-1h-159h-9l-1 2l2 3q32 11 32 46q0 -8 -2 9t-5.5 40.5t-7.5 44.5t-8 21h-106q-4 0 -8 -21t-7.5 -44.5t-5.5 -40.5t-2 -9 q0 -35 32 -46l2 -3l-1 -2h-9h-159h-1q-3 0 -4 1l23 23q8 8 13 44q23 162 39.5 273t27 183.5t16.5 112.5t9.5 59t4 23.5t0.5 6.5q0 30 -8 44.5t-34 25.5q-1 4 7 4h236zM249 327q-1 30 -4 57.5t-7 56t-9.5 59.5t-12.5 69q-7 -38 -12.5 -69t-9.5 -59.5t-7 -56t-4 -57.5h66z"/>
<glyph horiz-adv-x="417" unicode="Б" glyph-name="uni0411" d="M236 211q0 34 -54 127q-25 46 -30 46h-1q-1 0 -1 -1h-1v-203q1 -3 11 -3h50q26 6 26 34zM368 120q0 -93 -66 -115q-15 -5 -63 -5h-229q-5 0 -3 3q37 19 37 73v676q0 21 -15.5 30t-28.5 16q2 2 4 2h320q-2 -16 -3.5 -29t-1.5 -24q0 -37 14 -87q7 -22 14 -43l14 -42 q-13 7 -43 23q-59 30 -125 30q-37 0 -41 -2q-3 -2 -3 -8v-49q2 -7 54 -85q165 -249 165 -364z"/>
<glyph horiz-adv-x="452" unicode="В" glyph-name="uni0412" d="M256 202q0 22 -8.5 43.5t-16.5 42.5q-4 11 -10 28t-14 40q-4 2 -6 2q-1 0 -7 -3q-7 -5 -13 -11t-13 -11q-20 -17 -20 -22v-145h64q44 0 44 36zM240 600q0 31 -24 31h-68v-184h6q15 14 29 31.5t27 39.5q30 49 30 82zM372 122q0 -52 -22 -84q-26 -38 -74 -38h-275l-1 1 q7 4 15 8.5t19 11.5q18 13 18 37v666q0 32 -11 46q-4 6 -39 26l-2 1v2q3 1 12 1h224q50 0 74 -15q10 -7 20 -18t17.5 -24t12 -26.5t4.5 -25.5v-31q-1 -28 -23 -82q-9 -22 -20 -43.5t-24 -43.5q-6 -10 -12 -21t-13 -22v-1v-3l45 -105q55 -119 55 -217z"/>
<glyph horiz-adv-x="388" unicode="Г" glyph-name="uni0413" d="M357 550q-6 5 -15 12t-20 15q-57 36 -76 41q-20 7 -86 7q-12 0 -14 -2v-566q0 -22 16 -37q5 -5 11 -9t11 -9q-2 -2 -6 -2h-176q-2 0 -2 2l22 22t10 12q10 16 10 46v646q0 42 -22 58q-3 2 -7.5 4.5t-9.5 6.5q1 3 5 3h320q8 0 8 -2q-5 -11 -9 -27q-6 -41 -6 -65 q0 -59 37 -152z"/>
<glyph horiz-adv-x="546" unicode="Д" glyph-name="uni0414" d="M346 800q2 0 2 -2q-11 -13 -17 -20t-7 -8q-7 -10 -7 -38v-4l88 -505q3 -17 6 -28.5t5 -19.5q23 0 59 17q-3 -24 -6 -35q-3 -36 -3 -94q0 -29 1 -52t3 -40q4 -26 6 -46t4 -34q-34 62 -64 86q-29 23 -88 23h-176q-59 0 -88 -23q-30 -24 -64 -86q2 14 4 34t6 46q2 17 3 40 t1 52q0 58 -3 94q-3 11 -6 35q36 -17 59 -17q2 8 5 19.5t6 28.5l88 505v4q0 28 -7 38q-1 1 -7 8t-17 20q0 2 2 2h212zM312 176l-70 381h-4l-70 -381h144z"/>
<glyph horiz-adv-x="429" unicode="Е" glyph-name="uni0415" d="M377 1q-1 -1 -5 -1h-367q-2 0 -4 2q7 4 24 17q15 16 15 44v689q0 30 -39 45l-1 2q1 1 4 1h328q5 0 5 -2l-6 -28q-9 -47 -9 -70q0 -54 26 -127q2 -6 2 -9q-2 -2 -2 -1q-29 36 -73 54q-33 13 -63 14h-69q-5 0 -5 -6v-140h118q5 -23 15 -47t26 -48l-1 -3h-155q-3 0 -3 -4 v-213q0 -7 22 -7h76q63 6 101 71q1 4 4 4q1 -1 1 -5q0 -6 -1 -15.5t-3 -22.5q-3 -26 -3 -39q0 -92 42 -155z"/>
<glyph horiz-adv-x="740" unicode="Ж" glyph-name="uni0416" d="M685 1q-3 0 -4 -1h-204l-1 1v1l8 16l10 17q7 17 7 47q0 81 -25 177q-30 117 -76 154h-2h-5v-339q0 -28 6.5 -43t28.5 -29q0 -2 -3 -2h-166q-2 0 -2 2q21 14 27.5 29t6.5 43v339h-3h-3q-47 -38 -77 -154q-24 -98 -24 -177q0 -30 7 -47q1 -1 9 -17q9 -15 9 -16q0 -2 -1 -1 v-1h-205q-2 0 -3 1l24 18q21 16 25 38q1 7 2.5 18t3.5 25q33 232 147 348v5v1q-39 14 -54 58l-8 38t-9 38q-9 38 -34 38q-21 0 -44 -20q-8 -10 -16.5 -19t-16.5 -18q16 73 16 175q0 9 -4 26t-4 25q0 5 12 5h82q51 0 71 -51q13 -30 19 -107t16 -98q7 -16 25 -28.5t35 -11.5h1 q2 2 2 5v234q0 15 -10 31.5t-23 22.5q0 3 6 3h-2h158q7 0 7 -3q-14 -6 -24 -22.5t-10 -31.5v-234q0 -3 2 -5h2q17 -1 34.5 11.5t24.5 28.5q10 21 16 98t19 107q19 51 71 51h82q12 0 12 -5q0 -8 -3.5 -25t-3.5 -26q0 -102 16 -175q-8 9 -17 18t-17 19q-22 20 -44 20 q-25 0 -34 -38l-8 -38l-8 -38q-16 -44 -54 -58v-1v-5q113 -116 146 -348q1 -14 6 -43q4 -22 25 -38q6 -5 11 -8.5t8 -5.5q4 -3 6 -4z"/>
<glyph horiz-adv-x="401" unicode="З" glyph-name="uni0417" d="M321 557q0 -72 -54 -109q7 -6 16 -15.5t21 -23.5q17 -26 17 -74v-147q0 -96 -48 -154q-36 -44 -107 -44q-52 0 -89 37q-32 32 -49 86q-2 8 -5 20.5t-5 29.5q-3 25 -18 36q14 5 32 13t40 19q30 19 58 45v-9q-2 -86 50 -86q43 0 43 110q0 23 -1.5 42t-4.5 27q-11 33 -48 33 q-79 0 -81 1q14 29 22.5 53t12.5 44h38q62 0 62 76q0 69 -59 69q-49 0 -101 -50q9 48 9 106q0 75 -28 106q2 2 6 2h178q45 0 71 -38q22 -34 22 -81v-124z"/>
<glyph horiz-adv-x="424" unicode="И" glyph-name="uni0418" d="M381 798q-6 -5 -12 -9t-11 -9q-14 -12 -14 -23v-708q0 -22 36 -47q-2 -2 -4 -2h-164v2q14 9 24 16.5t10 27.5v437q-4 -4 -26 -33t-60 -85q-25 -37 -25 -46v-14v-1v-1v-1v-258q0 -15 36 -40q1 -4 -4 -4h-165q-1 0 -2 1q3 3 9.5 8t13 11t11 12t4.5 12v714q0 10 -19 23 q-18 13 -18 18l2 1h164h3v-1l1 -1q-1 -1 -19 -18q-17 -14 -17 -20v-176q0 -10 3 -11q19 26 46 66t62 94v27q0 9 -33 39l2 1h162z"/>
<glyph horiz-adv-x="424" unicode="Й" glyph-name="uni0419" d="M296 908q0 -48 -35 -68q-25 -13 -77 -13q-3 0 -18 0.5t-41 1.5l-2 1q-3 34 -14 64q-1 2 -2 5t-3 7l1 2q31 -19 90 -19q78 0 98 29l2 -1q1 -2 1 -9zM381 798q-6 -5 -12 -9t-11 -9q-14 -12 -14 -23v-708q0 -22 36 -47q-2 -2 -4 -2h-164v2q14 9 24 16.5t10 27.5v437 q-4 -4 -26 -33t-60 -85q-25 -37 -25 -46v-14v-1v-1v-1v-258q0 -15 36 -40q1 -4 -4 -4h-165q-1 0 -2 1q3 3 9.5 8t13 11t11 12t4.5 12v714q0 10 -19 23q-18 13 -18 18l2 1h164h3v-1l1 -1q-1 -1 -19 -18q-17 -14 -17 -20v-176q0 -10 3 -11q19 26 46 66t62 94v27q0 9 -33 39 l2 1h162z"/>
<glyph horiz-adv-x="467" unicode="К" glyph-name="uni041A" d="M425 0h-198q-2 0 -4 1l27 30q9 13 9 42q0 90 -25 164q-39 119 -84 170q-10 -1 -10 -6v-345q0 -22 9 -32q5 -6 28 -19l2 -3l-2 -2h-177v2q0 1 6 3q35 14 35 58v690q0 20 -38 43l-2 3l3 1h171q2 0 4 -2l-17 -14q-16 -13 -16 -28l1 -252l2 -1q25 1 43 21q26 29 34 80 q2 22 5 43.5t5 43.5q24 113 126 113q48 0 48 -10q0 1 -1.5 -6.5t-3.5 -24.5q-8 -46 -8 -73q0 -36 6 -69q2 -7 3.5 -17t3.5 -24q-4 4 -9 9.5t-13 12.5q-29 26 -51 26t-33 -38q-4 -14 -7 -28l-6 -28q-10 -34 -23 -50q-13 -14 -43 -33v-3q92 -115 130 -229q2 -5 10 -43t22 -108 q10 -54 38 -63q1 0 3 -2z"/>
<glyph horiz-adv-x="488" unicode="Л" glyph-name="uni041B" d="M340 800v-2q-4 -4 -8 -7t-8 -5q-28 -28 -28 -62v-33q0 -3 2 -16t6 -36l75 -412q13 -70 20 -109.5t9 -49.5q13 -56 42 -61q6 -3 6 -4q0 -3 -4 -3h-171q-3 0 -3 2q26 18 26 44v4l-74 426h-4l-74 -426v-4q0 -26 26 -44q0 -2 -3 -2h-171q-4 0 -4 3q0 1 6 4q29 5 42 61 q2 10 9 49.5t20 109.5l75 412q4 23 6 36t2 16v33q0 34 -28 62q-4 2 -8 5t-8 7v2h116h108z"/>
<glyph horiz-adv-x="591" unicode="М" glyph-name="uni041C" d="M554 0h-182q-6 0 -6 2q13 9 26.5 19.5t13.5 24.5v552l-128 -148l-126 148v-530q0 -46 40 -65v-2q-1 -1 -4 -1h-187l12 8t11 8q22 16 22 32v673q0 41 -22 60q-6 5 -12 9l-12 8l1 2h218l59 -83l60 83l218 -1q-6 -5 -12 -9.5t-12 -9.5q-21 -18 -21 -61v-650q0 -29 6 -39 q8 -9 35 -25q2 -1 2.5 -2t1.5 -2z"/>
<glyph horiz-adv-x="449" unicode="Н" glyph-name="uni041D" d="M409 799q-2 -3 -23 -19q-17 -12 -17 -32v-714q0 -8 19 -20q20 -11 20 -12l-1 -2h-184v2l6 3q1 1 4 3t10 6q22 15 22 41v382h-121v-398q0 -11 17 -25q5 -3 9.5 -6t9.5 -6l-2 -2h-176l-1 1q10 7 30 27q11 20 11 47l-1 665q0 27 -20 44l-21 16h178q2 0 3 -1q-5 -5 -10.5 -9 t-10.5 -8q-16 -13 -16 -38v-112h121v112q0 26 -19 39q-5 4 -11 8l-12 8l2 1h181q2 0 3 -1z"/>
<glyph horiz-adv-x="382" unicode="О" glyph-name="uni041E" d="M204 533q0 88 -48 88q-26 0 -41.5 -19t-15.5 -46v-311q0 -26 11 -50q13 -28 37 -28q57 0 57 76v290zM302 165q0 -45 -12 -76q-18 -46 -55.5 -73t-85.5 -27q-31 0 -55 8q-47 16 -72 69q-21 45 -21 102v447q0 81 38 134q43 61 122 61q36 0 76 -29q36 -28 50.5 -65 t14.5 -101v-450v0z"/>
<glyph horiz-adv-x="447" unicode="П" glyph-name="uni041F" d="M418 800q2 0 3 -1q-54 -32 -54 -62v-688q0 -32 30 -47l-2 -2h-159h-1l-2 2q30 15 30 47v566h-105v-566q0 -32 30 -47l-2 -2h-1h-159l-2 2q30 15 30 47v688q0 30 -54 62q1 1 3 1h415z"/>
<glyph horiz-adv-x="405" unicode="Р" glyph-name="uni0420" d="M226 575q0 37 -35 37h-44v-175q0 -5 6 -5q4 0 12 5q59 47 60 118l1 20v0zM355 649q0 -137 -99 -237q-18 -17 -37.5 -33.5t-41.5 -32.5q-10 -6 -20 -13t-10 -16v-271q0 -27 40 -45q-1 -1 -5 -1h-177q-2 0 -5 1q2 3 22 20q19 16 19 25v678q0 51 -41 74l1 1q1 1 5 1h193 q88 0 122 -32q34 -31 34 -119z"/>
<glyph horiz-adv-x="351" unicode="С" glyph-name="uni0421" d="M271 42q-3 -9 -14.5 -18t-29 -16.5t-39 -12.5t-45.5 -5q-15 0 -32 5.5t-32.5 15t-28.5 21.5t-21 26q-29 50 -29 123v423q0 82 38 140q43 66 123 66q47 0 104 -27q-4 -17 -9.5 -41.5t-12.5 -57.5q-6 -38 -12 -141h-2q-18 39 -26 53q-20 29 -47 29q-22 0 -38 -25 q-13 -19 -13 -60v-310q0 -20 8 -41q11 -23 30 -22h7q30 2 82 89q3 7 15 25l1 1q1 0 2 1q1 -1 1 -3q0 -8 -1 -21.5t-3 -30.5t-3 -30.5t-1 -22.5q0 -58 28 -133z"/>
<glyph horiz-adv-x="426" unicode="Т" glyph-name="uni0422" d="M355 532l-1 1q-41 57 -51 67q-35 35 -72 34h-4v-585q0 -28 39 -46q1 -3 -4 -3h-178q-1 0 -2 1q0 1 1 2q17 4 30.5 16.5t13.5 29.5v585h-6q-3 0 -21 -8q-46 -23 -83 -72q-5 -9 -17 -22q27 109 27 143q0 61 -13 125h7h315q-1 -16 -1.5 -39t-0.5 -54t5.5 -74.5t16.5 -100.5 h-1z"/>
<glyph horiz-adv-x="460" unicode="У" glyph-name="uni0423" d="M429 798q0 6 -19 -28q-21 -39 -32 -193q-3 -115 -18 -343q-14 -118 -38 -161q-39 -73 -137 -73h-91q-9 125 -60 218l1 2q77 -50 119 -50q63 0 88 67q7 19 9 32q-52 -1 -106 46q-51 45 -62 101q-17 84 -21 162q-8 111 -9 118q-12 65 -53 103l1 1h190l1 -2 q-27 -93 -27 -146q0 -20 6 -80q6 -54 25 -77q22 -30 73 -30q4 0 6 2q1 8 2 27.5t2.5 44.5t3 52t2.5 47.5t2 31.5t1 6q0 90 -39 122v1q1 1 5 1h173q2 0 2 -2z"/>
<glyph horiz-adv-x="594" unicode="Ф" glyph-name="uni0424" d="M311 255q20 -29 47 -29q22 0 38 25q13 19 13 60v183q0 41 -13 60q-16 25 -38 25q-27 0 -47 -29v-295zM203 550q-20 29 -47 29q-22 0 -38 -25q-13 -19 -13 -60v-183q0 -41 13 -60q16 -25 38 -25q27 0 47 29v295zM170 0q-3 0 -5 2q5 5 11 9t11 8q4 3 7 10t5 15t3 16t1 14 q-5 -8 -14.5 -15.5t-27.5 -7.5q-80 0 -123 66q-38 58 -38 140v291q0 82 38 140q43 66 123 66q12 0 24 -7.5t18 -21.5q0 11 -4 29t-12 25q-5 5 -11 9.5t-11 9.5q2 2 3 2h178q1 0 3 -2q-5 -5 -11 -9.5t-11 -9.5q-8 -7 -12 -25t-4 -29q6 14 18 21.5t24 7.5q79 0 123 -66 q38 -58 38 -140v-291q0 -82 -38 -140q-44 -66 -123 -66q-18 0 -27.5 7.5t-14.5 15.5q0 -6 1 -14t3 -16t5 -15t7 -10q5 -4 11 -8t11 -9q-2 -2 -5 -2h-174z"/>
<glyph horiz-adv-x="491" unicode="Х" glyph-name="uni0425" d="M471 1v-1l-149 1q-52 0 -54 -1h1l-3 1q8 5 13.5 9.5t9.5 7.5q14 14 14 24q-19 61 -35.5 113.5t-31.5 98.5h-2q-5 -13 -14 -40.5t-23 -69.5q-30 -92 -30 -102q0 -15 18 -28q5 -4 9.5 -7t9.5 -7h-3h-198q-2 0 -3 1q34 13 55 53q10 19 28 74l96 288v7q0 -3 -59 185 q-4 13 -9 31.5t-13 43.5q-2 8 -6.5 19t-9.5 26q-10 30 -24 44q-14 13 -42 27q1 1 6 1l188 -1q-1 -1 -3 -2.5t-4 -3.5q-20 -18 -15 -30l46 -152l5 -12q8 17 33 86q24 69 24 80q0 19 -27 34l2 1h20l165 -1q0 -1 -1 -1t-1.5 -0.5t-1.5 -0.5q-40 -25 -51 -50q-19 -45 -73 -218 q-33 -108 -33 -102q0 -5 42 -137q11 -40 29.5 -99.5t44.5 -139.5q9 -26 58 -48q2 0 4 -2h-2z"/>
<glyph horiz-adv-x="455" unicode="Ц" glyph-name="uni0426" d="M419 201q-2 -11 -5.5 -26.5t-8.5 -36.5q-4 -28 -6 -61t-2 -73q1 -4 1 -9v-12t1 -16l5 -73l-1 -1l-2 1q-18 31 -30 49t-18 25q-30 32 -80 32h-272q12 11 24 22.5t12 28.5v688q0 32 -37 60q2 1 5 1h169q2 0 3 -1l-2 -2t-3 -2q-29 -17 -29 -61v-557h92v566q0 25 -16 41 q-5 4 -9 7.5t-8 7.5q2 0 2.5 0.5t1.5 0.5h2h170q-24 -15 -32 -30q-6 -12 -6 -41v-549q7 -4 10 -4q33 0 61 19z"/>
<glyph horiz-adv-x="431" unicode="Ч" glyph-name="uni0427" d="M388 799q-2 -2 -5 -4q-32 -24 -32 -52v-702q0 -14 18 -27q8 -7 13 -10q3 -2 5 -3v-1h-177l-1 1q6 4 11 6.5t8 4.5q4 2 7 4q10 9 10 27v274q-46 2 -89 15q-36 11 -68 43q-34 34 -41 69q-11 47 -11 75v219q0 38 -36 61l2 1h176v-2q-6 -3 -13 -10.5t-12 -16.5t-8.5 -19 t-3.5 -17v-137q0 -86 96 -86q6 0 9 3v222q0 24 -18 44l-18 18l1 1h172q4 0 5 -1z"/>
<glyph horiz-adv-x="611" unicode="Ш" glyph-name="uni0428" d="M567 0h-567q13 10 25 22t12 29v688q0 22 -10 35q-5 8 -27 25q3 1 5 1h168q2 0 3 -1q-2 -2 -5 -4q-30 -17 -30 -61v-557h89v570q0 23 -14 37q-18 18 -18 15q1 1 3 1h41h129l1 -2q-35 -26 -35 -50v-571h89v566q0 36 -29 53q-3 1 -3 3q1 1 3 1h172q-12 -8 -19.5 -14.5 t-11.5 -13.5t-5.5 -16.5t-1.5 -22.5v-688q0 -23 38 -43z"/>
<glyph horiz-adv-x="643" unicode="Щ" glyph-name="uni0429" d="M607 201q-2 -11 -5.5 -26.5t-7.5 -36.5q-9 -56 -9 -134q0 -4 1 -9q0 -5 0.5 -12t1.5 -16l5 -73l-1 -1l-3 1q-18 31 -30 49t-18 25q-30 32 -80 32h-461q12 11 24.5 22.5t12.5 28.5v688q0 32 -37 60q2 1 5 1h167q2 0 3 -1q-2 -2 -5 -4q-29 -17 -29 -61v-557h88v570 q0 24 -13 37l-18 15h80q43 0 91 1l1 -2q-35 -26 -35 -49v-572h90v566q0 25 -16 41q-5 4 -9 7.5t-8 7.5q1 1 3 1l171 -1q-25 -16 -31 -29q-6 -12 -6 -41l-1 -549q7 -4 11 -4q34 0 60 19q4 2 8 6z"/>
<glyph horiz-adv-x="548" unicode="Ъ" glyph-name="uni042A" d="M385 199q0 14 -32 80q-14 29 -24.5 49t-18.5 31q-1 0 -2 1q-4 0 -5 -1v-190h55q9 0 18 10.5t9 19.5zM498 123q0 -123 -100 -123h-240l-2 2q29 9 36 28q6 13 6 47v540q-2 2 -5 2q-72 0 -190 -106l-2 1l-1 -1q72 104 74 287h265q2 0 4 -1l-2 -2q-40 -24 -40 -71v-207 q72 -75 131 -184q66 -125 66 -212z"/>
<glyph horiz-adv-x="567" unicode="Ы" glyph-name="uni042B" d="M228 199q0 14 -32 80q-14 29 -24.5 49t-18.5 31h-7v-190h55q9 0 18 10.5t9 19.5zM341 123q0 -123 -100 -123h-240l-1 2q29 11 36 28q5 15 5 47v649q0 44 -41 73q1 1 3 1h179q3 0 4 -1l-1 -2q-41 -24 -41 -71v-207q72 -75 131 -184q66 -125 66 -212zM525 2q-2 -2 -5 -2 h-177l-2 2l4 4l4 4q21 16 27 27q8 14 8 37v651q0 29 -11 43q-8 8 -16 15t-16 15q0 2 3 2h178q1 0 3 -2q-5 -5 -11 -9.5t-11 -9.5q-16 -13 -16 -34v-691q0 -22 16 -35q5 -4 11 -8t11 -9z"/>
<glyph horiz-adv-x="391" unicode="Ь" glyph-name="uni042C" d="M228 199q0 14 -32 80q-14 29 -24.5 49t-18.5 31h-7v-190h55q9 0 18 10.5t9 19.5zM341 123q0 -123 -100 -123h-240l-1 2q29 11 36 28q5 15 5 47v649q0 44 -41 73q1 1 3 1h179q3 0 4 -1l-1 -2q-41 -24 -41 -71v-207q72 -75 131 -184q66 -125 66 -212z"/>
<glyph horiz-adv-x="420" unicode="Э" glyph-name="uni042D" d="M340 210q0 -24 -11 -66q-37 -148 -158 -148t-149 165q-3 17 -22 42q98 26 158 77q2 2 5 3l1 -1q1 -11 2 -27.5t3 -38.5q4 -57 37 -57q43 0 43 61v161h-176q0 2 13 18q25 29 26 80h137v43q0 94 -66 94q-28 0 -71 -40q-32 -30 -57 -66h-3q8 22 20 64q4 21 5.5 51.5 t1.5 71.5q0 42 -7 62q57 45 132 45q31 0 54 -12q82 -45 82 -158v-424v0z"/>
<glyph horiz-adv-x="605" unicode="Ю" glyph-name="uni042E" d="M420 579q0 21 -15.5 38t-36.5 17t-35.5 -16.5t-14.5 -38.5v-360q0 -22 12.5 -41t33.5 -19h7q23 0 36 18t13 42v360zM525 214q0 -56 -15 -99q-17 -52 -51 -86q-41 -39 -89 -39q-55 0 -94 39q-36 35 -51 91q-8 32 -8 48v213h-78v-332q0 -17 13.5 -27t26.5 -20l-1 -2h-178 l21 15q17 11 17 34v690q0 26 -8 37q-8 5 -15 11t-15 12l1 1h178l-5 -5q-2 -2 -6 -5t-9 -8q-20 -17 -20 -43v-254h78v79q0 246 165 246q43 0 77 -26.5t50 -68.5q16 -41 16 -116v-385v0z"/>
<glyph horiz-adv-x="434" unicode="Я" glyph-name="uni042F" d="M255 637h-11q-49 0 -53 -1q-28 -6 -28 -38q0 -21 37 -80t54 -60l2 3zM382 798q-28 -22 -28 -39v-725q0 -7 27 -32q0 -1 -1 -2h-162q-1 0 -1 2q0 -1 16 14q17 15 17 27v284q-20 18 -56 56q-2 0 -3 1q-3 0 -6 -7q-42 -92 -42 -266q0 -39 3 -58q1 -2 2 -8.5t3 -17.5 q5 -23 5 -24v-1q0 -1 -1 -1v-1h-149q-4 0 -6 1q5 4 10.5 8.5t12.5 9.5q9 7 10 28v55q0 133 39 237q13 38 32 71q4 7 9.5 16.5t12.5 22.5q3 7 3 9q-1 0 -1 2q-19 23 -34 50.5t-28 58.5q-27 67 -27 121q0 21 17 50q36 60 94 60h231l1 -2v0z"/>
<glyph horiz-adv-x="369" unicode="а" glyph-name="uni0430" d="M142 334l30 30t22 21v40q0 24 -15.5 41t-41.5 17q-19 0 -42 -20t-47 -62q-2 -4 -5.5 -9.5t-8.5 -13.5q-1 -1 -2 -1l-1 -1q-1 1 -1 3q0 8 1 20t3 28t3 28.5t1 20.5q0 50 -26 122q3 8 15 16.5t30.5 15.5t41.5 11.5t49 4.5q35 0 67.5 -18.5t46.5 -44.5q27 -45 27 -113 l1 -432q0 -15 25 -36l-1 -2h-212q-17 0 -35 8.5t-33 22.5t-24.5 32t-9.5 38q0 33 8.5 58.5t26.5 51t44.5 55t62.5 68.5zM199 262l-1 3q-9 2 -23 -8t-27.5 -24.5t-23.5 -28t-10 -18.5q0 -29 26 -35q2 -1 14 -1h34h11v112z"/>
<glyph horiz-adv-x="348" unicode="б" glyph-name="uni0431" d="M47 0q-9 0 -17.5 7t-15 18t-10.5 24.5t-4 26.5v558q0 68 27 113q14 26 46.5 44.5t67.5 18.5q25 0 48.5 -4.5t42 -11.5t30.5 -15.5t15 -16.5q-26 -72 -26 -122q0 -8 1 -20.5t3 -28.5t3 -28t1 -20q0 -2 -1 -3q-1 1 -2 1l-1 1q-5 8 -8.5 13.5t-5.5 9.5q-24 42 -47 62t-42 20 q-26 0 -41.5 -17t-15.5 -41l1 -156q42 -39 78.5 -87t64 -94t43.5 -84.5t16 -57.5q0 -86 -61 -105q-13 -5 -58 -5h-132zM177 184q0 10 -10 25t-23 30t-26 27t-19 17h-1q-1 0 -1 -1h-1v-126q1 -3 11 -3h46q25 7 24 31z"/>
<glyph horiz-adv-x="422" unicode="в" glyph-name="uni0432" d="M235 186q0 18 -14 41t-31 51q-2 0 -2.5 0.5t-2.5 0.5q1 0 -7 -2q-6 -5 -11.5 -10.5t-12.5 -10.5q-18 -15 -18 -20v-83h59q40 0 40 33zM221 452q0 29 -22 29h-63v-120h5q7 7 20.5 21l27 28t23 26t9.5 16zM342 112q0 -48 -20 -77q-24 -35 -68 -35h-253l-1 1q6 4 13.5 8 t17.5 10q17 14 17 34v513q0 29 -10 42q-3 4 -12 9.5t-24 14.5l-2 1v2q3 1 11 1h206q45 0 68 -14q20 -13 35 -38t15 -48v-29q-3 -20 -10 -37.5t-18 -34.5t-25.5 -34.5t-31.5 -38.5v-1v-3q9 -24 24.5 -57t30.5 -67.5t26 -67t11 -54.5z"/>
<glyph horiz-adv-x="360" unicode="г" glyph-name="uni0433" d="M329 406q-6 5 -14 11t-18 14q-53 33 -70 38q-20 6 -79 6q-11 0 -13 -2v-421q0 -20 14 -34q5 -4 10.5 -8t10.5 -8q-2 -2 -6 -2h-162q-2 0 -2 2q13 12 20.5 20t9.5 11q9 15 9 42v495q0 39 -20 53q-5 4 -16 10q1 3 5 3h294q7 0 7 -2q-2 -5 -4 -11t-4 -14q-2 -19 -3.5 -33.5 t-1.5 -25.5q0 -54 34 -140z"/>
<glyph horiz-adv-x="513" unicode="д" glyph-name="uni0434" d="M140 0q-56 0 -81 -21q-27 -21 -59 -79q2 12 4 30.5t5 42.5q2 16 3 37.5t1 47.5q0 53 -3 86q-2 6 -2.5 14t-2.5 19q34 -16 54 -16q1 2 2 -0.5t4 2.5t8.5 24t15.5 63.5t25 121.5t36 198v3q0 26 -6 35q-1 1 -6.5 8t-15.5 18q0 2 1 2h200q1 0 1 -2q-10 -11 -15.5 -18t-6.5 -8 q-6 -9 -6 -35v-3q21 -121 36 -198t25 -121.5t15.5 -63.5t8.5 -24t4 -2.5t2 0.5q20 0 54 16q-2 -11 -2.5 -19t-2.5 -14q-3 -33 -3 -86q0 -26 1 -47.5t3 -37.5q3 -24 5 -42.5t4 -30.5q-32 58 -59 79q-26 21 -81 21h-166zM291 162l-66 250h-4l-66 -250h136z"/>
<glyph horiz-adv-x="320" unicode="е" glyph-name="uni0435" d="M265 38q-8 -15 -40 -31q-17 -8 -39 -12.5t-51 -4.5q-14 0 -29.5 5t-30 14t-26.5 20.5t-19 23.5q-14 26 -22 54t-8 59v321q0 6 1 15t3 20q12 79 71 112q22 11 51 11q68 0 121 -42q-4 -10 -5 -24t-1 -33q0 -27 3.5 -69.5t20.5 -93.5l-2 1q-10 10 -23.5 25.5t-29.5 29 t-33 23.5t-33 10q-19 0 -30.5 -9t-17.5 -23t-7.5 -31t-1.5 -33h122q2 -22 7.5 -35.5t16.5 -28.5q2 -3 5.5 -7t7.5 -9h-159v-85q0 -22 12 -40.5t34 -18.5q28 0 72 54q21 26 31.5 34.5t9.5 8.5q1 0 1 -2q0 -8 -1 -15t-3 -23q-3 -32 -3 -48q0 -54 25 -123z"/>
<glyph horiz-adv-x="688" unicode="ж" glyph-name="uni0436" d="M630 1q-2 0 -3 -1h-188l-1 1v1q0 1 2 4t5 11l10 15q6 16 6 43q0 14 -1 36.5t-4.5 48.5t-10 52t-17 47t-25.5 35t-35 16h-2h-4v-242q0 -26 6 -39.5t26 -26.5q0 -2 -3 -2h-153q-1 0 -1 2q19 13 25 26.5t6 39.5v242h-3h-3q-31 -2 -49.5 -31t-28 -67t-12.5 -77t-3 -60 q0 -28 7 -43q1 -1 2.5 -4.5t5.5 -10.5q8 -13 8 -15t-1 -1v-1h-188q-2 0 -3 1l22 16q18 15 23 35q2 16 6 40q7 54 19.5 89.5t29.5 62.5t38.5 49t47.5 49v5v1q-23 -1 -34 19t-19 44t-17 44.5t-27 20.5q-17 0 -40 -18q-8 -9 -15.5 -17.5t-15.5 -17.5q8 35 11.5 75t3.5 86 q0 9 -3.5 24t-3.5 23q0 5 11 5h75q48 0 66 -47q11 -26 17 -98l3.5 -49t7.5 -34t19.5 -17t39.5 3h1q2 2 2 4v186q0 14 -9.5 29t-21.5 20q0 3 6 3h-2h145q7 0 7 -3q-14 -5 -22.5 -20t-8.5 -29v-186q0 -2 0.5 -2.5t0.5 -1.5h2q26 -1 39.5 2t19.5 13.5t7 30t3 51.5q6 69 18 98 q18 47 65 47h76q11 0 11 -5q0 -8 -3.5 -23t-3.5 -24q0 -92 15 -161q-8 9 -15.5 17.5t-15.5 17.5q-21 18 -41 18q-17 0 -26 -20.5t-17 -44.5t-19.5 -44t-33.5 -19v-1v-5q26 -27 47.5 -49t38.5 -49t29 -62.5t20 -89.5q1 -7 2 -16.5t3 -23.5q5 -20 23 -35q6 -5 10 -7.5t7 -4.5 q4 -3 6 -4z"/>
<glyph horiz-adv-x="375" unicode="з" glyph-name="uni0437" d="M295 436q0 -33 -12 -48t-37 -32q10 -9 34 -36q15 -23 15 -68v-80q0 -88 -44 -141q-33 -41 -98 -41q-48 0 -82 34q-30 32 -45 79q-2 8 -4.5 19t-4.5 27q-3 23 -17 34q14 5 30 12t36 17q15 9 28 19.5t26 21.5v-8q-2 -79 46 -79q20 0 29.5 21.5t9.5 49.5q0 29 -9.5 49 t-39.5 20h-75q26 56 32 90h35q29 0 43 11t14 39q0 24 -13.5 33.5t-40.5 9.5q-45 0 -93 -46q5 23 6.5 47t1.5 51q0 35 -6 57t-19 36q0 2 5 2h164q42 0 65 -35q20 -30 20 -74v-91z"/>
<glyph horiz-adv-x="397" unicode="и" glyph-name="uni0438" d="M351 634q-5 -4 -10.5 -8t-10.5 -8q-13 -13 -13 -22v-551q0 -21 33 -43q-2 -2 -4 -2h-151v2q5 2 9.5 5.5t9.5 6.5q13 6 13 28v302q-4 -3 -24 -30t-55 -78q-23 -33 -23 -43v-12v-1v-1v-1v-138q0 -14 33 -36q1 -4 -4 -4h-152q-2 0 -2 1q1 1 5.5 4t12.5 10q17 13 17 25v557 q0 9 -17 22q-17 12 -17 16l2 1h151h3v-1l1 -1q-1 -2 -5.5 -5.5t-12.5 -10.5q-15 -14 -15 -19v-162q0 -8 2 -10q17 24 42.5 60.5t57.5 86.5v25q0 9 -31 36l2 1h149z"/>
<glyph horiz-adv-x="397" unicode="й" glyph-name="uni0439" d="M276 735q0 -43 -33 -62q-23 -12 -71 -12q-2 0 -16 0.5t-38 1.5l-2 1q-1 16 -4.5 30.5t-8.5 27.5q0 2 -4 12l1 1q27 -17 83 -17q72 0 90 27l2 -1q1 -2 1 -9zM351 634q-5 -4 -10.5 -8t-10.5 -8q-13 -13 -13 -22v-551q0 -21 33 -43q-2 -2 -4 -2h-151v2q12 8 22 14.5t10 25.5 v302q-4 -3 -24 -30t-55 -78q-23 -33 -23 -43v-12v-1v-1v-1v-138q0 -14 33 -36q1 -4 -4 -4h-152q-2 0 -2 1q1 1 5.5 4t12.5 10q17 13 17 25v557q0 9 -17 22q-17 12 -17 16l2 1h151h3v-1l1 -1q-1 -2 -5.5 -5.5t-12.5 -10.5q-15 -14 -15 -19v-162q0 -8 2 -10q17 24 42.5 60.5 t57.5 86.5v25q0 9 -31 36l2 1h149z"/>
<glyph unicode="к" glyph-name="uni043A" d="M391 0h-182q-2 0 -4 1l25 28q8 13 8 38t-8 57t-21.5 64.5t-31.5 62.5t-39 53q-10 0 -10 -5v-247q0 -20 9 -30q5 -5 26 -17l1 -3l-1 -2h-163v2q0 1 5 3q32 12 32 53v535q0 19 -35 39l-1 3l2 1h158q1 0 3 -2l-15 -13q-15 -12 -15 -25l1 -202l2 -1q34 5 49.5 17t21.5 46 q2 20 4.5 40t4.5 40q11 52 39.5 79.5t76.5 27.5q44 0 44 -13q0 1 -1.5 -6t-3.5 -22q-3 -20 -5 -37t-2 -30q0 -17 1.5 -32.5t3.5 -31.5q2 -6 3.5 -15t3.5 -22q-4 3 -8.5 8.5t-11.5 11.5q-14 11 -25 17.5t-22 6.5q-20 0 -31 -35q-5 -20 -9 -34.5t-11.5 -26t-19.5 -20.5 t-32 -17v-3q39 -53 63.5 -88t39.5 -63.5t25 -57.5t21 -70q7 -25 14.5 -39.5t20.5 -18.5q2 0 2 -2z"/>
<glyph unicode="л" glyph-name="uni043B" d="M312 636v-2q-3 -3 -7 -6t-7 -5q-26 -25 -26 -57v-30q0 -3 2 -15t5 -33l96 -425q12 -53 39 -57q5 -2 5 -3q0 -3 -4 -3h-157q-3 0 -3 2q24 16 24 40v4l-68 312h-3l-69 -312v-4q0 -22 24 -40q0 -2 -2 -2h-158q-3 0 -3 3q0 2 5 3q27 4 39 57q1 4 8.5 37.5t20 89.5t29.5 132 t37 166q4 21 6 33t2 15v30q0 32 -26 57q-4 2 -7.5 5t-7.5 6v2h206z"/>
<glyph horiz-adv-x="549" unicode="м" glyph-name="uni043C" d="M509 0h-167q-6 0 -6 2q12 8 24.5 17.5t12.5 22.5v408l-118 -136l-116 136v-387q0 -42 37 -60v-2q-1 -1 -2 -1h-1h-173q6 4 11.5 7.5t10.5 7.5q20 15 20 29v519q0 38 -20 56q-6 4 -11.5 8t-10.5 7v2h201l54 -76l56 76l200 -1q-5 -5 -11 -9t-11 -8q-11 -9 -15 -23.5 t-4 -33.5v-498q0 -25 5 -35q7 -8 32 -23q2 -1 2.5 -2t1.5 -2z"/>
<glyph horiz-adv-x="420" unicode="н" glyph-name="uni043D" d="M376 635q-2 -3 -21 -17q-15 -12 -15 -30v-552q0 -5 4 -11t10 -11t12 -8.5t9 -3.5v-2h-170v2l6 2q6 2 19.5 10.5t13.5 21.5v266h-111v-266q0 -10 11.5 -19.5t21.5 -14.5l-2 -2h-162l-1 1q12 6 25 13t13 22l-1 545q0 24 -19 40l-19 15h164q2 0 3 -1l-10 -8l-10 -8 q-14 -11 -14 -35v-103h111v103q0 24 -18 36q-9 7 -21 15l2 1h167q1 0 2 -1z"/>
<glyph horiz-adv-x="357" unicode="о" glyph-name="uni043E" d="M187 391q0 81 -44 81q-25 0 -39 -17.5t-14 -42.5v-186q0 -23 10 -46q13 -26 34 -26q53 0 53 70v167zM277 152q0 -39 -11 -70q-17 -42 -51 -67t-79 -25q-29 0 -50 8q-43 15 -67 63q-19 44 -19 94v311q0 74 35 124q41 56 112 56q32 0 70 -27q33 -26 46.5 -60t13.5 -93v-314 v0z"/>
<glyph horiz-adv-x="418" unicode="п" glyph-name="uni043F" d="M381 635q-26 -14 -34.5 -29t-8.5 -29v-529q0 -32 28 -47l-1 -1h-153h4l-6 1q11 8 21.5 17.5t10.5 20.5v427h-96v-421q0 -30 27 -43l-1 -2h-1h-155q-2 0 -5 1q1 2 7 5.5t16 11.5q16 10 16 23v537q0 29 -50 57q1 1 3 1h377z"/>
<glyph horiz-adv-x="376" unicode="р" glyph-name="uni0440" d="M208 429q0 34 -32 34h-41v-271q0 -5 6 -5q3 0 11 5q27 22 40.5 83t15.5 154zM326 497q0 -147 -44.5 -243.5t-118.5 -145.5q-9 -5 -18.5 -11.5t-9.5 -14.5v-210q0 -25 37 -41q-1 -1 -5 -1h-163h-1q-2 0 -3 1q2 3 20 18t18 23v694q0 47 -38 68l1 1q1 1 4 1h178 q81 0 112 -29q31 -30 31 -110z"/>
<glyph horiz-adv-x="329" unicode="с" glyph-name="uni0441" d="M249 38q-3 -8 -13.5 -16.5t-26.5 -15.5t-36 -11.5t-42 -4.5q-29 0 -59.5 19t-45.5 44q-26 46 -26 113v290q0 76 35 129q40 61 113 61q40 0 95 -25q-3 -15 -8.5 -38t-11.5 -53q-2 -17 -5 -49.5t-6 -80.5h-2q-16 36 -24 49q-18 26 -43 26q-21 0 -35 -23q-12 -17 -12 -55 v-186q0 -19 8 -38q10 -21 27 -20h7q27 2 75 82q5 10 14 23l1 1q1 0 2 1q1 -1 1 -3q0 -8 -1 -20t-3 -28t-3 -28t-1 -20q0 -55 26 -123z"/>
<glyph horiz-adv-x="397" unicode="т" glyph-name="uni0442" d="M326 389l-1 1q-39 54 -47 62q-32 32 -66 31h-4v-438q0 -26 36 -42q1 -3 -3 -3h-164q-1 0 -2 1q0 1 1 2q16 3 28 14.5t12 27.5v438h-5q-5 0 -19 -7q-26 -13 -50 -36t-42 -51q6 25 10.5 51t7.5 48t4.5 38.5t1.5 24.5q0 13 -0.5 22.5t-2 18.5t-4 19t-5.5 25h297 q-1 -14 -1.5 -35.5t-0.5 -50.5q0 -28 4.5 -68t15.5 -93h-1z"/>
<glyph horiz-adv-x="437" unicode="у" glyph-name="uni0443" d="M395 634q0 7 -18 -26q-20 -34 -29 -177q-1 -27 -2.5 -71t-3.5 -96.5t-5 -109.5t-6 -109q-12 -108 -35 -148q-36 -67 -126 -67h-84q-7 114 -55 201l1 1q72 -46 110 -46q57 0 81 62q7 20 8 29q-49 0 -98 43q-24 21 -38 44.5t-19 48.5q-6 32 -9 77.5t-4.5 92.5t-4.5 89.5 t-9 67.5q-12 61 -49 95l1 1h175l1 -2q-25 -84 -25 -134q0 -12 1.5 -43.5t4.5 -66t8.5 -65t13.5 -40.5q21 -27 67 -27q4 0 6 2q3 28 5 71t3.5 84t2.5 71.5t1 35.5q0 83 -36 112v1q1 1 5 1h159q2 0 2 -2z"/>
<glyph horiz-adv-x="553" unicode="ф" glyph-name="uni0444" d="M286 -102q0 -11 3 -27.5t11 -23.5q5 -3 10.5 -7t10.5 -8q-2 -2 -5 -2h-160q-3 0 -5 2q5 4 10.5 8t10.5 7q8 7 11 23.5t3 27.5v75v48q-4 -8 -12.5 -14.5t-25.5 -6.5q-74 0 -113 61q-35 53 -35 128v257q0 76 35 129q40 61 113 61q11 0 22 -7t16 -20v121q0 10 -3 26.5 t-11 23.5q-5 5 -10.5 9t-10.5 8q2 2 3 2h164q1 0 3 -2q-5 -4 -10.5 -8t-10.5 -9q-8 -7 -11 -23.5t-3 -26.5v-121q5 13 16 20t22 7q73 0 114 -61q35 -53 35 -129v-257q0 -75 -35 -128q-40 -61 -114 -61q-8 0 -15 5t-12 10t-8 7.5t-3 -1.5v-123zM286 187q18 -27 43 -27 q21 0 35 23q12 18 12 55v159q0 38 -12 55q-14 23 -35 23q-25 0 -43 -26v-262zM186 449q-18 26 -43 26q-21 0 -35 -23q-12 -17 -12 -55v-159q0 -37 12 -55q14 -23 35 -23q25 0 43 27v262z"/>
<glyph horiz-adv-x="475" unicode="х" glyph-name="uni0445" d="M164 335q-2 7 -8.5 27t-16 47.5t-20.5 58.5t-22.5 59.5t-23 50.5t-20.5 32q-11 13 -39 25q1 1 6 1l173 -1q-1 -1 -7 -5q-17 -16 -14 -28l43 -140q1 -1 4 -11q5 8 12.5 28t18.5 51q11 32 16.5 50.5t5.5 23.5q0 18 -25 31l2 1h18l152 -1q0 -1 -1 -1t-1.5 -0.5t-1.5 -0.5 q-36 -23 -47 -46q0 1 -4.5 -11.5t-13 -33.5t-19 -48.5t-21.5 -55.5t-21 -55t-18 -48q18 -60 48 -129.5t59 -158.5q7 -23 53 -44q2 0 4 -2h-2v-1h-137h-50h1l-3 1q8 5 13 9t8 7q13 12 13 22q-17 56 -32 104.5t-29 90.5h-2q-2 -2 -7 -16.5t-12 -36t-14.5 -45.5t-14 -45 t-10.5 -35.5t-4 -16.5q0 -14 17 -26q5 -4 9 -6.5t8 -6.5h-3h-182q-2 0 -2 1q30 11 50 49z"/>
<glyph horiz-adv-x="423" unicode="ц" glyph-name="uni0446" d="M385 185q-2 -10 -5 -24t-7 -34q-4 -26 -6 -56.5t-2 -66.5q1 -3 1 -8v-11q0 -7 1 -15l5 -68h-1h-2q-17 29 -28 45.5t-16 23.5q-29 29 -74 29h-250q11 10 22 20.5t11 26.5v533q0 30 -34 55q2 1 5 1h155q2 0 3 -1l-2 -2t-3 -2q-26 -15 -26 -56v-412h84v421q0 23 -15 37 q-4 4 -8 7t-7 7q1 0 2 0.5t2 0.5h1h157q-22 -14 -30 -28q-5 -12 -5 -37v-405q5 -4 9 -4q32 0 56 17q1 1 3 2.5t4 3.5z"/>
<glyph horiz-adv-x="402" unicode="ч" glyph-name="uni0447" d="M357 635q-2 -2 -5 -4q-30 -22 -30 -47v-546q0 -13 17 -25q4 -3 7.5 -5t5.5 -4q3 -2 4 -3v-1h-163l-1 1q5 3 10 5.5t8 4.5q4 2 6 4q9 7 9 25v202q-43 2 -82 13q-33 11 -62 40q-32 31 -38 63q-10 40 -10 69v152q0 35 -33 56l1 1h162v-2q-6 -3 -12 -9.5t-11 -15t-8 -17.5 t-3 -16v-76q0 -79 89 -79q5 0 8 3v154q0 22 -17 41l-16 16l1 1h158q4 0 5 -1z"/>
<glyph horiz-adv-x="569" unicode="ш" glyph-name="uni0448" d="M522 0h-522q12 9 23 20.5t11 26.5v533q0 22 -9 32q-2 5 -8.5 10t-16.5 13q3 1 5 1h155q1 0 2 -1l-1.5 -1.5l-2.5 -2.5q-28 -15 -28 -56v-412h82v424q0 21 -13 34q-16 16 -16 14q1 1 2 1h38h119l1 -2q-33 -24 -33 -46v-425h82v421q0 33 -26 48q-3 1 -3 3q1 1 3 1h158 q-23 -14 -29 -25.5t-6 -36.5v-533q0 -21 35 -39z"/>
<glyph horiz-adv-x="597" unicode="щ" glyph-name="uni0449" d="M558 185q-2 -10 -5 -24t-6 -34q-9 -51 -9 -123q0 -5 1 -17q1 -11 2.5 -31t4.5 -54h-1h-3q-17 29 -28 45.5t-16 23.5q-29 29 -74 29h-424q5 3 9 6.5t9 7.5q8 6 12 15t4 18v533q0 30 -34 55q2 1 5 1h153q2 0 3 -1q-2 -2 -5 -4q-26 -15 -26 -56v-412h81v424q0 22 -12 34 l-17 14h74t84 1v-2q-32 -23 -32 -45v-426h83v421q0 22 -15 37q-4 4 -8 7t-7 7q1 1 2 1l158 -1q-24 -15 -29 -27t-5 -37l-1 -405q5 -4 10 -4q32 0 55 17q4 2 7 6z"/>
<glyph horiz-adv-x="508" unicode="ъ" glyph-name="uni044A" d="M354 183q0 5 -9 19t-21 30t-23.5 29.5t-15.5 18.5q-1 0 -2 1q-4 0 -5 -1v-125h51q8 0 16.5 10t8.5 18zM458 113q0 -113 -92 -113h-221l-2 2q27 7 33 26q6 12 6 43v397q-1 1 -5 1q-66 0 -175 -97l-1 1l-1 -1q66 95 68 264h244h1l2 -1l-2 -2q-36 -21 -36 -65v-141 q30 -30 62.5 -67.5t58.5 -79t43 -84.5t17 -83z"/>
<glyph horiz-adv-x="528" unicode="ы" glyph-name="uni044B" d="M483 2q-2 -2 -5 -2h-163l-1 2q1 2 3 3.5t4 3.5q10 8 16 14t9 11q7 14 7 34v499q0 25 -10 40q-8 7 -14.5 13.5t-14.5 13.5q0 2 2 2h164q1 0 3 -2q-11 -8 -20 -17q-15 -14 -15 -32v-535q0 -20 15 -33q5 -3 10 -7zM210 183q0 5 -8 19t-19 30t-23 30t-19 18h-7v-125h51 q8 0 16.5 10t8.5 18zM314 113q0 -113 -92 -113h-221l-1 2q25 9 33 26q5 13 5 43v497q0 41 -38 67q1 1 3 1h164q3 0 4 -1l-1 -2q-38 -21 -38 -65v-141q31 -29 63 -66.5t58.5 -79t43.5 -85t17 -83.5z"/>
<glyph horiz-adv-x="364" unicode="ь" glyph-name="uni044C" d="M210 183q0 5 -8 18.5t-19 29t-23 29.5t-19 20h-7v-125h51q8 0 16.5 10t8.5 18zM314 113q0 -113 -92 -113h-221l-1 2q25 9 33 26q5 13 5 43v497q0 41 -38 67q1 1 3 1h164q3 0 4 -1l-1 -2q-38 -21 -38 -65v-141q31 -29 63 -66.5t58.5 -79t43.5 -85t17 -83.5z"/>
<glyph horiz-adv-x="393" unicode="э" glyph-name="uni044D" d="M313 187q0 -11 -2.5 -26.5t-7.5 -34.5q-34 -136 -146 -136q-110 0 -137 152q-3 17 -20 39q47 12 82.5 30t62.5 41l5 2l1 -1q1 -10 2 -25t2 -35q5 -53 35 -53q39 0 39 56v100h-162q7 9 14 17t11.5 16.5t7.5 19.5t3 27h126v10q0 87 -61 87q-25 0 -65 -37q-29 -28 -52 -61 h-3l8 24t10 35q4 20 5.5 48t1.5 65q0 39 -7 57q52 42 122 42q29 0 49 -11q76 -42 76 -146v-302v0z"/>
<glyph horiz-adv-x="563" unicode="ю" glyph-name="uni044E" d="M386 433q0 20 -14 35.5t-34 15.5t-33 -15.5t-13 -35.5v-232q0 -20 11.5 -37.5t30.5 -17.5h7q21 0 33 16.5t12 38.5v232zM483 196q0 -49 -14 -91q-15 -47 -47 -79q-38 -36 -82 -36q-52 0 -86 36q-33 30 -47 84q-8 29 -8 44v147h-72v-256q0 -16 13 -25t24 -18l-1 -2l-163 1 l19 14q16 10 16 30v535q0 23 -8 34q-7 5 -13.5 10.5t-13.5 10.5l1 1h163q-2 -1 -5 -4q-2 -2 -5 -5.5t-8 -7.5q-19 -16 -19 -39v-184h72v23q0 227 152 227q39 0 71 -24.5t46 -63.5q15 -38 15 -106v-256v0z"/>
<glyph horiz-adv-x="406" unicode="я" glyph-name="uni044F" d="M235 486h-11h-34q-12 0 -14 -1q-26 -6 -26 -35q0 -4 10 -18t23.5 -28t27.5 -24.5t23 -8.5l1 3v112zM351 634q-25 -21 -25 -36v-567q0 -7 24 -29v-2h-149q-1 0 -1 2l14 13q16 14 16 25v211q-9 8 -22 21l-30 30l-2 1q-3 0 -6 -6q-10 -21 -17 -39t-11.5 -39.5t-7 -49 t-2.5 -67.5v-31q0 -13 2 -22q1 -2 2 -8t3 -16q4 -17 4 -22v-3h-138q-3 0 -5 1q4 4 9.5 7.5t11.5 8.5q7 6 9 26v51q0 49 5.5 87t16.5 68.5t27 57.5t37 56q3 4 3 8q-1 0 -1 2q-17 20 -31.5 38.5t-26 38t-18 40.5t-6.5 45q0 19 15 46q34 55 87 55h212l1 -2v0z"/>
<glyph horiz-adv-x="320" unicode="ѐ" glyph-name="uni0450" d="M108 791q-13 -42 12 -69q18 -18 64 -33q2 -1 15.5 -4t37.5 -11l2 1q6 15 13.5 28t15.5 24l4 4t4 5l-1 3q-17 -5 -37 -2.5t-46 10.5q-68 21 -79 53l-1 -1q-2 -1 -4 -8zM265 38q-8 -15 -40 -31q-17 -8 -39 -12.5t-51 -4.5q-14 0 -29.5 5t-30 14t-26.5 20.5t-19 23.5 q-14 26 -22 54t-8 59v321q0 6 1 15t3 20q12 79 71 112q22 11 51 11q68 0 121 -42q-4 -10 -5 -24t-1 -33q0 -27 3.5 -69.5t20.5 -93.5l-2 1q-10 10 -23.5 25.5t-29.5 29t-33 23.5t-33 10q-19 0 -30.5 -9t-17.5 -23t-7.5 -31t-1.5 -33h122q2 -22 7.5 -35.5t16.5 -28.5 q2 -3 5.5 -7t7.5 -9h-159v-85q0 -22 12 -40.5t34 -18.5q28 0 72 54q21 26 31.5 34.5t9.5 8.5q1 0 1 -2q0 -8 -1 -15t-3 -23q-3 -32 -3 -48q0 -54 25 -123z"/>
<glyph horiz-adv-x="430" unicode="ё" glyph-name="uni0451" d="M265 38q-8 -15 -40 -31q-17 -8 -39 -12.5t-51 -4.5q-14 0 -29.5 5t-30 14t-26.5 20.5t-19 23.5q-14 26 -22 54t-8 59v321q0 6 1 15t3 20q12 79 71 112q22 11 51 11q68 0 121 -42q-4 -10 -5 -24t-1 -33q0 -27 3.5 -69.5t20.5 -93.5l-2 1q-10 10 -23.5 25.5t-29.5 29 t-33 23.5t-33 10q-19 0 -30.5 -9t-17.5 -23t-7.5 -31t-1.5 -33h122q2 -22 7.5 -35.5t16.5 -28.5q2 -3 5.5 -7t7.5 -9h-159v-85q0 -22 12 -40.5t34 -18.5q28 0 72 54q21 26 31.5 34.5t9.5 8.5q1 0 1 -2q0 -8 -1 -15t-3 -23q-3 -32 -3 -48q0 -54 25 -123zM118 718 q0 -23 -21 -36t-45 -13t-43 12q-23 14 -23 37t23 37q19 12 43 12t45 -13t21 -36zM285 718q0 -23 -23 -37q-20 -12 -43 -12q-24 0 -45 13t-21 36t21 36t45 13q23 0 43 -12q23 -14 23 -37z"/>
<glyph horiz-adv-x="406" unicode="ђ" glyph-name="uni0452" d="M205 163q17 0 24 6t7 25q0 11 -10.5 33t-25.5 46.5t-31.5 46.5t-28.5 33h-1q-1 0 -1 -1h-1v-186v-130q0 -10 16 -23q10 -6 18 -11l-2 -2h-159q-5 0 -3 3q34 18 34 67v686q0 19 -14.5 27.5t-26.5 14.5q2 2 4 2h294q-2 -14 -3 -26t-1 -23q0 -37 13 -80q6 -20 12.5 -39 t13.5 -39q-7 4 -17 9t-23 12q-53 28 -115 28q-34 0 -38 -2q-3 -2 -3 -7v-110q35 -48 73.5 -98t71 -101.5t54 -105t21.5 -108.5q0 -86 -60 -105q-15 -5 -58 -5h-34v163z"/>
<glyph horiz-adv-x="360" unicode="ѓ" glyph-name="uni0453" d="M260 791q13 -42 -12 -69q-18 -18 -64 -33q-2 -1 -15.5 -4t-37.5 -11l-2 1q-6 15 -13.5 28t-15.5 24l-4 4t-4 5l1 3q17 -5 37 -2.5t46 10.5q68 21 79 53l1 -1q2 -1 4 -8zM329 406q-6 5 -14 11t-18 14q-53 33 -70 38q-20 6 -79 6q-11 0 -13 -2v-421q0 -20 14 -34 q5 -4 10.5 -8t10.5 -8q-2 -2 -6 -2h-162q-2 0 -2 2q13 12 20.5 20t9.5 11q9 15 9 42v495q0 39 -20 53q-5 4 -16 10q1 3 5 3h294q7 0 7 -2q-2 -5 -4 -11t-4 -14q-2 -19 -3.5 -33.5t-1.5 -25.5q0 -54 34 -140z"/>
<glyph horiz-adv-x="368" unicode="є" glyph-name="uni0454" d="M288 48q-10 -17 -44 -34q-38 -18 -98 -18q-15 0 -32 5.5t-32.5 15t-28.5 21.5t-21 26q-32 56 -32 123v446q0 6 1 15.5t3 22.5q13 85 77 121q22 12 55 12q75 0 132 -45q-7 -20 -7 -62q0 -81 6 -123q4 -11 9 -27t12 -38l-3 1q-26 37 -57 65q-44 41 -72 41q-42 0 -55 -43 q-7 -21 -7 -77v-17h133q3 -46 26 -80q2 -3 5.5 -7.5t8.5 -10.5h-173v-145q0 -24 13.5 -44t36.5 -20q32 0 78 58t45 58q1 0 1 -2q0 -8 -1 -21.5t-3 -30.5t-3 -30.5t-1 -22.5q0 -58 28 -133z"/>
<glyph horiz-adv-x="409" unicode="ѕ" glyph-name="uni0455" d="M155 477q-24 -6 -24 -31q0 -14 15.5 -31.5t38.5 -39.5t50 -49t50 -59.5t38.5 -71.5t15.5 -85q0 -85 -61 -105q-13 -5 -58 -5h-67q-48 0 -82 34q-30 30 -45 79q-2 7 -4.5 18.5t-4.5 27.5q-3 24 -17 33q23 11 58.5 26t61.5 25v-8q-1 -40 10.5 -56t35.5 -16h17q24 6 24 31 q0 22 -15.5 42.5t-38.5 43t-49.5 47t-49.5 54.5t-38.5 66.5t-15.5 82.5q0 82 61 101q13 5 58 5h67q23 0 44 -6.5t38 -23.5q30 -30 45 -79q4 -13 9 -46q3 -25 17 -33q-12 -5 -27 -11.5t-31.5 -13.5t-32.5 -14t-29 -12v8q1 40 -11 56t-35 16h-18z"/>
<glyph horiz-adv-x="226" unicode="і" glyph-name="uni0456" d="M160 753q0 -23 -21 -36t-45 -13q-23 0 -44 13t-21 36t21 36t44 13q24 0 45 -13t21 -36zM177 2q-2 -2 -5 -2h-163l-2 2q2 2 4 3.5t4 3.5q10 8 16 14t9 11q7 14 7 34v499q0 25 -10 40l-30 27q0 2 3 2h164q1 0 3 -2q-5 -4 -10.5 -8t-10.5 -9q-14 -13 -14 -32v-535 q0 -20 14 -33q5 -3 10.5 -7t10.5 -8z"/>
<glyph horiz-adv-x="379" unicode="ї" glyph-name="uni0457" d="M132 753q0 -23 -21 -36t-45 -13t-43 12q-23 14 -23 37t23 37q19 12 43 12t45 -13t21 -36zM299 753q0 -23 -23 -37q-20 -12 -43 -12q-24 0 -45 13t-21 36t21 36t45 13q23 0 43 -12q23 -14 23 -37zM230 2q-2 -2 -5 -2h-163l-2 2q2 2 4 3.5t4 3.5q10 8 16 14t9 11q7 14 7 34 v499q0 25 -10 40l-30 27q0 2 3 2h164q1 0 3 -2q-5 -4 -10.5 -8t-10.5 -9q-14 -13 -14 -32v-535q0 -20 14 -33q5 -3 10.5 -7t10.5 -8z"/>
<glyph horiz-adv-x="371" unicode="ј" glyph-name="uni0458" d="M139 -11q26 0 41 17t15 41v426q-2 2 -12 2q-61 0 -80 -6q-9 -3 -26.5 -12.5t-43.5 -25.5q-10 -8 -18 -14t-14 -11l-1 4q34 86 34 140q0 11 -1 25.5t-4 33.5q-2 8 -4 14t-4 11q0 2 7 2h294q3 0 5 -3q-5 -3 -9 -5.5t-7 -4.5q-20 -15 -20 -53v-568q0 -68 -27 -113 q-14 -25 -46.5 -44t-67.5 -19q-26 0 -49 4.5t-41.5 11.5t-30.5 15.5t-15 16.5q26 68 26 123q0 8 -1 20t-3 28t-2.5 28t-0.5 20v3l1 -1q1 0 2 -1q9 -13 14 -23q49 -82 89 -82z"/>
<glyph horiz-adv-x="618" unicode="љ" glyph-name="uni0459" d="M434 190q-1 5 -13 20t-29 32.5t-35.5 34t-32.5 25.5h-1q-1 0 -1 -1h-1l38 -153q1 -3 11 -1l45 8q23 11 19 35zM291 469q39 -40 87.5 -80t90.5 -82t70.5 -85.5t28.5 -91.5q1 -24 -3.5 -47t-16 -41.5t-31 -30t-48.5 -11.5h-211q-3 0 -3 2q24 16 24 40v4l-68 362h-3 l-69 -362v-4q0 -22 24 -40q0 -2 -2 -2h-158q-3 0 -3 3q0 2 5 3q27 4 39 57q1 3 2.5 10.5t5 26.5t10.5 52.5t18 88.5t27.5 134.5t39.5 190.5q0 32 -26 57q-4 2 -7.5 5t-7.5 6v2h206v-2q-3 -3 -7 -6t-7 -5q-26 -25 -26 -57z"/>
<glyph horiz-adv-x="591" unicode="њ" glyph-name="uni045A" d="M420 194q-4 23 -23.5 53t-54.5 61l-2 -1v-141q1 -3 10 -3h46q11 3 18.5 10.5t5.5 20.5zM340 478q21 -24 55 -63t66.5 -89.5t56 -110.5t23.5 -125q0 -35 -15 -55t-46 -30q-13 -5 -58 -5h-217v2l19 11q20 14 20 38v251h-111v-266q0 -11 15 -23q10 -6 18 -11l-2 -2h-162 l-1 1q5 4 12 10t16 15q10 20 10 43l-1 512q0 24 -19 40l-19 15h164q2 0 3 -1l-10 -8l-10 -8q-14 -11 -14 -35v-103h111v103q0 24 -18 36q-9 7 -21 15l2 1h167q1 0 2 -1q-2 -3 -21 -17q-15 -12 -15 -30v-110z"/>
<glyph horiz-adv-x="415" unicode="ћ" glyph-name="uni045B" d="M207 0q-1 0 -3 1l25 28q8 13 8 38q0 37 -7.5 78t-20 79.5t-30.5 72t-39 56.5h-1q-1 0 -1 -1h-1v-186v-130q0 -10 16 -23q10 -6 18 -11l-2 -2h-159q-5 0 -3 3q34 18 34 67v686q0 19 -14.5 27.5t-26.5 14.5q2 2 4 2h294q-2 -14 -3 -26t-1 -23q0 -37 13 -80q6 -20 12.5 -39 t13.5 -39q-7 4 -17 9t-23 12q-53 28 -115 28q-34 0 -38 -2q-3 -2 -3 -7v-110q46 -52 80.5 -104t60 -107.5t44 -117t33.5 -131.5q9 -50 35 -58l2 -2l-2 -3h-183z"/>
<glyph unicode="ќ" glyph-name="uni045C" d="M300 791q13 -42 -12 -69q-18 -18 -64 -33q-2 -1 -15.5 -4t-37.5 -11l-2 1q-6 15 -13.5 28t-15.5 24l-4 4t-4 5l1 3q17 -5 37 -2.5t46 10.5q68 21 79 53l1 -1q2 -1 4 -8zM391 0h-182q-2 0 -4 1l25 28q8 13 8 38t-8 57t-21.5 64.5t-31.5 62.5t-39 53q-10 0 -10 -5v-247 q0 -20 9 -30q5 -5 26 -17l1 -3l-1 -2h-163v2q0 1 5 3q32 12 32 53v535q0 19 -35 39l-1 3l2 1h158q1 0 3 -2l-15 -13q-15 -12 -15 -25l1 -202l2 -1q34 5 49.5 17t21.5 46q2 20 4.5 40t4.5 40q11 52 39.5 79.5t76.5 27.5q44 0 44 -13q0 1 -1.5 -6t-3.5 -22q-3 -20 -5 -37 t-2 -30q0 -17 1.5 -32.5t3.5 -31.5q2 -6 3.5 -15t3.5 -22q-4 3 -8.5 8.5t-11.5 11.5q-14 11 -25 17.5t-22 6.5q-20 0 -31 -35q-5 -20 -9 -34.5t-11.5 -26t-19.5 -20.5t-32 -17v-3q39 -53 63.5 -88t39.5 -63.5t25 -57.5t21 -70q7 -25 14.5 -39.5t20.5 -18.5q2 0 2 -2z"/>
<glyph horiz-adv-x="397" unicode="ѝ" glyph-name="uni045D" d="M108 791q-13 -42 12 -69q18 -18 64 -33q2 -1 15.5 -4t37.5 -11l2 1q6 15 13.5 28t15.5 24l4 4t4 5l-1 3q-17 -5 -37 -2.5t-46 10.5q-68 21 -79 53l-1 -1q-2 -1 -4 -8zM351 634q-5 -4 -10.5 -8t-10.5 -8q-13 -13 -13 -22v-551q0 -21 33 -43q-2 -2 -4 -2h-151v2 q12 8 22 14.5t10 25.5v302q-4 -3 -24 -30t-55 -78q-23 -33 -23 -43v-12v-1v-1v-1v-138q0 -14 33 -36q1 -4 -4 -4h-152q-2 0 -2 1q1 1 5.5 4t12.5 10q17 13 17 25v557q0 9 -17 22q-17 12 -17 16l2 1h151h3v-1l1 -1q-1 -2 -5.5 -5.5t-12.5 -10.5q-15 -14 -15 -19v-162 q0 -8 2 -10q17 24 42.5 60.5t57.5 86.5v25q0 9 -31 36l2 1h149z"/>
<glyph horiz-adv-x="437" unicode="ў" glyph-name="uni045E" d="M276 735q0 -43 -33 -62q-23 -12 -71 -12q-2 0 -16 0.5t-38 1.5l-2 1q-1 16 -4.5 30.5t-8.5 27.5q0 2 -4 12l1 1q27 -17 83 -17q72 0 90 27l2 -1q1 -2 1 -9zM395 634q0 7 -18 -26q-20 -34 -29 -177q-1 -27 -2.5 -71t-3.5 -96.5t-5 -109.5t-6 -109q-12 -108 -35 -148 q-36 -67 -126 -67h-84q-7 114 -55 201l1 1q72 -46 110 -46q57 0 81 62q7 20 8 29q-49 0 -98 43q-24 21 -38 44.5t-19 48.5q-6 32 -9 77.5t-4.5 92.5t-4.5 89.5t-9 67.5q-12 61 -49 95l1 1h175l1 -2q-25 -84 -25 -134q0 -12 1.5 -43.5t4.5 -66t8.5 -65t13.5 -40.5 q21 -27 67 -27q4 0 6 2q3 28 5 71t3.5 84t2.5 71.5t1 35.5q0 83 -36 112v1q1 1 5 1h159q2 0 2 -2z"/>
<glyph horiz-adv-x="418" unicode="џ" glyph-name="uni045F" d="M242 -48q0 -19 15 -34l10 -8l10 -8q-2 -2 -5 -2h-162q-4 0 -6 2q5 4 10.5 8t10.5 8q14 14 14 34v48h-136q-2 0 -3 1q50 28 50 57v537q0 13 -16 23q-10 8 -16 11.5t-7 5.5q3 1 5 1h155h1l1 -2q-27 -14 -27 -43v-421h96v427q0 11 -10.5 20.5t-21.5 17.5l6 1h-4h73h54h26 l1 -1q-28 -15 -28 -47v-508q0 -28 10 -45q4 -8 31 -34q0 -1 -1 -1h-136v-48z"/>
<glyph horiz-adv-x="385" unicode="Ґ" glyph-name="uni0490" d="M358 872q-37 -93 -37 -152q0 -26 6 -66q1 -2 9 -26q0 -3 -8 -3h-179q-3 0 -3 -1v-570q0 -21 16 -34q5 -5 11 -9t11 -9q-2 -2 -5 -2h-176q-1 0 -3 2q27 27 32 36q11 19 11 49v638q0 44 -22 62q-3 2 -7.5 4.5t-10.5 6.5q2 2 15 2h151q54 0 80 8q20 6 73 41q9 9 35 27l1 -4 v0z"/>
<glyph horiz-adv-x="360" unicode="ґ" glyph-name="uni0491" d="M135 52q0 -20 14 -34q5 -4 10.5 -8t10.5 -8q-2 -2 -6 -2h-162q-2 0 -2 2q13 12 20.5 20t9.5 11q9 15 9 42v492q0 41 -20 57q-3 2 -7 4.5t-10 5.5q2 2 14 2h139q26 0 44 2t29 5q17 6 68 38q8 5 15 11t17 14l1 -4q-34 -86 -34 -140q0 -11 1.5 -26t3.5 -34q1 -3 9 -24 q0 -3 -8 -3h-164q-2 0 -2 -1v-422z"/>
<glyph horiz-adv-x="476" unicode="Ӑ" glyph-name="uni04D0" d="M313 908q0 -48 -35 -68q-25 -13 -77 -13q-3 0 -18 0.5t-41 1.5l-2 1q-3 34 -14 64q-1 2 -2 5t-3 7l1 2q31 -19 90 -19q78 0 98 29l2 -1q1 -2 1 -9zM334 800q8 0 7 -4q-26 -11 -34 -25.5t-8 -44.5q0 -2 0.5 -6.5t4 -23.5t9.5 -59t16.5 -112.5t27 -183.5t39.5 -273 q5 -36 13 -44l23 -23q-2 -1 -4 -1h-1h-159h-9l-1 2l2 3q32 11 32 46q0 -8 -2 9t-5.5 40.5t-7.5 44.5t-8 21h-106q-4 0 -8 -21t-7.5 -44.5t-5.5 -40.5t-2 -9q0 -35 32 -46l2 -3l-1 -2h-9h-159h-1q-3 0 -4 1l23 23q8 8 13 44q23 162 39.5 273t27 183.5t16.5 112.5t9.5 59 t4 23.5t0.5 6.5q0 30 -8 44.5t-34 25.5q-1 4 7 4h236zM249 327q-1 30 -4 57.5t-7 56t-9.5 59.5t-12.5 69q-7 -38 -12.5 -69t-9.5 -59.5t-7 -56t-4 -57.5h66z"/>
<glyph horiz-adv-x="369" unicode="ӑ" glyph-name="uni04D1" d="M237 764q0 -48 -35 -68q-25 -13 -77 -13q-3 0 -18 0.5t-41 1.5l-2 1q-3 34 -14 64q-1 2 -2 5t-3 7l1 2q31 -19 90 -19q78 0 98 29l2 -1q1 -2 1 -9zM142 334l30 30t22 21v40q0 24 -15.5 41t-41.5 17q-19 0 -42 -20t-47 -62q-2 -4 -5.5 -9.5t-8.5 -13.5q-1 -1 -2 -1l-1 -1 q-1 1 -1 3q0 8 1 20t3 28t3 28.5t1 20.5q0 50 -26 122q3 8 15 16.5t30.5 15.5t41.5 11.5t49 4.5q35 0 67.5 -18.5t46.5 -44.5q27 -45 27 -113l1 -432q0 -15 25 -36l-1 -2h-212q-17 0 -35 8.5t-33 22.5t-24.5 32t-9.5 38q0 33 8.5 58.5t26.5 51t44.5 55t62.5 68.5zM199 262 l-1 3q-9 2 -23 -8t-27.5 -24.5t-23.5 -28t-10 -18.5q0 -29 26 -35q2 -1 14 -1h34h11v112z"/>
<glyph horiz-adv-x="476" unicode="Ӓ" glyph-name="uni04D2" d="M204 879q0 -23 -21 -36t-45 -13t-43 12q-23 14 -23 37t23 37q19 12 43 12t45 -13t21 -36zM371 879q0 -23 -23 -37q-20 -12 -43 -12q-24 0 -45 13t-21 36t21 36t45 13q23 0 43 -12q23 -14 23 -37zM334 800q8 0 7 -4q-26 -11 -34 -25.5t-8 -44.5q0 -2 0.5 -6.5t4 -23.5 t9.5 -59t16.5 -112.5t27 -183.5t39.5 -273q5 -36 13 -44l23 -23q-2 -1 -4 -1h-1h-159h-9l-1 2l2 3q32 11 32 46q0 -8 -2 9t-5.5 40.5t-7.5 44.5t-8 21h-106q-4 0 -8 -21t-7.5 -44.5t-5.5 -40.5t-2 -9q0 -35 32 -46l2 -3l-1 -2h-9h-159h-1q-3 0 -4 1l23 23q8 8 13 44 q23 162 39.5 273t27 183.5t16.5 112.5t9.5 59t4 23.5t0.5 6.5q0 30 -8 44.5t-34 25.5q-1 4 7 4h236zM249 327q-1 30 -4 57.5t-7 56t-9.5 59.5t-12.5 69q-7 -38 -12.5 -69t-9.5 -59.5t-7 -56t-4 -57.5h66z"/>
<glyph horiz-adv-x="369" unicode="ӓ" glyph-name="uni04D3" d="M122 723q0 -23 -21 -36t-45 -13t-43 12q-23 14 -23 37t23 37q19 12 43 12t45 -13t21 -36zM289 723q0 -23 -23 -37q-20 -12 -43 -12q-24 0 -45 13t-21 36t21 36t45 13q23 0 43 -12q23 -14 23 -37zM142 334l30 30t22 21v40q0 24 -15.5 41t-41.5 17q-19 0 -42 -20t-47 -62 q-2 -4 -5.5 -9.5t-8.5 -13.5q-1 -1 -2 -1l-1 -1q-1 1 -1 3q0 8 1 20t3 28t3 28.5t1 20.5q0 50 -26 122q3 8 15 16.5t30.5 15.5t41.5 11.5t49 4.5q35 0 67.5 -18.5t46.5 -44.5q27 -45 27 -113l1 -432q0 -15 25 -36l-1 -2h-212q-17 0 -35 8.5t-33 22.5t-24.5 32t-9.5 38 q0 33 8.5 58.5t26.5 51t44.5 55t62.5 68.5zM199 262l-1 3q-9 2 -23 -8t-27.5 -24.5t-23.5 -28t-10 -18.5q0 -29 26 -35q2 -1 14 -1h34h11v112z"/>
<glyph horiz-adv-x="369" unicode="ӕ" glyph-name="uni04D5" d="M142 334l30 30t22 21v40q0 24 -15.5 41t-41.5 17q-19 0 -42 -20t-47 -62q-2 -4 -5.5 -9.5t-8.5 -13.5q-1 -1 -2 -1l-1 -1q-1 1 -1 3q0 8 1 20t3 28t3 28.5t1 20.5q0 50 -26 122q3 8 15 16.5t30.5 15.5t41.5 11.5t49 4.5q35 0 67.5 -18.5t46.5 -44.5q27 -45 27 -113 l1 -432q0 -15 25 -36l-1 -2h-212q-17 0 -35 8.5t-33 22.5t-24.5 32t-9.5 38q0 33 8.5 58.5t26.5 51t44.5 55t62.5 68.5zM199 262l-1 3q-9 2 -23 -8t-27.5 -24.5t-23.5 -28t-10 -18.5q0 -29 26 -35q2 -1 14 -1h34h11v112z"/>
<glyph horiz-adv-x="429" unicode="Ӗ" glyph-name="uni04D6" d="M296 908q0 -48 -35 -68q-25 -13 -77 -13q-3 0 -18 0.5t-41 1.5l-2 1q-3 34 -14 64q-1 2 -2 5t-3 7l1 2q31 -19 90 -19q78 0 98 29l2 -1q1 -2 1 -9zM377 1q-1 -1 -5 -1h-367q-2 0 -4 2q7 4 24 17q15 16 15 44v689q0 30 -39 45l-1 2q1 1 4 1h328q5 0 5 -2l-6 -28 q-9 -47 -9 -70q0 -54 26 -127q2 -6 2 -9q-2 -2 -2 -1q-29 36 -73 54q-33 13 -63 14h-69q-5 0 -5 -6v-140h118q5 -23 15 -47t26 -48l-1 -3h-155q-3 0 -3 -4v-213q0 -7 22 -7h76q63 6 101 71q1 4 4 4q1 -1 1 -5q0 -6 -1 -15.5t-3 -22.5q-3 -26 -3 -39q0 -92 42 -155z"/>
<glyph horiz-adv-x="320" unicode="ӗ" glyph-name="uni04D7" d="M225 746q0 -43 -33 -62q-23 -12 -71 -12q-2 0 -16 0.5t-38 1.5l-2 1q-1 16 -4.5 30.5t-8.5 27.5q0 2 -4 12l1 1q27 -17 83 -17q72 0 90 27l2 -1q1 -2 1 -9zM103 647h3h-3zM147 647zM265 38q-8 -15 -40 -31q-17 -8 -39 -12.5t-51 -4.5q-14 0 -29.5 5t-30 14t-26.5 20.5 t-19 23.5q-14 26 -22 54t-8 59v321q0 6 1 15t3 20q12 79 71 112q22 11 51 11q68 0 121 -42q-4 -10 -5 -24t-1 -33q0 -27 3.5 -69.5t20.5 -93.5l-2 1q-10 10 -23.5 25.5t-29.5 29t-33 23.5t-33 10q-19 0 -30.5 -9t-17.5 -23t-7.5 -31t-1.5 -33h122q2 -22 7.5 -35.5 t16.5 -28.5q2 -3 5.5 -7t7.5 -9h-159v-85q0 -22 12 -40.5t34 -18.5q28 0 72 54q21 26 31.5 34.5t9.5 8.5q1 0 1 -2q0 -8 -1 -15t-3 -23q-3 -32 -3 -48q0 -54 25 -123z"/>
<glyph horiz-adv-x="740" unicode="Ӝ" glyph-name="uni04DC" d="M327 875q0 -23 -21 -36t-45 -13t-43 12q-23 14 -23 37t23 37q19 12 43 12t45 -13t21 -36zM494 875q0 -23 -23 -37q-20 -12 -43 -12q-24 0 -45 13t-21 36t21 36t45 13q23 0 43 -12q23 -14 23 -37zM685 1q-3 0 -4 -1h-204l-1 1v1l8 16l10 17q7 17 7 47q0 81 -25 177 q-30 117 -76 154h-2h-5v-339q0 -28 6.5 -43t28.5 -29q0 -2 -3 -2h-166q-2 0 -2 2q21 14 27.5 29t6.5 43v339h-3h-3q-47 -38 -77 -154q-24 -98 -24 -177q0 -30 7 -47q1 -1 9 -17q9 -15 9 -16q0 -2 -1 -1v-1h-205q-2 0 -3 1l24 18q21 16 25 38q1 7 2.5 18t3.5 25 q33 232 147 348v5v1q-39 14 -54 58l-8 38t-9 38q-9 38 -34 38q-21 0 -44 -20q-8 -10 -16.5 -19t-16.5 -18q16 73 16 175q0 9 -4 26t-4 25q0 5 12 5h82q51 0 71 -51q13 -30 19 -107t16 -98q7 -16 25 -28.5t35 -11.5h1q2 2 2 5v234q0 15 -10 31.5t-23 22.5q0 3 6 3h-2h158 q7 0 7 -3q-14 -6 -24 -22.5t-10 -31.5v-234q0 -3 2 -5h2q17 -1 34.5 11.5t24.5 28.5q10 21 16 98t19 107q19 51 71 51h82q12 0 12 -5q0 -8 -3.5 -25t-3.5 -26q0 -102 16 -175q-8 9 -17 18t-17 19q-22 20 -44 20q-25 0 -34 -38l-8 -38l-8 -38q-16 -44 -54 -58v-1v-5 q113 -116 146 -348q1 -14 6 -43q4 -22 25 -38q6 -5 11 -8.5t8 -5.5q4 -3 6 -4z"/>
<glyph horiz-adv-x="688" unicode="ӝ" glyph-name="uni04DD" d="M293 720q0 -23 -21 -36t-45 -13t-43 12q-23 14 -23 37t23 37q19 12 43 12t45 -13t21 -36zM460 720q0 -23 -23 -37q-20 -12 -43 -12q-24 0 -45 13t-21 36t21 36t45 13q23 0 43 -12q23 -14 23 -37zM630 1q-2 0 -3 -1h-188l-1 1v1q0 1 2 4t5 11l10 15q6 16 6 43 q0 14 -1 36.5t-4.5 48.5t-10 52t-17 47t-25.5 35t-35 16h-2h-4v-242q0 -26 6 -39.5t26 -26.5q0 -2 -3 -2h-153q-1 0 -1 2q19 13 25 26.5t6 39.5v242h-3h-3q-31 -2 -49.5 -31t-28 -67t-12.5 -77t-3 -60q0 -28 7 -43q1 -1 2.5 -4.5t5.5 -10.5q8 -13 8 -15t-1 -1v-1h-188 q-2 0 -3 1l22 16q18 15 23 35q2 16 6 40q7 54 19.5 89.5t29.5 62.5t38.5 49t47.5 49v5v1q-23 -1 -34 19t-19 44t-17 44.5t-27 20.5q-17 0 -40 -18q-8 -9 -15.5 -17.5t-15.5 -17.5q8 35 11.5 75t3.5 86q0 9 -3.5 24t-3.5 23q0 5 11 5h75q48 0 66 -47q11 -26 17 -98l3.5 -49 t7.5 -34t19.5 -17t39.5 3h1q2 2 2 4v186q0 14 -9.5 29t-21.5 20q0 3 6 3h-2h145q7 0 7 -3q-14 -5 -22.5 -20t-8.5 -29v-186q0 -2 0.5 -2.5t0.5 -1.5h2q26 -1 39.5 2t19.5 13.5t7 30t3 51.5q6 69 18 98q18 47 65 47h76q11 0 11 -5q0 -8 -3.5 -23t-3.5 -24q0 -92 15 -161 q-8 9 -15.5 17.5t-15.5 17.5q-21 18 -41 18q-17 0 -26 -20.5t-17 -44.5t-19.5 -44t-33.5 -19v-1v-5q26 -27 47.5 -49t38.5 -49t29 -62.5t20 -89.5q1 -7 2 -16.5t3 -23.5q5 -20 23 -35q6 -5 10 -7.5t7 -4.5q4 -3 6 -4z"/>
<glyph horiz-adv-x="401" unicode="Ӟ" glyph-name="uni04DE" d="M148 875q0 -23 -21 -36t-45 -13t-43 12q-23 14 -23 37t23 37q19 12 43 12t45 -13t21 -36zM315 875q0 -23 -23 -37q-20 -12 -43 -12q-24 0 -45 13t-21 36t21 36t45 13q23 0 43 -12q23 -14 23 -37zM321 557q0 -72 -54 -109q7 -6 16 -15.5t21 -23.5q17 -26 17 -74v-147 q0 -96 -48 -154q-36 -44 -107 -44q-52 0 -89 37q-32 32 -49 86q-2 8 -5 20.5t-5 29.5q-3 25 -18 36q14 5 32 13t40 19q30 19 58 45v-9q-2 -86 50 -86q43 0 43 110q0 23 -1.5 42t-4.5 27q-11 33 -48 33q-79 0 -81 1q14 29 22.5 53t12.5 44h38q62 0 62 76q0 69 -59 69 q-49 0 -101 -50q9 48 9 106q0 75 -28 106q2 2 6 2h178q45 0 71 -38q22 -34 22 -81v-124z"/>
<glyph horiz-adv-x="375" unicode="ӟ" glyph-name="uni04DF" d="M136 720q0 -23 -21 -36t-45 -13t-43 12q-23 14 -23 37t23 37q19 12 43 12t45 -13t21 -36zM303 720q0 -23 -23 -37q-20 -12 -43 -12q-24 0 -45 13t-21 36t21 36t45 13q23 0 43 -12q23 -14 23 -37zM295 436q0 -33 -12 -48t-37 -32q10 -9 34 -36q15 -23 15 -68v-80 q0 -88 -44 -141q-33 -41 -98 -41q-48 0 -82 34q-30 32 -45 79q-2 8 -4.5 19t-4.5 27q-3 23 -17 34q14 5 30 12t36 17q15 9 28 19.5t26 21.5v-8q-2 -79 46 -79q20 0 29.5 21.5t9.5 49.5q0 29 -9.5 49t-39.5 20h-75q26 56 32 90h35q29 0 43 11t14 39q0 24 -13.5 33.5 t-40.5 9.5q-45 0 -93 -46q5 23 6.5 47t1.5 51q0 35 -6 57t-19 36q0 2 5 2h164q42 0 65 -35q20 -30 20 -74v-91z"/>
<glyph horiz-adv-x="424" unicode="Ӣ" glyph-name="uni04E2" d="M296 908q0 -48 -35 -68q-25 -13 -77 -13q-3 0 -18 0.5t-41 1.5l-2 1q-3 34 -14 64q-1 2 -2 5t-3 7l1 2q31 -19 90 -19q78 0 98 29l2 -1q1 -2 1 -9zM381 798q-6 -5 -12 -9t-11 -9q-14 -12 -14 -23v-708q0 -22 36 -47q-2 -2 -4 -2h-164v2q14 9 24 16.5t10 27.5v437 q-4 -4 -26 -33t-60 -85q-25 -37 -25 -46v-14v-1v-1v-1v-258q0 -15 36 -40q1 -4 -4 -4h-165q-1 0 -2 1q3 3 9.5 8t13 11t11 12t4.5 12v714q0 10 -19 23q-18 13 -18 18l2 1h164h3v-1l1 -1q-1 -1 -19 -18q-17 -14 -17 -20v-176q0 -10 3 -11q19 26 46 66t62 94v27q0 9 -33 39 l2 1h162z"/>
<glyph horiz-adv-x="397" unicode="ӣ" glyph-name="uni04E3" d="M276 735q0 -43 -33 -62q-23 -12 -71 -12q-2 0 -16 0.5t-38 1.5l-2 1q-1 16 -4.5 30.5t-8.5 27.5q0 2 -4 12l1 1q27 -17 83 -17q72 0 90 27l2 -1q1 -2 1 -9zM351 634q-5 -4 -10.5 -8t-10.5 -8q-13 -13 -13 -22v-551q0 -21 33 -43q-2 -2 -4 -2h-151v2q12 8 22 14.5t10 25.5 v302q-4 -3 -24 -30t-55 -78q-23 -33 -23 -43v-12v-1v-1v-1v-138q0 -14 33 -36q1 -4 -4 -4h-152q-2 0 -2 1q1 1 5.5 4t12.5 10q17 13 17 25v557q0 9 -17 22q-17 12 -17 16l2 1h151h3v-1l1 -1q-1 -2 -5.5 -5.5t-12.5 -10.5q-15 -14 -15 -19v-162q0 -8 2 -10q17 24 42.5 60.5 t57.5 86.5v25q0 9 -31 36l2 1h149z"/>
<glyph horiz-adv-x="424" unicode="Ӥ" glyph-name="uni04E4" d="M170 876q0 -23 -21 -36t-45 -13t-43 12q-23 14 -23 37t23 37q19 12 43 12t45 -13t21 -36zM337 876q0 -23 -23 -37q-20 -12 -43 -12q-24 0 -45 13t-21 36t21 36t45 13q23 0 43 -12q23 -14 23 -37zM381 798q-6 -5 -12 -9t-11 -9q-14 -12 -14 -23v-708q0 -22 36 -47 q-2 -2 -4 -2h-164v2q14 9 24 16.5t10 27.5v437q-4 -4 -26 -33t-60 -85q-25 -37 -25 -46v-14v-1v-1v-1v-258q0 -15 36 -40q1 -4 -4 -4h-165q-1 0 -2 1q3 3 9.5 8t13 11t11 12t4.5 12v714q0 10 -19 23q-18 13 -18 18l2 1h164h3v-1l1 -1q-1 -1 -19 -18q-17 -14 -17 -20v-176 q0 -10 3 -11q19 26 46 66t62 94v27q0 9 -33 39l2 1h162z"/>
<glyph horiz-adv-x="397" unicode="ӥ" glyph-name="uni04E5" d="M156 723q0 -23 -21 -36t-45 -13t-43 12q-23 14 -23 37t23 37q19 12 43 12t45 -13t21 -36zM323 723q0 -23 -23 -37q-20 -12 -43 -12q-24 0 -45 13t-21 36t21 36t45 13q23 0 43 -12q23 -14 23 -37zM351 634q-5 -4 -10.5 -8t-10.5 -8q-13 -13 -13 -22v-551q0 -21 33 -43 q-2 -2 -4 -2h-151v2q5 2 9.5 5.5t9.5 6.5q13 6 13 28v302q-4 -3 -24 -30t-55 -78q-23 -33 -23 -43v-12v-1v-1v-1v-138q0 -14 33 -36q1 -4 -4 -4h-152q-2 0 -2 1q1 1 5.5 4t12.5 10q17 13 17 25v557q0 9 -17 22q-17 12 -17 16l2 1h151h3v-1l1 -1q-1 -2 -5.5 -5.5t-12.5 -10.5 q-15 -14 -15 -19v-162q0 -8 2 -10q17 24 42.5 60.5t57.5 86.5v25q0 9 -31 36l2 1h149z"/>
<glyph horiz-adv-x="357" unicode="Ӧ" glyph-name="uni04E6" d="M122 723q0 -23 -21 -36t-45 -13t-43 12q-23 14 -23 37t23 37q19 12 43 12t45 -13t21 -36zM289 723q0 -23 -23 -37q-20 -12 -43 -12q-24 0 -45 13t-21 36t21 36t45 13q23 0 43 -12q23 -14 23 -37zM187 391q0 81 -44 81q-25 0 -39 -17.5t-14 -42.5v-186q0 -23 10 -46 q13 -26 34 -26q53 0 53 70v167zM277 152q0 -39 -11 -70q-17 -42 -51 -67t-79 -25q-29 0 -50 8q-43 15 -67 63q-19 44 -19 94v311q0 74 35 124q41 56 112 56q32 0 70 -27q33 -26 46.5 -60t13.5 -93v-314v0z"/>
<glyph horiz-adv-x="357" unicode="ӧ" glyph-name="uni04E7" d="M120 730q0 -23 -21 -36t-45 -13t-43 12q-23 14 -23 37t23 37q19 12 43 12t45 -13t21 -36zM287 730q0 -23 -23 -37q-20 -12 -43 -12q-24 0 -45 13t-21 36t21 36t45 13q23 0 43 -12q23 -14 23 -37zM187 391q0 81 -44 81q-25 0 -39 -17.5t-14 -42.5v-186q0 -23 10 -46 q13 -26 34 -26q53 0 53 70v167zM277 152q0 -39 -11 -70q-17 -42 -51 -67t-79 -25q-29 0 -50 8q-43 15 -67 63q-19 44 -19 94v311q0 74 35 124q41 56 112 56q32 0 70 -27q33 -26 46.5 -60t13.5 -93v-314v0z"/>
<glyph horiz-adv-x="420" unicode="Ӭ" glyph-name="uni04EC" d="M176 895q0 -23 -21 -36t-45 -13t-43 12q-23 14 -23 37t23 37q19 12 43 12t45 -13t21 -36zM343 895q0 -23 -23 -37q-20 -12 -43 -12q-24 0 -45 13t-21 36t21 36t45 13q23 0 43 -12q23 -14 23 -37zM340 210q0 -24 -11 -66q-37 -148 -158 -148t-149 165q-3 17 -22 42 q98 26 158 77q2 2 5 3l1 -1q1 -11 2 -27.5t3 -38.5q4 -57 37 -57q43 0 43 61v161h-176q0 2 13 18q25 29 26 80h137v43q0 94 -66 94q-28 0 -71 -40q-32 -30 -57 -66h-3q8 22 20 64q4 21 5.5 51.5t1.5 71.5q0 42 -7 62q57 45 132 45q31 0 54 -12q82 -45 82 -158v-424v0z"/>
<glyph horiz-adv-x="393" unicode="ӭ" glyph-name="uni04ED" d="M164 723q0 -23 -21 -36t-45 -13t-43 12q-23 14 -23 37t23 37q19 12 43 12t45 -13t21 -36zM331 723q0 -23 -23 -37q-20 -12 -43 -12q-24 0 -45 13t-21 36t21 36t45 13q23 0 43 -12q23 -14 23 -37zM313 187q0 -11 -2.5 -26.5t-7.5 -34.5q-34 -136 -146 -136 q-110 0 -137 152q-3 17 -20 39q47 12 82.5 30t62.5 41l5 2l1 -1q1 -10 2 -25t2 -35q5 -53 35 -53q39 0 39 56v100h-162q7 9 14 17t11.5 16.5t7.5 19.5t3 27h126v10q0 87 -61 87q-25 0 -65 -37q-29 -28 -52 -61h-3l8 24t10 35q4 20 5.5 48t1.5 65q0 39 -7 57q52 42 122 42 q29 0 49 -11q76 -42 76 -146v-302v0z"/>
<glyph horiz-adv-x="460" unicode="Ӯ" glyph-name="uni04EE" d="M324 919q0 -48 -35 -68q-25 -13 -77 -13q-3 0 -18 0.5t-41 1.5l-2 1q-3 34 -14 64q-1 2 -2 5t-3 7l1 2q31 -19 90 -19q78 0 98 29l2 -1q1 -2 1 -9zM429 798q0 6 -19 -28q-21 -39 -32 -193q-3 -115 -18 -343q-14 -118 -38 -161q-39 -73 -137 -73h-91q-9 125 -60 218l1 2 q77 -50 119 -50q63 0 88 67q7 19 9 32q-52 -1 -106 46q-51 45 -62 101q-17 84 -21 162q-8 111 -9 118q-12 65 -53 103l1 1h190l1 -2q-27 -93 -27 -146q0 -20 6 -80q6 -54 25 -77q22 -30 73 -30q4 0 6 2q1 8 2 27.5t2.5 44.5t3 52t2.5 47.5t2 31.5t1 6q0 90 -39 122v1 q1 1 5 1h173q2 0 2 -2z"/>
<glyph horiz-adv-x="437" unicode="ӯ" glyph-name="uni04EF" d="M303 756q0 -48 -35 -68q-25 -13 -77 -13q-3 0 -18 0.5t-41 1.5l-2 1q-3 34 -14 64q-1 2 -2 5t-3 7l1 2q31 -19 90 -19q78 0 98 29l2 -1q1 -2 1 -9zM395 634q0 7 -18 -26q-20 -34 -29 -177q-1 -27 -2.5 -71t-3.5 -96.5t-5 -109.5t-6 -109q-12 -108 -35 -148 q-36 -67 -126 -67h-84q-7 114 -55 201l1 1q72 -46 110 -46q57 0 81 62q7 20 8 29q-49 0 -98 43q-24 21 -38 44.5t-19 48.5q-6 32 -9 77.5t-4.5 92.5t-4.5 89.5t-9 67.5q-12 61 -49 95l1 1h175l1 -2q-25 -84 -25 -134q0 -12 1.5 -43.5t4.5 -66t8.5 -65t13.5 -40.5 q21 -27 67 -27q4 0 6 2q3 28 5 71t3.5 84t2.5 71.5t1 35.5q0 83 -36 112v1q1 1 5 1h159q2 0 2 -2z"/>
<glyph horiz-adv-x="460" unicode="Ӱ" glyph-name="uni04F0" d="M204 876q0 -23 -21 -36t-45 -13t-43 12q-23 14 -23 37t23 37q19 12 43 12t45 -13t21 -36zM371 876q0 -23 -23 -37q-20 -12 -43 -12q-24 0 -45 13t-21 36t21 36t45 13q23 0 43 -12q23 -14 23 -37zM429 798q0 6 -19 -28q-21 -39 -32 -193q-3 -115 -18 -343 q-14 -118 -38 -161q-39 -73 -137 -73h-91q-9 125 -60 218l1 2q77 -50 119 -50q63 0 88 67q7 19 9 32q-52 -1 -106 46q-51 45 -62 101q-17 84 -21 162q-8 111 -9 118q-12 65 -53 103l1 1h190l1 -2q-27 -93 -27 -146q0 -20 6 -80q6 -54 25 -77q22 -30 73 -30q4 0 6 2 q1 8 2 27.5t2.5 44.5t3 52t2.5 47.5t2 31.5t1 6q0 90 -39 122v1q1 1 5 1h173q2 0 2 -2z"/>
<glyph horiz-adv-x="437" unicode="ӱ" glyph-name="uni04F1" d="M180 713q0 -23 -21 -36t-45 -13t-43 12q-23 14 -23 37t23 37q19 12 43 12t45 -13t21 -36zM347 713q0 -23 -23 -37q-20 -12 -43 -12q-24 0 -45 13t-21 36t21 36t45 13q23 0 43 -12q23 -14 23 -37zM395 634q0 7 -18 -26q-20 -34 -29 -177q-1 -27 -2.5 -71t-3.5 -96.5 t-5 -109.5t-6 -109q-12 -108 -35 -148q-36 -67 -126 -67h-84q-7 114 -55 201l1 1q72 -46 110 -46q57 0 81 62q7 20 8 29q-49 0 -98 43q-24 21 -38 44.5t-19 48.5q-6 32 -9 77.5t-4.5 92.5t-4.5 89.5t-9 67.5q-12 61 -49 95l1 1h175l1 -2q-25 -84 -25 -134q0 -12 1.5 -43.5 t4.5 -66t8.5 -65t13.5 -40.5q21 -27 67 -27q4 0 6 2q3 28 5 71t3.5 84t2.5 71.5t1 35.5q0 83 -36 112v1q1 1 5 1h159q2 0 2 -2z"/>
<glyph horiz-adv-x="460" unicode="Ӳ" glyph-name="uni04F2"/>
<glyph horiz-adv-x="437" unicode="ӳ" glyph-name="uni04F3"/>
<glyph horiz-adv-x="431" unicode="Ӵ" glyph-name="uni04F4" d="M176 878q0 -23 -21 -36t-45 -13t-43 12q-23 14 -23 37t23 37q19 12 43 12t45 -13t21 -36zM343 878q0 -23 -23 -37q-20 -12 -43 -12q-24 0 -45 13t-21 36t21 36t45 13q23 0 43 -12q23 -14 23 -37zM388 799q-2 -2 -5 -4q-32 -24 -32 -52v-702q0 -14 18 -27q8 -7 13 -10 q3 -2 5 -3v-1h-177l-1 1q6 4 11 6.5t8 4.5q4 2 7 4q10 9 10 27v274q-46 2 -89 15q-36 11 -68 43q-34 34 -41 69q-11 47 -11 75v219q0 38 -36 61l2 1h176v-2q-6 -3 -13 -10.5t-12 -16.5t-8.5 -19t-3.5 -17v-137q0 -86 96 -86q6 0 9 3v222q0 24 -18 44l-18 18l1 1h172 q4 0 5 -1z"/>
<glyph horiz-adv-x="402" unicode="ӵ" glyph-name="uni04F5" d="M157 718q0 -23 -21 -36t-45 -13t-43 12q-23 14 -23 37t23 37q19 12 43 12t45 -13t21 -36zM324 718q0 -23 -23 -37q-20 -12 -43 -12q-24 0 -45 13t-21 36t21 36t45 13q23 0 43 -12q23 -14 23 -37zM357 635q-2 -2 -5 -4q-30 -22 -30 -47v-546q0 -13 17 -25q4 -3 7.5 -5 t5.5 -4q3 -2 4 -3v-1h-163l-1 1q5 3 10 5.5t8 4.5q4 2 6 4q9 7 9 25v202q-43 2 -82 13q-33 11 -62 40q-32 31 -38 63q-10 40 -10 69v152q0 35 -33 56l1 1h162v-2q-6 -3 -12 -9.5t-11 -15t-8 -17.5t-3 -16v-76q0 -79 89 -79q5 0 8 3v154q0 22 -17 41l-16 16l1 1h158q4 0 5 -1 z"/>
<glyph horiz-adv-x="567" unicode="Ӹ" glyph-name="uni04F8" d="M246 898q0 -23 -21 -36t-45 -13t-43 12q-23 14 -23 37t23 37q19 12 43 12t45 -13t21 -36zM413 898q0 -23 -23 -37q-20 -12 -43 -12q-24 0 -45 13t-21 36t21 36t45 13q23 0 43 -12q23 -14 23 -37zM228 199q0 14 -32 80q-14 29 -24.5 49t-18.5 31h-7v-190h55q9 0 18 10.5 t9 19.5zM341 123q0 -123 -100 -123h-240l-1 2q29 11 36 28q5 15 5 47v649q0 44 -41 73q1 1 3 1h179q3 0 4 -1l-1 -2q-41 -24 -41 -71v-207q72 -75 131 -184q66 -125 66 -212zM525 2q-2 -2 -5 -2h-177l-2 2l4 4l4 4q21 16 27 27q8 14 8 37v651q0 29 -11 43q-8 8 -16 15 t-16 15q0 2 3 2h178q1 0 3 -2q-5 -5 -11 -9.5t-11 -9.5q-16 -13 -16 -34v-691q0 -22 16 -35q5 -4 11 -8t11 -9z"/>
<glyph horiz-adv-x="528" unicode="ӹ" glyph-name="uni04F9" d="M222 723q0 -23 -21 -36t-45 -13t-43 12q-23 14 -23 37t23 37q19 12 43 12t45 -13t21 -36zM389 723q0 -23 -23 -37q-20 -12 -43 -12q-24 0 -45 13t-21 36t21 36t45 13q23 0 43 -12q23 -14 23 -37zM483 2q-2 -2 -5 -2h-163l-1 2q1 2 3 3.5t4 3.5q10 8 16 14t9 11q7 14 7 34 v499q0 25 -10 40q-8 7 -14.5 13.5t-14.5 13.5q0 2 2 2h164q1 0 3 -2q-11 -8 -20 -17q-15 -14 -15 -32v-535q0 -20 15 -33q5 -3 10 -7zM210 183q0 5 -8 19t-19 30t-23 30t-19 18h-7v-125h51q8 0 16.5 10t8.5 18zM314 113q0 -113 -92 -113h-221l-1 2q25 9 33 26q5 13 5 43v497 q0 41 -38 67q1 1 3 1h164q3 0 4 -1l-1 -2q-38 -21 -38 -65v-141q31 -29 63 -66.5t58.5 -79t43.5 -85t17 -83.5z"/>
</font>
</defs>
</svg>
