<?xml version="1.0" encoding="UTF-8" standalone="no"?>
<!DOCTYPE svg  PUBLIC '-//W3C//DTD SVG 1.1//EN'  'http://www.w3.org/Graphics/SVG/1.1/DTD/svg11.dtd'>
<svg xmlns="http://www.w3.org/2000/svg" version="1.1">
<defs>
<font id="RomantiqueScript" horiz-adv-x="600">
<font-face font-family="Romantique Script" cap-height="800" ascent="800" unicode-range="U+0020-0491" bbox="-287 -304.627 1593 924.462" font-weight="400" underline-thickness="50" units-per-em="1000" panose-1="2 0 5 0 0 0 0 0 0 0" underline-position="-150" x-height="400" descent="-200"/>
<missing-glyph/>
<glyph horiz-adv-x="274" glyph-name="space" unicode=" "/>
<glyph horiz-adv-x="224" glyph-name="exclam" unicode="!" d="M424 703q-5 -8 -36 -56t-79 -125t-108 -178.5t-123 -216.5h-14l40.5 81t54 111t73 158.5t97.5 223.5v2h95zM17 -20q-14 5 -19 17.5t0 26.5q5 13 16.5 19t25.5 1t19.5 -17.5t0.5 -26.5q-5 -13 -17 -19t-26 -1z"/>
<glyph horiz-adv-x="218" glyph-name="quotedbl" unicode='&quot;' d="M94 728q19 -7 22.5 -22.5t-0.5 -26.5q-8 -23 -26.5 -38.5t-39.5 -12.5l7 15q14 3 18 20l-4 1q-14 5 -19 17.5t0 26.5q5 13 16.5 19t25.5 1zM194 728q19 -7 22.5 -22.5t-0.5 -26.5q-8 -23 -26.5 -38.5t-39.5 -12.5l7 15q14 3 18 20l-4 1q-14 5 -19 17.5t0 26.5 q5 13 16.5 19t25.5 1z"/>
<glyph horiz-adv-x="674" glyph-name="numbersign" unicode="#" d="M636 444v-12h-131l-114 -168h121v-12h-129l-175 -259l-11 6l171 253h-185l-175 -259l-11 6l171 253h-140v12h148l114 168h-138v12h146l175 259l11 -6l-171 -253h185l175 259l11 -6l-171 -253h123zM305 432l-114 -168h185l114 168h-185z"/>
<glyph horiz-adv-x="529" glyph-name="dollar" unicode="$" d="M537 582q-1 -42 -24.5 -82.5t-64.5 -66.5l-7 -4l-4 7q42 24 66.5 64t25.5 82v1q0 32 -12.5 55.5t-34.5 38.5l-2 2l-163 -301q19 -41 33.5 -83t14.5 -91q0 -41 -16.5 -79.5t-46.5 -68t-72 -47t-93 -17.5q-15 0 -28 3l-41 -77l-4 -7l-7 4l44 82q-17 4 -33 14l-50 -93l-4 -7 l-7 4l54 100q-29 20 -45 54t-16 74v1v1q1 39 20 76v1q25 51 73 82q11 7 21.5 11.5t21.5 8.5l2 -8q-28 -8 -51.5 -26t-41 -41.5t-27.5 -51t-10 -55.5q0 -36 15 -67.5t42 -51.5l131 241l47 87l3 5q-17 37 -30 74t-13 82q0 43 15.5 79t42.5 62t63 40.5t76 14.5q17 0 35 -3l8 15 l11 21l4 7l7 -4l-22 -41q19 -5 34 -13l27 51l4 7l7 -4l-31 -58q25 -15 39 -41t14 -62v-1v0zM431 697q-15 3 -32 3q-32 0 -58 -13t-44 -32.5t-28 -43t-10 -45.5q0 -34 9 -65.5t22 -62.5zM473 683q-16 9 -34 13l-142 -262l-3 -5l19 -41zM250 347l-178 -329q7 -5 21 -10l10 -4 h2l163 301zM115 2q6 -1 11.5 -1.5t11.5 -0.5q34 0 62.5 18.5t49 45.5t32 58.5t11.5 58.5q0 32 -6 60t-15 54l-159 -293h2z"/>
<glyph horiz-adv-x="597" glyph-name="percent" unicode="%" d="M187 414q-14 0 -22.5 6t-13 15t-6.5 19t-2 19q0 42 15 84t39 76t53.5 55t57.5 21q5 0 13.5 -2t15.5 -8t11.5 -15t6.5 -23q3 -37 -12 -80.5t-40 -80.5t-56 -61.5t-60 -24.5zM-91 -9l-9 9l713 703l9 -9zM332 693q-11 8 -24 8q-9 0 -23.5 -12.5t-30.5 -33.5t-32 -47 t-29 -53.5t-21 -53t-8 -45.5q0 -14 6 -24t17 -10t27 14.5t32.5 37t32.5 51t29.5 56t21.5 51.5t9 39q0 13 -7 22zM366 277q7 -6 11.5 -15t6.5 -23q3 -37 -12 -80.5t-40 -80.5t-56 -61.5t-60 -24.5q-14 0 -22.5 6t-13 15t-6.5 19t-2 19q0 42 15 84t39 76t53.5 55t57.5 21 q5 0 13.5 -2t15.5 -8zM193 34q0 -14 6 -24t17 -10t27 14.5t32.5 37.5t32.5 51t29.5 55.5t21.5 51.5t9 39q0 13 -7 22q-11 8 -24 8q-9 0 -23.5 -12.5t-30.5 -33.5t-32 -47t-29 -53.5t-21 -53t-8 -45.5z"/>
<glyph horiz-adv-x="670" glyph-name="ampersand" unicode="&amp;" d="M427 419q0 -148 -26.5 -249.5t-67.5 -167.5q48 12 89.5 45.5t71.5 81.5t46.5 107t15.5 122q0 9 -1 21t-2.5 24t-4.5 23t-6 18l7 3q4 -8 6.5 -19t4.5 -23.5t3 -25t1 -21.5q2 -66 -15.5 -127.5t-49.5 -110.5t-76.5 -82.5t-95.5 -44.5q-28 -42 -60 -70t-64 -45t-62.5 -24 t-55.5 -7q-37 0 -72 13.5t-62.5 40.5t-44 67.5t-16.5 93.5q0 93 34.5 167.5t86 127t110.5 80.5t108 28q46 0 75 -24q29 23 59.5 43.5t61.5 40.5q9 86 32.5 144t52.5 92.5t59 49t54 14.5h6q18 -2 30.5 -10t19.5 -18.5t10 -21.5t3 -18q0 -47 -22.5 -86.5t-60 -75.5t-85 -69.5 t-96.5 -67.5zM623 817q-22 0 -50.5 -14t-56 -47t-50.5 -88t-33 -137q46 30 88.5 58.5t75.5 58t52.5 60t19.5 64.5q0 13 -4.5 21.5t-10.5 13.5t-12.5 7t-11.5 3h-7zM85 -145q24 0 53 6.5t59.5 22t61 42t57.5 65.5q-17 -3 -35 -3q-45 0 -75.5 14.5t-49.5 38t-27 53t-8 58.5 q0 45 14 84t38 74.5t56 66.5t68 59q-26 21 -68 21q-47 0 -104.5 -27.5t-108 -79t-84.5 -124.5t-34 -164q0 -51 16 -89.5t42 -65t60 -39.5t69 -13zM323 0q41 64 68.5 166.5t27.5 252.5l1 34q-22 -15 -43.5 -30t-41.5 -31q8 -26 4.5 -58t-17 -65t-36.5 -64.5t-56 -58.5l-5 6 q32 26 54.5 56.5t36 62t17 62t-3.5 55.5q-35 -27 -65.5 -56.5t-53 -62t-35.5 -69t-13 -78.5q0 -15 4.5 -37t17.5 -41.5t36.5 -33.5t61.5 -14q22 0 41 4z"/>
<glyph horiz-adv-x="169" glyph-name="quotesingle" unicode="&apos;" d="M95 728q19 -7 22.5 -22.5t-0.5 -26.5q-8 -23 -26.5 -38.5t-39.5 -12.5l7 15q14 3 18 20l-4 1q-14 5 -19 17.5t0 26.5q5 13 16.5 19t25.5 1z"/>
<glyph horiz-adv-x="346" glyph-name="parenleft" unicode="(" d="M416 697q-36 -22 -79.5 -61.5t-87 -93t-85 -117.5t-74 -134.5t-54 -145.5t-24.5 -149h-11q-7 122 21.5 230t84 198.5t133.5 161.5t171 119z"/>
<glyph horiz-adv-x="488" glyph-name="parenright" unicode=")" d="M488 706q-2 -114 -28.5 -214.5t-78 -189t-130 -166t-183.5 -147.5l-8 14q68 46 125.5 107t103.5 129t81 137.5t58 132.5t35 114t12 82z"/>
<glyph glyph-name="asterisk" unicode="*"/>
<glyph horiz-adv-x="576" glyph-name="plus" unicode="+" d="M478 405h-184l-103 -187l-11 6l100 181h-182v12h188l97 175l11 -6l-93 -169h177v-12z"/>
<glyph horiz-adv-x="93" glyph-name="comma" unicode="," d="M20 44q19 -7 22 -22t-1 -26q-8 -23 -25.5 -39t-38.5 -13l6 15q14 3 18 20l-4 1q-14 5 -19 17.5t0 26.5q5 13 16.5 19t25.5 1z"/>
<glyph horiz-adv-x="500" glyph-name="hyphen" unicode="-" d="M425 248h-337v12h337v-12z"/>
<glyph horiz-adv-x="102" glyph-name="period" unicode="." d="M7 -20q-14 5 -19 17.5t0 26.5q5 13 16.5 19t25.5 1t19.5 -17.5t0.5 -26.5q-5 -13 -17 -19t-26 -1z"/>
<glyph horiz-adv-x="555" glyph-name="slash" unicode="/" d="M606 703l9 -8l-591 -703l-9 8z"/>
<glyph horiz-adv-x="502" glyph-name="zero" unicode="0" d="M502 607q0 -54 -19 -120.5t-50 -135.5t-72.5 -133.5t-86.5 -115.5t-91.5 -81.5t-87.5 -30.5h-1q-14 0 -30 6.5t-30.5 21.5t-24 41t-9.5 66q0 63 19 131t51 133t75 123t91 102t98.5 70t98.5 26q13 0 25.5 -5.5t22 -17.5t15.5 -31.5t6 -47.5v-1zM95 -2q40 0 85 30.5 t89.5 80.5t85 114t71.5 132t49.5 133.5t18.5 118.5q0 26 -5.5 44t-14 29t-19.5 15.5t-22 4.5q-22 0 -59 -30t-79 -80t-85 -116t-77.5 -138.5t-56.5 -146.5t-22 -140q0 -20 11.5 -35t29.5 -16z"/>
<glyph horiz-adv-x="308" glyph-name="one" unicode="1" d="M433 716q-59 -88 -110.5 -180t-97 -184t-88 -183t-83.5 -177h-115l7 12q55 87 115.5 180t118 179t107.5 160t85 124q-30 -33 -66.5 -68.5t-74.5 -69t-75 -62t-69 -47.5l-4 7q40 24 89 63.5t96.5 84t88.5 88.5t67 78l1 1z"/>
<glyph horiz-adv-x="547" glyph-name="two" unicode="2" d="M277 304q-45 -18 -88.5 -35.5t-84.5 -42.5t-78.5 -61.5t-71.5 -92.5q34 28 68 30.5t68 -6t67 -20t65 -11.5q29 0 47.5 6.5t30 15.5t17 19t8.5 17l6 -2q-44 -134 -147 -134q-22 0 -45 9t-46.5 20.5t-47 21.5t-46 11.5t-43 -9t-38.5 -40.5l-8 4q28 70 68 124t87 96 t97.5 73.5t100.5 58.5q44 24 83.5 54.5t69 66.5t46.5 77.5t17 86.5q0 38 -23 59t-61 21q-50 0 -92 -19t-72.5 -48.5t-47.5 -64t-17 -65.5q0 -40 19.5 -58.5t47.5 -18.5q25 0 49.5 16t44 41.5t31.5 57t12 62.5h8q0 -32 -12.5 -65t-32.5 -59.5t-46.5 -43.5t-53.5 -17 q-31 0 -53 20t-22 65q0 33 17.5 69.5t49 66.5t75 49.5t95.5 19.5q30 0 57.5 -9.5t48.5 -27t33.5 -43t12.5 -58.5q0 -56 -22.5 -100t-60 -78.5t-86.5 -61t-101 -47.5z"/>
<glyph horiz-adv-x="513" glyph-name="three" unicode="3" d="M488 596q0 -42 -19 -77.5t-50.5 -64t-73 -49.5t-86.5 -34q31 -16 52.5 -45.5t21.5 -77.5q0 -42 -24 -87.5t-64.5 -83t-94.5 -62t-114 -24.5q-23 0 -44.5 6t-38.5 19.5t-27.5 35t-10.5 53.5q0 37 17.5 73.5t45.5 65.5t62.5 47t69.5 18q29 0 52 -18.5t23 -56.5 q0 -29 -16 -56t-39.5 -48t-49.5 -34t-46 -14v8q18 1 42.5 14t47 33t38 45.5t15.5 51.5q0 34 -20.5 50.5t-46.5 16.5q-32 0 -65.5 -17.5t-60.5 -45.5t-44 -63.5t-17 -70.5q0 -15 4 -32t14.5 -32t28.5 -24.5t47 -9.5q46 0 90 26t78 66.5t54.5 91t20.5 100.5q0 25 -5 44t-25 30 q-14 -4 -32.5 -7.5t-40.5 -0.5q-12 1 -17 6.5t-3.5 11.5t10 11t23.5 5q38 0 67 -10q41 17 75 43t58 59.5t37.5 72.5t13.5 81q0 39 -22 59.5t-61 20.5q-41 0 -79.5 -16.5t-67.5 -43.5t-46.5 -61.5t-17.5 -70.5q0 -21 7 -34.5t17 -21.5t20.5 -11.5t16.5 -3.5q27 0 53.5 15 t47 38t33 50.5t12.5 51.5h8q0 -26 -13 -55t-34.5 -53t-49 -39.5t-57.5 -15.5q-7 0 -18.5 4t-23 13t-19.5 24t-8 38q0 37 18 73.5t48 64.5t69.5 45.5t83.5 17.5q32 0 59.5 -9t47.5 -25.5t31.5 -40.5t11.5 -54z"/>
<glyph horiz-adv-x="521" glyph-name="four" unicode="4" d="M494 556q-32 -51 -56 -94.5t-43.5 -82.5t-36.5 -74.5t-34 -71.5h47v-8h-51q-25 -51 -51 -106t-61 -127h-103l8 12q38 61 72 115.5t68 105.5h-318v8q27 0 68 17.5t89 49t99 75t96.5 96.5t81.5 113t55 124h97q-16 -52 -51 -104.5t-81 -102t-99.5 -93t-108 -79t-105.5 -60.5 t-92 -36h275q91 133 151 217.5t79 109.5z"/>
<glyph horiz-adv-x="556" glyph-name="five" unicode="5" d="M602 710q-9 -16 -20 -35t-22.5 -38t-22.5 -37t-20 -31l-7 5q-5 12 -26 25.5t-53 13.5q-26 0 -45 -4.5t-45 -4.5q-28 0 -52 6.5t-35 21.5q-13 -25 -25.5 -54.5t-26 -60.5t-29 -62.5t-36.5 -60.5q33 27 60.5 41.5t49 21t36 8t21.5 1.5q53 0 78.5 -33.5t26.5 -88.5 q1 -69 -29 -134.5t-78 -116t-107 -81t-115 -30.5q-40 0 -66 23.5t-27 61.5v1q0 26 12 62.5t39.5 72.5t73.5 66t114 45l3 -8q-66 -14 -111 -43.5t-72.5 -64.5t-39 -70.5t-11.5 -60.5q0 -6 3.5 -18t12.5 -24t24.5 -21.5t40.5 -9.5t55.5 19t60.5 51t58.5 73.5t49.5 86.5t34 91 t12 86q0 9 -1 19t-5 18.5t-12.5 14t-23.5 5.5q-8 0 -24 -1.5t-40 -10.5t-55 -27.5t-68 -52.5q-14 -18 -26 -34t-24 -30l-12 10q15 17 28.5 32t27.5 27q23 32 42 67.5t35.5 71.5t31.5 69.5t29 61.5q-5 13 -6.5 28t0.5 34q1 5 3.5 13.5t6.5 17t9.5 14.5t13.5 6t11.5 -5 t4 -11.5t0 -13t-1.5 -10.5q-2 -8 -7 -21t-13 -30q7 -3 21 -3q19 0 42.5 7t49 15.5t51 15.5t48.5 7q19 0 34.5 -6t24 -17.5t8 -28.5t-12.5 -39q15 25 30.5 52t28.5 48zM276 746q-5 0 -9.5 -5t-7.5 -12t-5 -14.5t-3 -12.5q-2 -11 0.5 -20t11.5 -15q8 17 12.5 29t6.5 20t1.5 19 t-7.5 11z"/>
<glyph horiz-adv-x="535" glyph-name="six" unicode="6" d="M448 723q10 0 22.5 -4t23 -12t17.5 -21t8 -32q1 -26 -9.5 -50.5t-28.5 -44.5t-40.5 -34t-44.5 -18l-1 8q20 4 41.5 17t38.5 32t27 42.5t9 47.5q-2 34 -22.5 47.5t-40.5 13.5q-32 0 -69 -28t-76 -73.5t-77 -103.5t-72 -119q40 50 73.5 66.5t60.5 16.5q42 0 71.5 -26 t32.5 -84q1 -32 -9.5 -72t-31 -81.5t-49.5 -81.5t-64 -70.5t-75 -49.5t-82 -19q-12 0 -27.5 5t-29.5 18.5t-24.5 38.5t-12.5 66q-3 61 15.5 130t52.5 136t80.5 128.5t98.5 108t107 74.5t107 28zM288 466q-16 0 -33.5 -5.5t-38 -19.5t-43 -39t-47.5 -64q-21 -42 -38.5 -83.5 t-30 -78.5t-18.5 -69t-5 -55q2 -27 14.5 -40.5t32.5 -13.5q17 0 42 18t52 49t54.5 71t49.5 84.5t35.5 90t14.5 86.5q0 12 -0.5 24.5t-4 22t-12 16t-24.5 6.5z"/>
<glyph horiz-adv-x="476" glyph-name="seven" unicode="7" d="M562 738q-47 -60 -96 -132.5t-96 -148t-90.5 -149.5t-79.5 -136.5t-63.5 -110t-41.5 -69.5h-120l10 13q36 48 79 105.5t89.5 118.5t93.5 123t91.5 119t84 105.5t70.5 84.5q-25 -23 -60 -29t-74 -3.5t-78 8t-72 5.5q-20 0 -36 -8t-28.5 -19t-22 -24t-15.5 -22l-8 5l7 13 l17 31l73 135l10 -5l-34 -60q17 18 36 24.5t37 6.5q25 0 53 -7.5t56 -16t53 -16t43 -7.5q30 0 52.5 19t53.5 52z"/>
<glyph horiz-adv-x="464" glyph-name="eight" unicode="8" d="M464 640q0 -40 -17.5 -74t-47.5 -63t-69.5 -53t-82.5 -44q8 -25 17 -47.5t16.5 -46.5t12.5 -51.5t5 -60.5q0 -39 -20 -77.5t-54 -69t-77.5 -49.5t-90.5 -19q-27 0 -51 8t-41.5 24.5t-28 40.5t-10.5 57q0 48 19.5 87t53 71t78.5 58.5t96 49.5q-8 24 -13 51t-5 59 q0 49 19 91t50 73.5t70 49.5t78 19h2h1q41 0 65.5 -20.5t24.5 -63.5zM245 413q43 20 81 43.5t67 51.5t46 60.5t17 71.5q0 38 -22.5 57t-59.5 19q-44 0 -73 -21t-46.5 -48t-24.5 -53.5t-7 -37.5q0 -45 6.5 -79.5t15.5 -63.5zM-67 115q0 -30 10 -53t26.5 -38.5t39 -23 t47.5 -7.5q28 0 58 11t54.5 33t40.5 56t16 80q0 30 -5 56t-12.5 50t-16.5 47t-17 47q-51 -23 -95 -49t-76.5 -57t-51 -68.5t-18.5 -83.5z"/>
<glyph horiz-adv-x="518" glyph-name="nine" unicode="9" d="M491 582q3 -62 -16 -130t-53.5 -134.5t-81.5 -126.5t-100 -105.5t-108.5 -73t-107.5 -27.5q-11 0 -23 3.5t-22.5 11.5t-17.5 21t-8 32q-1 22 10 45t29 42.5t40.5 34t43.5 18.5l2 -8q-21 -4 -42 -17t-38 -32t-27.5 -40.5t-9.5 -42.5q2 -34 22.5 -47t40.5 -13q33 0 72.5 28 t81 73.5t82.5 104t76 120.5q-23 -28 -44 -46t-40.5 -28.5t-36.5 -14.5t-31 -4q-21 0 -40.5 7.5t-35 23.5t-25 41.5t-9.5 61.5q1 39 13 81t33 81.5t50.5 74.5t65 61t75 41.5t81.5 15.5q11 0 27 -4.5t31 -18.5t27 -40t14 -70zM184 234q16 0 36 6t43.5 21.5t49.5 43t53 71.5 q18 37 33 75.5t25.5 73.5t15.5 65.5t4 51.5q-2 26 -16 44t-36 18q-20 0 -46.5 -17.5t-55.5 -47.5t-57.5 -70t-51.5 -84.5t-37 -91.5t-14 -90q1 -32 11.5 -50.5t42.5 -18.5z"/>
<glyph horiz-adv-x="207" glyph-name="colon" unicode=":" d="M137 280q-14 5 -19 17.5t0 26.5q5 13 16.5 19t25.5 1t19.5 -17.5t0.5 -26.5q-5 -13 -17 -19t-26 -1zM-3 -20q-14 5 -19 17.5t0 26.5q5 13 16.5 19t25.5 1t19.5 -17.5t0.5 -26.5q-5 -13 -17 -19t-26 -1z"/>
<glyph horiz-adv-x="206" glyph-name="semicolon" unicode=";" d="M136 320q-14 5 -19 17.5t0 26.5q5 13 16.5 19t25.5 1t19.5 -17.5t0.5 -26.5q-5 -13 -17 -19t-26 -1zM20 44q19 -7 22.5 -22.5t-0.5 -26.5q-8 -23 -26.5 -38.5t-39.5 -12.5l7 15q14 3 18 20l-4 1q-14 5 -19 17.5t0 26.5q5 13 16.5 19t25.5 1z"/>
<glyph horiz-adv-x="482" glyph-name="less" unicode="&lt;" d="M397 559q19 0 36.5 -4.5t23.5 -7.5l-4 -6q-37 10 -65.5 5t-53.5 -19t-49.5 -34t-54 -39t-66 -35t-86.5 -21q35 -8 55.5 -26t33 -41t20.5 -47t18.5 -44t26.5 -32t46 -10l-5 -9q-7 -2 -14.5 -2.5t-9.5 -0.5q-35 0 -57 15.5t-37 38.5t-26.5 50t-25 50t-31.5 38.5t-47 15.5 l6 11q35 0 62.5 11.5t52 28.5t48.5 37t52.5 37t65 28.5t85.5 11.5z"/>
<glyph horiz-adv-x="542" glyph-name="equal" unicode="=" d="M494 449h-401v12h401v-12zM424 349h-401v12h401v-12z"/>
<glyph horiz-adv-x="492" glyph-name="greater" unicode="&gt;" d="M248 546q35 0 56.5 -12.5t36 -32t25.5 -41.5t23.5 -41.5t30.5 -32t47 -12.5l-5 -10q-35 0 -63.5 -15t-55.5 -37.5t-54.5 -48t-60 -46t-72.5 -32.5t-93 -7q-25 2 -38 9l4 8q34 -7 63 1t56.5 25.5t55 40.5t59 44.5t68.5 39t84 24.5q-35 7 -54.5 23t-31 35t-19 39t-18 36 t-28 26t-49.5 8l4 6q22 3 29 3z"/>
<glyph horiz-adv-x="531" glyph-name="question" unicode="?" d="M413 711q32 0 58.5 -10.5t45 -29t29 -44t10.5 -56.5q0 -55 -22 -95.5t-56.5 -73.5t-77.5 -62t-85 -60.5t-78.5 -70t-58.5 -89.5l-9 4q24 57 57 100.5t68.5 80t70 69.5t62 69t44.5 79.5t17 100.5q0 15 -4.5 29t-14 25.5t-23.5 18.5t-33 7q-41 0 -80 -20t-69 -52t-48.5 -72 t-18.5 -80q0 -25 7 -41t17 -25t21.5 -12.5t21.5 -3.5q22 0 46 13.5t44 36.5t33.5 55t13.5 69h8q0 -39 -14 -72.5t-35 -57.5t-46.5 -38t-49.5 -14q-11 0 -24 4t-24 14.5t-19 27.5t-8 44q0 42 18.5 83.5t50 74.5t71.5 53.5t84 20.5zM121 -20q-14 5 -19 17.5t0 26.5 q5 13 16.5 19t25.5 1t19.5 -17.5t0.5 -26.5q-5 -13 -17 -19t-26 -1z"/>
<glyph horiz-adv-x="693" glyph-name="at" unicode="@" d="M433 62q-35 0 -54 21.5t-19 52.5q0 11 5 28q-28 -45 -53 -71.5t-48 -26.5q-19 0 -35.5 18.5t-16.5 63.5q0 51 23 105t58 98t76.5 72.5t79.5 28.5q34 0 47 -22q5 -8 6 -17.5t1 -14.5q0 -24 -11 -44.5t-27 -35t-34 -23t-32 -8.5v8q12 0 28.5 8t31.5 22t25.5 32.5t10.5 40.5 q0 21 -10 32q-8 8 -22 8q-16 0 -37.5 -17t-45 -45t-46.5 -63t-41.5 -70t-32 -68t-16.5 -56q-2 -17 3.5 -31t16.5 -14q27 0 57.5 39.5t65.5 106.5q8 15 14.5 27t9.5 18l1 2h63l-7 -12q-30 -51 -48.5 -84t-18.5 -59q0 -4 0.5 -11t3.5 -14t9.5 -12t18.5 -5q19 0 42 14.5 t46.5 40t45.5 60t39 74t27 82t10 84.5q0 45 -11.5 78.5t-31.5 55t-46.5 32t-55.5 10.5q-35 0 -77.5 -21.5t-86.5 -60t-86 -91t-74.5 -114t-52 -130t-19.5 -138.5q0 -20 5 -46.5t17.5 -50.5t35.5 -40.5t59 -16.5q35 0 68 9.5t62 26t53 38t42 45.5l6 -5q-18 -24 -43 -46.5 t-54.5 -39t-63.5 -26.5t-70 -10q-43 0 -74.5 18.5t-52 49.5t-30.5 71.5t-10 83.5q0 54 15 112.5t43 114t68 105.5t89.5 88t107.5 60t123 22q31 0 59 -11t49 -33.5t33 -57t12 -82.5q0 -64 -22.5 -129t-56 -117t-71.5 -84.5t-68 -32.5z"/>
<glyph horiz-adv-x="1070" glyph-name="A" unicode="A" d="M859 404h-120v8h126q48 65 91 125.5t79.5 106.5t65 73.5t48.5 27.5q29 0 32.5 -26t-11.5 -70t-44 -103t-65.5 -125t-75.5 -135.5t-74 -135.5q-21 -40 -28.5 -68.5t-7 -46.5t7 -26.5t13.5 -8.5q16 0 37.5 14t45 38t47.5 57.5t45 72.5l7 -4q-22 -39 -47 -73t-49 -59 t-46.5 -39.5t-39.5 -14.5q-21 0 -38.5 20t-23.5 56t3.5 85.5t42.5 108.5q20 35 44.5 69.5t53.5 72.5h-109l-25 -33q-55 -78 -104 -148.5t-104.5 -124t-122.5 -85t-157 -31.5q-54 0 -97.5 19t-69.5 62q-52 2 -88 23t-58.5 52.5t-32.5 70t-10 75.5q0 80 33.5 155.5t85.5 134 t116 93.5t126 35q54 0 92 -24q70 37 134 37q37 0 65 -11.5t46.5 -30t27.5 -43t9 -49.5q1 -52 -19 -110.5t-56.5 -116t-87 -110.5t-110 -93t-127 -64t-136.5 -24q26 -38 66 -55.5t91 -17.5q60 0 121 31.5t121 83.5t117.5 118.5t111.5 136.5l19 27zM984 412q42 54 85 115.5 t81 137.5q17 33 15 52.5t-16 19.5q-18 0 -45.5 -27t-62.5 -72t-77 -103.5t-89 -122.5h109zM587 707q-61 0 -126 -34q27 -20 40.5 -51.5t13.5 -69.5q0 -50 -22.5 -98t-54.5 -86t-68.5 -63t-63.5 -29l-1 8q26 4 61 27.5t66.5 60.5t53 83.5t21.5 96.5q0 37 -14 67t-41 49 q-55 -30 -107 -78.5t-92.5 -109.5t-65 -131.5t-24.5 -143.5q0 -84 31 -134h5q68 0 134 23.5t125 63.5t108.5 92t85.5 108.5t56 114t19 108.5q0 24 -8.5 47t-25.5 40.5t-43.5 28t-62.5 10.5zM8 284q0 -35 9.5 -71.5t30.5 -67t54.5 -51t81.5 -23.5q-14 26 -21.5 59t-7.5 75 q0 73 24 144.5t64.5 133t92.5 111t108 79.5q-17 10 -37.5 15.5t-45.5 5.5q-60 0 -122.5 -34.5t-113.5 -92t-84 -131.5t-33 -152z"/>
<glyph horiz-adv-x="871" glyph-name="B" unicode="B" d="M959 777q25 0 45 -9t34 -22t22 -27t11 -24l-8 -2q-2 10 -9.5 23t-20.5 25t-31.5 20t-42.5 8q-27 0 -51.5 -8.5t-47.5 -23.5q42 -29 65.5 -72.5t23.5 -101.5q0 -37 -14.5 -75.5t-42 -71t-68 -56t-92.5 -30.5q30 -15 45 -44t15 -70q0 -35 -19.5 -75t-56 -74.5t-90 -57.5 t-121.5 -23q-34 0 -66 9t-65 22q-38 -13 -80 -19.5t-92 -6.5q-63 0 -91 13t-29 29t22 29t63 13q52 0 95 -12t82 -26q54 31 98.5 81.5t83.5 112t74 129t69 132t69.5 121t75.5 96.5l5 5l12 10l12 10q-29 20 -69 31.5t-93 12.5q-35 0 -71 -5.5t-71 -16.5q32 -27 51.5 -72 t19.5 -113t-30.5 -134t-78.5 -119t-105.5 -85.5t-111.5 -32.5q-40 1 -70 17.5t-47 45.5q-25 -5 -45 -5q-30 0 -54 13t-41 34.5t-26 49.5t-9 58q0 67 32 135.5t87 124.5t128.5 91.5t156.5 36.5q37 0 71.5 -9t63.5 -30q37 11 74.5 17.5t75.5 6.5q102 0 172 -44q24 17 50.5 26 t55.5 9zM122 266q19 0 41 5q-16 32 -16 69q0 67 30.5 131.5t82 120t119 99t141.5 68.5q-26 18 -58 26t-66 8q-81 -1 -153 -36t-126 -90t-85.5 -122t-31.5 -132q0 -29 8.5 -55.5t24.5 -46.5t38.5 -32.5t50.5 -12.5zM602 571q0 68 -20 112t-53 70q-74 -24 -141.5 -67 t-119.5 -97.5t-82.5 -118.5t-30.5 -130q0 -37 16 -67q45 13 82 45.5t62.5 75.5t38 90t7.5 89l8 1q5 -43 -7 -91.5t-38 -92t-64 -77.5t-85 -47q17 -26 45 -41.5t64 -16.5q52 0 108.5 32t103 84t76.5 116.5t30 130.5zM911 579q5 98 -62 150q-17 -12 -32 -29q-35 -36 -58 -80 t-39.5 -90.5t-29.5 -94t-27 -90.5q28 -2 47 -7q42 7 78 30t62.5 56t42.5 73t18 82zM386 21q30 -11 59 -19t60 -8q58 0 103 26.5t75.5 64.5t47.5 79t20 71q3 31 -4 54.5t-38 37.5h-23t-24 1l-4 1q-7 -18 -13.5 -35t-14.5 -32q-45 -88 -103 -149t-141 -92zM121 8 q14 -4 34 -6.5t47 -2.5q37 0 70 8.5t62 24.5q-16 5 -32.5 10.5t-33.5 10.5q-53 13 -93 11.5t-61 -11.5t-20.5 -23t27.5 -22z"/>
<glyph horiz-adv-x="716" glyph-name="C" unicode="C" d="M839 649q0 -31 -15.5 -75t-46 -92.5t-76 -96.5t-105.5 -87.5t-134.5 -65t-163.5 -28.5q-15 -47 -20 -86t1 -67.5t24 -44.5t48 -16h1q31 0 68.5 15t75 43t72 68t61.5 89l7 -4q-27 -50 -62.5 -90.5t-74 -69t-77 -44t-71.5 -15.5h-1q-31 0 -54.5 14.5t-39 39.5t-23 59 t-7.5 73q0 10 0.5 19.5t1.5 20.5q-41 6 -83 20t-76 38t-55.5 58.5t-21.5 80.5q0 60 30.5 117t86 101t133 70.5t172.5 26.5q52 0 96 -10.5t72 -27.5q48 29 92.5 44.5t80.5 15.5q42 0 63 -24.5t21 -68.5zM831 649q0 40 -19.5 62.5t-56.5 22.5q-32 0 -69 -19t-77 -52 q28 -24 41 -53.5t13 -57.5q0 -39 -24 -76.5t-65 -67t-95.5 -47.5t-116.5 -18h-4q-36 -68 -57 -131q87 3 160 28.5t132 64t103.5 85.5t74.5 94.5t45 91t15 73.5zM0 405q0 -44 20.5 -77t53.5 -56t74 -36.5t81 -19.5q5 35 16.5 69.5t28.5 68.5q-29 8 -49.5 21t-34 29t-19.5 33 t-6 33q0 29 19 57t53.5 48.5t81.5 30.5t104 4l-1 -8q-56 6 -101.5 -3t-78.5 -28.5t-51 -46t-18 -54.5q0 -31 24.5 -62.5t80.5 -46.5q25 48 58.5 94t72.5 86.5t81.5 75t84.5 60.5q-27 16 -69.5 25.5t-91.5 9.5q-93 0 -169 -26t-130.5 -69t-84.5 -98.5t-30 -113.5zM603 658 q-57 -48 -114 -117.5t-103 -147.5l-24 -42q60 0 113.5 18t93 46.5t63 64.5t23.5 72q0 27 -12.5 55t-39.5 51z"/>
<glyph horiz-adv-x="876" glyph-name="D" unicode="D" d="M1017 781q48 0 82.5 -20.5t51.5 -55.5l-7 -4q-16 32 -48.5 52t-77.5 20h-1q-49 0 -91 -15t-80 -44q-11 -8 -20.5 -18t-18.5 -21q28 -39 44 -90.5t16 -117.5q0 -67 -19 -131t-53.5 -120t-83 -101t-106.5 -73q-40 -24 -84 -37t-91 -13q-29 0 -57 4.5t-57 12.5 q-41 -12 -86.5 -18.5t-99.5 -6.5h-2q-62 0 -96 16.5t-34 41.5q0 22 24 40t70 18q33 0 65 -7t62 -17.5t58 -22.5t55 -22q40 19 72.5 45.5t60 60t51.5 73.5t48 85q28 52 54 104t53 100t55.5 91.5t60.5 78.5q-19 32 -44.5 53t-54.5 35q-60 25 -132 25q-45 0 -86.5 -10 t-79.5 -28q37 -11 65 -33.5t46 -52.5t27 -65t9 -71q0 -54 -22 -114.5t-60.5 -111t-91 -84t-114.5 -33.5q-35 0 -62.5 17t-45.5 46h-7q-25 0 -49 9.5t-43 29.5t-30.5 51t-11.5 75q0 70 29.5 132.5t76.5 109.5t105 75t116 28q14 0 26.5 -1.5t24.5 -3.5q41 20 85.5 31.5 t92.5 11.5q35 0 67.5 -5.5t61.5 -17.5q34 -14 63 -34.5t52 -49.5q11 11 21.5 20.5t21.5 18.5q36 29 78.5 44t95.5 15zM137 250q-24 42 -24 101q0 51 18 106.5t51 108t80 98.5t104 77q-18 3 -39 3q-56 0 -113 -27.5t-102.5 -73.5t-74.5 -107.5t-29 -128.5q0 -41 11 -71 t29 -49t40.5 -28t45.5 -9h3zM529 522q0 36 -9 71t-27.5 64.5t-46.5 50.5t-67 30q-58 -30 -105.5 -75.5t-81.5 -98t-52.5 -108t-18.5 -105.5q0 -58 25 -100q38 3 78.5 27.5t74 62.5t55 86t21.5 98q0 53 -3 73t-4 21l6 6q3 -3 6 -24.5t3 -75.5q0 -51 -21.5 -100t-55 -87.5 t-75 -64t-80.5 -30.5q17 -26 42 -41t56 -15q60 0 111 32.5t88.5 82.5t59 108.5t21.5 111.5zM833 470q0 61 -10.5 107t-29.5 81q-32 -42 -59 -95.5t-44 -121.5q-16 -64 -39 -125.5t-60.5 -116t-94 -100t-139.5 -77.5q19 -6 37.5 -10t35.5 -4q46 0 89 10.5t82 30.5 q51 30 93.5 75t73 100.5t48 118t17.5 127.5zM131 -8q48 0 87 6t73 17q-58 17 -113.5 34t-105.5 17q-28 0 -47 -8t-19 -16q0 -21 31 -35.5t91 -14.5h3z"/>
<glyph horiz-adv-x="726" glyph-name="E" unicode="E" d="M861 732q-1 -15 -13.5 -34.5t-42 -40t-76.5 -40.5t-117 -38q-11 -23 -17.5 -45.5t-2.5 -40.5q20 5 39 7.5t36 2.5q33 0 47 -9t11 -20t-21 -20t-49 -9q-19 0 -34 5q-13 3 -24 9t-19 14q-43 -19 -86.5 -56t-81.5 -92q14 -27 13 -63q-2 -52 -28.5 -112.5t-71.5 -109.5 q10 -31 35 -44.5t58 -13.5q49 0 94 25t80 65t56 88t23 95q0 16 -4 33.5t-13 31t-23.5 22.5t-34.5 9q-26 0 -50 -16.5t-41.5 -46t-25.5 -71t0 -90.5l-8 -1q-8 51 0.5 94t27 73.5t44.5 48t53 17.5q22 0 37.5 -10t26 -25t15 -33.5t4.5 -35.5q-2 -48 -23.5 -98t-57.5 -90.5 t-83 -66.5t-98 -26q-71 0 -114 45q-33 -30 -73.5 -48.5t-85.5 -18.5q-40 0 -70.5 16.5t-51 43t-30 61t-8.5 70.5q2 54 28 117.5t86 122.5t158 107t244 73l51 9q4 25 20 55q19 36 49.5 64.5t63.5 48.5t66 31t58 11q31 0 43 -14t12 -32v-4zM617 588q67 17 112 36.5t72.5 39 t39.5 37.5t12 32v5q-1 11 -9 21t-29 10q-27 0 -53.5 -14.5t-50.5 -37.5t-45 -51.5t-37 -55.5zM142 -40q45 0 83.5 17.5t70.5 46.5q-37 41 -40.5 109.5t40.5 151.5q23 42 60 77q-21 8 -42 8q-39 0 -72 -21.5t-57.5 -54.5t-39 -72t-15.5 -73q-1 -27 3.5 -45.5t9.5 -32.5l-7 -3 q-6 14 -10.5 33.5t-3.5 47.5q1 35 16 75t40.5 74.5t60 57t75.5 22.5q27 0 48 -9q43 40 97 70t108 47q-25 33 -19 78l-49 -9q-143 -24 -240 -72t-156 -105.5t-85 -119.5t-28 -115q-1 -35 8 -68t28.5 -58.5t48.5 -41t67 -15.5zM655 453q28 0 44 6.5t18 14.5t-10 14.5t-40 6.5 q-32 0 -72 -14q9 -21 40 -27q5 0 10 -0.5t10 -0.5zM585 477q3 -3 5 -4l-2 5zM415 262q1 30 -10 55q-11 -16 -21 -33.5t-19 -36.5q-32 -70 -42 -118.5t-2 -80.5q43 48 67.5 106t26.5 108z"/>
<glyph horiz-adv-x="702" glyph-name="F" unicode="F" d="M1147 798q-4 -11 -18 -31.5t-40.5 -40t-65 -34t-92.5 -14.5q-75 0 -136 13.5t-117.5 30t-114 30t-127.5 13.5q-27 0 -56 -1.5t-59.5 -7.5t-63.5 -18t-67 -33q-89 -58 -139.5 -140.5t-50.5 -173.5q0 -36 9 -65t24.5 -51t36.5 -37t44 -23q11 24 28 45.5t38.5 37.5 t46.5 25.5t52 9.5q29 0 53 -10.5t40 -28.5q38 42 59 95t21 109q0 34 -9.5 60t-25.5 43t-38 26t-46 9q-40 0 -75.5 -20t-62 -52.5t-40.5 -74t-11 -84.5l-8 -1q-3 45 11.5 88t42 76.5t64.5 54.5t79 21q26 0 49 -9t40.5 -27.5t27.5 -46t10 -63.5q0 -58 -21.5 -113t-61.5 -98 q20 -26 20 -61q0 -29 -11 -53t-29 -41t-40 -27.5t-44 -11.5l-1 8q21 1 42 10.5t37.5 26t27 39t10.5 49.5q0 30 -17 55q-38 -38 -88 -61t-111 -23q-27 0 -54 8q-15 -33 -15 -67q0 -32 11.5 -58.5t31.5 -45t46.5 -28.5t55.5 -10q57 0 103 37t85 95.5t73.5 130.5t69.5 141l4 8 q32 63 65.5 115.5t73.5 84.5q22 17 46 27t50 10q14 0 25.5 -3t17.5 -6l-4 -7q-5 3 -15.5 5.5t-23.5 2.5q-26 0 -48.5 -9.5t-43.5 -26.5q-41 -36 -64 -85t-40 -108l-2 -8q-11 -39 -22 -81t-25 -86q-18 -57 -50 -102.5t-74.5 -77t-93.5 -48.5t-107 -17q-31 0 -59 10.5t-49 30 t-33 47t-12 62.5t15 70q-24 9 -46 24.5t-38 38t-25.5 52.5t-9.5 68q0 78 37.5 151.5t104.5 131t159.5 92t203.5 34.5q67 0 125 -10t111.5 -21.5t105 -21.5t105.5 -10q62 0 99.5 7.5t58 18t28 21.5t9.5 17zM279 325q-51 0 -93 -33t-64 -79q27 -8 51 -8q60 0 108.5 22.5 t84.5 59.5q-15 18 -37.5 28t-49.5 10z"/>
<glyph horiz-adv-x="609" glyph-name="G" unicode="G" d="M329 271q-2 -7 -2.5 -13.5t-1.5 -12.5q-4 -29 7 -46.5t34 -17.5q22 0 44.5 9.5t45 26.5t43.5 40t39 49l17 25q0 1 0.5 1t0.5 1q18 29 32.5 43.5t23.5 19.5l4 -6q-1 -1 -11 -8.5t-31 -39.5l-2 -3q-28 -42 -38.5 -83.5t-17.5 -70.5q-12 -51 -37 -95t-62 -76t-86 -50 t-109 -18q-38 0 -60.5 14.5t-34 34.5t-14.5 41t-1 34q2 26 11 45t20 32t22.5 21t19.5 11l3 -7q-7 -3 -17.5 -11t-21 -20.5t-19 -30t-10.5 -41.5q-2 -13 0.5 -32.5t13.5 -38t32 -31.5t56 -13q40 0 77 23.5t67.5 55t52.5 64t32 51.5q11 21 22.5 45t30.5 56 q-32 -34 -66.5 -55.5t-72.5 -21.5q-41 0 -65 23t-29 65q-17 -2 -33 -3t-33 -1q-54 0 -92 15.5t-62.5 41t-36 59.5t-11.5 70q0 87 44.5 164.5t115.5 136.5t160 93.5t179 34.5q91 0 137 -40.5t39 -112.5h8q20 0 31.5 -6.5t17.5 -16t7.5 -21t0.5 -21.5q-5 -39 -35.5 -95.5 t-84 -113t-128 -104t-166.5 -69.5zM205 264q17 0 33 1t32 3q-1 9 -1 18t2 20q3 22 9 47q-8 -1 -16.5 -1.5t-16.5 -0.5q-32 0 -54.5 8.5t-36 23.5t-19 34.5t-2.5 41.5q6 48 33.5 93t67 80.5t86 57t91.5 21.5v-8q-43 0 -88.5 -21t-84 -55.5t-65 -78.5t-32.5 -90 q-5 -42 22.5 -70.5t81.5 -28.5q9 0 17.5 0.5t17.5 1.5q19 71 63.5 134t99.5 111t114.5 77.5t110.5 33.5q8 70 -35.5 108t-132.5 38q-58 0 -117.5 -15.5t-114 -43.5t-102 -67t-82.5 -86t-55 -100t-20 -109q0 -35 11 -67t34.5 -57t60.5 -39.5t88 -14.5zM735 654q1 10 0 20 t-6 18t-15.5 13t-27.5 5l-9 -1q-6 -42 -32.5 -92t-68 -97.5t-96 -87.5t-117.5 -61q-22 -48 -32 -92q60 15 112.5 41.5t96.5 60t79 71t60 74t39 70t17 58.5zM669 708q-30 -8 -70.5 -38t-82.5 -75t-81.5 -100.5t-67.5 -113.5q60 22 112 60.5t92 84t65.5 93.5t32.5 89z"/>
<glyph horiz-adv-x="987" glyph-name="H" unicode="H" d="M1158 668q0 -29 -20 -71.5t-58.5 -86t-94 -80.5t-126.5 -54q-34 -74 -59.5 -146t-37 -129.5t-6.5 -93t33 -35.5q17 0 40 14.5t49.5 41.5t54.5 66t55 88l7 -4q-28 -49 -57 -88.5t-56 -67.5t-51 -43t-42 -15t-34 12.5t-26.5 35t-14 53.5t2.5 67q9 55 28.5 114t46.5 117 q-10 -2 -20 -3t-21 -2l-26 -3q-27 -74 -70 -142.5t-95 -121.5t-109.5 -84.5t-112.5 -31.5q-31 0 -54.5 13t-38 32.5t-18.5 43t3 44.5l8 -2q-6 -20 -2.5 -41.5t16.5 -39.5t35 -30t52 -12q44 0 90 31t89 82t81 116t67 133q-35 -8 -56.5 -17.5t-34.5 -20t-19 -21.5t-10 -21 l-7 3q4 11 11 23t21 23t37.5 21.5t61.5 18.5q29 69 45 133t16 115q0 44 -14 76t-37 53t-53 31t-63 10q-73 0 -136 -28q32 -7 59.5 -24t48 -44.5t32 -66t11.5 -87.5q0 -68 -24 -133.5t-64 -116.5t-92.5 -82t-110.5 -31q-21 0 -33 4q-24 -14 -50.5 -22t-55.5 -8 q-27 0 -54 12.5t-48 38t-34 62.5t-13 87q0 42 13.5 89.5t38 93.5t59 88t77.5 74t92.5 51t103.5 19q8 0 15 -0.5t14 -1.5q69 34 151 34q41 0 77 -13t63 -41t42.5 -72t15.5 -106q0 -45 -9 -91.5t-25 -92.5l22 2l46 6q33 70 74 133.5t84.5 112t86 77t77.5 28.5q23 0 31.5 -17 t8.5 -38zM149 141q51 0 95 26q-45 16 -69 63.5t-24 119.5q0 55 18 112t51 109t78.5 96t100.5 72l-15 1q-53 0 -101 -18.5t-90 -50t-76 -72.5t-58.5 -86.5t-37.5 -92t-13 -87.5q0 -47 12.5 -83t32.5 -60t45 -36.5t51 -12.5zM571 522q0 49 -12 87t-33 65t-49.5 43t-61.5 21 q-57 -27 -104 -70.5t-80.5 -95.5t-52.5 -109.5t-19 -112.5q0 -72 25 -118t70 -60q31 19 57 48t44.5 63.5t29 72t10.5 73.5q0 35 -3.5 57t-8 35t-10.5 19t-10 9l4 7q5 -3 11 -10t11.5 -21t9.5 -37t4 -59q0 -37 -10 -74.5t-28 -71.5t-43.5 -63.5t-56.5 -50.5q5 -1 11 -1.5 t12 -0.5q55 0 106.5 30.5t90.5 80.5t62.5 114t23.5 130zM1150 668q0 21 -7.5 34t-24.5 13q-26 0 -58 -27.5t-66 -73.5t-67.5 -105.5t-63.5 -123.5q67 17 120 52.5t90 77.5t57 83.5t20 69.5z"/>
<glyph horiz-adv-x="757" glyph-name="I" unicode="I" d="M743 572q35 -11 55 -43.5t17 -87.5q-2 -44 -20.5 -86.5t-49 -76t-71.5 -55.5t-88 -25q-67 -115 -160 -166.5t-214 -51.5q-54 0 -94.5 20.5t-67 54t-39.5 76.5t-11 89q4 79 36 144.5t80.5 112t107.5 72t118 25.5q26 0 48.5 -5.5t41.5 -15.5q29 40 69.5 68.5t88.5 43.5 q68 22 132.5 31.5t124.5 21.5q11 2 22.5 4.5t22.5 5.5q9 4 18 7t19 6l3 -8q-10 -5 -20 -8t-21 -6q-11 -5 -21 -10t-19 -11q-37 -25 -62.5 -58.5t-45.5 -67.5zM593 657q-46 -15 -86 -42.5t-69 -65.5q38 -23 56.5 -61.5t16.5 -80.5q-2 -48 -17.5 -89.5t-39.5 -76.5 q13 -8 26 -14.5t27 -11.5q13 23 25 46.5t24 47.5q34 69 71 136.5t85 124.5l-12 1q-24 0 -44.5 -11.5t-35.5 -29t-23 -39t-6 -41.5l-8 -1q-3 22 5.5 45t24.5 42t38.5 31t48.5 12h9t9 -1q15 18 31 36.5t33 36.5t35.5 34t39.5 27q-8 -2 -20 -4q-59 -12 -120.5 -21.5 t-123.5 -29.5zM8 220q-2 -44 10.5 -86t38.5 -74.5t65 -52t90 -19.5q50 0 91.5 17t77 46.5t65.5 69.5t57 87q-30 9 -53 26q-21 -29 -46.5 -52.5t-53 -40t-55.5 -25t-53 -8.5q-54 0 -83 35.5t-26 95.5q2 33 16.5 65t36 58.5t47 46t49.5 28.5l3 -8q-23 -8 -47.5 -27 t-45.5 -44.5t-35 -56.5t-16 -62q-3 -55 23.5 -89t77.5 -34q50 0 104.5 33t96.5 91q-34 27 -51.5 68.5t-15.5 93.5q2 42 15.5 77.5t35.5 66.5q-35 20 -85 20q-57 0 -114.5 -25t-105 -70.5t-79 -109.5t-35.5 -141zM807 441q3 52 -16.5 82.5t-52.5 41.5q-29 -54 -50 -119 t-51 -141q-11 -27 -22 -51.5t-24 -46.5q44 4 82.5 25.5t67.5 53.5t46.5 72.5t19.5 82.5zM448 246q23 35 38 75t17 86q2 40 -15.5 76.5t-54.5 59.5q-21 -30 -34 -65.5t-15 -75.5q-2 -51 14.5 -90.5t49.5 -65.5z"/>
<glyph horiz-adv-x="708" glyph-name="J" unicode="J" d="M867 728q-65 -47 -108 -109.5t-71.5 -129.5t-45.5 -133.5t-30 -121.5q-14 -60 -36.5 -110t-50.5 -93q34 11 60 25.5t48 33t40 41t35 51.5l7 -4q-36 -59 -81 -97.5t-119 -62.5q-34 -48 -72.5 -85t-77.5 -64t-77 -45.5t-69 -28.5q-32 -12 -65 -12q-26 0 -34 17t10.5 43 t68 57t139.5 58q37 12 72 24q41 59 82.5 135.5t84.5 170.5q22 49 43.5 99t45.5 98t52.5 93t64.5 84q9 10 18 19.5t19 18.5q-27 -17 -56.5 -24t-75.5 -7q-29 0 -64 5t-80 5h-8q22 -27 34 -63.5t12 -84.5q0 -57 -26.5 -121t-72.5 -119t-107.5 -91t-130.5 -36q-51 0 -91.5 23 t-59.5 71q-29 8 -48.5 25t-31.5 39t-17 47.5t-5 49.5q0 64 29.5 124t80.5 106.5t119.5 74.5t146.5 28q48 0 90 -16t72 -49h14q46 0 80.5 -5t63.5 -5q58 0 97 14t77 44zM0 419q0 -23 4.5 -46.5t15 -44t28 -36.5t43.5 -24q-8 27 -8 59q0 69 34 132t93 112t138.5 80t169.5 35 q-29 29 -67.5 43.5t-82.5 14.5q-76 0 -143 -27.5t-117 -73t-79 -104t-29 -120.5zM574 531q0 48 -13 85t-36 63q-90 -3 -169 -33t-138 -78.5t-93 -111t-34 -129.5q0 -17 2.5 -32.5t7.5 -29.5q10 -2 20.5 -3.5t22.5 -1.5q57 0 104 27t80.5 66t52.5 82t19 75q0 17 -3 25.5 t-4 10.5l7 4q1 -2 4.5 -11.5t3.5 -28.5q0 -33 -19 -77.5t-54 -84.5t-83.5 -68t-107.5 -28q-11 0 -21 1t-19 3q19 -43 57 -63.5t84 -20.5q45 0 86.5 16.5t78 44t67 64t52 76.5t33.5 80.5t12 77.5zM340 -50q-86 -26 -133.5 -54.5t-66 -51.5t-13 -38t26.5 -15q24 0 63 12 q90 34 185 168q-15 -5 -30 -10.5t-32 -10.5z"/>
<glyph horiz-adv-x="975" glyph-name="K" unicode="K" d="M1360 832q34 0 69 -9t66.5 -24.5t57 -36.5t40.5 -46l-7 -4q-14 24 -39 44.5t-56 35.5t-65 23.5t-67 8.5q-44 0 -84 -10t-82 -39.5t-89 -81.5t-106 -136q-53 -75 -97 -123t-81.5 -76.5t-69 -41t-59.5 -15.5q26 -11 37 -37.5t14.5 -60.5t3 -70t1 -66t9.5 -49.5t29 -19.5 q20 0 41 9.5t44 31.5t49 57t56 86l7 -4q-30 -52 -57 -87.5t-51 -58t-46 -32.5t-43 -10q-45 0 -71 28t-26 67q0 26 5 55.5t9 57t5 51t-8 38.5q-17 12 -41 12q-25 -77 -65 -140t-93.5 -108t-120 -69.5t-144.5 -24.5q-50 0 -94 15t-77 44t-52.5 71t-19.5 97q0 71 30.5 132.5 t79.5 107.5t109.5 73.5t120.5 30.5q-11 24 -11 49q0 38 19 68.5t49 52t66.5 33t72.5 11.5q24 0 51 -5.5t49 -17.5t36.5 -31.5t14.5 -47.5q0 -29 -13 -48.5t-32 -32.5t-41.5 -18.5t-41.5 -5.5q-38 0 -62 13t-38 35l7 4q13 -20 34.5 -32t58.5 -12q19 0 40 5.5t39 17t29.5 30 t11.5 44.5t-13.5 44t-34 29t-46 16t-49.5 5q-35 0 -70.5 -11t-64 -31.5t-46.5 -49.5t-18 -65q0 -25 11 -49h7q120 0 161 -78q54 2 100 15t84 34q23 51 44.5 92.5t41.5 69.5q14 21 29 33t31 12q8 0 14 -6t6 -16q0 -15 -9 -37t-27 -46.5t-44 -49.5t-60 -46q-14 -45 -27 -89 t-24 -86l-7 -23q57 2 94.5 24.5t66.5 59t54.5 83.5t58.5 98q42 65 88 114t98 81.5t111.5 48.5t128.5 16zM850 684q0 14 -12 14q-14 0 -29 -13.5t-31 -37.5q-15 -25 -28.5 -58t-26.5 -71q31 21 54.5 44.5t39.5 46t24.5 42.5t8.5 33zM0 184q0 -53 18.5 -93.5t51 -68.5 t75 -42.5t90.5 -14.5q55 0 102.5 23.5t89 63t78 92t68 110.5t60 118t54.5 115q-37 -19 -81 -31t-95 -14q15 -32 15 -73q0 -50 -22 -100.5t-59.5 -91.5t-87.5 -67t-105 -26q-19 0 -36.5 5.5t-30.5 17.5t-20.5 30.5t-7.5 45.5q0 45 23 83t57.5 65t73.5 40t72 7l-3 -8 q-31 6 -68.5 -6.5t-70 -38t-54.5 -62.5t-22 -80q0 -49 26 -70t61 -21q53 0 101.5 25.5t85 65t58 89t21.5 97.5q0 42 -16 73h-4q-24 0 -47.5 4.5t-45.5 14.5t-39.5 24.5t-29.5 34.5q-59 -3 -118.5 -29.5t-108 -71.5t-79 -105t-30.5 -130zM345 520q22 -35 65 -52.5t88 -17.5 q-20 34 -58.5 52t-92.5 18h-2z"/>
<glyph horiz-adv-x="769" glyph-name="L" unicode="L" d="M1054 -82q-29 -27 -79 -50t-118 -29q-11 -1 -22 -1.5t-22 -0.5q-69 0 -134.5 17t-126.5 43t-117 57.5t-107 60.5q-41 -12 -86 -18.5t-97 -6.5q-74 0 -109 21t-36 46q-1 23 26.5 42t81.5 19q60 0 119 -19t119 -48q45 26 80.5 62.5t64.5 79.5q-66 -17 -136 -17 q-60 0 -105.5 17.5t-76.5 47.5t-46.5 70t-15.5 84q0 91 41.5 175t110.5 148t159.5 102t188.5 38q85 0 139.5 -36.5t64.5 -105.5q5 1 10 1.5t10 0.5h1q32 0 50 -21.5t18 -59.5q0 -45 -20 -100t-58.5 -110t-93.5 -105t-125 -86q-35 -61 -90.5 -114.5t-136.5 -87.5 q58 -30 115 -63t112.5 -61t109.5 -46t106 -18q75 0 130 22t89 50l7 6zM355 184q38 0 73.5 5t69.5 14q21 32 39 65t35 67q-35 -16 -72 -25t-78 -9q-39 0 -66.5 11t-45.5 29.5t-26 43.5t-8 53q0 46 24.5 93t66 84.5t94.5 61.5t110 24v-8q-55 0 -107 -23.5t-92 -60t-64 -81.5 t-24 -90q0 -27 8 -50.5t24.5 -41t42.5 -27.5t63 -10q42 0 81 10t74 28q30 63 55.5 124.5t51.5 112t55.5 85.5t67.5 45q-10 65 -62.5 100.5t-133.5 35.5q-64 0 -125.5 -17t-116 -48t-100.5 -73.5t-79.5 -93t-52 -107.5t-18.5 -116q0 -42 15 -80.5t45 -67.5t74 -46t102 -17z M816 708q1 -5 1 -10v-10q0 -33 -10 -70t-29 -74.5t-46 -74t-61 -67.5l-3 -12q-8 -34 -21 -69.5t-32 -70.5q66 36 118.5 84.5t88.5 101.5t55 105.5t19 95.5q0 35 -16.5 54t-44.5 19h-1h-1h-1q-6 0 -16 -2zM808 706q-21 -7 -38 -27t-32.5 -55t-30.5 -86t-32 -121 q31 30 56 64.5t42.5 70.5t26.5 71t9 65zM145 -2q45 0 84 8t74 23q-59 33 -110 55.5t-95 22.5q-23 0 -39 -4t-27 -10q-13 -8 -19 -17q-5 -10 -5 -18v-1q1 -22 34 -40.5t103 -18.5z"/>
<glyph horiz-adv-x="1086" glyph-name="M" unicode="M" d="M899 -2q7 0 23.5 4t40 22t54.5 55t69 103l7 -4q-38 -68 -70.5 -106t-57.5 -56.5t-42 -22.5t-24 -4q-40 0 -65 29t-25 92q0 25 7.5 64t25 89.5t45 111t67.5 128.5q-37 -57 -77 -119.5t-82 -126t-85.5 -126t-88.5 -119.5l-6 5q38 50 59.5 115t40.5 139.5t41.5 156.5 t61.5 166q-41 -72 -79.5 -146t-79 -142.5t-84.5 -129t-94.5 -105t-109.5 -70.5t-129 -26q-51 0 -95 17.5t-76.5 49.5t-51.5 77t-19 101q0 65 18.5 124t49 109.5t71.5 91.5t86 70t91.5 44.5t88.5 15.5q44 0 76 -13.5t53 -36t31 -52.5t10 -63q0 -63 -27.5 -126t-70.5 -113 t-96 -81.5t-105 -31.5q-51 0 -77 32t-26 74q0 51 24 99.5t60 86t79 60.5t82 23v-8q-37 0 -78.5 -22.5t-77 -59t-58.5 -83.5t-23 -96q0 -40 23.5 -69t71.5 -29q49 0 101 31t94 80t69 110.5t27 122.5q0 31 -9.5 59.5t-29.5 50.5t-50.5 34.5t-72.5 12.5q-41 0 -86.5 -15.5 t-89.5 -44t-84 -69t-70.5 -90t-48.5 -107.5t-18 -121q0 -54 18.5 -97.5t50 -74.5t74 -48t91.5 -17q77 0 140.5 32t118 87t101.5 127t91.5 152.5t88 163.5t91.5 159l11 -6q-16 -33 -24 -69.5t-15 -78.5t-15.5 -89t-23.5 -99.5t-41 -110.5t-67 -122q55 78 108 160t102 158 t94 141.5t84 111.5l7 -5q-40 -55 -72 -118t-57 -126.5t-43.5 -124.5t-30 -113.5t-17.5 -93t-6 -62.5q0 -29 9 -44t23 -15z"/>
<glyph horiz-adv-x="833" glyph-name="N" unicode="N" d="M1448 693q0 -45 -16.5 -82.5t-45 -64t-65.5 -41.5t-79 -15q-29 0 -55.5 8.5t-46.5 24t-32.5 37t-12.5 47.5q0 37 16.5 67.5t43 51.5t60 30.5t67.5 5.5l-1 -8q-32 4 -63.5 -5.5t-57 -29.5t-41.5 -49t-16 -63q0 -24 11.5 -44t31 -34.5t44.5 -22.5t52 -8q40 0 76 14.5 t63 40.5t43 62t16 79q0 29 -7 47q-9 30 -28 51t-43.5 34t-51 19t-50.5 6q-78 0 -147 -49t-138 -145q-42 -58 -83.5 -131.5t-86.5 -163.5q-45 -94 -91.5 -184.5t-98.5 -159.5l-13 -19l-7 6l20 29q28 47 41.5 97.5t19 102t7 104.5t7 106t17.5 105t39 103q-42 -72 -80.5 -155.5 t-80.5 -165.5q-36 -71 -76.5 -135t-89 -112.5t-107 -76.5t-131.5 -26q-50 1 -91 24q-46 23 -73 70.5t-27 114.5q0 97 37 176t92 135t118 86.5t115 30.5q75 0 112.5 -39.5t37.5 -105.5q0 -52 -21 -108.5t-57 -103.5t-84.5 -77.5t-103.5 -30.5q-36 0 -61 28.5t-25 70.5 q0 47 18 84t43 62t52.5 38t47.5 13v-8q-18 0 -44 -12.5t-50.5 -37t-41.5 -59.5t-17 -80q0 -19 6.5 -35.5t17 -29t24.5 -19.5t30 -7q53 0 100 30t82 76t55.5 101t20.5 105q0 63 -36.5 100t-105.5 37q-34 0 -73 -13.5t-78.5 -39t-76 -62.5t-64.5 -83.5t-45 -102.5t-17 -119 q0 -66 27.5 -111.5t72.5 -68.5q33 -16 76 -16q66 0 124 28.5t106.5 74t89 102t72.5 113.5q27 49 52 101.5t49.5 103.5t49.5 98.5t52 88.5l7 -4q-15 -31 -19.5 -67t-5 -77t0 -87t-4 -96.5t-17.5 -106.5t-40 -116q29 51 55.5 105t52.5 111l1 2q48 100 91.5 190t91.5 153 q45 59 88.5 91t80 47t63 17.5t37.5 2.5q28 0 56.5 -7t54 -21.5t45.5 -36.5t31 -52q10 -24 10 -59z"/>
<glyph horiz-adv-x="463" glyph-name="O" unicode="O" d="M446 715q37 0 51.5 -38t9 -98t-28 -134.5t-59.5 -147.5q-32 -63 -71 -119t-81.5 -98t-86.5 -66.5t-86 -24.5q-53 0 -77.5 40.5t-24.5 106.5q0 76 25.5 158.5t72.5 160t113.5 143t147.5 109.5l5 -7q-38 -28 -75.5 -71.5t-72 -96.5t-64 -113.5t-51 -121t-34 -119 t-12.5 -107.5q0 -11 2 -23.5t7.5 -23t15 -17.5t24.5 -7q40 0 82.5 23.5t83.5 64.5t79.5 95.5t70.5 117.5q36 72 58.5 144.5t28.5 130.5t-6.5 94.5t-46.5 36.5q-26 0 -57 -21t-63.5 -58t-63.5 -87t-57 -108t-44.5 -121t-25.5 -126l-8 1q7 63 25.5 127t45 122.5t59 109.5 t65.5 88.5t65 59t59 21.5z"/>
<glyph horiz-adv-x="905" glyph-name="P" unicode="P" d="M1215 866q57 0 109.5 -15t92.5 -41.5t64 -63t24 -79.5t-22 -79t-58 -62.5t-82.5 -41.5t-96.5 -15q-46 0 -87 8.5t-71.5 25.5t-48.5 42.5t-18 60.5q0 27 14.5 51t39.5 42.5t57.5 29t68.5 10.5q40 0 71.5 -9t54 -22.5t36 -28t17.5 -26.5l-8 -2q-3 10 -16 24t-34.5 26.5 t-51.5 21t-69 8.5q-34 0 -65 -10.5t-55 -27.5t-38 -39.5t-14 -47.5q0 -33 17 -57t46 -40t69 -24t85 -8q48 0 93.5 14.5t80.5 40t56 60t21 75.5q0 40 -23 75t-62 61t-90 40.5t-107 14.5q-117 0 -204 -42.5t-152 -111.5l-4 -5q45 -36 69.5 -86t24.5 -107q0 -66 -28 -116 t-70 -82t-91.5 -44.5t-92.5 -4.5q-39 -89 -88.5 -143.5t-100.5 -84.5t-97.5 -40t-78.5 -10q-35 0 -64.5 9t-51 24.5t-33.5 37t-12 45.5q0 16 4.5 32.5t11.5 25.5l6 -5q-6 -8 -10 -23t-4 -30q0 -22 11.5 -41.5t31.5 -34.5t48.5 -23.5t61.5 -8.5q62 0 110 34t88.5 90.5 t76.5 130t74.5 151t82.5 154.5t101 141q-38 36 -88.5 52t-101.5 16q-47 0 -91 -8.5t-86 -24.5q48 -31 74 -82.5t26 -114.5t-21 -121.5t-55.5 -104t-78.5 -73t-90 -27.5q-43 0 -73 14t-49 37q-23 -10 -49 -10q-38 0 -66.5 13.5t-47.5 37t-28.5 55t-9.5 68.5q0 70 30.5 132.5 t79.5 109t110 73.5t122 27q66 0 117 -28q43 17 90 26t97 9q62 0 113 -16t89 -45q33 36 72 65.5t84 50.5t97.5 33t113.5 12zM152 251q20 0 44 8q-16 23 -23.5 49.5t-7.5 55.5q0 55 21 109t59 102t89.5 86.5t113.5 64.5q-47 25 -106 25t-118.5 -26.5t-107.5 -72t-78 -106.5 t-30 -129q0 -35 9 -65.5t27 -53t45 -35t63 -12.5zM560 528q0 62 -26.5 113t-75.5 80q-62 -25 -114 -63t-90 -85.5t-59.5 -100.5t-21.5 -108q0 -29 7 -55t23 -47q29 12 55.5 36t46.5 54t32 64t12 66q0 25 -2 41.5t-4.5 26t-5.5 14t-5 6.5l5 6q2 -2 5.5 -7t6.5 -15.5 t5.5 -27.5t2.5 -44q0 -33 -12 -68t-32.5 -65.5t-47.5 -55t-57 -37.5q18 -21 46.5 -33.5t68.5 -12.5q44 0 86.5 27t76 71.5t54 101.5t20.5 118zM670 266q37 -8 85 7q28 12 55 33t47 51.5t32.5 71t12.5 90.5q0 55 -16.5 95.5t-44.5 69.5q-30 -35 -50.5 -72t-35.5 -76 t-26.5 -80.5t-23.5 -85.5q-15 -55 -35 -104z"/>
<glyph horiz-adv-x="577" glyph-name="Q" unicode="Q" d="M1035 -128l-28.5 -28.5t-23.5 -19.5q-39 -29 -84.5 -39t-83.5 -10q-39 0 -80 13.5t-84 34.5t-87.5 47.5t-91 53.5t-94 51t-96.5 40q-43 -23 -85 -23q-43 0 -72 46q-45 -4 -80.5 -18.5t-59.5 -31.5l-5 7q24 17 60 31.5t80 19.5q-14 24 -22 58t-8 79q0 68 25 148 t72.5 154.5t117 133t158.5 83.5l4 -9q-71 -39 -125.5 -106.5t-93.5 -143.5t-62 -151.5t-30 -132.5q-3 -26 -4.5 -56.5t3.5 -55.5q33 -1 65 -6.5t64 -15.5q39 21 77 58t73 83t64 99t51 106.5t34 104.5t12 95q0 116 -74 116q-21 0 -49 -18.5t-58 -50.5t-59 -75.5t-52 -93 t-37 -103t-14 -106.5h-8q0 53 14.5 108t38 105.5t53 94.5t60.5 76.5t60 51.5t51 19q44 0 63 -31.5t19 -92.5q0 -44 -12 -95t-33 -104.5t-50 -106t-63.5 -99t-72.5 -84t-77 -60.5q70 -23 139 -58t139 -68.5t143 -57.5t153 -24q38 0 67 8t49 19q26 16 44 37zM198 0 q18 0 36.5 5t36.5 13q-28 9 -56.5 14.5t-57.5 6.5q5 -17 14.5 -28t26.5 -11z"/>
<glyph horiz-adv-x="794" glyph-name="R" unicode="R" d="M504 799q133 0 225 -83q30 23 62.5 35t70.5 12q37 0 60.5 -19.5t31.5 -39.5l-7 -3q-8 19 -29 36.5t-56 17.5t-66.5 -11.5t-60.5 -32.5q36 -34 58 -79.5t22 -105.5q0 -38 -16.5 -81.5t-49.5 -81t-82 -63.5t-113 -28l4 -2q17 -13 28.5 -43t6.5 -84q-3 -30 -5.5 -56t0 -45.5 t11 -30.5t28.5 -11q16 0 36.5 15t42.5 40t44.5 58t43.5 69l7 -4q-21 -37 -44.5 -71t-46.5 -59.5t-44.5 -40.5t-38.5 -15q-49 0 -72 38.5t-16 95.5q7 55 11 85.5t-1 46.5q-3 8 -10 10.5t-13 3.5q-18 -44 -49.5 -93.5t-79 -91t-113 -69t-152.5 -27.5q-45 0 -74 16t-43.5 40 t-15 52.5t10.5 53.5l7 -3q-10 -23 -9.5 -49.5t14 -49t40.5 -37.5t70 -15q64 0 116 33.5t96.5 88.5t83.5 125t76.5 142.5t76 141.5t82.5 122q10 12 20.5 23.5t23.5 22.5q-37 45 -86.5 69t-116.5 24q-108 0 -197 -37t-152.5 -98.5t-99 -140t-35.5 -161.5q0 -42 12 -77 t33 -60.5t50.5 -39.5t65.5 -14q46 0 90.5 27t79 71t55.5 99t21 111q0 23 -5.5 44.5t-18 38t-31.5 26.5t-46 10q-35 0 -65.5 -21t-52.5 -53.5t-32.5 -72.5t-5.5 -77l-8 -1q-6 39 5 80.5t34 75.5t55.5 55.5t69.5 21.5q29 0 49.5 -11t34 -29t19.5 -40.5t6 -46.5 q0 -58 -21.5 -114.5t-56.5 -101.5t-81 -72.5t-95 -27.5q-38 0 -69 15t-53.5 41t-34.5 62.5t-12 80.5q0 85 35.5 165t100.5 142t155.5 100t200.5 38zM712 692q-24 -23 -47 -50q-34 -43 -53 -88.5t-31.5 -90.5t-22 -88t-24.5 -82l-2 -5q50 0 92 21.5t73 56t48 78.5t17 89 q0 48 -13.5 87.5t-36.5 71.5z"/>
<glyph horiz-adv-x="944" glyph-name="S" unicode="S" d="M1109 709q0 -24 -14 -58.5t-41 -74t-67 -81t-93 -80.5q-7 -39 -16 -77t-26 -77q-23 -51 -66 -105t-105.5 -98t-144.5 -72t-181 -28t-168.5 26t-112.5 66t-62.5 86.5t-19.5 88.5q0 51 25.5 102.5t73.5 92.5q-12 30 -12 67q0 46 24 89t68.5 76.5t108.5 53.5t144 20 q56 0 109.5 -9t101.5 -26t88.5 -41t71.5 -53l-6 -6q-30 29 -70 52.5t-87 40t-99.5 25.5t-108.5 9q-78 0 -140.5 -20t-106 -52t-67 -74t-23.5 -85q0 -32 11 -62q42 32 96.5 52t123.5 20q64 0 119.5 -14.5t97 -40.5t66.5 -62.5t28 -81.5q59 16 110.5 39t96.5 50 q33 72 60.5 139t54 119.5t54.5 84t62 31.5q20 0 31 -14.5t11 -37.5zM896 427q51 38 89 78.5t64 78t39 70t13 55.5q0 20 -8.5 32t-25.5 12q-23 0 -43 -17t-40 -47q-22 -37 -36.5 -71t-24.5 -66.5t-16 -63.5t-11 -61zM318 489q-67 0 -121.5 -20t-95.5 -52q11 -27 31 -49.5 t46 -39.5q24 23 60.5 34.5t77.5 11.5q33 0 60 -8.5t47 -19.5t33 -22t16 -15l-6 -5q-3 4 -15 14.5t-31.5 21t-46 18.5t-57.5 8q-39 0 -73.5 -10.5t-57.5 -32.5q42 -26 97 -40.5t116 -14.5t116.5 7t106.5 21q-2 43 -26 78.5t-64.5 61t-95 39.5t-117.5 14zM0 225 q0 -40 19 -85.5t61.5 -84t110 -64t164.5 -25.5q93 0 166 35t129.5 92.5t100 130.5t78.5 149q-44 -26 -93.5 -47t-106.5 -37q0 -35 -18 -68.5t-51.5 -59t-80 -41t-103.5 -15.5q-53 0 -95 13t-72 34t-46 47.5t-16 53.5q0 40 25 68q-26 18 -46 40.5t-31 49.5 q-46 -38 -70.5 -87.5t-24.5 -98.5zM398 260q-63 0 -119.5 14.5t-99.5 42.5q-24 -27 -24 -64q0 -25 15.5 -50t44 -45t69.5 -32.5t92 -12.5q55 0 100 15t77 39.5t50 56t18 64.5q-51 -14 -106.5 -21t-116.5 -7z"/>
<glyph horiz-adv-x="806" glyph-name="T" unicode="T" d="M1115 796q42 0 65 -15t20.5 -33.5t-33.5 -33.5t-95 -15q-42 0 -81 4t-76 10q-50 -47 -89 -125t-69 -204q-21 -90 -61.5 -165.5t-97.5 -129.5t-129.5 -84t-157.5 -30q-64 0 -113 20t-82 53t-50 76.5t-17 90.5q0 27 8 64q-65 65 -65 173q0 77 34 144t93.5 117t140.5 78.5 t175 28.5q79 0 146.5 -9.5t127 -23.5t112 -29.5t101.5 -27.5q79 66 193 66zM311 -17q69 0 121.5 28.5t94.5 75.5t76.5 109t66.5 130q25 54 50.5 108.5t53.5 105.5t60 96t71 79q-63 12 -120 28.5t-113.5 32t-114.5 26t-121 10.5h-1q-92 0 -171.5 -28.5t-138 -77t-92 -114 t-33.5 -140.5q0 -99 59 -164q18 60 60 109t105 71q3 45 20.5 83.5t45.5 66.5t64 44t77 16q25 0 51.5 -8t48 -26t35 -46.5t13.5 -68.5q0 -46 -18 -97t-53 -96q9 -29 9 -61q0 -41 -15.5 -74.5t-41.5 -57t-60.5 -36.5t-73.5 -13q-21 0 -40 4.5t-34 11.5t-25 14.5t-14 13.5l6 5 q8 -11 36.5 -26t70.5 -15q37 0 70 12.5t58 35.5t40 54.5t15 70.5q0 14 -2 27t-5 26q-43 -54 -106.5 -89t-147.5 -35q-58 0 -104.5 18t-79.5 50q-7 -25 -7 -57q0 -45 16.5 -87t49 -74.5t79.5 -51.5t109 -19zM1072 707q60 0 88.5 12.5t31 28t-18 28t-58.5 12.5q-55 0 -100 -16 t-83 -45q37 -9 71 -14.5t69 -5.5zM233 471q30 10 70 10q32 0 63 -9.5t57.5 -27t47.5 -43t33 -56.5q33 45 50 92t17 92q0 38 -12.5 65t-32.5 44t-45 24.5t-50 7.5q-38 0 -72.5 -15t-61.5 -41.5t-44 -63t-20 -79.5zM252 356q-16 14 -22 42t-6 55v7q-63 -22 -102.5 -71.5 t-55.5 -107.5q32 -32 78.5 -50.5t103.5 -18.5q82 0 145.5 35.5t105.5 89.5q-11 31 -31.5 56t-46.5 43t-56.5 27.5t-61.5 9.5q-35 0 -71 -11v-9q0 -26 5.5 -52t19.5 -39z"/>
<glyph horiz-adv-x="781" glyph-name="U" unicode="U" d="M559 18q0 -17 8 -25t17 -8q12 0 30 5.5t42 25.5t55 59t70 107l7 -4q-39 -69 -71 -109t-57.5 -60.5t-44 -26t-31.5 -5.5q-28 0 -41 19t-14 40q-3 45 39 141q-55 -93 -98.5 -139t-69.5 -46q-10 0 -14 1q-29 5 -40 29.5t-11 52.5q0 41 19.5 88.5t48 98.5t62.5 103.5 t62.5 103t48 97.5t19.5 87t-10.5 69.5t-27.5 50.5t-38 33.5t-41.5 19.5t-38.5 9.5t-29 2.5q-53 0 -104 -18.5t-97 -51t-84 -76.5t-66 -94t-43.5 -104t-15.5 -107q0 -77 38.5 -122t108.5 -45q54 0 111 35.5t104 91t77 122.5t30 130q0 33 -7.5 54.5t-19.5 35t-28 19t-34 5.5 q-44 0 -87 -29t-77.5 -76t-55.5 -106.5t-21 -121.5h-8q0 64 21.5 125t57 109t80 77.5t90.5 29.5q19 0 36.5 -6t31 -20t21.5 -37.5t8 -58.5q0 -43 -14 -88.5t-38.5 -88.5t-57 -81t-69 -67t-75.5 -45.5t-76 -16.5q-75 0 -115 47t-40 128q0 54 16 109t44 106t67 95.5t85.5 77.5 t99 52t107.5 19q45 0 82.5 -15t65 -43.5t42.5 -69t15 -92.5q0 -61 -18.5 -120t-46 -114t-60 -105t-60 -95t-46 -83.5t-18.5 -69.5q0 -21 6.5 -29.5t23.5 -9.5h1h1h1q27 0 83.5 68t127.5 205q20 40 39.5 77.5t42.5 80.5t51 95t64 123h74q-93 -167 -155.5 -276.5t-99.5 -180 t-52.5 -109.5t-15.5 -65z"/>
<glyph horiz-adv-x="550" glyph-name="V" unicode="V" d="M1102 842q46 0 87 -14t74 -37t56.5 -53.5t35.5 -63.5l-9 -3q-11 29 -35 54.5t-56.5 45t-70 30.5t-76.5 11q-71 0 -134 -17t-122.5 -53.5t-117.5 -95.5t-119 -143q-42 -59 -87 -131t-87 -143.5t-76 -134t-53 -101.5l-13 6l2 4q54 115 85.5 196.5t48 139.5t23 99t10.5 76 q5 45 1 84.5t-17 68.5t-36 45.5t-56 16.5q-70 0 -135 -36.5t-115 -94.5t-80 -131t-30 -146q0 -82 37.5 -128.5t95.5 -46.5q43 0 85.5 25.5t75.5 67t53.5 94t20.5 106.5q0 31 -8 53t-20.5 36.5t-28.5 21t-31 6.5q-27 0 -52 -12.5t-44.5 -35.5t-31 -55t-11.5 -70q0 -40 7 -64 t9 -26l-6 -6q-2 3 -10 28.5t-8 67.5q0 40 12.5 73.5t32.5 57.5t46.5 37t55.5 13q17 0 34.5 -7t31 -22t22 -39t8.5 -57q0 -56 -20.5 -109.5t-54.5 -96.5t-78 -69t-90 -26q-63 0 -102 48t-39 135q0 50 14 100.5t38.5 97t59 86.5t75.5 70t87 47t94 17q33 0 66.5 -9t60 -30.5 t43 -57t16.5 -88.5q0 -31 -9 -68t-24.5 -78t-35 -83.5t-40.5 -83.5q84 141 162.5 252.5t158.5 189t164 118.5t180 41z"/>
<glyph horiz-adv-x="787" glyph-name="W" unicode="W" d="M1388 899q66 0 105 -24t39 -60q0 -19 -11 -36.5t-31.5 -30.5t-50.5 -21t-67 -8q-66 0 -132.5 19t-135.5 40q-39 -29 -85 -75q-72 -74 -121.5 -137.5t-85 -120.5t-63 -110t-55.5 -106.5t-61.5 -109t-81.5 -118.5l-6 5l2 2q5 7 19.5 30t29.5 55q28 64 45 128l34 128 t39.5 128t62.5 128q-64 -90 -135 -208.5t-147 -241.5q-23 -39 -47.5 -79t-50.5 -82l-7 4l-1 1q36 58 68 122.5t55.5 131t37.5 133.5t14 130q0 37 -4 80.5t-18 81.5t-42 63.5t-76 26.5q-57 -1 -110.5 -22t-100.5 -56.5t-86.5 -82t-67.5 -98.5t-43.5 -106.5t-15.5 -105.5 q0 -63 14.5 -106.5t37.5 -71t53 -40t62 -12.5q61 0 117 34.5t98.5 90t67.5 124.5t25 139q0 35 -9 60.5t-24 41.5t-35.5 23.5t-44.5 7.5q-43 0 -82 -26.5t-69 -68.5t-47.5 -95t-17.5 -106q0 -35 3.5 -58t7.5 -37l-8 -2q-4 14 -7.5 37.5t-3.5 59.5q0 55 18 109t49 97.5 t71.5 70.5t85.5 27q51 0 86 -33t35 -108q0 -72 -25.5 -142.5t-69 -127t-100.5 -91.5t-121 -35q-33 0 -64.5 13t-56 41.5t-39.5 73.5t-15 110q0 53 16 109.5t45 109.5t69.5 100.5t89.5 83t104.5 56t114.5 20.5q67 0 108.5 -21t65 -50.5t32 -62t8.5 -56.5q0 -72 -22.5 -149.5 t-64.5 -161.5q27 43 58 96t65 108.5t71 108.5t76 96q7 8 13.5 15t12.5 13l6 -6q-17 -22 -32 -67t-33 -106t-42 -135t-61 -155q27 52 53.5 104.5t62.5 109t85 118.5t120 134q40 42 81 72q-54 17 -107.5 29.5t-107.5 12.5q-35 0 -64 -10t-51.5 -25t-37 -33.5t-20.5 -35.5l-8 3 q6 18 22 37t39.5 35t54 26.5t65.5 10.5q57 0 111.5 -13.5t111.5 -30.5q46 34 89 56t79.5 34.5t66.5 17t51 4.5zM1372 727q75 0 113.5 26.5t38.5 61.5q0 33 -35 54.5t-101 21.5q-20 0 -49 -4.5t-64.5 -16t-77 -32.5t-85.5 -54q66 -21 131.5 -39t128.5 -18z"/>
<glyph horiz-adv-x="912" glyph-name="X" unicode="X" d="M986 720q17 0 33 -5t29 -16t20.5 -28t7.5 -41t-10.5 -45t-26 -36.5t-34 -25t-33.5 -9.5v8q13 0 30 9t31.5 24t24.5 34.5t10 40.5q0 43 -25.5 62.5t-56.5 19.5q-33 0 -67 -21.5t-68 -58t-65.5 -85t-58.5 -102.5q-21 -42 -38.5 -86t-30.5 -86q-14 -45 -21 -87t-7 -78 q0 -17 2 -36.5t8.5 -37t19 -29t33.5 -11.5q31 0 60.5 14.5t57 40t53 59.5t48.5 74l7 -4q-23 -40 -49.5 -75t-55 -61t-59.5 -41t-62 -15q-16 0 -40.5 8.5t-45 32t-30 64.5t3.5 106q-39 -63 -86.5 -114t-101.5 -77q-20 -10 -41.5 -15.5t-44.5 -5.5q-45 0 -70.5 17t-36.5 40 t-10.5 46.5t8.5 37.5l7 -4q-8 -12 -8 -33.5t11 -43t35 -37t65 -15.5q50 0 97 29q43 26 79.5 71.5t65 100t50 113.5t35.5 113t21 97.5t7 67.5q0 31 -6.5 59.5t-22 50.5t-41 35t-64.5 13q-35 0 -69.5 -11.5t-68.5 -31.5q63 -17 100.5 -73t37.5 -144q0 -83 -23.5 -147 t-58.5 -108t-76 -66.5t-75 -22.5q-49 0 -79 30q-44 -34 -96 -34q-30 0 -54 14t-40.5 38.5t-25.5 57t-9 70.5q0 87 32 159.5t82.5 124t111 80.5t117.5 29q20 0 45 -5q35 23 73 35.5t76 12.5q37 0 69.5 -11.5t57 -36t38.5 -63.5t14 -93q0 -36 -10 -75q76 129 152 188.5 t136 59.5zM0 315q0 -36 8.5 -67.5t24 -54.5t38 -36.5t50.5 -13.5q24 0 47 8.5t43 23.5q-23 26 -33 62.5t-10 73.5q0 59 15.5 116t43 107.5t64.5 92t80 70.5q-18 3 -36 3q-56 0 -115 -28.5t-108 -79.5t-80.5 -121.5t-31.5 -155.5zM521 483q0 88 -38 142t-101 69 q-43 -28 -80.5 -69.5t-65.5 -91.5t-44 -106.5t-16 -115.5q0 -37 9.5 -72.5t31.5 -58.5q24 19 43.5 47.5t32 63t17 73t-1.5 79.5l8 1q6 -41 1.5 -81t-17 -75.5t-32.5 -64.5t-45 -49q28 -27 73 -27q33 0 72.5 22t73.5 64.5t56.5 105.5t22.5 144z"/>
<glyph horiz-adv-x="790" glyph-name="Y" unicode="Y" d="M870 606q-23 -22 -48 -63.5t-47 -87.5q-13 -40 -21 -84.5t-12 -90.5q-5 -62 -35.5 -123.5t-79.5 -111t-113 -80t-135 -30.5q-51 0 -81.5 18t-42.5 45t-7 58.5t24.5 58.5t52.5 45t77 18q42 0 68 -12t37 -30t9 -39t-15.5 -39t-37 -30t-54.5 -12q-38 0 -55.5 11.5 t-20.5 18.5l7 4q3 -6 18.5 -16t50.5 -10q29 0 51 11t34.5 27t14 35t-9 35t-34.5 27t-63 11q-42 0 -73 -17t-50 -42t-23.5 -54.5t7 -54.5t40.5 -42t77 -17q53 0 98 26.5t81.5 67.5t65 90.5t49.5 97t35 86.5t21 58q-20 -32 -42.5 -60t-45.5 -48.5t-45 -32.5t-41 -12 q-20 0 -37 19t-16 51q0 24 9 49.5t23.5 51t31.5 51.5l34 52q25 38 44 73t19 67q1 33 -15 61.5t-44.5 49.5t-67 32.5t-81.5 11.5q-57 0 -112.5 -17t-106 -47t-93.5 -71t-74.5 -89t-50 -100.5t-19.5 -106.5q0 -35 8 -67.5t25.5 -57t44.5 -39t65 -14.5q41 0 93.5 26.5t99.5 73 t79.5 111t33.5 139.5q1 53 -21.5 76t-56.5 23q-45 0 -87 -27t-75 -65t-53 -80.5t-20 -72.5q-1 -29 2 -42t8 -18l-6 -5q-5 6 -9 20.5t-3 44.5q0 32 20.5 75.5t54.5 83t77.5 67t90.5 27.5q38 0 62.5 -25t23.5 -82q-1 -78 -34 -143.5t-81 -113t-102 -74.5t-97 -27 q-40 0 -68.5 15.5t-47 41.5t-27 59.5t-8.5 69.5q1 55 19.5 109t50.5 102.5t76 90.5t95.5 72.5t108.5 47.5t115 17q46 0 89.5 -13t76.5 -39.5t52.5 -66t18.5 -93.5q-1 -30 -12 -59.5t-27 -58.5q-18 -32 -38.5 -61.5t-38 -56t-29.5 -48.5t-12 -38q0 -35 19 -35q22 0 48.5 17 t53.5 46t52 66t45 78q11 26 23.5 52.5t26.5 50.5q4 6 7.5 12.5t8.5 13.5q11 16 22 29.5t22 22.5z"/>
<glyph horiz-adv-x="460" glyph-name="Z" unicode="Z" d="M658 717q-42 -77 -97 -138t-116 -113.5t-124.5 -99.5t-122 -95t-109 -100.5t-84.5 -115.5q25 31 53 43.5t56 11t53.5 -15.5t44.5 -36q10 -11 24.5 -21.5t32 -10t38.5 17t45 60.5l8 -4l-4 -8q-27 -48 -40 -82t-23 -56l-7 3q6 14 13.5 34.5t19.5 46.5q-43 -50 -87.5 -51.5 t-84.5 38.5q-17 16 -38 28t-43.5 12.5t-44.5 -14.5t-40 -52l-8 4q26 68 70 123.5t98 105t115.5 95.5t122.5 94.5t118.5 103t105.5 120.5q-25 -23 -48 -31t-44 -7t-41 9.5t-39 19.5q-25 15 -48 28.5t-46 13t-47.5 -20t-53.5 -68.5l-2 -4q0 -1 -0.5 -1t-0.5 -1l-7 4l5 8 q6 11 15 28t18.5 36.5t18.5 38.5t15 35l8 -3q-7 -16 -16 -35.5t-19 -39.5q33 42 61.5 59.5t54 18t48.5 -10.5t44.5 -24.5t42.5 -25.5t42 -13.5t43 13t46 52.5l7 -4z"/>
<glyph horiz-adv-x="527" glyph-name="bracketleft" unicode="[" d="M53 2h76l-6 -11l-123 -1l378 712h124l-6 -12h-78z"/>
<glyph glyph-name="backslash" unicode="\"/>
<glyph horiz-adv-x="572" glyph-name="bracketright" unicode="]" d="M202 -1l-5 -9h-122l6 12h76l366 688h-77l7 12h123z"/>
<glyph horiz-adv-x="558" glyph-name="asciicircum" unicode="^" d="M394 708q-12 -30 -9 -56t13 -50.5t23 -48.5t20 -49.5t3.5 -54t-24.5 -62.5l-1 -2l-6 4l1 2q12 19 11 36t-9 34.5t-19.5 37t-20.5 43t-12 53t6 67.5q-24 -40 -51.5 -67t-56 -47.5t-56.5 -36t-52.5 -32.5t-43.5 -38t-30 -52l-8 3q14 47 39 81t55.5 59t63.5 45t63.5 39.5 t55 41.5t38.5 53z"/>
<glyph horiz-adv-x="573" glyph-name="underscore" unicode="_" d="M48 -130v12h477v-12h-477z"/>
<glyph horiz-adv-x="76" glyph-name="grave" unicode="`" d="M65 544l11 -103h-16l-58 103h63z"/>
<glyph horiz-adv-x="346" glyph-name="a" unicode="a" d="M179 0q13 0 32 12t41 35.5t46 57t48 77.5l7 -4q-49 -88 -97 -137t-77 -49q-32 0 -38 32.5t8 80.5q-38 -57 -73.5 -85t-58.5 -28t-35 18.5t-12 50.5t13 75t39 91t56.5 82.5t59 56.5t53 32t39.5 10q23 0 30.5 -17t4.5 -41l25 50h63l-128 -244q-18 -34 -31.5 -62.5 t-20 -49.5t-5.5 -32.5t11 -11.5zM17 0q23 0 63 34t82 106l7 17q5 12 14 30t20 39.5t23 45.5l24 48q10 30 7 55t-27 25q-13 0 -32.5 -21t-40 -51t-40.5 -63t-33 -57q-13 -23 -29.5 -58.5t-28.5 -68.5t-16 -57t7 -24z"/>
<glyph horiz-adv-x="314" glyph-name="b" unicode="b" d="M321 176q-16 -29 -36.5 -49.5t-43 -33.5t-45 -19.5t-41.5 -6.5l-9 1q-42 -45 -76 -60t-53 -15h-1h-6q-11 1 -16 7q-12 9 -18 27t-5.5 42.5t7.5 53t21 58.5q5 11 22 45t40 80.5t49 99t50 100.5t43 86.5t28 56.5h61l-163 -316q9 13 20.5 26.5t24 24.5t25 17.5t24.5 6.5 q22 0 36 -14t16.5 -41t-7.5 -67t-36 -91q-20 -39 -40 -68.5t-40 -51.5h3q18 0 39.5 6t43 18.5t41.5 32.5t35 48zM223 400q-14 0 -29.5 -10.5t-30 -26t-27 -33.5t-19.5 -33q-41 -80 -38 -130.5t28 -72.5q17 27 33 57t30 56q24 46 41.5 81.5t25.5 60.5t5 38t-19 13zM50 180 q-27 -53 -40 -87.5t-15 -55t4.5 -29t17.5 -8.5q19 0 42 25t44 62q-24 21 -31 64t19 109z"/>
<glyph horiz-adv-x="256" glyph-name="c" unicode="c" d="M263 178q-28 -50 -57 -85.5t-56 -58t-50.5 -33t-40.5 -10.5q-31 0 -49 19.5t-24 51t1 71t25 79.5q24 52 52.5 89t57.5 61t55.5 35t44.5 11q28 0 40.5 -13.5t12 -32.5t-13 -40t-34.5 -35q-4 -2 -8 -2q-8 0 -14 5t-6 14t5.5 14t12.5 5q14 0 16 -12q17 11 26 28.5t7 32.5 q-2 12 -12 19t-19 7q-18 0 -37.5 -15.5t-40 -43t-41.5 -65t-43 -80.5q-14 -27 -25 -60.5t-15.5 -63.5t1 -50.5t25.5 -20.5q16 0 38.5 10t49 32t54.5 56.5t55 84.5z"/>
<glyph horiz-adv-x="341" glyph-name="d" unicode="d" d="M175 0q13 0 32 12t41 35.5t46 57t48 77.5l7 -4q-49 -88 -97 -137t-77 -49q-35 0 -40.5 30t11.5 78q-37 -55 -71.5 -81.5t-57.5 -26.5t-35 18.5t-12 50.5t13 75t39 91t56.5 82.5t59 56.5t53 32t39.5 10q25 0 32 -20t2 -47q24 46 49 94.5t47 91t38.5 75.5t24.5 48h61 l-262 -494q-19 -35 -33.5 -63.5t-21.5 -49t-6 -32t14 -11.5zM17 0q23 0 63 34t82 107l6 13q5 12 25.5 51t47.5 92q8 18 13 36t4 33t-7.5 24.5t-20.5 9.5q-13 0 -32.5 -21t-40 -51t-40.5 -63t-33 -57q-13 -23 -29.5 -58.5t-28.5 -68.5t-16 -57t7 -24z"/>
<glyph horiz-adv-x="273" glyph-name="e" unicode="e" d="M280 178q-23 -40 -49.5 -74t-54 -59t-55 -39t-54.5 -14q-32 0 -52.5 18.5t-28 51t0 75.5t33.5 91q19 36 44.5 68.5t54 57.5t59 39.5t59.5 14.5h3q5 -1 12.5 -3.5t14.5 -9t10.5 -17.5t1.5 -29q-4 -28 -23.5 -56t-48 -50.5t-63.5 -37t-70 -15.5q-41 -89 -43.5 -139.5 t36.5 -50.5q25 0 52 13.5t53.5 37.5t52 57.5t48.5 73.5zM246 352q1 7 2 15.5t0.5 15.5t-3 12t-9.5 5q-14 0 -33 -17t-40.5 -44t-43 -62t-38.5 -71l-2 -5q28 3 55.5 17.5t50.5 35.5t39 47t22 51z"/>
<glyph horiz-adv-x="210" glyph-name="f" unicode="f" d="M21 114q22 -11 48 -12.5t51.5 7t49 26.5t40.5 47l7 -4q-18 -30 -42.5 -49.5t-52 -28.5t-55 -7.5t-50.5 13.5l-40 -74q-2 -27 -5 -54.5t-7 -52.5q-8 -54 -23 -95.5t-32 -70.5t-35 -44t-33 -15h-1h-1q-18 1 -24 20.5t-3 49t14.5 66.5t28.5 73q3 6 12.5 24.5t24 46.5 t33.5 64.5t41 77.5q-3 29 -14 46l15 7q2 -8 5.5 -14.5t7.5 -12.5q40 75 83.5 156.5t81.5 152.5t66 123t36 69h62zM-43 -74q3 21 5.5 43t4.5 45l-81 -151q-37 -69 -50 -108.5t1 -45.5q2 -1 6 -1q12 0 28.5 14.5t33 42.5t30.5 68.5t22 92.5z"/>
<glyph horiz-adv-x="325" glyph-name="g" unicode="g" d="M353 400l-267 -506q-15 -28 -35.5 -59t-42.5 -58.5t-43 -48t-37 -26.5l-10 -2q-7 0 -14.5 6.5t-7.5 22.5q0 29 18.5 66t48 76.5t66.5 78.5t75 72l32 66q-35 -49 -67 -72.5t-53 -23.5q-23 0 -35 18.5t-12 50.5t13 75t39 91t56.5 82.5t59 56.5t53 32t39.5 10 q23 0 30.5 -16.5t4.5 -39.5l24 48h65zM249 321q10 30 6.5 54.5t-26.5 24.5q-13 0 -32.5 -21t-40.5 -51t-40.5 -63t-32.5 -57q-13 -23 -29.5 -58.5t-28.5 -68.5t-16 -57t7 -24q25 0 67 38t87 119zM94 3q-35 -32 -69 -69t-61 -73.5t-43.5 -70.5t-16.5 -61q0 -12 4.5 -16.5 t9.5 -4.5h1q9 0 19.5 10t25 33t34 60.5t47.5 93.5z"/>
<glyph horiz-adv-x="313" glyph-name="h" unicode="h" d="M321 178q-45 -80 -88.5 -127.5t-73.5 -56.5v-2h-7q-3 0 -5 1q-23 4 -32.5 22t-9.5 42q0 25 9 53.5t23 58.5t31 59.5t32 56.5t27 48.5t16 35.5q3 10 4 20.5t-10 10.5q-8 0 -21.5 -6.5t-32 -22t-40 -42.5t-45.5 -67l-145 -270h-53l345 658h60l-172 -322q35 45 62.5 62.5 t41.5 17.5q27 0 35.5 -16t8.5 -36q0 -19 -10.5 -46.5t-26.5 -58.5t-34 -64t-34 -63t-26.5 -56t-10.5 -43q0 -11 4.5 -16.5t10.5 -7.5q27 5 71 52t89 129z"/>
<glyph horiz-adv-x="162" glyph-name="i" unicode="i" d="M191 570q14 0 25 -11t11 -25t-11 -24t-25 -10t-24 10t-10 24t10 25t24 11zM41 156q-18 -34 -31.5 -62.5t-20 -49.5t-5.5 -32.5t11 -11.5q13 0 32 12t41 35.5t46 57t48 77.5l7 -4q-49 -88 -97 -137t-77 -49q-20 0 -29.5 14t-10 37t7 52.5t22.5 61.5q8 17 23 47t32.5 64.5 t35 69.5t30.5 62h63z"/>
<glyph horiz-adv-x="156" glyph-name="j" unicode="j" d="M190 500q-14 0 -24 10t-10 24t10 25t24 11t25 -11t11 -25t-11 -24t-25 -10zM-97 -106q-15 -28 -35.5 -59t-42.5 -59t-43 -48t-37 -26q-8 -2 -10 -2q-7 0 -14.5 6.5t-7.5 22.5q0 29 18.5 66t48 76.5t66.5 78.5t75 72q31 62 61 124t55 114t43 89.5t25 50.5h65zM-279 -271 q0 -12 4.5 -16.5t9.5 -4.5h1q9 0 19.5 10t24.5 33t34 60.5t48 93.5l49 98q-35 -32 -69 -69t-61 -73.5t-43.5 -70.5t-16.5 -61z"/>
<glyph horiz-adv-x="297" glyph-name="k" unicode="k" d="M130 0q13 0 32 12t41 35.5t46 57t48 77.5l7 -4q-49 -88 -97 -137t-77 -49q-34 0 -51 11.5t-23 28.5t-4.5 37.5t3 37.5t-0.5 29t-14 13h-3l-84 -157h-53l345 658h60l-155 -289q20 23 38 35.5t34 12.5q28 0 41 -16.5t13 -42.5q0 -20 -12.5 -51t-37.5 -62t-63 -55.5 t-88 -30.5q16 -7 22.5 -20.5t8 -30.5t0.5 -34.5t0 -32t5.5 -24t18.5 -9.5zM41 157q30 3 64 27.5t62.5 58t47.5 70t19 64.5q0 16 -5 18.5t-9 2.5q-18 0 -46 -25t-54 -68z"/>
<glyph horiz-adv-x="159" glyph-name="l" unicode="l" d="M-8 0q13 0 32 12t41 35.5t46 57t48 77.5l7 -4q-24 -44 -49 -78.5t-48 -58.5t-42.5 -36.5t-34.5 -12.5q-23 0 -32.5 12t-9.5 34t9.5 51.5t25.5 64.5q4 10 18.5 38t34.5 67t44 85t48 93q18 35 35.5 68.5t32 61.5t25.5 49.5t17 33.5h61l-116 -219l-146 -275 q-19 -35 -33.5 -63.5t-21.5 -49t-6 -32t14 -11.5z"/>
<glyph horiz-adv-x="460" glyph-name="m" unicode="m" d="M468 178q-45 -81 -89.5 -129t-74.5 -56v-1h-6q-3 0 -4 1q-24 3 -34 21t-10 43t9 53.5t23 58.5t31 59.5t32 56.5t27 48.5t16 35.5q3 10 4 20.5t-10 10.5q-8 0 -22.5 -7t-33.5 -23.5t-41.5 -45.5t-47.5 -72q-18 -35 -41.5 -80t-43.5 -85q-24 -47 -48 -95h-58l159 307 q10 19 19 37t13.5 32t4 23t-10.5 9q-11 0 -24.5 -7.5t-30.5 -25.5t-38.5 -48.5t-47.5 -76.5l-134 -250h-56l213 408h61l-37 -68q32 43 55 59.5t40 16.5q19 0 29 -9t13.5 -23t1 -30.5t-8.5 -31.5q39 53 70 73.5t45 20.5q27 0 35.5 -16t8.5 -36q0 -19 -10.5 -46.5t-26.5 -58.5 t-34 -64t-34 -63t-26.5 -56t-10.5 -43q0 -11 4.5 -17t10.5 -8q28 5 72 52t90 130z"/>
<glyph horiz-adv-x="331" glyph-name="n" unicode="n" d="M338 178q-24 -44 -49 -78.5t-48 -58.5t-42.5 -36.5t-34.5 -12.5q-30 0 -42 19t-12 46q0 24 9 53t23 59t31 59.5t32 56t27 48.5t16 36q3 10 4 20.5t-10 10.5q-8 0 -21.5 -6.5t-32.5 -22.5t-41 -43.5t-46 -68.5l-143 -267h-56l179 343l34 65h61l-39 -73q36 46 63.5 63.5 t41.5 17.5q27 0 35.5 -16t8.5 -36q0 -19 -10.5 -46.5t-26.5 -58.5t-34 -64t-34 -63t-26.5 -56t-10.5 -43q0 -14 6 -19.5t14 -5.5q13 0 32 12t41 35.5t46 57t48 77.5z"/>
<glyph horiz-adv-x="298" glyph-name="o" unicode="o" d="M305 178q-12 -22 -25 -42t-26.5 -35.5t-28 -25t-29.5 -9.5q-28 0 -40 28q-31 -45 -62 -74t-58 -29q-17 0 -28.5 7t-19 18.5t-10.5 25t-3 27.5q0 35 11 73.5t30 76t44 72t52.5 60.5t55.5 41.5t53 15.5q10 0 23.5 -9.5t13.5 -38.5q0 -30 -8 -63.5t-21 -67t-30.5 -66.5 t-36.5 -61q7 -28 34 -28q13 0 26.5 9t26 24t25 34.5t24.5 40.5zM36 -1q26 0 56 30t61 75q0 4 -0.5 8t-0.5 9q0 20 6.5 40.5t17 37.5t23.5 29t25 15q11 31 18.5 60.5t7.5 56.5q0 26 -10.5 33t-18.5 7q-6 0 -19 -8.5t-32 -32.5q-20 -25 -46 -69t-49.5 -92t-39.5 -93.5 t-16 -73.5q0 -32 17 -32z"/>
<glyph horiz-adv-x="313" glyph-name="p" unicode="p" d="M238 406q20 -1 35 -14.5t15 -48.5q0 -29 -10.5 -66t-29 -76t-43.5 -77t-54 -67.5t-60.5 -47.5t-62.5 -18q-22 0 -32 17.5t-2 52.5l-194 -364h-57l371 703h61l-30 -56q22 26 45.5 44t45.5 18h2zM27 1q12 0 33.5 23.5t46 59.5t49.5 80t45.5 86t33.5 76t13 50q0 20 -12 20 q-15 0 -32 -10t-33 -26t-31.5 -36.5t-27.5 -42.5l-93 -174q-20 -49 -17.5 -77.5t25.5 -28.5z"/>
<glyph horiz-adv-x="336" glyph-name="q" unicode="q" d="M352 400l-375 -703h-57l190 360q-29 -33 -54 -49t-42 -16q-23 0 -35 18.5t-12 50.5t13 75t39 91t56.5 82.5t59 56.5t53 32t39.5 10q24 0 31.5 -19.5t2.5 -45.5l30 57h61zM14 0q20 0 50.5 23t65.5 73l113 214q6 16 9.5 32t2 29t-8 21t-19.5 8t-32.5 -21t-40 -51t-40.5 -63 t-33 -57q-13 -23 -29.5 -58.5t-28.5 -68.5t-16 -57t7 -24z"/>
<glyph horiz-adv-x="272" glyph-name="r" unicode="r" d="M280 178q-48 -89 -86.5 -137.5t-67.5 -48.5q-18 0 -29.5 8t-18 19.5t-8.5 24t-2 21.5q0 22 8.5 50t21.5 58t28 60t28 55.5t21.5 45.5t8.5 30q0 2 0.5 7t-1 10.5t-6 11t-14.5 10.5q-9 5 -17.5 9t-16.5 10q-21 -48 -49.5 -105.5t-72.5 -138.5l-7 4q45 82 74 140t49 106 q-13 13 -13 34q0 12 3 25.5t7.5 25t10.5 19t13 7.5q6 0 10.5 -4.5t4.5 -17.5q0 -15 -7 -37t-19 -50q12 -10 29 -17t32.5 -15t26 -20t10.5 -32q0 -18 -9 -43.5t-23 -55t-29.5 -61.5t-29.5 -61.5t-23 -56t-9 -45.5q0 -5 2 -13.5t12 -9.5h4q26 0 62.5 47t84.5 135z"/>
<glyph horiz-adv-x="233" glyph-name="s" unicode="s" d="M156 514q14 0 16 -14.5t-5 -31.5q-8 -19 -22 -47t-31 -60q4 -26 10.5 -52t12.5 -52.5t10.5 -52.5t4.5 -51q-1 -42 -16.5 -73.5t-39.5 -52.5t-52 -31.5t-53 -10.5q-16 0 -31.5 6.5t-27 18.5t-17.5 29.5t-4 38.5q3 28 22 41t36 6q14 -5 11 -20q-1 -8 -7.5 -14t-15.5 -6 q-6 0 -10 3q-7 -5 -10 -13t-3 -17q0 -26 15 -45.5t42 -19.5q17 0 35.5 10.5t34 32t25.5 54.5t10 79q0 48 1.5 91t3.5 78q-24 -44 -50.5 -87.5t-44.5 -74.5l-7 4q20 34 48.5 81.5t54.5 94.5l3 44l1 7q2 22 7 41.5t11.5 34t14.5 23t17 8.5z"/>
<glyph horiz-adv-x="159" glyph-name="t" unicode="t" d="M188 437h54v-5h-57l-146 -276q-19 -35 -33.5 -63.5t-21.5 -49t-6 -32t14 -11.5t32 12t41 35.5t46 57t48 77.5l7 -4q-49 -88 -97 -137t-77 -49q-22 0 -32 12t-10 34t9.5 51.5t25.5 64.5q4 9 18 36.5t34 66t43.5 84t47.5 91.5h-50v5h52q18 35 35.5 68.5t32 61.5t25.5 49.5 t17 33.5h61z"/>
<glyph horiz-adv-x="324" glyph-name="u" unicode="u" d="M157 0q13 0 32 12t41 35.5t46 57t48 77.5l7 -4q-49 -88 -97 -137t-77 -49q-17 0 -26.5 10t-12 27t0.5 39.5t12 48.5q-40 -60 -77 -92.5t-60 -32.5q-20 0 -29.5 14t-10 37t7 52.5t22.5 61.5q8 17 23 47t32.5 64.5t35 69.5t30.5 62h63l-128 -244q-18 -34 -31.5 -62.5 t-20 -49.5t-5.5 -32.5t11 -11.5q25 0 67 41t87 118q8 18 23 48t32.5 64t34.5 68.5t30 60.5h63l-128 -244q-18 -34 -31.5 -62.5t-20 -49.5t-5.5 -32.5t11 -11.5z"/>
<glyph horiz-adv-x="307" glyph-name="v" unicode="v" d="M314 178q-26 -45 -54.5 -63.5t-51.5 -9.5q-16 6 -23 23.5t-8 41.5q-33 -56 -58.5 -90.5t-46 -54t-35.5 -26.5t-27 -7h-1q-20 0 -31.5 14.5t-15 37.5t2 52.5t20.5 60.5q8 17 23 47t32.5 64.5t35 69.5t30.5 62h63l-128 -244q-37 -69 -44 -112t13 -44q10 0 24.5 7t34.5 26.5 t46 55t60 93.5l2 4q1 35 11 76t24 76.5t29.5 59t26.5 23.5q23 0 3.5 -60.5t-85.5 -175.5q-2 -27 3.5 -46.5t21.5 -26.5q19 -7 45 10.5t51 59.5z"/>
<glyph horiz-adv-x="443" glyph-name="w" unicode="w" d="M451 178q-31 -54 -58.5 -79t-51.5 -25q-13 0 -22.5 9t-14.5 24q-49 -63 -86.5 -89t-60.5 -26q-17 0 -26.5 10t-12 27t0.5 39.5t12 48.5q-40 -60 -77 -92.5t-60 -32.5q-20 0 -29.5 14t-10 37t7 52.5t22.5 61.5q8 17 23 47t32.5 64.5t35 69.5t30.5 62h63l-128 -244 q-18 -34 -31.5 -62.5t-20 -49.5t-5.5 -32.5t11 -11.5q25 0 67 41t87 118q8 18 23 48t32.5 64t34.5 68.5t30 60.5h63l-128 -244q-18 -34 -31.5 -62.5t-20 -49.5t-5.5 -32.5t11 -11.5q22 0 58.5 26t86.5 91q-3 10 -3 24q0 35 14.5 81t34.5 87.5t41.5 70t36.5 28.5 q11 0 15 -14.5t-3 -43.5t-27 -71.5t-56 -99.5l-23 -34.5t-22 -30.5q8 -32 31 -32q22 0 47.5 23.5t55.5 76.5z"/>
<glyph horiz-adv-x="359" glyph-name="x" unicode="x" d="M355 415q32 0 35 -29h-8q-3 21 -27 21q-16 0 -33 -12.5t-35.5 -34.5t-38 -50.5t-39.5 -60.5q-11 -42 -23 -86t-17.5 -80t-1 -59.5t27.5 -23.5q19 0 43 21t47.5 50.5t43 60.5t30.5 50l7 -4q-11 -19 -31 -50.5t-44.5 -62t-50 -52t-45.5 -21.5q-28 -1 -48.5 21.5t-20.5 76.5 q0 13 3 33q-37 -55 -73 -93t-70 -38q-17 0 -27 11t-6 31l8 -2q-3 -15 4 -23.5t21 -8.5q17 0 34.5 11.5t36 31t37.5 45.5t38 55q5 28 13 61t15.5 64.5t13 58.5t5.5 44q0 14 -8.5 20.5t-26.5 -4.5q-18 -12 -35 -35t-33.5 -51.5t-33.5 -60.5t-35 -62l-7 4q15 26 31.5 57 t33.5 60t34.5 53t34.5 38q11 8 22.5 13t23.5 5q32 0 42 -28.5t2 -70.5l-8 -35q18 29 36.5 55t36 45t34 30t32.5 11z"/>
<glyph horiz-adv-x="309" glyph-name="y" unicode="y" d="M335 400l-267 -506q-15 -28 -35.5 -59t-42.5 -59t-43 -48t-37 -26q-8 -2 -10 -2q-7 0 -14.5 6.5t-7.5 22.5q0 29 18.5 66t48 76.5t66.5 78.5t75 72l44 89q-39 -57 -74.5 -88t-58.5 -31q-20 0 -29.5 14t-10 37t7 52.5t22.5 61.5q8 17 23 47t32.5 64.5t35 69.5t30.5 62h63 l-128 -244q-18 -34 -31.5 -62.5t-20 -49.5t-5.5 -32.5t11 -11.5q13 0 32 12t41 35.5t46 57t48 77.5q19 40 36.5 75.5t31.5 64t23.5 49t14.5 29.5h65zM76 3q-35 -32 -69 -69t-61 -73.5t-43.5 -70.5t-16.5 -61q0 -12 4.5 -16.5t9.5 -4.5h1q9 0 19.5 10t24.5 33t34 60.5 t48 93.5z"/>
<glyph horiz-adv-x="314" glyph-name="z" unicode="z" d="M124 -15q39 27 66.5 49.5t48.5 45t38 46.5t37 56l7 -4q-20 -32 -37.5 -57t-39.5 -48t-50.5 -46t-69.5 -51v-1q0 -32 -13 -65t-33.5 -63.5t-46.5 -57.5t-53 -46.5t-52 -31t-43 -11.5q-25 0 -25 29q0 9 7 28t28 46t59 61t100 74l22 14q5 17 7.5 33t2.5 31q0 13 -8.5 22 t-27.5 11q-22 -23 -43 -37t-41 -14q-13 0 -15 9.5t7 20.5t29 20.5t53 9.5h7q21 24 41.5 55.5t41.5 66.5t41 72t40 72q-20 -5 -37 -5q-25 0 -41.5 8.5t-27.5 21.5q-19 -35 -43 -77t-53 -94l-7 4q29 54 54.5 96.5t43.5 77.5q-12 21 -12 43q0 30 12 53t25 23q18 0 18 -26 q0 -16 -9 -39t-25 -54q9 -12 24.5 -20.5t40.5 -8.5q11 0 21.5 1.5t20.5 5.5q17 31 33.5 57.5t31.5 46.5t28.5 31.5t25.5 11.5q4 0 12.5 -3.5t8.5 -17.5q0 -12 -9 -29t-24.5 -35t-37 -34.5t-46.5 -27.5q-19 -35 -40 -72.5t-44 -74.5t-47.5 -70.5t-51.5 -59.5q24 -4 45 -20.5 t25 -51.5zM346 460q0 9 -4.5 11t-8.5 2q-2 0 -8 -2l4 1q-15 -5 -36.5 -40t-48.5 -86q22 11 40.5 26.5t32 32t21.5 31t8 24.5zM333 473l-5 -1zM102 364q14 28 22.5 49.5t8.5 35.5q0 11 -2.5 14.5t-7.5 3.5q-9 0 -19 -19.5t-10 -48.5q0 -8 1.5 -17.5t6.5 -17.5zM-36 6 q18 0 36.5 12t37.5 32h-1q-27 0 -44 -7t-25.5 -15t-9 -15t5.5 -7zM-117 -292q18 0 44 20.5t53 53.5t51.5 74.5t38.5 83.5l-14 -9q-61 -39 -98 -72.5t-57.5 -59.5t-27.5 -43.5t-7 -26.5q0 -21 17 -21z"/>
<glyph horiz-adv-x="405" glyph-name="braceleft" unicode="{" d="M394 703q13 0 23 -3.5t13 -7.5l-6 -5q-2 2 -10 5t-21 3q-34 0 -52.5 -21.5t-31.5 -54.5t-26 -71.5t-37 -73.5t-64.5 -61t-107.5 -33q21 -6 33.5 -16.5t19.5 -22t9.5 -23t2.5 -20.5q0 -26 -17.5 -57.5t-39 -64t-39 -63.5t-17.5 -57q0 -23 9.5 -36.5t29.5 -13.5h1 q12 0 25 5l3 -8q-15 -5 -28 -5q-27 0 -46.5 19.5t-19.5 54.5q0 33 16 66t35.5 65t35.5 62.5t16 57.5q0 21 -9 32t-22 16q-17 7 -48 7l4 8q59 0 96 23.5t62.5 58.5t43.5 76t39 76.5t49.5 59t75.5 23.5z"/>
<glyph glyph-name="bar" unicode="|" d="M82 -3l428 808l11 -6l-428 -807z"/>
<glyph horiz-adv-x="555" glyph-name="braceright" unicode="}" d="M404 424q0 -21 5.5 -34.5t14.5 -21t20 -10t23 -2.5l-5 -8q-52 -1 -86 -28t-59 -66.5t-44.5 -86t-41.5 -86.5t-51 -66.5t-72 -26.5q-18 0 -33 9l4 7q14 -8 29 -8q29 0 46 25t31 62.5t29.5 82t41.5 84t66 68.5t104 36q-27 11 -40.5 34t-13.5 49q0 39 19 69.5t42.5 56 t42.5 48t19 45.5q0 6 -2 12q-3 8 -9 14q-13 13 -36 13q-20 0 -35 -8l-5 6q10 6 20 8t21 2q13 0 26 -5q13 -8 21 -18q9 -14 9 -32q0 -27 -16 -53t-34.5 -53t-34.5 -56t-16 -62z"/>
<glyph horiz-adv-x="539" glyph-name="asciitilde" unicode="~" d="M464 355q0 -15 -6.5 -33t-19.5 -33t-33.5 -25.5t-47.5 -10.5t-50 11t-45 24.5t-45 24.5t-50 11q-31 0 -50.5 -17.5t-27.5 -37.5q-6 -14 -6 -25h-8v1q0 12 6 26q6 15 16.5 30t26 28t34.5 21t41 8q31 0 57 -10.5t48.5 -23t43 -23t41.5 -10.5q36 0 51.5 21t15.5 44z"/>
<glyph glyph-name="brokenbar" unicode="" d="M319 437l196 369l11 -6l-196 -368zM82 -3l196 369l11 -6l-196 -368z"/>
<glyph horiz-adv-x="588" glyph-name="copyright" unicode="" d="M488 609q36 0 66.5 -12t53.5 -36t36 -59.5t13 -83.5q0 -66 -17.5 -131t-48 -124.5t-71.5 -110.5t-88.5 -88.5t-99.5 -58.5t-103 -21q-47 0 -80.5 18.5t-55 49.5t-31.5 71.5t-10 83.5q0 54 16 112.5t44.5 114.5t68.5 106t88.5 87.5t103.5 59.5t115 22zM229 -108 q50 0 100.5 21t97 58t87.5 87t71 108.5t47 122.5t17 129q0 45 -12.5 79.5t-34.5 57.5t-51 34.5t-63 11.5q-32 0 -73.5 -21.5t-84 -60t-83.5 -91t-73.5 -114t-52 -130t-19.5 -138.5q0 -20 5 -46.5t19 -50.5t38.5 -40.5t64.5 -16.5zM516 384q0 -14 -5 -28t-14 -26t-20.5 -19.5 t-23.5 -7.5q-11 0 -19.5 8t-8.5 18t7.5 17t18.5 7q9 0 15.5 -6t8.5 -14q13 8 23 22.5t10 28.5v1q0 21 -13 29.5t-25 6.5q-14 -3 -35.5 -17t-44.5 -36.5t-46.5 -52.5t-42 -64t-30 -71t-10.5 -74q1 -27 12 -36t20 -9q10 0 23.5 3.5t28.5 14t32 30t35 51.5l7 -4 q-18 -33 -36 -53.5t-34.5 -31.5t-31 -14.5t-24.5 -3.5q-26 0 -50 25.5t-25 71.5q-1 50 23 101t60.5 92t80.5 67t82 26q12 0 25 -6t21 -19q6 -11 6 -26v-1z"/>
<glyph horiz-adv-x="709" glyph-name="registered" unicode="" d="M488 609q36 0 66.5 -12t53.5 -36t36 -59.5t13 -83.5q0 -66 -16.5 -131t-46.5 -124.5t-70 -110.5t-88 -88.5t-100.5 -58.5t-106.5 -21q-47 0 -80.5 18.5t-55 49.5t-31.5 71.5t-10 83.5q0 54 15 112.5t43 114t67 105.5t87.5 88t105 60t118.5 22zM229 -108q52 0 104 21 t98.5 58t86.5 87t69 108.5t45.5 122.5t16.5 129q0 45 -12.5 79.5t-34.5 57.5t-51 34.5t-63 11.5q-32 0 -73.5 -21.5t-84 -60t-83.5 -91t-73.5 -114t-52 -130t-19.5 -138.5q0 -20 5 -46.5t19 -50.5t38.5 -40.5t64.5 -16.5zM362 31q7 0 19.5 6.5t29.5 24t38 48t47 79.5l7 -4 q-26 -50 -48 -81.5t-40 -49.5t-31 -24.5t-22 -6.5q-16 0 -26 7.5t-16 18t-7.5 21.5t-1.5 19q1 39 18.5 78t37.5 74t37 62.5t18 44.5q0 4 0.5 15t-16.5 19q-8 4 -15.5 8.5t-12.5 9.5q-14 -28 -31.5 -60.5t-37.5 -67t-42 -69t-43 -67.5l-7 4q22 33 44 68.5t42 70t38 67.5 t31 60q-9 12 -9 29q0 10 3 22t7.5 22.5t9.5 17t11 6.5q13 0 13 -20q-1 -11 -7.5 -30t-17.5 -44q9 -9 23 -15.5t27 -14t22 -18.5t8 -29q-1 -24 -18.5 -60.5t-38.5 -76t-38.5 -76.5t-18.5 -62q-1 -14 1 -20t13 -6z"/>
<glyph horiz-adv-x="601" glyph-name="degree" unicode="" d="M302 600q-21 0 -39.5 8t-32.5 22t-22 32t-8 39q0 19 8 37t22 32t32.5 22t39.5 8q19 0 37 -8t32 -22t22 -32t8 -37q0 -21 -8 -39t-22 -32t-32 -22t-37 -8zM302 630q28 0 48 20.5t20 50.5q0 28 -20 48t-48 20q-30 0 -50.5 -20t-20.5 -48q0 -30 20.5 -50.5t50.5 -20.5z"/>
<glyph horiz-adv-x="167" glyph-name="periodcentered" unicode="" d="M72 322q-14 5 -19 17.5t0 26.5q5 13 16.5 19t25.5 1t19.5 -17.5t0.5 -26.5q-5 -13 -17 -19t-26 -1z"/>
<glyph horiz-adv-x="726" glyph-name="afii10023" unicode="" d="M782 833q-13 0 -22 10.5t-9 24.5q0 13 9 23.5t22 10.5q11 0 20.5 -10.5t9.5 -23.5q0 -14 -9.5 -24.5t-20.5 -10.5zM884 833q-12 0 -21.5 10.5t-9.5 24.5q0 13 9.5 23.5t21.5 10.5t21 -10.5t9 -23.5q0 -14 -9 -24.5t-21 -10.5zM861 732q-1 -15 -13.5 -34.5t-42 -40 t-76.5 -40.5t-117 -38q-11 -23 -17.5 -45.5t-2.5 -40.5q20 5 39 7.5t36 2.5q33 0 47 -9t11 -20t-21 -20t-49 -9q-19 0 -34 5q-13 3 -24 9t-19 14q-43 -19 -86.5 -56t-81.5 -92q14 -27 13 -63q-2 -52 -28.5 -112.5t-71.5 -109.5q10 -31 35 -44.5t58 -13.5q49 0 94 25t80 65 t56 88t23 95q0 16 -4 33.5t-13 31t-23.5 22.5t-34.5 9q-26 0 -50 -16.5t-41.5 -46t-25.5 -71t0 -90.5l-8 -1q-8 51 0.5 94t27 73.5t44.5 48t53 17.5q22 0 37.5 -10t26 -25t15 -33.5t4.5 -35.5q-2 -48 -23.5 -98t-57.5 -90.5t-83 -66.5t-98 -26q-71 0 -114 45 q-33 -30 -73.5 -48.5t-85.5 -18.5q-40 0 -70.5 16.5t-51 43t-30 61t-8.5 70.5q2 54 28 117.5t86 122.5t158 107t244 73l51 9q4 25 20 55q19 36 49.5 64.5t63.5 48.5t66 31t58 11q31 0 43 -14t12 -32v-4zM617 588q67 17 112 36.5t72.5 39t39.5 37.5t12 32v5q-1 11 -9 21 t-29 10q-27 0 -53.5 -14.5t-50.5 -37.5t-45 -51.5t-37 -55.5zM142 -40q45 0 83.5 17.5t70.5 46.5q-37 41 -40.5 109.5t40.5 151.5q23 42 60 77q-21 8 -42 8q-39 0 -72 -21.5t-57.5 -54.5t-39 -72t-15.5 -73q-1 -27 3.5 -45.5t9.5 -32.5l-7 -3q-6 14 -10.5 33.5t-3.5 47.5 q1 35 16 75t40.5 74.5t60 57t75.5 22.5q27 0 48 -9q43 40 97 70t108 47q-25 33 -19 78l-49 -9q-143 -24 -240 -72t-156 -105.5t-85 -119.5t-28 -115q-1 -35 8 -68t28.5 -58.5t48.5 -41t67 -15.5zM655 453q28 0 44 6.5t18 14.5t-10 14.5t-40 6.5q-32 0 -72 -14q9 -21 40 -27 q5 0 10 -0.5t10 -0.5zM585 477q3 -3 5 -4l-2 5zM415 262q1 30 -10 55q-11 -16 -21 -33.5t-19 -36.5q-32 -70 -42 -118.5t-2 -80.5q43 48 67.5 106t26.5 108z"/>
<glyph horiz-adv-x="462" glyph-name="afii10053" unicode="" d="M144 -18q-57 1 -87.5 46.5t-35.5 115.5q-3 69 17 134.5t55 125t81.5 111.5t96.5 94q34 28 70 52t71 41t67.5 26.5t59.5 9.5q16 0 33 -4t31 -14.5t23 -27t10 -41.5q1 -35 -14 -71.5t-40.5 -66t-57.5 -48.5t-65 -20q-25 -1 -45 14t-22 53q-1 28 13 56.5t35 51t45 36.5 t43 14l1 -8q-17 0 -39.5 -13.5t-42.5 -35t-34 -48t-13 -53.5q2 -32 19.5 -46t39.5 -13q30 1 61 19.5t55 47t39 63.5t14 68q-1 22 -9 37t-20.5 24.5t-28 13.5t-31.5 4h-1q-46 0 -102 -39.5t-113 -102.5l-5 -6q-36 -42 -73.5 -92.5t-79.5 -120.5q18 21 36 34t34 21t29 10.5 t19 2.5q11 0 20 -6.5t17 -15.5t15 -19t15 -18q8 -9 15 -13.5t21 2.5q8 4 20.5 13.5t23.5 22.5l2 -6q-19 -19 -33 -31t-25 -18t-21.5 -7.5t-23.5 -0.5q-15 1 -23.5 12t-16.5 24t-18 23.5t-28 11.5q-14 1 -43.5 -19.5t-59.5 -77.5h-1q-22 -44 -37 -85t-23 -76 q-16 -73 -1 -117.5t67 -45.5q42 -3 82 13t72 44t52.5 64t22.5 73q2 46 -17.5 68.5t-53.5 26.5q-29 3 -57 -11.5t-49 -40t-31 -59t-3 -69.5l-8 -1q-7 37 4 72t33 62t51.5 42t59.5 12q38 -3 60 -27.5t19 -75.5q-3 -38 -24 -75.5t-54 -66t-74.5 -45t-85.5 -13.5v-1z"/>
<glyph horiz-adv-x="757" glyph-name="uni0406" unicode="" d="M743 572q35 -11 55 -43.5t17 -87.5q-2 -44 -20.5 -86.5t-49 -76t-71.5 -55.5t-88 -25q-67 -115 -160 -166.5t-214 -51.5q-54 0 -94.5 20.5t-67 54t-39.5 76.5t-11 89q4 79 36 144.5t80.5 112t107.5 72t118 25.5q26 0 48.5 -5.5t41.5 -15.5q29 40 69.5 68.5t88.5 43.5 q68 22 132.5 31.5t124.5 21.5q11 2 22.5 4.5t22.5 5.5q9 4 18 7t19 6l3 -8q-10 -5 -20 -8t-21 -6q-11 -5 -21 -10t-19 -11q-37 -25 -62.5 -58.5t-45.5 -67.5zM593 657q-46 -15 -86 -42.5t-69 -65.5q38 -23 56.5 -61.5t16.5 -80.5q-2 -48 -17.5 -89.5t-39.5 -76.5 q13 -8 26 -14.5t27 -11.5q13 23 25 46.5t24 47.5q34 69 71 136.5t85 124.5l-12 1q-24 0 -44.5 -11.5t-35.5 -29t-23 -39t-6 -41.5l-8 -1q-3 22 5.5 45t24.5 42t38.5 31t48.5 12h9t9 -1q15 18 31 36.5t33 36.5t35.5 34t39.5 27q-8 -2 -20 -4q-59 -12 -120.5 -21.5 t-123.5 -29.5zM8 220q-2 -44 10.5 -86t38.5 -74.5t65 -52t90 -19.5q50 0 91.5 17t77 46.5t65.5 69.5t57 87q-30 9 -53 26q-21 -29 -46.5 -52.5t-53 -40t-55.5 -25t-53 -8.5q-54 0 -83 35.5t-26 95.5q2 33 16.5 65t36 58.5t47 46t49.5 28.5l3 -8q-23 -8 -47.5 -27 t-45.5 -44.5t-35 -56.5t-16 -62q-3 -55 23.5 -89t77.5 -34q50 0 104.5 33t96.5 91q-34 27 -51.5 68.5t-15.5 93.5q2 42 15.5 77.5t35.5 66.5q-35 20 -85 20q-57 0 -114.5 -25t-105 -70.5t-79 -109.5t-35.5 -141zM807 441q3 52 -16.5 82.5t-52.5 41.5q-29 -54 -50 -119 t-51 -141q-11 -27 -22 -51.5t-24 -46.5q44 4 82.5 25.5t67.5 53.5t46.5 72.5t19.5 82.5zM448 246q23 35 38 75t17 86q2 40 -15.5 76.5t-54.5 59.5q-21 -30 -34 -65.5t-15 -75.5q-2 -51 14.5 -90.5t49.5 -65.5z"/>
<glyph horiz-adv-x="757" glyph-name="afii10056" unicode="" d="M851 770q-13 0 -22 9.5t-9 22.5q0 12 9 21.5t22 9.5q11 0 20 -9.5t9 -21.5q0 -13 -9 -22.5t-20 -9.5zM966 770q-13 0 -22 9.5t-9 22.5q0 12 9 21.5t22 9.5q11 0 20.5 -9.5t9.5 -21.5q0 -13 -9.5 -22.5t-20.5 -9.5zM743 572q35 -11 55 -43.5t17 -87.5q-2 -44 -20.5 -86.5 t-49 -76t-71.5 -55.5t-88 -25q-67 -115 -160 -166.5t-214 -51.5q-53 0 -94 20.5t-68 54t-39.5 76.5t-10.5 89q4 79 36 144.5t80.5 112t107.5 72t118 25.5q26 0 48.5 -5.5t41.5 -15.5q29 40 70 68.5t88 43.5q40 13 79.5 21t77.5 14.5t74.5 12.5t70.5 15q9 4 18 7t19 6l3 -8 q-10 -5 -20 -8t-21 -6q-27 -11 -49 -27.5t-40 -36t-32.5 -41t-26.5 -42.5zM593 657q-46 -15 -86 -42.5t-69 -65.5q38 -23 56.5 -61.5t16.5 -80.5q-2 -48 -17.5 -89.5t-39.5 -76.5q25 -17 53 -26q13 23 25 46.5t24 47.5q34 69 71 136.5t85 124.5l-12 1q-24 0 -44.5 -11.5 t-35.5 -29t-23 -39t-6 -41.5l-8 -1q-3 22 5.5 45t24.5 42t38.5 31t48.5 12h9t9 -1q15 17 31 36.5t33 37.5t36 33.5t39 26.5q-62 -14 -129.5 -23.5t-134.5 -31.5zM8 220q-2 -44 10.5 -86t38.5 -74.5t65 -52t90 -19.5q50 0 92 17t77 46.5t65 69.5t57 87q-30 9 -53 26 q-21 -29 -46.5 -52.5t-53 -40t-55.5 -25t-53 -8.5q-54 0 -83 36t-26 95q2 33 16.5 65t36 58.5t47 46t49.5 28.5l3 -8q-23 -8 -47.5 -27t-45.5 -44.5t-35 -56t-16 -62.5q-3 -55 24 -89t77 -34q24 0 51 8.5t53.5 24.5t51 39t45.5 52q-34 27 -51.5 68.5t-15.5 93.5 q2 42 15.5 77.5t35.5 66.5q-35 20 -85 20q-57 0 -114.5 -25t-105 -70.5t-79 -109.5t-35.5 -141zM807 441q3 52 -16.5 82.5t-52.5 41.5q-29 -53 -50 -118.5t-51 -141.5q-11 -27 -22 -51.5t-24 -46.5q44 4 82.5 25.5t67.5 53.5t46.5 72.5t19.5 82.5zM448 246q23 35 38 75 t17 86q2 40 -15.5 76.5t-54.5 59.5q-21 -30 -34 -65.5t-15 -75.5q-2 -50 14.5 -90t49.5 -66z"/>
<glyph horiz-adv-x="790" glyph-name="afii10062" unicode="" d="M870 606q-23 -22 -48 -63.5t-47 -87.5q-13 -40 -21 -84.5t-12 -90.5q-5 -62 -35.5 -123.5t-79.5 -111t-113 -80t-135 -30.5q-51 0 -81.5 18t-42.5 45t-7 58.5t24.5 58.5t52.5 45t77 18q42 0 68 -12t37 -30t9 -39t-15.5 -39t-37 -30t-54.5 -12q-38 0 -55.5 11.5 t-20.5 18.5l7 4q3 -6 18.5 -16t50.5 -10q29 0 51 11t34.5 27t14 35t-9 35t-34.5 27t-63 11q-42 0 -73 -17t-50 -42t-23.5 -54.5t7 -54.5t40.5 -42t77 -17q53 0 98 26.5t81.5 67.5t65 90.5t49.5 97t35 86.5t21 58q-20 -32 -42.5 -60t-45.5 -48.5t-45 -32.5t-41 -12 q-20 0 -37 19t-16 51q0 28 12 57.5t30 59.5t38.5 60t38.5 59t30 56.5t12 51.5q1 33 -15 61.5t-44.5 49.5t-67 32.5t-81.5 11.5q-57 0 -112.5 -17t-106 -47t-93.5 -71t-74.5 -89t-50 -100.5t-19.5 -106.5q0 -35 8 -67.5t25.5 -57t44.5 -39t65 -14.5q41 0 93.5 26.5t99.5 73 t79.5 111t33.5 139.5q1 53 -21.5 76t-56.5 23q-45 0 -87 -27t-75 -65t-53 -80.5t-20 -72.5q-1 -29 2 -42t8 -18l-6 -5q-5 6 -9 20.5t-3 44.5q0 32 20.5 75.5t54.5 83t77.5 67t90.5 27.5q38 0 62.5 -25t23.5 -82q-1 -78 -34 -143.5t-81 -113t-102 -74.5t-97 -27 q-40 0 -68.5 15.5t-47 41.5t-27 59.5t-8.5 69.5q1 55 19.5 109t50.5 102.5t76 90.5t95.5 72.5t108.5 47.5t115 17q46 0 89.5 -13t76.5 -39.5t52.5 -66t18.5 -93.5q-2 -47 -26.5 -94.5t-53.5 -90t-53 -78t-24 -59.5q0 -35 19 -35q22 0 48.5 17t53.5 46t52 66t45 78 q11 26 23.5 52.5t26.5 50.5q4 6 7.5 12.5t8.5 13.5q11 16 22 29.5t22 22.5zM937 810q-11 -33 -29.5 -55t-42 -34t-49.5 -12.5t-53 10.5q-26 14 -38 37t3 46q12 18 30 21t32 -4t18.5 -20.5t-9.5 -28.5l-11 -11t-9.5 -12t-2 -12.5t11.5 -11.5q18 -8 38.5 -4.5t39.5 15.5 t35 31.5t25 44.5h11z"/>
<glyph horiz-adv-x="1070" glyph-name="afii10017" unicode="" d="M859 404h-120v8h126q48 65 91 125.5t79.5 106.5t65 73.5t48.5 27.5q29 0 32.5 -26t-11.5 -70t-44 -103t-65.5 -125t-75.5 -135.5t-74 -135.5q-21 -40 -28.5 -68.5t-7 -46.5t7 -26.5t13.5 -8.5q16 0 37.5 14t45 38t47.5 57.5t45 72.5l7 -4q-22 -39 -47 -73t-49 -59 t-46.5 -39.5t-39.5 -14.5q-21 0 -38.5 20t-23.5 56t3.5 85.5t42.5 108.5q20 35 44.5 69.5t53.5 72.5h-109l-25 -33q-55 -78 -104 -148.5t-104.5 -124t-122.5 -85t-157 -31.5q-54 0 -97.5 19t-69.5 62q-52 2 -88 23t-58.5 52.5t-32.5 70t-10 75.5q0 80 33.5 155.5t85.5 134 t116 93.5t126 35q54 0 92 -24q70 37 134 37q37 0 65 -11.5t46.5 -30t27.5 -43t9 -49.5q1 -52 -19 -110.5t-56.5 -116t-87 -110.5t-110 -93t-127 -64t-136.5 -24q26 -38 66 -55.5t91 -17.5q60 0 121 31.5t121 83.5t117.5 118.5t111.5 136.5l19 27zM984 412q42 54 85 115.5 t81 137.5q17 33 15 52.5t-16 19.5q-18 0 -45.5 -27t-62.5 -72t-77 -103.5t-89 -122.5h109zM587 707q-61 0 -126 -34q27 -20 40.5 -51.5t13.5 -69.5q0 -50 -22.5 -98t-54.5 -86t-68.5 -63t-63.5 -29l-1 8q26 4 61 27.5t66.5 60.5t53 83.5t21.5 96.5q0 37 -14 67t-41 49 q-55 -30 -107 -78.5t-92.5 -109.5t-65 -131.5t-24.5 -143.5q0 -84 31 -134h5q68 0 134 23.5t125 63.5t108.5 92t85.5 108.5t56 114t19 108.5q0 24 -8.5 47t-25.5 40.5t-43.5 28t-62.5 10.5zM8 284q0 -35 9.5 -71.5t30.5 -67t54.5 -51t81.5 -23.5q-14 26 -21.5 59t-7.5 75 q0 73 24 144.5t64.5 133t92.5 111t108 79.5q-17 10 -37.5 15.5t-45.5 5.5q-60 0 -122.5 -34.5t-113.5 -92t-84 -131.5t-33 -152z"/>
<glyph horiz-adv-x="884" glyph-name="afii10018" unicode="" d="M830 249q-3 -38 -19 -78t-42.5 -74.5t-63 -60.5t-82.5 -36q-40 -9 -67.5 9t-24.5 59q2 36 19 69t42 59t55 44t60 25l3 -8q-28 -8 -58.5 -26t-55.5 -44.5t-40.5 -58.5t-14.5 -66q1 -29 13.5 -40.5t39.5 -12.5q22 -1 45.5 13.5t44.5 39.5t39 57t30 66q8 21 15 47.5 t10.5 53.5t2 51.5t-10.5 42.5q-7 14 -19.5 20t-29.5 6q-17 -1 -36 -11t-37 -26.5t-33.5 -38t-25.5 -45.5q-7 -26 -15 -52q-18 -57 -50 -102.5t-74.5 -77t-93.5 -48.5t-107 -17q-31 0 -59 10.5t-49 30t-33 47t-12 62.5t15 70q-24 9 -46 24.5t-38 38t-25.5 52.5t-9.5 68 q0 78 37.5 151.5t104.5 131t159.5 92t203.5 34.5q67 0 125 -10t111.5 -21.5t105 -21.5t105.5 -10q62 0 99.5 7.5t58 18t28 21.5t9.5 17l8 -3q-4 -11 -18 -31.5t-40.5 -40t-65 -34t-92.5 -14.5q-75 0 -136 13.5t-117.5 30t-114 30t-127.5 13.5q-27 0 -56 -1.5t-59.5 -7.5 t-63.5 -18t-67 -33q-89 -58 -139.5 -140.5t-50.5 -173.5q0 -36 9 -65t24.5 -51t36.5 -37t44 -23q11 24 28 45.5t38.5 37.5t46.5 25.5t52 9.5q29 0 53 -10.5t40 -28.5q38 42 59 95t21 109q0 34 -9.5 60t-25.5 43t-38 26t-46 9q-40 0 -75.5 -20t-62 -52.5t-40.5 -74t-11 -84.5 l-8 -1q-3 45 11.5 88t42 76.5t64.5 54.5t79 21q26 0 49 -9t40.5 -27.5t27.5 -46t10 -63.5q0 -58 -21.5 -113t-61.5 -98q20 -26 20 -61q0 -29 -11 -53t-29 -41t-40 -27.5t-44 -11.5l-1 8q21 1 42 10.5t37.5 26t27 39t10.5 49.5q0 30 -17 55q-38 -38 -88 -61t-111 -23 q-27 0 -54 8q-15 -33 -15 -67q0 -32 11.5 -58.5t31.5 -45t46.5 -28.5t55.5 -10q57 0 103 37t85 95.5t73.5 130.5t69.5 141l4 8q32 63 65.5 115.5t73.5 84.5q22 17 46 27t50 10q14 0 25.5 -3t17.5 -6l-4 -7q-5 3 -15.5 5.5t-23.5 2.5q-26 0 -48.5 -9.5t-43.5 -26.5 q-41 -36 -64 -85t-40 -108l-2 -8q-10 -36 -21 -75q9 17 24 33t32 28.5t33.5 20.5t28.5 9q29 3 51.5 -9.5t37.5 -36t21 -55t2 -66.5zM279 325q-51 0 -93 -33t-64 -79q27 -8 51 -8q60 0 108.5 22.5t84.5 59.5q-15 18 -37.5 28t-49.5 10z"/>
<glyph horiz-adv-x="871" glyph-name="afii10019" unicode="" d="M959 777q25 0 45 -9t34 -22t22 -27t11 -24l-8 -2q-2 10 -9.5 23t-20.5 25t-31.5 20t-42.5 8q-27 0 -51.5 -8.5t-47.5 -23.5q42 -29 65.5 -72.5t23.5 -101.5q0 -37 -14.5 -75.5t-42 -71t-68 -56t-92.5 -30.5q30 -15 45 -44t15 -70q0 -35 -19.5 -75t-56 -74.5t-90 -57.5 t-121.5 -23q-34 0 -66 9t-65 22q-38 -13 -80 -19.5t-92 -6.5q-63 0 -91 13t-29 29t22 29t63 13q52 0 95 -12t82 -26q54 31 98.5 81.5t83.5 112t74 129t69 132t69.5 121t75.5 96.5l5 5l12 10l12 10q-29 20 -69 31.5t-93 12.5q-35 0 -71 -5.5t-71 -16.5q32 -27 51.5 -72 t19.5 -113t-30.5 -134t-78.5 -119t-105.5 -85.5t-111.5 -32.5q-40 1 -70 17.5t-47 45.5q-25 -5 -45 -5q-30 0 -54 13t-41 34.5t-26 49.5t-9 58q0 67 32 135.5t87 124.5t128.5 91.5t156.5 36.5q37 0 71.5 -9t63.5 -30q37 11 74.5 17.5t75.5 6.5q102 0 172 -44q24 17 50.5 26 t55.5 9zM122 266q19 0 41 5q-16 32 -16 69q0 67 30.5 131.5t82 120t119 99t141.5 68.5q-26 18 -58 26t-66 8q-81 -1 -153 -36t-126 -90t-85.5 -122t-31.5 -132q0 -29 8.5 -55.5t24.5 -46.5t38.5 -32.5t50.5 -12.5zM602 571q0 68 -20 112t-53 70q-74 -24 -141.5 -67 t-119.5 -97.5t-82.5 -118.5t-30.5 -130q0 -37 16 -67q45 13 82 45.5t62.5 75.5t38 90t7.5 89l8 1q5 -43 -7 -91.5t-38 -92t-64 -77.5t-85 -47q17 -26 45 -41.5t64 -16.5q52 0 108.5 32t103 84t76.5 116.5t30 130.5zM911 579q5 98 -62 150q-17 -12 -32 -29q-35 -36 -58 -80 t-39.5 -90.5t-29.5 -94t-27 -90.5q28 -2 47 -7q42 7 78 30t62.5 56t42.5 73t18 82zM386 21q30 -11 59 -19t60 -8q58 0 103 26.5t75.5 64.5t47.5 79t20 71q3 31 -4 54.5t-38 37.5h-23t-24 1l-4 1q-7 -18 -13.5 -35t-14.5 -32q-45 -88 -103 -149t-141 -92zM121 8 q14 -4 34 -6.5t47 -2.5q37 0 70 8.5t62 24.5q-16 5 -32.5 10.5t-33.5 10.5q-53 13 -93 11.5t-61 -11.5t-20.5 -23t27.5 -22z"/>
<glyph horiz-adv-x="702" glyph-name="afii10020" unicode="" d="M1147 798q-4 -11 -18 -31.5t-40.5 -40t-65 -34t-92.5 -14.5q-75 0 -136 13.5t-117.5 30t-114 30t-127.5 13.5q-27 0 -56 -1.5t-60 -7.5t-63.5 -18t-66.5 -33q-90 -58 -140 -140.5t-50 -173.5q0 -36 9 -65t24.5 -51t36.5 -37t44 -23q11 24 28 45.5t38.5 37.5t46.5 25.5 t52 9.5q29 0 53 -10.5t40 -28.5q38 42 59 94.5t21 109.5q0 34 -9.5 60t-25.5 43t-38 26t-46 9q-40 0 -75.5 -20t-62 -52.5t-40.5 -74t-11 -84.5l-8 -1q-3 45 11.5 88t42 76.5t64.5 54.5t79 21q26 0 49 -9t40.5 -27.5t27.5 -46t10 -63.5q0 -58 -21.5 -113t-61.5 -98 q20 -26 20 -61q0 -29 -11 -53t-29 -41.5t-40 -27.5t-44 -11l-1 8q21 1 42 10.5t37.5 26t27 39t10.5 49.5q0 29 -17 55q-38 -38 -88 -61t-111 -23q-25 0 -54 8q-15 -33 -15 -67q0 -32 11.5 -58.5t31.5 -45t46.5 -28.5t55.5 -10q57 0 103 37t85 95.5t73.5 130.5t69.5 141l4 8 q32 63 65.5 115.5t73.5 84.5q22 17 46 27t50 10q14 0 25.5 -3t17.5 -6l-4 -7q-5 3 -15.5 5.5t-23.5 2.5q-26 0 -48.5 -9.5t-43.5 -26.5q-41 -36 -64 -85t-40 -108l-2 -8q-11 -39 -22 -80.5t-25 -86.5q-18 -57 -50 -102.5t-74.5 -77t-93.5 -48.5t-107 -17q-32 0 -59.5 10.5 t-48.5 30t-33 47t-12 62.5t15 70q-24 9 -46 24.5t-38 38t-25.5 52.5t-9.5 68q0 78 37.5 151.5t104.5 131t159.5 92t203.5 34.5q67 0 125 -10t111.5 -21.5t105 -21.5t105.5 -10q62 0 99.5 7.5t58 18t28 21.5t9.5 17zM279 325q-26 0 -49.5 -9t-43.5 -24t-36.5 -35.5 t-27.5 -43.5q29 -8 51 -8q60 0 108.5 22.5t84.5 59.5q-15 18 -37.5 28t-49.5 10z"/>
<glyph horiz-adv-x="876" glyph-name="afii10021" unicode="" d="M1017 781q48 0 82.5 -20.5t51.5 -55.5l-7 -4q-16 32 -48.5 52t-77.5 20h-1q-49 0 -91 -15t-80 -44q-11 -8 -20.5 -18t-18.5 -21q28 -39 44 -90.5t16 -117.5q0 -67 -19 -131t-53.5 -120t-83 -101t-106.5 -73q-40 -24 -84 -37t-91 -13q-29 0 -57 4.5t-57 12.5 q-41 -12 -86.5 -18.5t-99.5 -6.5h-2q-62 0 -96 16.5t-34 41.5q0 22 24 40t70 18q33 0 65 -7t62 -17.5t58 -22.5t55 -22q40 19 72.5 45.5t60 60t51.5 73.5t48 85q28 52 54 104t53 100t55.5 91.5t60.5 78.5q-19 32 -44.5 53t-54.5 35q-60 25 -132 25q-45 0 -86.5 -10 t-79.5 -28q37 -11 65 -33.5t46 -52.5t27 -65t9 -71q0 -54 -22 -114.5t-60.5 -111t-91 -84t-114.5 -33.5q-35 0 -62.5 17t-45.5 46h-7q-25 0 -49 9.5t-43 29.5t-30.5 51t-11.5 75q0 70 29.5 132.5t76.5 109.5t105 75t116 28q14 0 26.5 -1.5t24.5 -3.5q41 20 85.5 31.5 t92.5 11.5q35 0 67.5 -5.5t61.5 -17.5q34 -14 63 -34.5t52 -49.5q11 11 21.5 20.5t21.5 18.5q36 29 78.5 44t95.5 15zM137 250q-24 42 -24 101q0 51 18 106.5t51 108t80 98.5t104 77q-18 3 -39 3q-56 0 -113 -27.5t-102.5 -73.5t-74.5 -107.5t-29 -128.5q0 -41 11 -71 t29 -49t40.5 -28t45.5 -9h3zM529 522q0 36 -9 71t-27.5 64.5t-46.5 50.5t-67 30q-58 -30 -105.5 -75.5t-81.5 -98t-52.5 -108t-18.5 -105.5q0 -58 25 -100q38 3 78.5 27.5t74 62.5t55 86t21.5 98q0 53 -3 73t-4 21l6 6q3 -3 6 -24.5t3 -75.5q0 -51 -21.5 -100t-55 -87.5 t-75 -64t-80.5 -30.5q17 -26 42 -41t56 -15q60 0 111 32.5t88.5 82.5t59 108.5t21.5 111.5zM833 470q0 61 -10.5 107t-29.5 81q-32 -42 -59 -95.5t-44 -121.5q-16 -64 -39 -125.5t-60.5 -116t-94 -100t-139.5 -77.5q19 -6 37.5 -10t35.5 -4q46 0 89 10.5t82 30.5 q51 30 93.5 75t73 100.5t48 118t17.5 127.5zM131 -8q48 0 87 6t73 17q-58 17 -113.5 34t-105.5 17q-28 0 -47 -8t-19 -16q0 -21 31 -35.5t91 -14.5h3z"/>
<glyph horiz-adv-x="726" glyph-name="afii10022" unicode="" d="M861 732q-1 -16 -14 -35t-42 -39.5t-76 -40.5t-117 -38q-11 -23 -17.5 -45.5t-2.5 -40.5q39 10 75 10q33 0 47 -9t11 -20t-21 -20t-49 -9q-17 0 -34 5q-26 6 -43 23q-43 -19 -86.5 -56t-81.5 -92q14 -29 13 -63q-2 -52 -28.5 -112.5t-71.5 -109.5q10 -31 35 -44.5 t58 -13.5q49 0 94 25t79.5 65t56 88t23.5 95q0 16 -4 33.5t-13 31t-23.5 22.5t-34.5 9q-25 0 -49.5 -16.5t-42 -46t-25.5 -71t0 -90.5l-8 -1q-8 51 0.5 94t27 73.5t44.5 48t53 17.5q22 0 37.5 -10t25.5 -25t15 -33.5t5 -35.5q-2 -48 -23.5 -98t-57.5 -90.5t-82.5 -66.5 t-98.5 -26q-71 0 -114 45q-33 -30 -73.5 -48.5t-85.5 -18.5q-41 0 -71 16.5t-50.5 43t-30 61t-8.5 70.5q2 55 28 118t86 121.5t158 107t244 73.5l51 9q5 27 20 55q19 36 49 64.5t63.5 48.5t66.5 31t58 11q31 0 43 -14t12 -32v-4zM617 588q67 17 112 36.5t72.5 39t39.5 37.5 t12 32v5q-1 11 -9 21t-29 10q-27 0 -53.5 -14.5t-50.5 -37.5t-45 -51.5t-37 -55.5zM142 -40q45 0 83.5 17.5t70.5 46.5q-37 41 -40.5 109.5t40.5 151.5q23 43 60 77q-22 8 -42 8q-39 0 -72 -21.5t-57.5 -54.5t-39 -72t-15.5 -73q-1 -27 3.5 -45.5t9.5 -32.5l-7 -3 q-6 14 -10.5 33.5t-3.5 47.5q1 35 16 75t40.5 74.5t60 57t75.5 22.5q27 0 48 -9q43 40 97 70t108 47q-25 32 -19 78l-49 -9q-143 -24 -240 -71.5t-156 -105.5t-85 -120t-28 -115q-1 -35 8 -68t28.5 -58.5t48.5 -41t67 -15.5zM655 453q28 0 44 6.5t18 14.5t-10 14.5t-40 6.5 q-30 0 -72 -14q9 -21 40 -27q5 0 10 -0.5t10 -0.5zM585 477q2 -2 3 -2.5t2 -1.5l-2 5zM415 262q1 15 -2 28.5t-8 26.5q-11 -16 -21 -33.5t-19 -36.5q-32 -70 -42 -118.5t-2 -80.5q43 48 67.5 105.5t26.5 108.5z"/>
<glyph horiz-adv-x="1140" glyph-name="afii10024" unicode="" d="M676 86q30 39 62.5 91.5t66 110.5t68 116.5t67.5 109.5q38 57 78.5 96.5t77.5 65t68 37t51 11.5q17 0 33 -5t29 -16t20.5 -28t7.5 -41t-10.5 -45t-26 -36.5t-34 -25t-33.5 -9.5v8q13 0 30 9t31.5 24t24.5 34.5t10 40.5q0 43 -25.5 62.5t-56.5 19.5q-48 0 -95.5 -36.5 t-90.5 -97t-79.5 -140t-62.5 -165.5q-14 -45 -21 -87t-7 -78q0 -17 2 -36.5t8.5 -37t19 -29t33.5 -11.5q31 0 60.5 14.5t57 40t53 59.5t48.5 74l7 -4q-23 -39 -48.5 -74t-53.5 -61.5t-58 -41.5t-61 -15h-13q-33 1 -56 12t-37.5 28t-20.5 40.5t-6 50.5q0 50 16.5 108 t39.5 112q-29 -44 -57 -92t-57 -94.5t-60 -88.5t-64 -73l-5 4q23 22 35.5 52.5t22 68.5t19 83t26 96.5t43.5 108.5t72 118q-14 -14 -36 -47.5t-49.5 -77t-58.5 -93t-63 -94.5q-29 -42 -54.5 -74t-52.5 -57t-57.5 -43.5t-70.5 -32.5q-20 -8 -40 -13.5t-42 -5.5q-34 0 -57 10 t-37 25t-20 33.5t-6 35.5q0 25 9 39l7 -4q-9 -14 -9 -34q0 -15 5.5 -32t18.5 -31.5t34 -24t52 -9.5q59 0 109 35.5t91 91t72.5 123.5t52.5 133t32 119.5t11 83.5q0 31 -6 59.5t-21.5 50.5t-41 35.5t-64.5 13.5q-36 0 -70 -10t-69 -30q61 -18 97.5 -72.5t36.5 -140.5 q0 -84 -24 -148.5t-60 -108.5t-77.5 -66.5t-75.5 -22.5q-51 0 -81 32q-43 -33 -96 -33q-30 0 -53 14t-39.5 38.5t-25 56.5t-8.5 68q0 87 33 159.5t83.5 124t112 80t118.5 28.5q24 0 48 -6q72 45 150 45q37 0 69 -12t55.5 -37t37 -63t13.5 -92q0 -72 -23.5 -155t-66.5 -160 q49 71 99 153t102 154q32 43 62 76.5t58 53.5l3 -5l-40 -36q-45 -54 -72.5 -120.5t-50 -138t-45.5 -143.5t-58 -136zM521 480q0 88 -36 142.5t-99 70.5q-43 -27 -81.5 -67.5t-67 -90t-46 -106t-18.5 -115.5q0 -37 8 -72.5t30 -58.5q21 16 39 39.5t31 52t20.5 61.5t7.5 68v20 t-2 20l8 1q2 -11 2 -21v-21q0 -72 -27.5 -132.5t-72.5 -93.5q14 -14 32.5 -21.5t40.5 -7.5q33 0 73 21t74.5 63t58 104t25.5 144zM-3 322q0 -36 7.5 -67.5t22.5 -55.5t37 -38t51 -14q48 0 90 31q-22 25 -31 60.5t-9 70.5q0 60 16.5 117.5t45 108t66.5 92t82 70.5 q-18 3 -36 3q-37 0 -76.5 -12t-77 -35t-71.5 -56.5t-59.5 -75.5t-41 -92t-16.5 -107z"/>
<glyph horiz-adv-x="680" glyph-name="afii10025" unicode="" d="M270 12q-23 2 -31.5 12.5t-8.5 20.5q1 12 12 25.5t29.5 24.5t43 17t54.5 3q25 -1 50 -14q36 34 68 76t57.5 85t43.5 83.5t27 71.5q17 57 21.5 112t-5 100t-34 75.5t-66.5 39.5q-71 15 -145.5 -10.5t-138 -77.5t-110.5 -121.5t-63 -142.5q-18 -82 9 -137t87 -68 q43 -11 90.5 4.5t90.5 49t75 80.5t43 101q7 31 4.5 55t-11.5 41.5t-23.5 28t-30.5 13.5q-27 6 -55 -0.5t-52.5 -24.5t-43.5 -47t-28 -67q-8 -40 -7 -66t2 -28l-5 -5q-2 4 -4.5 31t5.5 68q10 41 30 71.5t46 50t55.5 26t58.5 -0.5q18 -4 33.5 -15t25.5 -29.5t13 -44.5t-5 -60 q-12 -55 -44.5 -103.5t-76 -82.5t-93.5 -50t-96 -5q-63 15 -92.5 72t-9.5 144q11 50 35 99t58.5 92t77.5 78.5t91.5 59.5t101 33t105.5 0q60 -11 97.5 -39t55.5 -68.5t18.5 -90t-13 -102t-40.5 -106t-63 -101.5q-26 -34 -66.5 -76.5t-88.5 -80.5q20 -14 32.5 -35t11.5 -47 q64 36 116 82.5t94 106.5l6 -4q-41 -63 -96 -111t-119 -84v-16q-5 -62 -38.5 -116t-81.5 -93.5t-102.5 -61t-99.5 -17.5q-35 2 -53.5 19t-16.5 43q3 36 32.5 64t76 52.5t104.5 49t119 54.5q3 14 5 25t3 19q1 14 -2 28t-11 26q-35 -26 -72 -43.5t-72 -20.5zM416 -33 q-60 -29 -116.5 -52.5t-101 -47t-72.5 -50t-30 -60.5q-1 -17 12 -31t43 -16q35 -3 75 20t77 60.5t67 84.5t46 92zM368 107q-29 2 -52.5 -3.5t-40 -15t-26 -21.5t-10.5 -22q0 -7 6.5 -16t25.5 -9q35 5 68.5 23.5t65.5 45.5q-8 8 -17 12.5t-20 5.5z"/>
<glyph horiz-adv-x="781" glyph-name="afii10026" unicode="" d="M559 18q0 -17 8 -25t17 -8q12 0 30 5.5t42 25.5t55 59t70 107l7 -4q-39 -69 -71 -109t-57.5 -60.5t-44 -26t-31.5 -5.5q-28 0 -41 19t-14 40q-3 45 39 141q-55 -94 -98.5 -139.5t-69.5 -45.5q-11 0 -14 1q-29 5 -40 29.5t-11 52.5q0 41 19.5 88.5t48 98.5t62.5 103.5 t62.5 103t48 97.5t19.5 87t-10.5 69.5t-27.5 50.5t-38 33.5t-41.5 19.5t-38.5 9.5t-29 2.5q-53 0 -104 -18.5t-97 -51t-84 -76.5t-66 -94t-43.5 -104t-15.5 -107q0 -78 38.5 -122.5t108.5 -44.5q54 0 111 35.5t104 91t77 122.5t30 130q0 33 -7.5 54.5t-19.5 35t-28 19 t-34 5.5q-44 0 -87 -29t-77.5 -76t-55.5 -107t-21 -121h-8q0 64 21.5 125t57 109t80 77.5t90.5 29.5q19 0 36.5 -6t31 -20t21.5 -37.5t8 -58.5q0 -43 -14 -88.5t-38.5 -88.5t-57 -81t-69 -67t-75.5 -45.5t-76 -16.5q-75 0 -115 47t-40 128q0 54 16 109t44 106t67 95.5 t85.5 77.5t99 52t107.5 19q45 0 82.5 -15t65 -43.5t42.5 -69t15 -92.5q0 -62 -18.5 -120.5t-46 -113.5t-60 -105.5t-60 -95t-46 -83t-18.5 -69.5q0 -21 6.5 -29.5t23.5 -9.5h1h1h1q27 0 83 67.5t128 205.5q20 40 40 77.5t43 80t50.5 95t63.5 123.5h74 q-93 -167 -155.5 -276.5t-99.5 -180t-52.5 -109.5t-15.5 -65z"/>
<glyph horiz-adv-x="781" glyph-name="afii10027" unicode="" d="M559 18q0 -17 8 -25t17 -8q12 0 30 5.5t42 25.5t55 59t70 107l7 -4q-39 -69 -71 -109t-57.5 -60.5t-44 -26t-31.5 -5.5q-28 0 -41 19t-14 40q-3 45 39 141q-55 -94 -98.5 -139.5t-69.5 -45.5q-11 0 -14 1q-29 5 -40 29.5t-11 52.5q0 41 19.5 88.5t48 98.5t62.5 103.5 t62.5 103t48 97.5t19.5 87t-10.5 69.5t-27.5 50.5t-38 33.5t-41.5 19.5t-38.5 9.5t-29 2.5q-53 0 -104 -18.5t-97 -51t-84 -76.5t-66 -94t-43.5 -104t-15.5 -107q0 -78 38.5 -122.5t108.5 -44.5q54 0 111 35.5t104 91t77 122.5t30 130q0 33 -7.5 54.5t-19.5 35t-28 19 t-34 5.5q-44 0 -87 -29t-77.5 -76t-55.5 -107t-21 -121h-8q0 64 21.5 125t57 109t80 77.5t90.5 29.5q19 0 36.5 -6t31 -20t21.5 -37.5t8 -58.5q0 -43 -14 -88.5t-38.5 -88.5t-57 -81t-69 -67t-75.5 -45.5t-76 -16.5q-75 0 -115 47t-40 128q0 54 16 109t44 106t67 95.5 t85.5 77.5t99 52t107.5 19q45 0 82.5 -15t65 -43.5t42.5 -69t15 -92.5q0 -62 -18.5 -120.5t-46 -113.5t-60 -105.5t-60 -95t-46 -83t-18.5 -69.5q0 -21 6.5 -29.5t23.5 -9.5h1h1h1q27 0 83 67.5t128 205.5q20 40 40 77.5t43 80t50.5 95t63.5 123.5h74 q-93 -167 -155.5 -276.5t-99.5 -180t-52.5 -109.5t-15.5 -65zM889 810q-11 -33 -29.5 -55t-42 -34t-49.5 -12.5t-53 10.5q-26 14 -38 37t3 46q12 18 30 21t32 -4t18.5 -20.5t-9.5 -28.5l-11 -11t-9.5 -12t-2 -12.5t11.5 -11.5q18 -8 38.5 -4.5t39.5 15.5t35 31.5t25 44.5h11 z"/>
<glyph horiz-adv-x="975" glyph-name="afii10028" unicode="" d="M1360 832q34 0 69 -9t66.5 -24.5t57 -36.5t40.5 -46l-7 -4q-14 24 -39 44.5t-56 35.5t-65 23.5t-67 8.5q-44 0 -84 -10t-82 -39.5t-89 -81.5t-106 -136q-53 -75 -97 -123t-81.5 -76.5t-69 -41t-59.5 -15.5q26 -11 37 -37.5t14.5 -60.5t3 -70t1 -66t9.5 -49.5t29 -19.5 q20 0 41 9.5t44 31.5t49 57t56 86l7 -4q-30 -52 -57 -87.5t-51 -58t-46 -32.5t-43 -10q-45 0 -71 28t-26 67q0 26 5 55.5t9 57t5 51t-8 38.5q-17 12 -41 12q-25 -77 -65 -140t-93.5 -108t-120 -69.5t-144.5 -24.5q-50 0 -94 15t-77 44t-52.5 71t-19.5 97q0 71 30.5 132.5 t79.5 107.5t109.5 73.5t120.5 30.5q-11 24 -11 49q0 38 19 68.5t49 52t66.5 33t72.5 11.5q24 0 51 -5.5t49 -17.5t36.5 -31.5t14.5 -47.5q0 -29 -13 -48.5t-32 -32.5t-41.5 -18.5t-41.5 -5.5q-38 0 -62 13t-38 35l7 4q13 -20 34.5 -32t58.5 -12q19 0 40 5.5t39 17t29.5 30 t11.5 44.5t-13.5 44t-34 29t-46 16t-49.5 5q-35 0 -70.5 -11t-64 -31.5t-46.5 -49.5t-18 -65q0 -25 11 -49h7q120 0 161 -78q54 2 100 15t84 34q23 51 44.5 92.5t41.5 69.5q14 21 29 33t31 12q8 0 14 -6t6 -16q0 -15 -9 -37t-27 -46.5t-44 -49.5t-60 -46q-14 -45 -27 -89 t-24 -86l-7 -23q57 2 94.5 24.5t66.5 59t54.5 83.5t58.5 98q42 65 88 114t98 81.5t111.5 48.5t128.5 16zM850 684q0 14 -12 14q-14 0 -29 -13.5t-31 -37.5q-15 -25 -28.5 -58t-26.5 -71q31 21 54.5 44.5t39.5 46t24.5 42.5t8.5 33zM0 184q0 -53 18.5 -93.5t51 -68.5 t75 -42.5t90.5 -14.5q55 0 102.5 23.5t89 63t78 92t68 110.5t60 118t54.5 115q-37 -19 -81 -31t-95 -14q15 -32 15 -73q0 -50 -22 -100.5t-59.5 -91.5t-87.5 -67t-105 -26q-19 0 -36.5 5.5t-30.5 17.5t-20.5 30.5t-7.5 45.5q0 45 23 83t57.5 65t73.5 40t72 7l-3 -8 q-31 6 -68.5 -6.5t-70 -38t-54.5 -62.5t-22 -80q0 -49 26 -70t61 -21q53 0 101.5 25.5t85 65t58 89t21.5 97.5q0 42 -16 73h-4q-24 0 -47.5 4.5t-45.5 14.5t-39.5 24.5t-29.5 34.5q-59 -3 -118.5 -29.5t-108 -71.5t-79 -105t-30.5 -130zM345 520q22 -35 65 -52.5t88 -17.5 q-20 34 -58.5 52t-92.5 18h-2z"/>
<glyph horiz-adv-x="1086" glyph-name="afii10029" unicode="" d="M1071 680q-37 -18 -73 -58t-72.5 -93t-74.5 -114.5t-79 -123.5t-86 -119t-95.5 -100.5t-108 -69.5t-123.5 -25q-51 1 -95 18.5t-76.5 49.5t-51.5 76.5t-19 100.5q0 65 18.5 124t49 109.5t71.5 91.5t86 70t91.5 44.5t88.5 15.5q44 0 76 -13.5t53 -36t31 -52.5t10 -63 q0 -63 -27.5 -126t-70.5 -113t-96 -81.5t-105 -31.5q-51 0 -77 32t-26 74q0 51 24 99.5t60 86t79 60.5t82 23v-8q-37 0 -78.5 -22.5t-77 -59t-58.5 -83.5t-23 -96q0 -40 23.5 -69t71.5 -29q49 0 101 31t94 80t69 110.5t27 122.5q0 31 -9.5 59.5t-29.5 50.5t-50.5 34.5 t-72.5 12.5q-41 0 -86.5 -15.5t-89.5 -44t-84 -69t-70.5 -90t-48.5 -107.5t-18 -121q0 -54 18.5 -98.5t50 -76t74 -48t91.5 -14.5q68 3 126.5 32.5t110 76.5t96.5 106t86.5 122t80 125t76 113.5t74.5 89t77 50.5l7 -5q-40 -55 -72.5 -117.5t-57.5 -126t-43 -125t-30 -114 t-17.5 -93t-5.5 -62.5q0 -29 9 -44t23 -15q8 0 24 4t39.5 22t54.5 55t69 103l7 -4q-38 -68 -70.5 -106t-57.5 -56.5t-42 -22.5t-24 -4q-40 0 -65 29t-25 92q0 39 18.5 110t63.5 166q7 14 24.5 51t42.5 81t54 88.5t59 73.5z"/>
<glyph horiz-adv-x="1086" glyph-name="afii10030" unicode="" d="M899 -2q7 0 23.5 4t40 22t54.5 55t69 103l7 -4q-38 -68 -70.5 -106t-57.5 -56.5t-42 -22.5t-24 -4q-40 0 -65 29t-25 92q0 25 7.5 64t25 89.5t45 111t67.5 128.5q-37 -57 -77 -119.5t-82 -126t-85.5 -126t-88.5 -119.5l-6 5q38 50 59.5 115t40.5 139.5t41.5 156.5 t61.5 166q-41 -72 -79.5 -146t-79 -142.5t-84.5 -129t-94.5 -105t-109.5 -70.5t-129 -26q-51 0 -95 17.5t-76.5 49.5t-51.5 77t-19 101q0 65 18.5 124t49 109.5t71.5 91.5t86 70t91.5 44.5t88.5 15.5q44 0 76 -13.5t53 -36t31 -52.5t10 -63q0 -63 -27.5 -126t-70.5 -113 t-96 -81.5t-105 -31.5q-51 0 -77 32t-26 74q0 51 24 99.5t60 86t79 60.5t82 23v-8q-37 0 -78.5 -22.5t-77 -59t-58.5 -83.5t-23 -96q0 -40 23.5 -69t71.5 -29q49 0 101 31t94 80t69 110.5t27 122.5q0 31 -9.5 59.5t-29.5 50.5t-50.5 34.5t-72.5 12.5q-41 0 -86.5 -15.5 t-89.5 -44t-84 -69t-70.5 -90t-48.5 -107.5t-18 -121q0 -54 18.5 -97.5t50 -74.5t74 -48t91.5 -17q77 0 140.5 32t118 87t101.5 127t91.5 152.5t88 163.5t91.5 159l11 -6q-16 -33 -24 -69.5t-15 -78.5t-15.5 -89t-23.5 -99.5t-41 -110.5t-67 -122q55 78 108 160t102 158 t94 141.5t84 111.5l7 -5q-40 -55 -72 -118t-57 -126.5t-43.5 -124.5t-30 -113.5t-17.5 -93t-6 -62.5q0 -29 9 -44t23 -15z"/>
<glyph horiz-adv-x="975" glyph-name="afii10031" unicode="" d="M658 299q-25 -77 -65 -140t-93.5 -108t-120 -69.5t-144.5 -24.5q-50 0 -94 15t-77 44t-52.5 71t-19.5 97q0 71 30.5 132.5t79.5 107.5t109.5 73.5t120.5 30.5q-11 24 -11 49q0 38 19 68.5t49 52t66.5 33t72.5 11.5q24 0 51 -5.5t49 -17.5t36.5 -31.5t14.5 -47.5 q0 -29 -13 -48.5t-32 -32.5t-41.5 -18.5t-41.5 -5.5q-38 0 -62 13t-38 35l7 4q13 -20 34.5 -32t58.5 -12q19 0 40 5.5t39 17t29.5 30t11.5 44.5t-13.5 44t-34 29t-46 16t-49.5 5q-35 0 -70.5 -11t-64 -31.5t-46.5 -49.5t-18 -65q0 -25 11 -49h7q120 0 161 -78q54 2 100 15 t84 34q23 51 44.5 92.5t41.5 69.5q14 21 29 33t31 12q8 0 14 -6t6 -16q0 -15 -9 -37t-27 -46.5t-44 -49.5t-60 -46q-14 -45 -26.5 -89t-24.5 -86zM850 684q0 14 -12 14q-14 0 -29 -13.5t-31 -37.5q-15 -25 -28.5 -58t-26.5 -71q31 21 54.5 44.5t39.5 46t24.5 42.5t8.5 33z M0 184q0 -53 18.5 -93.5t51 -68.5t75 -42.5t90.5 -14.5q55 0 102.5 23.5t89 63t78 92t68 110.5t60 118t54.5 115q-37 -19 -81 -31t-95 -14q15 -32 15 -73q0 -50 -22 -100.5t-59.5 -91.5t-87.5 -67t-105 -26q-19 0 -36.5 5.5t-30.5 17.5t-20.5 30.5t-7.5 45.5q0 45 23 83 t57.5 65t73.5 40t72 7l-3 -8q-31 6 -68.5 -6.5t-70 -38t-54.5 -62.5t-22 -80q0 -49 26 -70t61 -21q53 0 101.5 25.5t85 65t58 89t21.5 97.5q0 42 -16 73h-4q-24 0 -47.5 4.5t-45.5 14.5t-39.5 24.5t-29.5 34.5q-59 -3 -118.5 -29.5t-108 -71.5t-79 -105t-30.5 -130zM345 520 q22 -35 65 -52.5t88 -17.5q-20 34 -58.5 52t-92.5 18h-2zM571 333q-35 -8 -56.5 -17.5t-34.5 -20t-19 -21.5t-10 -21l-7 3q4 11 11 23t21 23t37.5 21.5t61.5 18.5l221 30q33 70 74 133.5t84.5 112t86 77t77.5 28.5q23 0 31.5 -17t8.5 -38q0 -29 -20 -71.5t-58.5 -86 t-94 -80.5t-126.5 -54q-34 -74 -59.5 -146t-37 -129.5t-6.5 -93t33 -35.5q17 0 40 14.5t49.5 41.5t54.5 66t55 88l7 -4q-28 -49 -57 -88.5t-56 -67.5t-51 -43t-42 -15t-34 12.5t-26.5 35t-14 53.5t2.5 67q9 55 28.5 114t46.5 117zM1150 668q0 21 -7.5 34t-24.5 13 q-26 0 -58 -27.5t-66 -73.5t-67.5 -105.5t-63.5 -123.5q67 17 120 52.5t90 77.5t57 83.5t20 69.5z"/>
<glyph horiz-adv-x="463" glyph-name="afii10032" unicode="" d="M446 715q37 0 51.5 -38t9 -98t-28 -134.5t-59.5 -147.5q-32 -63 -71 -119t-81.5 -98t-86.5 -66.5t-86 -24.5q-53 0 -77.5 40.5t-24.5 106.5q0 76 25.5 158.5t72.5 160t113.5 143t147.5 109.5l5 -7q-38 -28 -75.5 -71.5t-72 -96.5t-64 -113.5t-51 -121t-34 -119 t-12.5 -107.5q0 -11 2 -23.5t7.5 -23t15 -17.5t24.5 -7q40 0 82.5 23.5t83.5 64.5t79.5 95.5t70.5 117.5q36 72 58.5 144.5t28.5 130.5t-6.5 94.5t-46.5 36.5q-26 0 -57 -21t-63.5 -58t-63.5 -87t-57 -108t-44.5 -121t-25.5 -126l-8 1q7 63 25.5 127t45 122.5t59 109.5 t65.5 88.5t65 59t59 21.5z"/>
<glyph horiz-adv-x="825" glyph-name="afii10033" unicode="" d="M691 721q-59 16 -121 29.5t-125.5 15.5t-127.5 -11t-127 -50q-90 -58 -140 -140.5t-50 -173.5q0 -36 9 -65t24.5 -51t36.5 -37t44 -23q11 24 28 45.5t38.5 37.5t46.5 25.5t52 9.5q29 0 53 -10.5t40 -28.5q38 42 59 94.5t21 109.5q0 34 -9.5 60t-25.5 43t-38 26t-46 9 q-40 0 -75.5 -20t-62 -52.5t-40.5 -74t-11 -84.5l-8 -1q-3 45 11.5 88t42 76.5t64.5 54.5t79 21q26 0 49 -9t40.5 -27.5t27.5 -46t10 -63.5q0 -58 -21.5 -113t-61.5 -98q20 -26 20 -61q0 -29 -11 -53t-29 -41.5t-40 -27.5t-44 -11l-1 8q21 1 42 10.5t37.5 26t27 39 t10.5 49.5q0 29 -17 55q-38 -38 -88 -61t-111 -23q-25 0 -54 8q-15 -33 -15 -67q0 -32 11.5 -58.5t31.5 -45t46.5 -28.5t55.5 -10q57 0 103 37t85 95.5t73.5 130.5t69.5 141l4 8q32 63 65.5 115.5t73.5 84.5q22 17 46 27t50 10q14 0 25.5 -3t17.5 -6l-4 -7q-5 3 -15.5 5.5 t-23.5 2.5q-26 0 -48.5 -9.5t-43.5 -26.5q-41 -36 -64 -85t-40 -108l-2 -8q-11 -39 -22 -80.5t-25 -86.5q-18 -57 -50 -102.5t-74.5 -77t-93.5 -48.5t-107 -17q-32 0 -59.5 10.5t-48.5 30t-33 47t-12 62.5t15 70q-24 9 -46 24.5t-38 38t-25.5 52.5t-9.5 68q0 78 37.5 151 t104 129.5t159 91.5t203.5 37q70 1 134.5 -11t126.5 -27.5t123 -29.5t124 -18q62 -3 100 2.5t59 15t28.5 20t10.5 16.5l8 -4q-5 -11 -20.5 -30.5t-42.5 -37.5t-66.5 -30.5t-92.5 -9.5q-45 2 -85 9t-76 16t-69.5 19.5t-66.5 20.5zM279 325q-26 0 -49.5 -9t-43.5 -24 t-36.5 -35.5t-27.5 -43.5q29 -8 51 -8q60 0 108.5 22.5t84.5 59.5q-15 18 -37.5 28t-49.5 10zM954 579q-32 8 -65 -9.5t-53 -50.5q-14 -22 -22 -49t-14.5 -57t-12 -61.5t-13.5 -63.5q-11 -42 -31.5 -85.5t-48.5 -81.5t-62.5 -66.5t-71.5 -39.5q54 -22 110 -17.5t95 38.5 l6 -6q-17 -15 -41.5 -26t-53.5 -14.5t-61 0.5t-63 18q-18 -8 -30 -12t-28 -4q-28 0 -28 13q0 6 8.5 11.5t21 8.5t26 2.5t24.5 -5.5q32 8 55 33t41 60t33 77t31 84q15 40 29.5 78.5t30.5 72.5t33 63t37 50q26 27 52 39t67 10z"/>
<glyph horiz-adv-x="905" glyph-name="afii10034" unicode="" d="M1215 866q57 0 109.5 -15t92.5 -41.5t64 -63t24 -79.5t-22 -79t-58 -62.5t-83 -41.5t-96 -15q-46 0 -87 8.5t-71.5 25.5t-48.5 42.5t-18 60.5q0 27 14.5 51t39.5 42.5t57.5 29t68.5 10.5q40 0 71.5 -9t54 -22.5t36 -28t17.5 -26.5l-8 -2q-3 10 -16 24t-34.5 26.5t-52 21 t-68.5 8.5q-34 0 -65 -10.5t-55 -27.5t-38 -39.5t-14 -47.5q0 -33 17 -57t46 -40t69 -24t85 -8q48 0 93.5 14.5t80.5 40t56 60t21 75.5q0 40 -23 75t-62 61t-90 40.5t-107 14.5q-117 0 -204 -42.5t-152 -111.5l-4 -5q45 -36 69.5 -86t24.5 -107q0 -66 -28 -116t-70 -81.5 t-91.5 -44.5t-92.5 -5q-39 -89 -89 -143.5t-100.5 -84.5t-97 -40t-78.5 -10q-35 0 -64.5 9t-51 24.5t-33.5 37t-12 45.5q0 16 4.5 32.5t11.5 25.5l6 -5q-6 -8 -10 -23t-4 -30q0 -22 11.5 -41.5t31.5 -34.5t48.5 -23.5t61.5 -8.5q62 0 110 34t88.5 90.5t76.5 130t74 151 t82.5 154.5t101.5 141q-38 36 -88.5 52t-101.5 16q-48 0 -91.5 -8.5t-85.5 -24.5q48 -31 74 -82.5t26 -114.5t-21 -121.5t-55.5 -104t-78.5 -73t-90 -27.5q-43 0 -73 14t-49 37q-21 -10 -49 -10q-38 0 -66.5 13.5t-47.5 37t-28.5 55t-9.5 68.5q0 70 30.5 132.5t79.5 109 t110 73.5t122 27q67 0 117 -28q87 35 187 35q63 0 113.5 -16t88.5 -45q66 72 155.5 116.5t211.5 44.5zM152 251q18 0 44 8q-31 46 -31 105q0 55 21 109t59 101.5t89.5 86.5t113.5 65q-46 25 -106 25q-59 0 -118.5 -26.5t-107.5 -72t-78 -106.5t-30 -129q0 -35 9 -65.5 t27 -53t45 -35t63 -12.5zM560 528q0 63 -26.5 113.5t-75.5 79.5q-62 -25 -114 -63t-90 -85.5t-59.5 -100.5t-21.5 -108q0 -29 7 -55t23 -47q29 12 55.5 36t46.5 54t32 64t12 66q0 25 -2 41.5t-4.5 26t-5.5 14t-5 6.5l5 6q2 -2 5.5 -7t6.5 -15.5t5.5 -27.5t2.5 -44 q0 -33 -12 -68t-32.5 -65.5t-47.5 -55t-57 -37.5q18 -21 46.5 -33.5t68.5 -12.5q44 0 86.5 27t76 71.5t54 101.5t20.5 118zM670 266q38 -8 85 7q28 12 55 33t47 51.5t32.5 70.5t12.5 91q0 55 -16.5 95.5t-44.5 69.5q-30 -35 -50.5 -72t-35.5 -76t-26.5 -80.5t-23.5 -85.5 q-8 -28 -16.5 -53.5t-18.5 -50.5z"/>
<glyph horiz-adv-x="716" glyph-name="afii10035" unicode="" d="M839 649q0 -31 -15.5 -75t-46 -92.5t-76 -96.5t-105.5 -87.5t-134.5 -65t-163.5 -28.5q-15 -47 -20 -86t1 -67.5t24 -44.5t48 -16h1q31 0 68.5 15t75 43t72 68t61.5 89l7 -4q-27 -50 -62.5 -90.5t-74 -69t-77 -44t-71.5 -15.5h-1q-31 0 -54.5 14.5t-39 39.5t-23 59 t-7.5 73q0 10 0.5 19.5t1.5 20.5q-41 6 -83 20t-76 38t-55.5 58.5t-21.5 80.5q0 60 30.5 117t86 101t133 70.5t172.5 26.5q52 0 96 -10.5t72 -27.5q48 29 92.5 44.5t80.5 15.5q42 0 63 -24.5t21 -68.5zM831 649q0 40 -19.5 62.5t-56.5 22.5q-32 0 -69 -19t-77 -52 q28 -24 41 -53.5t13 -57.5q0 -39 -24 -76.5t-65 -67t-95.5 -47.5t-116.5 -18h-4q-36 -68 -57 -131q87 3 160 28.5t132 64t103.5 85.5t74.5 94.5t45 91t15 73.5zM0 405q0 -44 20.5 -77t53.5 -56t74 -36.5t81 -19.5q5 35 16.5 69.5t28.5 68.5q-29 8 -49.5 21t-34 29t-19.5 33 t-6 33q0 29 19 57t53.5 48.5t81.5 30.5t104 4l-1 -8q-56 6 -101.5 -3t-78.5 -28.5t-51 -46t-18 -54.5q0 -31 24.5 -62.5t80.5 -46.5q25 48 58.5 94t72.5 86.5t81.5 75t84.5 60.5q-27 16 -69.5 25.5t-91.5 9.5q-93 0 -169 -26t-130.5 -69t-84.5 -98.5t-30 -113.5zM603 658 q-57 -48 -114 -117.5t-103 -147.5l-24 -42q60 0 113.5 18t93 46.5t63 64.5t23.5 72q0 27 -12.5 55t-39.5 51z"/>
<glyph horiz-adv-x="962" glyph-name="afii10036" unicode="" d="M111 212q11 26 28.5 48t39.5 38.5t47.5 25.5t52.5 9q50 0 80.5 -29.5t30.5 -77.5q0 -29 -10 -53t-26.5 -41.5t-37.5 -27.5t-43 -11l-1 8q21 1 41 10.5t35 26t24.5 39t9.5 49.5q0 44 -29 71.5t-74 27.5q-35 0 -66.5 -16.5t-55.5 -43t-38.5 -60t-14.5 -67.5 q0 -32 11.5 -58.5t31.5 -45t46.5 -28.5t55.5 -10q57 0 103 37t85 95.5t73.5 130.5t69.5 141l4 8q25 48 50.5 91.5t54 75.5t60.5 51t70 19q14 0 25.5 -3t17.5 -6l-4 -7q-5 3 -15.5 5.5t-23.5 2.5q-41 0 -72.5 -20.5t-55 -53.5t-40 -74t-28.5 -81l-2 -8q-11 -39 -22 -80.5 t-25 -86.5q-18 -57 -50 -102.5t-74.5 -77t-93.5 -48.5t-107 -17q-32 0 -59.5 10.5t-48.5 30t-33 47t-12 62.5q0 17 3.5 37t11.5 37zM1086 627q-63 9 -118 24.5t-106.5 33.5t-101.5 35.5t-102 31.5q-45 12 -89 19t-89 7q-69 0 -136.5 -18t-135.5 -58q-95 -59 -147 -143.5 t-52 -176.5q0 -48 16 -83.5t41.5 -58.5t58 -34.5t65.5 -11.5q66 0 120 26t92.5 68t59.5 95t21 108q0 35 -10 61t-27 43.5t-40 26.5t-48 9q-41 0 -77 -18.5t-63 -49.5t-43 -70.5t-16 -81.5q0 -4 0.5 -7t0.5 -7l-9 -1q0 4 -0.5 7.5t-0.5 6.5q0 44 16.5 85.5t45 73.5t66.5 51.5 t80 19.5q27 0 51 -9.5t42.5 -28t29 -46.5t10.5 -65q0 -58 -22 -113t-62 -98t-95.5 -69t-121.5 -26q-35 0 -69 12t-61 36.5t-43.5 61.5t-16.5 87q0 80 40 157t111.5 137t170 97t216.5 37q76 0 147.5 -16t141 -37t139 -41.5t141.5 -30.5q23 -3 42 -4t35 -1q40 0 64.5 5.5 t39 13t21 16t9.5 13.5l8 -5q-5 -10 -20 -26.5t-39.5 -32.5t-60 -27.5t-81.5 -11.5h-19t-20 2zM925 576q-48 -12 -77.5 -35.5t-49.5 -61t-35.5 -90t-34.5 -121.5q-15 -42 -35.5 -84t-49 -78.5t-67 -64.5t-87.5 -42l-5 5q47 16 76.5 46t49.5 68t34 80.5t30 83.5 q19 47 41.5 96.5t51 91.5t65 72t84.5 39zM818 276q29 70 59 132t69 99q25 23 51 34t66 9l-1 -9q-32 7 -64 -8.5t-52 -44.5q-14 -19 -22 -42t-14.5 -49t-12 -53.5t-13.5 -55.5q-11 -42 -30.5 -86t-45 -82.5t-55.5 -66.5t-61 -38q54 -22 100 -17.5t85 38.5l6 -6 q-34 -31 -85 -40.5t-114 18.5q-18 -8 -30 -12t-28 -4q-28 0 -28 13q0 6 8.5 11.5t21 8.5t26 2.5t24.5 -5.5q27 12 46.5 37.5t35 59.5t29 74.5t29.5 82.5z"/>
<glyph horiz-adv-x="790" glyph-name="afii10037" unicode="" d="M870 606q-23 -22 -48 -63.5t-47 -87.5q-13 -40 -21 -84.5t-12 -90.5q-5 -62 -35.5 -123.5t-79.5 -111t-113 -80t-135 -30.5q-51 0 -81.5 18t-42.5 45t-7 58.5t24.5 58.5t52.5 45t77 18q42 0 68 -12t37 -30t9 -39t-15.5 -39t-37 -30t-54.5 -12q-38 0 -55.5 11.5 t-20.5 18.5l7 4q3 -6 18.5 -16t50.5 -10q29 0 51 11t34.5 27t14 35t-9 35t-34.5 27t-63 11q-42 0 -73 -17t-50 -42t-23.5 -54.5t7 -54.5t40.5 -42t77 -17q53 0 98 26.5t81.5 67.5t65 90.5t49.5 97t35 86.5t21 58q-20 -32 -42.5 -60t-45.5 -48.5t-45 -32.5t-41 -12 q-20 0 -37 19t-16 51q0 28 12 57.5t30 59.5t38.5 60t38.5 59t30 56.5t12 51.5q1 33 -15 61.5t-44.5 49.5t-67 32.5t-81.5 11.5q-57 0 -112.5 -17t-106 -47t-93.5 -71t-74.5 -89t-50 -100.5t-19.5 -106.5q0 -35 8 -67.5t25.5 -57t44.5 -39t65 -14.5q41 0 93.5 26.5t99.5 73 t79.5 111t33.5 139.5q1 53 -21.5 76t-56.5 23q-45 0 -87 -27t-75 -65t-53 -80.5t-20 -72.5q-1 -29 2 -42t8 -18l-6 -5q-5 6 -9 20.5t-3 44.5q0 32 20.5 75.5t54.5 83t77.5 67t90.5 27.5q38 0 62.5 -25t23.5 -82q-1 -78 -34 -143.5t-81 -113t-102 -74.5t-97 -27 q-40 0 -68.5 15.5t-47 41.5t-27 59.5t-8.5 69.5q1 55 19.5 109t50.5 102.5t76 90.5t95.5 72.5t108.5 47.5t115 17q46 0 89.5 -13t76.5 -39.5t52.5 -66t18.5 -93.5q-2 -47 -26.5 -94.5t-53.5 -90t-53 -78t-24 -59.5q0 -35 19 -35q22 0 48.5 17t53.5 46t52 66t45 78 q11 26 23.5 52.5t26.5 50.5q4 6 7.5 12.5t8.5 13.5q11 16 22 29.5t22 22.5z"/>
<glyph horiz-adv-x="974" glyph-name="afii10038" unicode="" d="M290 703q-13 -34 -7 -58.5t23 -40.5t42 -23t51.5 -5.5t50.5 11t39 27.5l4 -6q-14 -19 -38.5 -29t-52 -11.5t-54.5 6t-46 24t-26.5 43t4.5 63.5q17 52 59.5 75.5t93.5 28.5q41 4 87 -1.5t92.5 -16.5t90 -25t81 -27t66 -22.5t43.5 -11.5q77 64 187 64q41 0 63 -14.5 t19.5 -32.5t-32 -32.5t-91.5 -14.5q-42 0 -79.5 4t-72.5 10q-36 -34 -66 -82.5t-55 -120.5q21 42 60 76.5t76 50.5q45 19 79.5 -2.5t44.5 -91.5q1 -39 -7 -71.5t-21 -63.5q-35 -81 -96 -130t-127 -59q-8 -2 -20.5 -0.5t-23.5 9t-19 24t-8 45.5q-27 -67 -67 -122t-91 -94 t-112.5 -60t-131.5 -21q-62 0 -109 19t-79 51.5t-48.5 74.5t-16.5 87q0 48 20.5 92.5t55 79.5t80.5 56t96 21q35 0 67 -11.5t59 -31.5q16 41 41 76.5t60 63.5q25 21 54.5 39t57 27t50 6.5t34.5 -21.5q11 -17 10.5 -51.5t-13.5 -82.5q32 64 70.5 121t85.5 99 q-48 6 -104.5 22.5t-114.5 34t-115 30t-106 10.5q-24 -1 -46.5 -5t-42 -13t-34.5 -25t-24 -41zM317 90q-21 0 -39 4.5t-32.5 11t-24 13.5t-13.5 13l5 5q8 -11 36 -25t68 -14q52 0 95.5 24.5t64.5 69.5q-27 3 -46.5 28t-26.5 74q0 56 20 110q-26 21 -58 32.5t-65 11.5 q-49 0 -93.5 -20t-78 -54t-53 -77.5t-19.5 -89.5q0 -44 16 -84.5t47 -71.5t77 -49.5t105 -18.5q64 0 114 25.5t90.5 69t73.5 101t63 120.5q-9 -11 -17.5 -21t-17.5 -19q-66 -68 -122 -68q-22 -48 -67.5 -74.5t-101.5 -26.5zM746 410q-8 -23 -14.5 -47t-13.5 -50 q-8 -41 -3.5 -64t15 -33.5t23 -12.5t19.5 0q19 4 40 21.5t42.5 44.5t42.5 61t39 70q22 43 32.5 88t6 77t-25.5 44t-61 -12q-27 -16 -48.5 -33.5t-38.5 -40t-31 -50t-24 -63.5zM693 408q13 41 21 71.5t11 53t1 37.5t-7 26q-9 16 -25 18t-36.5 -8t-44 -30.5t-46.5 -49.5 q-20 -23 -37 -50.5t-32 -56.5q-8 -14 -13.5 -29t-10.5 -29q28 -44 28 -96q0 -33 -11 -63q17 -3 44.5 11t65.5 51q62 62 92 144zM1039 682q58 0 85.5 12t29.5 27t-17.5 27t-56.5 12q-53 0 -96.5 -15t-80.5 -44q36 -8 68.5 -13.5t67.5 -5.5zM494 265q0 23 -6 44.5t-17 40.5 q-8 -26 -11.5 -50t-2.5 -43.5t7.5 -33.5t18.5 -19q11 30 11 61z"/>
<glyph horiz-adv-x="912" glyph-name="afii10039" unicode="" d="M986 720q17 0 33 -5t29 -16t20.5 -28t7.5 -41t-10.5 -45t-26 -36.5t-34 -25t-33.5 -9.5v8q13 0 30 9t31.5 24t24.5 34.5t10 40.5q0 43 -25.5 62.5t-56.5 19.5q-33 0 -67 -21.5t-68 -58t-65.5 -85t-58.5 -102.5q-21 -42 -38.5 -86t-30.5 -86q-14 -45 -21 -87t-7 -78 q0 -17 2 -36.5t8.5 -37t19 -29t33.5 -11.5q31 0 60.5 14.5t57 40t53 59.5t48.5 74l7 -4q-23 -40 -49.5 -75t-55 -61t-59.5 -41t-62 -15q-16 0 -40.5 8.5t-45 32t-30 64.5t3.5 106q-39 -63 -86.5 -114t-101.5 -77q-20 -10 -41.5 -15.5t-44.5 -5.5q-45 0 -70.5 17t-36.5 40 t-10.5 46.5t8.5 37.5l7 -4q-8 -12 -8 -33.5t11 -43t35 -37t65 -15.5q50 0 97 29q43 26 79.5 71.5t65 100t50 113.5t35.5 113t21 97.5t7 67.5q0 31 -6.5 59.5t-22 50.5t-41 35t-64.5 13q-35 0 -69.5 -11.5t-68.5 -31.5q63 -17 100.5 -73t37.5 -144q0 -83 -23.5 -147 t-58.5 -108t-76 -66.5t-75 -22.5q-49 0 -79 30q-44 -34 -96 -34q-30 0 -54 14t-40.5 38.5t-25.5 57t-9 70.5q0 87 32 159.5t82.5 124t111 80.5t117.5 29q20 0 45 -5q35 23 73 35.5t76 12.5q37 0 69.5 -11.5t57 -36t38.5 -63.5t14 -93q0 -36 -10 -75q76 129 152 188.5 t136 59.5zM0 315q0 -36 8.5 -67.5t24 -54.5t38 -36.5t50.5 -13.5q24 0 47 8.5t43 23.5q-23 26 -33 62.5t-10 73.5q0 59 15.5 116t43 107.5t64.5 92t80 70.5q-18 3 -36 3q-56 0 -115 -28.5t-108 -79.5t-80.5 -121.5t-31.5 -155.5zM521 483q0 88 -38 142t-101 69 q-43 -28 -80.5 -69.5t-65.5 -91.5t-44 -106.5t-16 -115.5q0 -37 9.5 -72.5t31.5 -58.5q24 19 43.5 47.5t32 63t17 73t-1.5 79.5l8 1q6 -41 1.5 -81t-17 -75.5t-32.5 -64.5t-45 -49q28 -27 73 -27q33 0 72.5 22t73.5 64.5t56.5 105.5t22.5 144z"/>
<glyph horiz-adv-x="734" glyph-name="afii10040" unicode="" d="M713 99q-5 -32 -16.5 -67.5t-27.5 -68t-35 -57t-38 -33.5q-37 -16 -68 -7t-66 30q-19 12 -37.5 23.5t-35.5 14.5q-23 5 -39 -8t-22 -30q-11 -30 1 -56.5t50 -32.5v-9q-43 10 -55.5 37.5t-3.5 60.5q6 22 24 36.5t40.5 21.5t45.5 6.5t40 -8.5q19 -9 29.5 -15t20 -11.5 t21.5 -11t34 -12.5q22 -6 41.5 7.5t36 39.5t29.5 62.5t23 75.5q-26 -38 -45 -60t-33 -33.5t-24 -14.5t-19 -2q-28 0 -41 19t-14 40q-3 45 39 141q-55 -94 -98.5 -139.5t-69.5 -45.5q-11 0 -14 1q-29 5 -40 29.5t-11 52.5q0 41 19.5 88.5t48 98.5t62.5 103.5t62.5 103 t48 97.5t19.5 87t-10.5 69.5t-27.5 50.5t-38 33.5t-41.5 19.5t-38.5 9.5t-29 2.5q-53 0 -104 -18.5t-97 -51t-84 -76.5t-66 -94t-43.5 -104t-15.5 -107q0 -78 38.5 -122.5t108.5 -44.5q54 0 111 35.5t104 91t77 122.5t30 130q0 33 -7.5 54.5t-19.5 35t-28 19t-34 5.5 q-44 0 -87 -29t-77.5 -76t-55.5 -107t-21 -121h-8q0 64 21.5 125t57 109t80 77.5t90.5 29.5q19 0 36.5 -6t31 -20t21.5 -37.5t8 -58.5q0 -43 -14 -88.5t-38.5 -88.5t-57 -81t-69 -67t-75.5 -45.5t-76 -16.5q-75 0 -115 47t-40 128q0 54 16 109t44 106t67 95.5t85.5 77.5 t99 52t107.5 19q45 0 82.5 -15t65 -43.5t42.5 -69t15 -92.5q0 -62 -18.5 -120.5t-46 -113.5t-60 -105.5t-60 -95t-46 -83t-18.5 -69.5q0 -21 6.5 -29.5t23.5 -9.5h3q27 0 83 67.5t128 205.5q20 40 40 77.5t43 80t50.5 95t63.5 123.5h74q-56 -101 -101 -180t-79.5 -141 t-59.5 -108t-42 -80q-23 -45 -32 -73.5t-9 -48.5q0 -17 8 -25t17 -8q10 0 21 3.5t25 16.5t33.5 37t48.5 66z"/>
<glyph horiz-adv-x="866" glyph-name="afii10041" unicode="" d="M644 487q-10 -22 -23.5 -44t-27 -43.5t-25 -41.5t-17.5 -36q-12 -32 -4 -51.5t39 -21.5h1q17 0 48.5 24.5t64.5 66.5q26 34 55 73.5t57 87.5l81 148h74q-93 -167 -155.5 -276.5t-99.5 -180t-52.5 -109.5t-15.5 -65q0 -17 8 -25t17 -8q12 0 30 5.5t42 25.5t55 59t70 107 l7 -4q-39 -69 -71 -109t-57.5 -60.5t-44 -26t-31.5 -5.5q-28 0 -39 19t-16 40q-3 15 2 46t22.5 78.5t49 111.5t80.5 145q-66 -95 -111 -135t-69 -40q-5 -1 -7.5 -0.5t-4.5 0.5q-15 0 -27.5 7t-21 17.5t-13 24t-4.5 26.5q1 25 8.5 50.5t19 49.5t25 47.5t25.5 45.5 q23 39 39.5 76t14.5 68q-2 34 -20.5 61t-49.5 46t-71 27.5t-83 5.5q-85 -6 -163.5 -48.5t-138 -107.5t-93 -145t-29.5 -161q2 -35 12.5 -66.5t29.5 -55t47 -36.5t66 -10q41 3 91.5 33.5t94 80t71 116t23.5 141.5q-3 54 -27 75t-58 19q-44 -3 -84.5 -33t-70.5 -70.5t-47 -84 t-15 -73.5q2 -29 5.5 -42t8.5 -18l-4 -5q-7 6 -11.5 20t-6.5 44q-2 32 15.5 77t48.5 86.5t72.5 72.5t88.5 34q38 2 64 -21.5t29 -80.5q4 -77 -24 -144.5t-72.5 -118.5t-96.5 -82t-95 -34q-39 -3 -68.5 10.5t-49.5 38t-31 57.5t-14 69q-3 55 12 110t43.5 106t69 96t89.5 79 t105 55t114 25q46 3 91 -6.5t80.5 -33.5t58.5 -62t26 -92q1 -30 -8 -60.5t-23 -60.5z"/>
<glyph horiz-adv-x="982" glyph-name="afii10042" unicode="" d="M662 247q-38 -72 -65 -127.5t-27 -94.5q0 -21 6.5 -29.5t23.5 -9.5h1h1h1q27 0 83 67.5t128 205.5q20 40 40 77.5t43 80t50.5 95t63.5 123.5h74q-93 -167 -155.5 -276.5t-99.5 -180t-52.5 -109.5t-15.5 -65q0 -17 8 -25t17 -8q12 0 30 5.5t42 25.5t55 59t70 107l7 -4 q-39 -69 -71 -109t-57.5 -60.5t-44 -26t-31.5 -5.5q-28 0 -41 19t-14 40q-3 45 39 141q-55 -94 -98.5 -139.5t-69.5 -45.5q-11 0 -14 1q-29 5 -40 29.5t-11 52.5q0 26 8 55.5t22 60.5q-55 -94 -98.5 -139.5t-69.5 -45.5q-11 0 -14 1q-29 5 -40 29.5t-11 52.5q0 34 13 72 t35 80q28 54 64.5 111t69.5 112.5t55.5 107t22.5 95.5q0 40 -10.5 69.5t-27.5 50.5t-38 33.5t-41.5 19.5t-38.5 9.5t-29 2.5q-53 0 -104 -18.5t-97 -51t-84 -76.5t-66 -94t-43.5 -104t-15.5 -107q0 -78 38.5 -122.5t108.5 -44.5q54 0 111 35.5t104 91t77 122.5t30 130 q0 33 -7.5 54.5t-19.5 35t-28 19t-34 5.5q-44 0 -87 -29t-77.5 -76t-55.5 -107t-21 -121h-8q0 64 21.5 125t57 109t80 77.5t90.5 29.5q19 0 36.5 -6t31 -20t21.5 -37.5t8 -58.5q0 -43 -14 -88.5t-38.5 -88.5t-57 -81t-69 -67t-75.5 -45.5t-76 -16.5q-75 0 -115 47t-40 128 q0 54 16 109t44 106t67 95.5t85.5 77.5t99 52t107.5 19q45 0 82.5 -15t65 -43.5t42.5 -69t15 -92.5q0 -53 -14 -104.5t-36.5 -100t-50 -94t-53.5 -86.5q-38 -61 -66.5 -112t-28.5 -90q0 -21 6.5 -29.5t23.5 -9.5h1h1h1q27 0 83 67.5t128 205.5q20 40 40 77.5t43 80t50.5 95 t63.5 123.5h74q-77 -137 -130 -235t-90 -167z"/>
<glyph horiz-adv-x="982" glyph-name="afii10043" unicode="" d="M846 -83q17 26 31.5 64.5t23.5 81.5q-25 -35 -42.5 -55t-31 -30.5t-23 -13t-17.5 -1.5q-28 0 -41 19t-14 40q-3 45 39 141q-55 -94 -98.5 -139.5t-69.5 -45.5q-11 0 -14 1q-29 5 -40 29.5t-11 52.5q0 26 8 55.5t22 60.5q-55 -94 -98.5 -139.5t-69.5 -45.5q-11 0 -14 1 q-29 5 -40 29.5t-11 52.5q0 34 13 72t35 80q28 54 64.5 111t69.5 112.5t55.5 107t22.5 95.5q0 40 -10.5 69.5t-27.5 50.5t-38 33.5t-41.5 19.5t-38.5 9.5t-29 2.5q-53 0 -104 -18.5t-97 -51t-84 -76.5t-66 -94t-43.5 -104t-15.5 -107q0 -78 38.5 -122.5t108.5 -44.5 q54 0 111 35.5t104 91t77 122.5t30 130q0 33 -7.5 54.5t-19.5 35t-28 19t-34 5.5q-44 0 -87 -29t-77.5 -76t-55.5 -107t-21 -121h-8q0 64 21.5 125t57 109t80 77.5t90.5 29.5q19 0 36.5 -6t31 -20t21.5 -37.5t8 -58.5q0 -43 -14 -88.5t-38.5 -88.5t-57 -81t-69 -67 t-75.5 -45.5t-76 -16.5q-75 0 -115 47t-40 128q0 54 16 109t44 106t67 95.5t85.5 77.5t99 52t107.5 19q45 0 82.5 -15t65 -43.5t42.5 -69t15 -92.5q0 -53 -14 -104.5t-36.5 -100t-50 -94t-53.5 -86.5q-38 -61 -66.5 -112t-28.5 -90q0 -21 6.5 -29.5t23.5 -9.5h3 q27 0 83 67.5t128 205.5q20 40 40 77.5t43 80t50.5 95t63.5 123.5h74q-77 -137 -130 -235t-90 -167q-38 -72 -65 -127.5t-27 -94.5q0 -21 6.5 -29.5t23.5 -9.5h3q27 0 83 67.5t128 205.5q20 40 40 77.5t43 80t50.5 95t63.5 123.5h74q-93 -167 -155.5 -276.5t-99.5 -180 t-52.5 -109.5t-15.5 -65q0 -17 8 -25t17 -8q10 0 21 3.5t25 16.5t33.5 37t48.5 66l3 -6q-3 -4 -5.5 -7.5t-4.5 -7.5q-3 -31 -14 -65.5t-26 -65.5t-33 -54t-36 -32q-30 -16 -68 -13t-82 27q-23 14 -47.5 27.5t-44.5 18.5q-29 5 -47 -8.5t-25 -32.5q-5 -16 -3.5 -32t9.5 -29.5 t24 -23.5t39 -14l1 -10q-54 13 -71 43.5t-9 66.5q6 24 26 40t46 23.5t55.5 5.5t53.5 -14q18 -9 43 -22t51.5 -20t52 -2.5t43.5 30.5z"/>
<glyph horiz-adv-x="762" glyph-name="afii10044" unicode="" d="M382 -32q-16 6 -34 18t-33 31t-24.5 45t-9.5 58q1 73 25.5 143.5t66 135t96 122t115.5 105.5q-44 -26 -78 -42t-58 -21q-38 -10 -54 1.5t-15 28.5q1 18 10.5 30.5t21 24t21 22.5t10.5 26q1 22 -42 24h-1q-66 3 -124.5 -21.5t-102.5 -62.5t-72 -85t-32 -89 q-5 -42 13.5 -71.5t58.5 -29.5q39 -1 71 17.5t55 47t38 63t21 64.5l8 -1q-6 -31 -21.5 -66t-40 -65t-57.5 -49.5t-74 -18.5q-17 0 -32.5 6.5t-27.5 18.5t-19 30.5t-5 42.5q2 41 27.5 89.5t70.5 90.5t107 70t138 27q85 -2 82 -57q-1 -14 -9.5 -27t-19 -24.5t-19.5 -22 t-9 -19.5q-1 -12 18.5 -8.5t53.5 19.5t79.5 42t96.5 58l12 8l3 -7l-22 -14q-18 -11 -34.5 -23.5t-33.5 -25.5q-55 -45 -102.5 -114t-83.5 -146t-57.5 -154.5t-22.5 -139.5q-1 -38 13.5 -62.5t39.5 -35.5q39 -17 91 7q29 13 56 38.5t50 59t40 71t27 74.5q9 34 11 65.5 t-4 55.5t-21 38.5t-39 14.5q-35 0 -69 -22.5t-60 -58t-41 -80t-12 -89.5l-9 -8q-3 49 12.5 97.5t43.5 86.5t66 61.5t79 23.5q50 0 77.5 -39t23.5 -111q-2 -48 -22 -96t-52.5 -88.5t-73.5 -69.5t-86 -40q-29 -5 -49 -5.5t-41 7.5z"/>
<glyph horiz-adv-x="797" glyph-name="afii10045" unicode="" d="M463 687q-36 -15 -82 -28.5t-94 -29.5t-94 -36.5t-81 -48.5t-54 -65.5t-14 -87.5q2 -16 14 -29.5t30 -14.5l-1 -6q-11 -1 -21 4.5t-17.5 15.5t-12.5 23t-6 27q-7 65 11.5 106.5t54 67t83 39t99 24l103 21t94.5 30.5q9 5 22.5 12t22.5 12l4 -6q-29 -11 -56.5 -33.5 t-51.5 -41.5q-37 -30 -70 -72.5t-61.5 -91.5t-52 -103t-40.5 -107.5t-26.5 -103.5t-10.5 -91q-1 -38 13.5 -62.5t39.5 -35.5q39 -17 91 7q29 13 56 38.5t50 59t40 71t27 74.5q9 34 11 65.5t-4 55.5t-21 38.5t-39 14.5q-35 0 -69 -22.5t-60 -58t-41 -80t-12 -89.5l-9 -8 q-3 49 12.5 97.5t43.5 86.5t66 61.5t79 23.5q50 0 77.5 -39t23.5 -111q-2 -48 -22 -96t-52.5 -88.5t-73.5 -69.5t-86 -40q-29 -5 -49 -5.5t-41 7.5q-16 6 -34 18t-33 31t-24.5 45t-9.5 58q1 73 24.5 145.5t64 139.5t94.5 127t115 108q5 4 13 10t17 13t17 13t14 10zM517 13 q37 11 62 51q24 36 41.5 83.5t33 100.5t30 108.5t33 109.5t42.5 102.5t58 86.5q29 32 58 47.5t74 14.5l-1 -11q-35 8 -71.5 -13.5t-57.5 -60.5q-15 -26 -26 -58t-19 -67t-15 -72t-16 -74q-11 -49 -30 -105t-46 -106.5t-61.5 -89t-76.5 -53.5q27 -11 57.5 -15.5t60 -2t56 12 t46.5 26.5l6 -6q-17 -15 -42 -26t-55 -14.5t-63 0.5t-64 18q-18 -8 -27.5 -12t-25.5 -4q-28 0 -28 13q0 6 6.5 11.5t16.5 8t21.5 2t22.5 -5.5z"/>
<glyph horiz-adv-x="567" glyph-name="afii10046" unicode="" d="M463 687q-36 -15 -82 -28.5t-94 -29.5t-94 -36.5t-81 -48.5t-54 -65.5t-14 -87.5q2 -16 14 -29.5t30 -14.5l-1 -6q-11 -1 -21 4.5t-17.5 15.5t-12.5 23t-6 27q-7 65 11.5 106.5t54 67t83 39t99 24l103 21t94.5 30.5q9 5 22.5 12t22.5 12l4 -6q-29 -11 -56.5 -33.5 t-51.5 -41.5q-37 -30 -70 -72.5t-61.5 -91.5t-52 -103t-40.5 -107.5t-26.5 -103.5t-10.5 -91q-1 -38 13.5 -62.5t39.5 -35.5q39 -17 91 7q29 13 56 38.5t50 59t40 71t27 74.5q9 34 11 65.5t-4 55.5t-21 38.5t-39 14.5q-35 0 -69 -22.5t-60 -58t-41 -80t-12 -89.5l-9 -8 q-3 49 12.5 97.5t43.5 86.5t66 61.5t79 23.5q50 0 77.5 -39t23.5 -111q-2 -48 -22 -96t-52.5 -88.5t-73.5 -69.5t-86 -40q-29 -5 -49 -5.5t-41 7.5q-16 6 -34 18t-33 31t-24.5 45t-9.5 58q1 73 24.5 145.5t64 139.5t94.5 127t115 108q5 4 13 10t17 13t17 13t14 10z"/>
<glyph horiz-adv-x="554" glyph-name="afii10047" unicode="" d="M176 -5q-56 0 -95.5 26.5t-58 67.5t-13.5 91.5t37 99.5q38 53 82.5 68t85.5 5q31 -9 48 -35t17 -61t-17.5 -74t-54.5 -74l-7 2q36 34 53.5 71.5t17.5 71t-16 59t-47 34.5q-38 7 -78.5 -7t-75.5 -61q-36 -52 -38 -109t26 -99q21 -32 54 -49t70.5 -19.5t75 10t68.5 39.5 q30 27 58.5 64.5t53.5 81.5t46.5 92.5t38.5 96.5q-15 -23 -31 -37t-31 -22t-27.5 -10.5t-19.5 -2.5q-11 0 -20 7t-17 16t-15.5 19.5t-14.5 18.5q-8 9 -15 12t-21 -4q-8 -4 -20.5 -13.5t-23.5 -22.5l-2 6q19 19 33 31t25 18t21.5 7.5t23.5 0.5q15 -1 24.5 -10.5t18.5 -20.5 t19.5 -20t28.5 -10q14 -1 35 15.5t41 60.5q16 56 22.5 112t-2 101t-35.5 74t-79 32q-40 1 -78.5 -14.5t-69.5 -42.5t-50.5 -61.5t-20.5 -70.5q-1 -22 5 -36.5t15.5 -23t21 -12t21.5 -3.5q21 -1 45 10t44.5 31t34.5 47.5t16 60.5l8 -1q-2 -34 -16.5 -63t-36 -49.5t-47 -32 t-48.5 -10.5q-11 0 -23.5 4.5t-23.5 14t-18 25t-6 38.5q1 37 21.5 72.5t52 63.5t72 44.5t82.5 15.5q33 1 62.5 -12.5t51.5 -38.5t36 -60t16 -75q4 -59 -8 -124.5t-37.5 -129.5t-63 -122t-85 -102t-104 -70t-118.5 -24v1z"/>
<glyph horiz-adv-x="1158" glyph-name="afii10048" unicode="" d="M1137 694q37 0 51.5 -38t9 -98t-28 -134.5t-59.5 -147.5q-32 -63 -71 -119t-81.5 -98t-86.5 -66.5t-86 -24.5q-53 0 -77.5 40.5t-24.5 106.5q0 76 25 158q10 31 22 62h-62q0 -2 -0.5 -3t-0.5 -2l-9 -31q-25 -77 -65 -140t-93.5 -108t-120 -69.5t-144.5 -24.5 q-50 0 -94 15t-77 44t-52.5 71t-19.5 97q0 71 30.5 132.5t79.5 107.5t109.5 73.5t120.5 30.5q-11 24 -11 49q0 38 19 68.5t49 52t66.5 33t72.5 11.5q24 0 51 -5.5t49 -17.5t36.5 -31.5t14.5 -47.5q0 -29 -13 -48.5t-32 -32.5t-41.5 -18.5t-41.5 -5.5q-38 0 -62 13t-38 35 l7 4q13 -20 34.5 -32t58.5 -12q19 0 40 5.5t39 17t29.5 30t11.5 44.5t-13.5 44t-34 29t-46 16t-49.5 5q-35 0 -70.5 -11t-64 -31.5t-46.5 -49.5t-18 -65q0 -25 11 -49h7q120 0 161 -78q54 2 100 15t84 34q23 51 44.5 92.5t41.5 69.5q14 21 29 33t31 12q8 0 14 -6t6 -16 q0 -15 -9 -37t-27 -46.5t-44 -49.5t-60 -46q-14 -42 -25 -82.5t-22 -79.5h63q20 46 47 90q47 78 113.5 143.5t147.5 109.5l5 -7q-38 -28 -75.5 -71.5t-72 -96.5t-64.5 -114q-13 -27 -25 -54h37l-6 -8h-34q-12 -29 -23 -59q-21 -60 -33.5 -118.5t-12.5 -107.5q0 -11 2 -23.5 t7.5 -23t15 -17.5t24.5 -7q40 0 82.5 23.5t83.5 64.5t79.5 95.5t70.5 117.5q36 72 58.5 144.5t28.5 130.5t-6.5 94.5t-46.5 36.5q-26 0 -57 -21t-63.5 -58t-63.5 -87t-57 -108t-44.5 -121t-25.5 -126l-8 1q7 63 25.5 127t45 122.5t59 109.5t65.5 88.5t65 59t59 21.5z M561 335l6 8h51q19 37 35.5 73t33.5 71q-37 -19 -81 -31t-95 -14q8 -16 15 -34.5t7 -38.5q0 -50 -23 -100.5t-62 -91.5t-90 -67t-106 -26q-19 0 -36.5 5.5t-30.5 17.5t-20.5 30.5t-7.5 45.5q0 45 23 83t57.5 65t73.5 40t72 7l-3 -8q-31 6 -68.5 -6.5t-70 -38t-54.5 -62.5 t-22 -80q0 -49 26 -70t61 -21q53 0 101.5 25.5t85 65t58 89t21.5 97.5q0 42 -16 73h-4q-24 0 -47.5 4.5t-45.5 14.5t-39.5 24.5t-29.5 34.5q-59 -3 -118.5 -29.5t-108 -71.5t-79 -105t-30.5 -130q0 -53 18.5 -93.5t51 -68.5t75 -42.5t90.5 -14.5q64 0 118.5 31.5t101 83.5 t85.5 118.5t74 136.5h-53zM850 684q0 14 -12 14q-14 0 -29 -13.5t-31 -37.5q-15 -25 -28.5 -58t-26.5 -71q31 21 54.5 44.5t39.5 46t24.5 42.5t8.5 33zM345 520q22 -35 65 -52.5t88 -17.5q-20 34 -58.5 52t-92.5 18h-2z"/>
<glyph horiz-adv-x="904" glyph-name="afii10049" unicode="" d="M730 356q-47 -2 -83 -22.5t-64.5 -51.5t-51 -67.5t-42.5 -71.5q-19 -33 -46.5 -61.5t-61.5 -50t-73.5 -35.5t-82.5 -17h-27q-50 0 -94 15t-77 44t-52.5 71t-19.5 97q0 71 30.5 132.5t79.5 107.5t109.5 73.5t120.5 30.5q60 0 102 -20t62 -58q15 -32 15 -73 q0 -50 -22 -100.5t-59.5 -91.5t-87.5 -67t-105 -26q-19 0 -36.5 5.5t-30.5 17.5t-20.5 30.5t-7.5 45.5q0 45 23 83t57.5 65t73.5 40t72 7l-3 -8q-31 6 -68.5 -6.5t-70 -38t-54.5 -62.5t-22 -80q0 -49 26 -70t61 -21q53 0 101.5 25.5t85 65t58 89t21.5 97.5q0 42 -16 73 q-21 34 -59.5 52t-92.5 18q-59 -3 -118.5 -29.5t-107.5 -71.5t-78.5 -105t-30.5 -130q0 -53 19 -93.5t51 -69t75 -43t91 -14.5h6q57 2 95 27t68 62.5t57.5 82t63.5 85.5t86 72.5t124 44.5q-34 9 -65 29t-49 49t-21.5 65.5t11.5 78.5q14 42 42.5 70.5t64.5 47t78 26.5t83 9 q35 0 71.5 -9t67.5 -27q27 23 54.5 31.5t65.5 5.5l-3 -12q-9 4 -19 4q-27 3 -49.5 -6.5t-40.5 -27.5q25 -17 45 -39t33 -51q13 -25 16 -61t-7 -69t-33 -54.5t-61 -17.5q-12 2 -22.5 11t-17.5 21.5t-8.5 27.5t4.5 30q1 5 4 2.5t5 -0.5q-6 -21 -4 -36t8.5 -25t17 -15.5 t20.5 -6.5q31 -1 50.5 18t28.5 48.5t6 63.5t-19 62q-12 27 -31 48t-43 35q-24 -24 -42.5 -60t-34.5 -79t-31 -88.5t-31 -89.5q-18 -50 -45.5 -108t-62 -109.5t-75 -89.5t-83.5 -50q20 -11 44.5 -16.5t49.5 -6.5q35 -3 68.5 4.5t58.5 26.5l6 -8q-24 -18 -59 -26.5t-75 -5.5 q-24 2 -47 8t-45 16l-30 -9t-25 -2q-28 2 -27 14q2 9 14.5 15t29.5 4q5 0 12.5 -1.5t12.5 -5.5q39 11 71 49q41 52 73.5 127.5t65.5 157.5q-11 -1 -20.5 0t-24.5 3zM842 725q-62 -2 -114 -34t-81 -105q-16 -37 -19.5 -75t6 -69.5t34.5 -53t65 -25.5q1 0 2.5 0.5t3.5 0.5 l-1 -1q16 -2 42 1q17 44 36 88.5t41.5 85.5t48 76.5t55.5 65.5q3 3 6 6.5t7 5.5q-32 18 -66 26t-66 7z"/>
<glyph horiz-adv-x="346" glyph-name="afii10065" unicode="" d="M179 0q13 0 32 12t41 35.5t46 57t48 77.5l7 -4q-49 -88 -97 -137t-77 -49q-32 0 -38 32.5t8 80.5q-38 -57 -73.5 -85t-58.5 -28t-35 18.5t-12 50.5t13 75t39 91t56.5 82.5t59 56.5t53 32t39.5 10q23 0 30.5 -17t4.5 -41l25 50h63l-128 -244q-18 -34 -31.5 -62.5 t-20 -49.5t-5.5 -32.5t11 -11.5zM17 0q23 0 63 34t82 106l7 17q5 12 14 30t20 39.5t23 45.5l24 48q10 30 7 55t-27 25q-13 0 -32.5 -21t-40 -51t-40.5 -63t-33 -57q-13 -23 -29.5 -58.5t-28.5 -68.5t-16 -57t7 -24z"/>
<glyph horiz-adv-x="288" glyph-name="afii10066" unicode="" d="M258 617q-29 -8 -35 -21.5t-1 -38.5q3 -9 8 -26.5t10.5 -40t10 -48.5t6.5 -52q4 -39 -3.5 -78.5t-22 -77t-34.5 -73t-41 -67.5q-23 -35 -47 -60t-46 -36q18 2 48.5 16.5t64.5 38.5t66 57t53 72l7 -4q-24 -43 -58.5 -78.5t-71.5 -60t-71 -37t-56 -10.5q-3 -1 -9 -1 q-17 0 -28.5 7t-19 18.5t-10.5 25t-3 27.5q0 35 11 73.5t30 76t44 72t52.5 60.5t55.5 41.5t53 15.5q6 0 13.5 -3.5t13.5 -11.5q-2 35 -9 64.5t-14.5 54.5t-13 47.5t-4.5 43.5q0 10 3 22t10.5 24t20.5 22.5t34 16.5q26 7 55 8.5t57.5 1.5t54 1t45 7.5t31 21t11.5 41.5l9 -1 q-2 -35 -13 -59.5t-29 -41t-42.5 -26.5t-51.5 -14q-18 -3 -37 -3.5l-38 -1t-37 -1t-32 -3.5v-1zM153 104q27 46 45 81t29 66t16 60t6 63q-3 17 -12 21.5t-16 4.5q-6 0 -19 -8.5t-32 -32.5q-20 -25 -46 -69t-49.5 -92t-39.5 -93.5t-16 -73.5q0 -32 17 -32q26 0 56 30t61 75z "/>
<glyph horiz-adv-x="287" glyph-name="afii10067" unicode="" d="M186 313q22 0 34.5 -17t11 -48t-19 -75t-55.5 -98q38 0 73.5 24t65.5 81l7 -4q-32 -57 -68.5 -83t-74.5 -26l-9 1q-42 -45 -78.5 -60t-55.5 -15h-7q-12 2 -16 7q-12 9 -18.5 27t-7 42.5t6 53t20.5 58.5q9 23 27 67t43 95.5t56 105t65.5 97t71 71t73.5 27.5 q25 0 33.5 -20.5t4.5 -49.5q-4 -31 -21.5 -65t-44.5 -67.5t-60.5 -66.5t-67.5 -63q4 1 11 1zM79 246q46 34 90.5 73t80 82t59.5 89.5t30 94.5q2 20 -1 33.5t-16 15.5q-18 2 -36.5 -12t-36.5 -37.5t-35 -53.5t-32.5 -61t-28.5 -60t-23 -49q-14 -30 -27 -59t-24 -56zM108 95 q26 41 47.5 79t34 67t12.5 46.5t-16 17.5q-15 0 -30 -9q-5 -5 -10 -8.5t-10 -8.5q-17 -18 -30.5 -43.5t-19 -52.5t-1 -51t22.5 -37zM103 87q-17 16 -23 37t-4.5 44t10.5 46t22 43q-9 -7 -17.5 -13t-16.5 -12l-24 -52q-25 -54 -37.5 -89t-15.5 -55t2.5 -28t17.5 -8 q19 0 42 25t44 62z"/>
<glyph horiz-adv-x="279" glyph-name="afii10068" unicode="" d="M91 0q18 -1 43.5 15.5t52 43.5t51.5 61t44 68l6 -4q-20 -36 -44 -68t-47.5 -56.5t-45.5 -41t-38 -21.5q-22 -7 -40 -4t-26 15q-14 19 -14 42.5t10.5 48.5t28 51.5t37 52.5t39.5 51t35 46q16 23 25 42.5t10.5 33t-5.5 20t-23 4.5q-17 -2 -39 -21.5t-46.5 -51t-50.5 -71 t-51 -82.5l-6 4q9 15 23 38t30.5 48.5t35 51t37.5 46t36.5 33.5t33.5 13q26 0 38.5 -13t15 -32.5t-3.5 -43.5t-18 -45q-17 -30 -35.5 -56t-38 -50.5t-37.5 -49t-33 -50.5q-8 -14 -11 -27t-2 -22t6.5 -14.5t16.5 -4.5z"/>
<glyph horiz-adv-x="326" glyph-name="afii10069" unicode="" d="M94 3l42 85q-35 -49 -67 -72.5t-53 -23.5q-23 0 -35 18.5t-12 50.5t13 75t39 91t56.5 82.5t59 56.5t53 32t39.5 10q23 0 30.5 -16.5t4.5 -39.5l24 48h65l-204 -386q23 14 49 33t50.5 42t46 48t35.5 51l6 -4q-14 -27 -37.5 -54.5t-50.5 -51.5t-54.5 -44t-51.5 -33 l-56 -107q-15 -28 -35.5 -59t-42.5 -58.5t-43 -48t-37 -26.5l-10 -2q-7 0 -14.5 6.5t-7.5 22.5q0 28 14 59.5t39 64t58.5 66t73.5 65.5l2 -1zM249 321q10 30 6.5 54.5t-26.5 24.5q-13 0 -32.5 -21t-40.5 -51t-40.5 -63t-32.5 -57q-13 -23 -29.5 -58.5t-28.5 -68.5t-16 -57 t7 -24q25 0 67 38t87 119zM-96 -271q0 -12 4.5 -16.5t9.5 -4.5h1q9 0 19.5 10t25 33t34 60.5t47.5 93.5l34 68q-35 -27 -66.5 -59t-55.5 -64.5t-38.5 -64t-14.5 -56.5z"/>
<glyph horiz-adv-x="273" glyph-name="afii10070" unicode="" d="M280 178q-23 -40 -49.5 -74t-54 -59t-55 -39t-54.5 -14q-32 0 -52.5 18.5t-28 51t0 75.5t33.5 91q19 36 44.5 68.5t54 57.5t59 39.5t59.5 14.5h3q5 -1 12.5 -3.5t14.5 -9t10.5 -17.5t1.5 -29q-4 -28 -23.5 -56t-48 -50.5t-63.5 -37t-70 -15.5q-41 -89 -43.5 -139.5 t36.5 -50.5q25 0 52 13.5t53.5 37.5t52 57.5t48.5 73.5zM246 352q1 7 2 15.5t0.5 15.5t-3 12t-9.5 5q-14 0 -33 -17t-40.5 -44t-43 -62t-38.5 -71l-2 -5q28 3 55.5 17.5t50.5 35.5t39 47t22 51z"/>
<glyph horiz-adv-x="627" glyph-name="afii10072" unicode="" d="M431 400l-78 -178h54q11 23 23.5 42.5t25.5 36.5q33 44 66.5 68.5t61.5 33.5q18 5 29 5q23 -1 33 -14t8.5 -30.5t-12 -35t-27.5 -26.5q-8 -5 -17 0t-9 16q0 9 5 13.5t12 4.5t12.5 -5.5t5.5 -11.5q20 17 22.5 37t-2.5 28q-1 7 -6.5 10t-13.5 2.5t-17 -4t-16 -8.5 q-20 -15 -41 -44t-44 -68q-9 -15 -23 -41t-27.5 -56.5t-24.5 -62t-13.5 -57t6.5 -41t34 -13.5q17 6 38.5 19t44.5 34t45 50.5t41 67.5l6 -4q-42 -82 -89.5 -123.5t-83.5 -52.5q-11 -4 -26.5 0.5t-23.5 9.5q-14 10 -22.5 27t-11.5 40q-4 31 3 68t24 75q0 1 1 2h-54l-97 -222 h-59l96 222h-53q-3 -8 -6 -15l-6 -14q-20 -43 -43.5 -76t-48.5 -56.5t-48.5 -38t-43.5 -20.5q-18 -5 -29 -5q-23 1 -33 14t-8.5 30.5t12 35t27.5 26.5q8 5 17 0t9 -16q0 -9 -5 -13.5t-12 -4.5t-12.5 5.5t-5.5 11.5q-21 -17 -23 -36t3 -27q1 -8 6.5 -11t13.5 -3t17 3.5 t16 8.5q31 23 60 62.5t51.5 86t37.5 95t20 88.5q2 23 0 38t-13 15q-28 0 -77.5 -57t-106.5 -165l-6 4q26 51 53 92.5t52 71t46.5 46t36.5 16.5q29 0 45 -20.5t20 -52.5q5 -52 -14 -111h54l77 178h61z"/>
<glyph horiz-adv-x="291" glyph-name="afii10073" unicode="" d="M187 256q9 18 16 42t11 46t4.5 38t-4.5 19q-24 10 -51.5 -8.5t-55 -53t-54 -79t-48.5 -87.5l-7 4q16 27 38.5 67.5t48.5 78t56 63.5t63 25q24 -2 38.5 -14t22.5 -29q8 -38 -2.5 -81.5t-34.5 -83.5q-29 -48 -71.5 -90t-85.5 -70q13 -9 21.5 -23t10.5 -35q39 27 66.5 49.5 t48.5 45t38 46.5t37 56l7 -4q-20 -32 -37.5 -57t-39.5 -48t-50.5 -46t-69.5 -51v-1q0 -32 -13 -65t-33.5 -63.5t-46.5 -57.5t-53 -46.5t-52 -31t-43 -11.5q-25 0 -25 29q0 9 7 28t28 46t59 61t100 74l22 14q1 3 3 12.5t3.5 21.5t1 24.5t-4.5 22.5q-53 -32 -92 -35 q-13 1 -15 10.5t6 20.5t26.5 20t46.5 9l7 -1q10 -2 21 -6q20 18 39 41.5t36 50.5t31 56t25 57zM-138 -292q18 0 44 20.5t53 53.5t51.5 74.5t38.5 83.5l-14 -9q-61 -39 -98 -72.5t-57.5 -59.5t-27.5 -44t-7 -26q0 -21 17 -21zM25 28q5 3 10.5 7t11.5 9q-5 4 -11 5l-9 1 q-25 0 -40.5 -6.5t-22.5 -14.5t-6.5 -15t6.5 -8h11.5t10.5 2t15 6.5t24 13.5z"/>
<glyph horiz-adv-x="324" glyph-name="afii10074" unicode="" d="M157 0q13 0 32 12t41 35.5t46 57t48 77.5l7 -4q-49 -88 -97 -137t-77 -49q-17 0 -26.5 10t-12 27t0.5 39.5t12 48.5q-40 -60 -77 -92.5t-60 -32.5q-20 0 -29.5 14t-10 37t7 52.5t22.5 61.5q8 17 23 47t32.5 64.5t35 69.5t30.5 62h63l-128 -244q-18 -34 -31.5 -62.5 t-20 -49.5t-5.5 -32.5t11 -11.5q25 0 67 41t87 118q8 18 23 48t32.5 64t34.5 68.5t30 60.5h63l-128 -244q-18 -34 -31.5 -62.5t-20 -49.5t-5.5 -32.5t11 -11.5z"/>
<glyph horiz-adv-x="324" glyph-name="afii10075" unicode="" d="M157 0q13 0 32 12t41 35.5t46 57t48 77.5l7 -4q-49 -88 -97 -137t-77 -49q-17 0 -26.5 10t-12 27t0.5 39.5t12 48.5q-40 -60 -77 -92.5t-60 -32.5q-20 0 -29.5 14t-10 37t7 52.5t22.5 61.5q8 17 23 47t32.5 64.5t35 69.5t30.5 62h63l-128 -244q-18 -34 -31.5 -62.5 t-20 -49.5t-5.5 -32.5t11 -11.5q25 0 67 41t87 118q8 18 23 48t32.5 64t34.5 68.5t30 60.5h63l-128 -244q-18 -34 -31.5 -62.5t-20 -49.5t-5.5 -32.5t11 -11.5zM384 605q-11 -33 -29.5 -55t-42 -34t-49.5 -12.5t-53 10.5q-26 14 -38 37t3 46q12 18 30 21t32 -4t18.5 -20.5 t-9.5 -28.5l-11 -11t-9.5 -12t-2 -12.5t11.5 -11.5q18 -8 38.5 -4.5t39.5 15.5t35 31.5t25 44.5h11z"/>
<glyph horiz-adv-x="331" glyph-name="afii10076" unicode="" d="M176 400l-215 -408h-59l213 408h61zM280 362q-19 -3 -32 -23t-26.5 -45.5t-31 -50.5t-44.5 -37q32 -10 42 -33q9 -25 -1 -57t-24 -64q-6 -14 -9.5 -22.5t-3.5 -13.5q0 -8 7.5 -12t18.5 -4q26 0 66.5 47t88.5 135l7 -4q-49 -88 -91 -137t-71 -49q-45 -2 -62 12t-16 37 q1 18 14.5 49t30.5 66q6 16 6 26t-5 15.5t-13 7t-18 0.5h-34l3 7h48q2 -1 5 -1t5 -1q31 16 48.5 44t32.5 56.5t32.5 52.5t48.5 33q8 1 17 1.5t16.5 -2t13.5 -8.5t9 -18q4 -17 -3 -28t-17 -15.5t-20 -1t-12 15.5q-2 10 -8.5 18t-17.5 4z"/>
<glyph horiz-adv-x="346" glyph-name="afii10077" unicode="" d="M357 410l-130 -254q-26 -49 -42 -86t-16 -55q0 -15 12 -15q13 0 32 12t41 35.5t46 57t48 77.5l7 -4q-24 -44 -49 -78.5t-48 -58.5t-42.5 -36.5t-34.5 -12.5q-21 0 -30.5 15t-9.5 39q0 25 12 60t31.5 78.5t45.5 94t54 107.5q-14 -17 -32 -43.5t-38 -58.5t-41.5 -67 t-42.5 -68q-19 -30 -35 -56.5t-32 -46.5t-31.5 -33t-33.5 -15q-25 -4 -39.5 7.5t-20 30.5t-3.5 41.5t11 39.5q11 21 27.5 37t36.5 21q19 6 28 -5t7.5 -25.5t-12.5 -26t-32 -6.5q-35 13 -49 -9q-10 -14 -11 -33.5t5.5 -35.5t20.5 -25t34 -3q31 11 60 52.5t63 94.5 q24 37 48.5 76.5t47 75t42 63.5t33.5 42q1 0 1 1z"/>
<glyph horiz-adv-x="502" glyph-name="afii10078" unicode="" d="M297 410l64 -1q-41 -80 -70.5 -138.5t-50 -100.5t-33.5 -69.5t-21 -45.5t-12 -29t-7 -19q5 -6 22.5 14.5t42 56.5t54 82.5t58.5 92.5t55 86.5t45 64.5h63l-125 -244q-18 -34 -31 -62.5t-19.5 -49.5t-5.5 -32.5t12 -11.5q13 0 32 12t40.5 35.5t45.5 57t47 77.5l7 -4 q-24 -44 -48.5 -78.5t-47 -58.5t-42 -36.5t-34.5 -12.5q-20 0 -30 14t-10.5 37t6.5 52.5t22 61.5q6 13 16.5 35.5t23.5 48.5t27 54.5t27 55.5q-22 -33 -51 -79t-60 -94.5t-60.5 -93t-52.5 -73.5q-9 -12 -20 -16.5t-20 -2.5t-15 10.5t-6 23.5q0 30 12.5 68t33 83t47.5 96.5 t57 108.5q-14 -17 -32 -43.5t-38 -58.5t-41.5 -67t-42.5 -68q-19 -30 -35 -56.5t-32 -46.5t-31.5 -33t-33.5 -15q-25 -4 -39.5 7.5t-20 30.5t-3.5 41.5t11 39.5q11 21 27.5 37t36.5 21q19 6 28 -5t7.5 -25.5t-12.5 -26t-32 -6.5q-35 13 -49 -9q-10 -14 -11 -33.5t5.5 -35.5 t20.5 -25t34 -3q31 11 60 52.5t63 94.5q24 37 48.5 76.5t47 75t42 63.5t33.5 42h1z"/>
<glyph horiz-adv-x="327" glyph-name="afii10079" unicode="" d="M242 239q-16 -30 -33 -61t-31.5 -59.5t-24 -53t-9.5 -40.5q0 -14 6 -19.5t14 -5.5q13 0 32 12t41 35.5t46 57t48 77.5l7 -4q-24 -44 -49 -78.5t-48 -58.5t-42.5 -36.5t-34.5 -12.5q-30 0 -42 19t-12 46q0 26 13.5 61t45.5 96h-91l-117 -222h-59l213 408h61l-94 -178h91 q5 10 10.5 20.5t11.5 21.5q15 29 33 62.5t40 73.5h60z"/>
<glyph horiz-adv-x="298" glyph-name="afii10080" unicode="" d="M305 178q-12 -22 -25 -42t-26.5 -35.5t-28 -25t-29.5 -9.5q-28 0 -40 28q-31 -45 -62 -74t-58 -29q-17 0 -28.5 7t-19 18.5t-10.5 25t-3 27.5q0 35 11 73.5t30 76t44 72t52.5 60.5t55.5 41.5t53 15.5q10 0 23.5 -9.5t13.5 -38.5q0 -30 -8 -63.5t-21 -67.5t-30.5 -66.5 t-36.5 -60.5q7 -28 34 -28q13 0 26.5 9t26 24t25 34.5t24.5 40.5zM36 -1q26 0 56 30t61 75q0 4 -0.5 8t-0.5 9q0 20 6.5 40.5t17 37.5t23.5 29t25 15q11 31 18.5 60.5t7.5 56.5q0 26 -10.5 33t-18.5 7q-6 0 -19 -8.5t-32 -32.5q-20 -25 -46 -69t-49.5 -92t-39.5 -93.5 t-16 -73.5q0 -32 17 -32z"/>
<glyph horiz-adv-x="331" glyph-name="afii10081" unicode="" d="M338 178q-49 -88 -97 -137t-77 -49q-30 0 -42 19t-12 46q0 25 9 53.5t23 58.5t31 59.5t32 56.5t27 48.5t16 35.5q3 10 4 20.5t-10 10.5q-8 0 -21.5 -6.5t-32.5 -22.5t-41 -43.5t-46 -68.5l-143 -267h-56l213 408h61l-39 -73q36 46 63.5 63.5t41.5 17.5q27 0 35.5 -16 t8.5 -36q0 -19 -10.5 -46.5t-26.5 -58.5t-34 -64t-34 -63t-26.5 -56t-10.5 -43q0 -14 6 -19.5t14 -5.5q13 0 32 12t41 35.5t46 57t48 77.5z"/>
<glyph horiz-adv-x="310" glyph-name="afii10082" unicode="" d="M238 406q20 -1 35 -14.5t15 -48.5q0 -29 -10.5 -66t-29 -76t-43.5 -77t-54 -67.5t-61 -47.5q-15 -9 -30 -13q33 -3 68 9.5t68.5 37t63 60t51.5 79.5l7 -4q-23 -44 -53.5 -81t-66 -62t-75.5 -37t-82 -6q-7 -1 -13 -1q-22 0 -32 17.5t-2 52.5l-194 -364h-57l371 703h61 l-30 -56q22 26 45.5 44t45.5 18h2zM27 1q12 0 33.5 23.5t46 59.5t49.5 80t45.5 86t33.5 76t13 50q0 20 -12 20q-15 0 -32 -10t-33 -26t-31.5 -36.5t-27.5 -42.5l-93 -174q-20 -49 -17.5 -77.5t25.5 -28.5z"/>
<glyph horiz-adv-x="256" glyph-name="afii10083" unicode="" d="M263 178q-28 -50 -57 -85.5t-56 -58t-50.5 -33t-40.5 -10.5q-31 0 -49 19.5t-24 51t1 71t25 79.5q24 52 52.5 89t57.5 61t55.5 35t44.5 11q28 0 40.5 -13.5t12 -32.5t-13 -40t-34.5 -35q-4 -2 -8 -2q-8 0 -14 5t-6 14t5.5 14t12.5 5q14 0 16 -12q17 11 26 28.5t7 32.5 q-2 12 -12 19t-19 7q-18 0 -37.5 -15.5t-40 -43t-41.5 -65t-43 -80.5q-14 -27 -25 -60.5t-15.5 -63.5t1 -50.5t25.5 -20.5q16 0 38.5 10t49 32t54.5 56.5t55 84.5z"/>
<glyph horiz-adv-x="460" glyph-name="afii10084" unicode="" d="M468 178q-45 -81 -89.5 -129t-74.5 -56v-1h-6q-3 0 -4 1q-24 3 -34 21t-10 43t9 53.5t23 58.5t31 59.5t32 56.5t27 48.5t16 35.5q3 10 4 20.5t-10 10.5q-8 0 -22.5 -7t-33.5 -23.5t-41.5 -45.5t-47.5 -72q-18 -35 -41.5 -80t-43.5 -85q-24 -47 -48 -95h-58l159 307 q10 19 19 37t13.5 32t4 23t-10.5 9q-11 0 -24.5 -7.5t-30.5 -25.5t-38.5 -48.5t-47.5 -76.5l-134 -250h-56l213 408h61l-37 -68q32 43 55 59.5t40 16.5q19 0 29 -9t13.5 -23t1 -30.5t-8.5 -31.5q39 53 70 73.5t45 20.5q27 0 35.5 -16t8.5 -36q0 -19 -10.5 -46.5t-26.5 -58.5 t-34 -64t-34 -63t-26.5 -56t-10.5 -43q0 -11 4.5 -17t10.5 -8q28 5 72 52t90 130z"/>
<glyph horiz-adv-x="291" glyph-name="afii10085" unicode="" d="M335 400l-199 -377q21 14 42.5 32.5t42.5 40t39 45t31 47.5l6 -4q-13 -26 -33 -51t-42.5 -47.5t-46.5 -42t-46 -33.5l-61 -116q-15 -28 -35.5 -59t-42.5 -58.5t-43 -48t-37 -26.5l-10 -2q-7 0 -14.5 6.5t-7.5 22.5q0 29 16.5 62t44 68t63 70t73.5 68l55 114 q-39 -57 -74.5 -88t-58.5 -31q-20 0 -29.5 14t-10.5 37t7 52.5t23 61.5q8 17 23 47t32.5 64.5t35 69.5t30.5 62h63l-128 -244q-18 -34 -31.5 -62.5t-20 -49.5t-6 -32.5t11.5 -11.5q13 0 32 12t41 35.5t46 57t48 77.5q19 40 36 76t31 64.5t24 48.5t15 29h65zM65 -22 q-35 -32 -67.5 -65t-57.5 -65t-39.5 -62t-14.5 -57q0 -12 4.5 -16.5t9.5 -4.5h1q9 0 19.5 10t25 33t34 60.5t47.5 93.5z"/>
<glyph horiz-adv-x="479" glyph-name="afii10086" unicode="" d="M-23 -303h-57l190 360q-29 -33 -54 -49t-42 -16q-23 0 -35 18.5t-12 50.5t13 75t39 91t56.5 82.5t59 56.5t53 32t39.5 10q24 0 31.5 -19.5t2.5 -45.5l156 292h61l-158 -293q29 33 54 49t42 16q23 0 35 -18.5t12 -50.5t-13 -75t-39 -91q-22 -40 -46.5 -70.5t-48.5 -52 t-46.5 -34.5t-40.5 -19q33 -3 68 9.5t68.5 37t63 60t51.5 79.5l7 -4q-23 -44 -53.5 -81t-66 -62t-75.5 -37t-82 -6q-2 -1 -7 -1q-24 0 -31.5 19.5t-2.5 45.5zM14 0q20 0 50.5 22.5t65.5 73.5l113 214q6 16 9.5 32t2 29t-8 21t-19.5 8t-32.5 -21t-40.5 -51t-40.5 -63 t-32.5 -57q-13 -23 -29.5 -58.5t-28.5 -68.5t-16 -57t7 -24zM416 399q-20 0 -50.5 -22.5t-65.5 -73.5l-113 -214q-6 -16 -9.5 -32t-2 -29t7.5 -21t20 -8q13 0 32.5 21t40.5 51t40.5 63t32.5 57q13 23 29.5 58.5t28.5 68.5t16 57t-7 24z"/>
<glyph horiz-adv-x="359" glyph-name="afii10087" unicode="" d="M355 415q32 0 35 -29h-8q-3 21 -27 21q-16 0 -33 -12.5t-35.5 -34.5t-38 -50.5t-39.5 -60.5q-11 -42 -23 -86t-17.5 -80t-1 -59.5t27.5 -23.5q19 0 43 21.5t47 50.5t43 60t31 50l7 -4q-11 -19 -31.5 -50.5t-44.5 -61.5t-49 -52t-46 -22q-28 -1 -48.5 21.5t-20.5 76.5 q0 13 3 33q-37 -55 -73 -93t-70 -38q-17 0 -27 11t-6 31l8 -2q-6 -32 25 -32q16 0 34 11.5t36.5 31t37.5 45.5t38 55q5 28 13 61t15.5 64.5t13 58.5t5.5 44q0 14 -8.5 20.5t-26.5 -4.5q-18 -12 -35 -35t-33.5 -51.5t-33.5 -60.5t-35 -62l-7 4q15 27 31.5 57.5t34 59.5 t34.5 53t34 38q11 8 22.5 13t23.5 5q32 0 42 -28.5t2 -70.5l-8 -35q18 30 36.5 55.5t36 44.5t34.5 30t32 11z"/>
<glyph horiz-adv-x="324" glyph-name="afii10088" unicode="" d="M157 0q13 0 32 12t41 35.5t46 57t48 77.5l7 -4q-42 -73 -82 -121q-7 -18 -17 -48.5t-26.5 -61t-40 -53.5t-57.5 -25q-14 -1 -26 4t-24 11t-24.5 10.5t-27.5 2.5q-12 -6 -20.5 -22t-13.5 -39h-5q5 22 13.5 42t16.5 32q20 30 37.5 35t38.5 -2q13 -4 28 -11t30.5 -10t31 1 t29.5 21q7 9 13.5 21.5t12.5 26.5t11 28t9 25q-24 -26 -45 -39.5t-36 -13.5q-17 0 -26.5 10t-12.5 27t0.5 39.5t12.5 48.5q-40 -60 -77 -92.5t-60 -32.5q-20 0 -29.5 14t-10.5 37t7 52.5t23 61.5q8 17 23 47t32.5 64.5t35 69.5t30.5 62h63l-128 -244q-18 -34 -31.5 -62.5 t-20 -49.5t-6 -32.5t11.5 -11.5q25 0 67 40.5t87 118.5q8 18 22.5 48t32 64t35 68.5t30.5 60.5h63l-128 -244q-18 -34 -31.5 -62.5t-20 -49.5t-6 -32.5t11.5 -11.5z"/>
<glyph horiz-adv-x="272" glyph-name="afii10089" unicode="" d="M280 178q-48 -89 -86.5 -137.5t-67.5 -48.5q-18 0 -29.5 8t-18 19.5t-8.5 24t-2 21.5q0 22 8.5 50t21.5 58t28 60t28 55.5t21.5 45.5t8.5 30q0 2 0.5 7t-1 10.5t-6 11t-14.5 10.5q-9 5 -17.5 9t-16.5 10q-21 -48 -49.5 -105.5t-72.5 -138.5l-7 4q45 82 74 140t49 106 q-13 13 -13 34q0 12 3 25.5t7.5 25t10.5 19t13 7.5q6 0 10.5 -4.5t4.5 -17.5q0 -15 -7 -37t-19 -50q12 -10 29 -17t32.5 -15t26 -20t10.5 -32q0 -18 -9 -43.5t-23 -55t-29.5 -61.5t-29.5 -61.5t-23 -56t-9 -45.5q0 -5 2 -13.5t12 -9.5h4q26 0 62.5 47t84.5 135z"/>
<glyph horiz-adv-x="485" glyph-name="afii10090" unicode="" d="M127 115q-40 -60 -76 -91.5t-59 -31.5q-20 0 -29.5 14t-10.5 37t7 52.5t23 61.5q8 17 23 47t32.5 64.5t35 69.5t30.5 62h63l-128 -244q-18 -34 -31.5 -62.5t-20 -49.5t-6 -32.5t11.5 -11.5q25 0 67 40.5t87 118.5q8 18 22.5 48t32 64t35 68.5t30.5 60.5h63l-128 -244 q-18 -34 -31.5 -62.5t-20 -49.5t-6 -32.5t11.5 -11.5q25 0 67 40.5t87 118.5q8 18 22.5 48t32 64t35 68.5t30.5 60.5h63l-128 -244q-18 -34 -31.5 -62.5t-20 -49.5t-6 -32.5t11.5 -11.5q13 0 32 12t41 35.5t46 57t48 77.5l7 -4q-24 -44 -49 -78.5t-48 -58.5t-42.5 -36.5 t-34.5 -12.5q-17 0 -26.5 10t-12.5 27t0.5 39.5t12.5 48.5q-40 -60 -77 -92.5t-60 -32.5q-16 0 -25.5 10t-12.5 27t-0.5 39.5t10.5 46.5z"/>
<glyph horiz-adv-x="485" glyph-name="afii10091" unicode="" d="M318 -8q-17 0 -26.5 10t-12.5 27t0.5 39.5t12.5 48.5q-40 -60 -77 -92.5t-60 -32.5q-16 0 -25.5 10t-12.5 27t-0.5 39.5t10.5 46.5q-40 -60 -76 -91.5t-59 -31.5q-20 0 -29.5 14t-10.5 37t7 52.5t23 61.5q8 17 23 47t32.5 64.5t35 69.5t30.5 62h63l-128 -244 q-18 -34 -31.5 -62.5t-20 -49.5t-6 -32.5t11.5 -11.5q25 0 67 40.5t87 118.5q8 18 22.5 48t32 64t35 68.5t30.5 60.5h63l-128 -244q-18 -34 -31.5 -62.5t-20 -49.5t-6 -32.5t11.5 -11.5q25 0 67 40.5t87 118.5q8 18 22.5 48t32 64t35 68.5t30.5 60.5h63l-128 -244 q-18 -34 -31.5 -62.5t-20 -49.5t-6 -32.5t11.5 -11.5q13 0 32 12t41 35.5t46 57t48 77.5l7 -4q-42 -73 -82 -121q-7 -18 -17 -48.5t-26.5 -61t-40 -53.5t-57.5 -25q-14 -1 -26 4t-24 11t-24.5 10.5t-27.5 2.5q-12 -6 -20.5 -22t-13.5 -39h-5q5 22 13.5 42t16.5 32 q20 30 37.5 35t38.5 -2q13 -4 28 -11t30.5 -10t31 1t29.5 21q7 9 13.5 21.5t12.5 26.5t11 28t9 25q-24 -26 -45 -39.5t-36 -13.5z"/>
<glyph horiz-adv-x="399" glyph-name="afii10092" unicode="" d="M263 233q16 1 30 -9t21.5 -28t7 -43t-13.5 -56q-6 -14 -15 -28q13 3 28 12.5t29 23.5t27 32.5t23 38.5l7 -5q-11 -21 -25.5 -41t-31 -35.5t-33 -25t-31.5 -10.5q-25 -32 -61 -53.5t-74 -19.5q-25 0 -44.5 9t-31 24.5t-15 35.5t2.5 43q11 39 35 67.5t53.5 52.5t59.5 45 t53 45q-13 -13 -35 -23t-43.5 -13t-38 4t-17.5 28q-1 17 3 32t8.5 26t6.5 17.5t-4 6.5h-3q-10 -3 -25 -21t-33 -46t-37.5 -64.5t-38.5 -76.5l-7 4q17 33 34 65.5t33.5 61t33.5 51t35 36.5q12 6 26 6q40 1 42 -36q1 -13 -3 -27t-7 -25t-1.5 -18t13.5 -7q22 1 57 25t80 87 l7 -6q-18 -27 -43 -53.5t-50 -52.5q-44 -45 -80.5 -92t-53.5 -90q-6 -14 -9.5 -32.5t-1.5 -36t11 -30.5t28 -14q21 -2 43 18.5t41 50.5q-11 3 -20 8q-25 18 -29.5 45t5.5 52.5t29.5 44.5t42.5 20zM263 224q-23 -1 -40.5 -19.5t-25.5 -42.5t-3 -48.5t28 -38.5q6 -4 16 -6 q15 25 26 53t15 51t0.5 37.5t-16.5 13.5z"/>
<glyph horiz-adv-x="443" glyph-name="afii10093" unicode="" d="M322 155q-18 -34 -31.5 -62.5t-20 -49.5t-5.5 -32.5t11 -11.5q13 0 32 12t41 35.5t46 57t48 77.5l7 -4q-49 -88 -97 -137t-77 -49q-20 0 -29.5 14t-10 37t7 52.5t22.5 61.5q8 17 23 47q8 16 17 35q-20 -21 -41 -36t-41 -26q-1 -14 -4 -29t-11 -32q-23 -54 -72.5 -88.5 t-110.5 -32.5q-26 2 -40 16.5t-18 36.5t1.5 50.5t20.5 59.5q8 17 23 47t32.5 64.5t35 69.5t30.5 62h63l-128 -244q-10 -20 -21 -45.5t-16.5 -49t-2 -40.5t22.5 -18q22 -1 42 10.5t36.5 30.5t29.5 43.5t22 48.5q2 4 3 8.5t3 9.5q-20 -2 -35 4t-22 18t-5.5 29t15.5 36 q7 10 18.5 16t24 6.5t25 -5t21.5 -18.5q8 -10 12.5 -24t4.5 -31q24 14 51 35t49 53l32 64q18 35 31 62h63zM181 227q1 14 -5 20.5t-15 7.5t-19.5 -4t-17.5 -15q-12 -16 -13 -30.5t5.5 -25t19.5 -16t31 -2.5q6 19 9.5 36.5t4.5 28.5z"/>
<glyph horiz-adv-x="296" glyph-name="afii10094" unicode="" d="M120 237q18 23 43 26t44 -23q14 -19 17 -51t-15 -74q-9 -21 -20 -35q5 0 13 3q26 11 49.5 34t44.5 63l7 -4q-23 -41 -48 -65t-51 -35q-9 -4 -20 -4q-28 -36 -69 -58t-89 -20q-26 2 -40 16.5t-18 36.5t1.5 50.5t20.5 59.5q8 17 23 47t32.5 64.5t35 69.5t30.5 62h63 l-128 -244q-10 -20 -21 -45.5t-16.5 -49t-2 -40.5t22.5 -18q16 -1 31 5t28.5 17t25 26t20.5 32l-2 2q-21 14 -30 34t-9.5 41t7 41.5t20.5 35.5zM178 216q2 28 -13.5 34t-36.5 -16q-13 -14 -20.5 -33.5t-7 -40.5t9.5 -40t28 -31q18 34 28 69t12 58z"/>
<glyph horiz-adv-x="328" glyph-name="afii10095" unicode="" d="M70 -8q-15 -3 -31.5 -3.5t-29.5 4.5q-16 7 -22 21t-2.5 31t15.5 34.5t31 29.5q6 2 8 2q8 0 14 -5t6 -14t-5.5 -14t-12.5 -5q-15 0 -16 12q-17 -11 -26 -28.5t-7 -32.5q2 -12 12 -19.5t19 -7.5q5 0 16.5 2t16.5 4q33 14 69.5 69.5t75.5 131.5q0 1 0.5 1t0.5 1 q-20 -23 -39 -28t-27 -4q-9 0 -14 8t-9.5 16t-11 13t-18.5 -2q-5 -2 -9.5 -6.5l-12.5 -12.5l-3 3q23 23 39 34.5t31 10.5q7 0 11 -4.5t7.5 -10.5t6.5 -12t8 -10q8 -6 20.5 -3t32.5 35q11 27 19 56t10 53.5t-4.5 40.5t-23.5 16q-18 0 -45.5 -22t-56.5 -55t-57 -72.5 t-46 -73.5l-6 4q19 35 47 75t58 74t58.5 56t47.5 22q31 -1 49 -20.5t23.5 -50.5t-1 -70.5t-24.5 -79.5q-15 -32 -32 -58.5t-34 -47.5q8 -11 26 -11q13 0 26.5 9t26 24t25 34.5t24.5 40.5l7 -4q-12 -22 -25 -42t-26.5 -35.5t-28 -25t-29.5 -9.5q-21 0 -31 13q-32 -37 -64 -57 t-57 -25z"/>
<glyph horiz-adv-x="432" glyph-name="afii10096" unicode="" d="M439 178q-12 -22 -25 -42t-26.5 -35.5t-28 -25t-29.5 -9.5q-28 0 -40 28q-31 -45 -62 -74t-58 -29q-17 0 -28.5 7t-19 18.5t-10.5 25t-3 27.5q0 35 11 73q10 36 27 72h-69l-117 -222h-59l213 408h61l-94 -178h70q18 35 42 68q25 35 52.5 61t55.5 41.5t53 15.5 q10 0 23.5 -9.5t13.5 -38.5q0 -30 -8 -63.5t-21 -67t-30.5 -66.5t-36.5 -61q7 -28 34 -28q13 0 26.5 9t26 24t25 34.5t24.5 40.5zM170 -1q26 0 56 30t61 75q0 4 -0.5 8t-0.5 9q0 20 6.5 40.5t17 37.5t23.5 29t25 15q11 31 18.5 60.5t7.5 56.5q0 26 -10.5 33t-18.5 7 q-6 0 -19 -8.5t-32 -32.5q-20 -25 -46 -69t-49.5 -92t-39.5 -93.5t-16 -73.5q0 -32 17 -32z"/>
<glyph horiz-adv-x="348" glyph-name="afii10097" unicode="" d="M195 226q-3 -4 -4 -8q2 2 4 2.5t4 2.5q3 5 5.5 9.5t4.5 9.5h70l-50 -86q-18 -34 -31.5 -62.5t-20 -49.5t-6 -32.5t11.5 -11.5q13 0 32 12t41 35.5t46 57t48 77.5l7 -4q-24 -44 -49 -78.5t-48 -58.5t-42.5 -36.5t-34.5 -12.5q-28 0 -35.5 23t-2 56t19.5 71t28 68 q-3 -2 -9 -4q-20 -37 -44.5 -73t-49.5 -65t-49 -48t-43 -21q-25 -4 -40 7t-21 30t-4.5 41t10.5 39q11 21 27.5 37t36.5 21q19 6 28 -5t7.5 -25.5t-12.5 -26t-32 -6.5q-35 13 -49 -9q-10 -14 -10.5 -33t6.5 -34.5t21.5 -24t34.5 -2.5q18 3 40.5 22t46 47t46 61t39.5 64 q-39 -14 -67 -3q-25 8 -37.5 25.5t-17.5 37.5q-8 34 2 62.5t31 48.5t49 30t56 9q28 -2 36 -22.5t4.5 -49.5t-14.5 -60.5t-20 -53.5zM185 223q4 9 11 26t13 36.5t10 39.5t4 36.5t-5.5 27t-19.5 10.5q-26 -4 -46 -25.5t-32 -50t-14 -58.5t9 -51q5 -11 23.5 -11t40.5 9 q2 3 3 5.5t3 5.5z"/>
<glyph horiz-adv-x="273" glyph-name="afii10071" unicode="" d="M203 466q-12 0 -20.5 9t-8.5 22q0 11 8.5 20t20.5 9q11 0 19.5 -9t8.5 -20q0 -13 -8.5 -22t-19.5 -9zM311 466q-12 0 -20.5 9t-8.5 22q0 11 8.5 20t20.5 9q11 0 19.5 -9t8.5 -20q0 -13 -8.5 -22t-19.5 -9zM280 178q-23 -40 -49.5 -74t-54 -59t-55 -39t-54.5 -14 q-32 0 -52.5 18.5t-28 51t0 75.5t33.5 91q19 36 44.5 68.5t54 57.5t59 39.5t59.5 14.5h3q5 -1 12.5 -3.5t14.5 -9t10.5 -17.5t1.5 -29q-4 -28 -23.5 -56t-48 -50.5t-63.5 -37t-70 -15.5q-41 -89 -43.5 -139.5t36.5 -50.5q25 0 52 13.5t53.5 37.5t52 57.5t48.5 73.5zM246 352 q1 7 2 15.5t0.5 15.5t-3 12t-9.5 5q-14 0 -33 -17t-40.5 -44t-43 -62t-38.5 -71l-2 -5q28 3 55.5 17.5t50.5 35.5t39 47t22 51z"/>
<glyph horiz-adv-x="256" glyph-name="afii10101" unicode="" d="M263 178q-28 -50 -57 -85.5t-56 -58t-50.5 -33t-40.5 -10.5q-31 0 -49 19.5t-24 51t1 71t25 79.5q24 52 52.5 89t57.5 61t55.5 35t44.5 11q28 0 40.5 -13.5t12 -32.5t-13 -40t-34.5 -35q-4 -2 -8 -2q-8 0 -14 5t-6 14t5.5 14t12.5 5q14 0 16 -12q17 11 26 28.5t7 32.5 q-2 12 -12 19t-19 7q-18 0 -37.5 -15.5t-40 -43t-41.5 -65.5q-17 -29 -34 -61q18 17 35 21.5t25 3.5q9 0 14 -8t9.5 -16.5t11 -13t18.5 2.5q5 2 9.5 6.5l12.5 12.5l3 -3q-23 -23 -39 -34.5t-31 -10.5q-7 0 -11 4.5t-7.5 10.5t-6.5 12t-8 10q-8 5 -19 3.5t-28 -25.5 q-12 -25 -22 -56q-11 -33 -15.5 -63t1 -50.5t25.5 -20.5q16 0 38.5 10t49 32t54.5 56.5t55 84.5z"/>
<glyph horiz-adv-x="162" glyph-name="afii10103" unicode="" d="M191 570q14 0 25 -11t11 -25t-11 -24t-25 -10t-24 10t-10 24t10 25t24 11zM41 156q-18 -34 -31.5 -62.5t-20 -49.5t-5.5 -32.5t11 -11.5q13 0 32 12t41 35.5t46 57t48 77.5l7 -4q-49 -88 -97 -137t-77 -49q-20 0 -29.5 14t-10 37t7 52.5t22.5 61.5q8 17 23 47t32.5 64.5 t35 69.5t30.5 62h63z"/>
<glyph horiz-adv-x="162" glyph-name="afii10104" unicode="" d="M169 400h-63q-13 -27 -30.5 -62t-35 -69.5t-32.5 -64.5t-23 -47q-15 -32 -22.5 -61.5t-7 -52.5t10 -37t29.5 -14q29 0 77 49t97 137l-7 4q-24 -44 -48 -77.5t-46 -57t-41 -35.5t-32 -12q-10 0 -11 11.5t5.5 32.5t20 49.5t31.5 62.5zM124 486q-12 0 -20.5 9t-8.5 22 q0 11 8.5 20t20.5 9q11 0 19.5 -9t8.5 -20q0 -13 -8.5 -22t-19.5 -9zM232 486q-12 0 -20.5 9t-8.5 22q0 11 8.5 20t20.5 9q11 0 19.5 -9t8.5 -20q0 -13 -8.5 -22t-19.5 -9z"/>
<glyph horiz-adv-x="291" glyph-name="afii10110" unicode="" d="M335 400l-199 -377q21 14 42.5 32.5t42.5 40t39 45t31 47.5l6 -4q-13 -26 -33 -51t-42.5 -47.5t-46.5 -42t-46 -33.5l-61 -116q-15 -28 -35.5 -59t-42.5 -58.5t-43 -48t-37 -26.5l-10 -2q-7 0 -14.5 6.5t-7.5 22.5q0 29 16.5 62t44 68t63 70t73.5 68l55 114 q-39 -57 -74.5 -88t-58.5 -31q-20 0 -29.5 14t-10.5 37t7 52.5t23 61.5q8 17 23 47t32.5 64.5t35 69.5t30.5 62h63l-128 -244q-18 -34 -31.5 -62.5t-20 -49.5t-6 -32.5t11.5 -11.5q13 0 32 12t41 35.5t46 57t48 77.5q19 40 36 76t31 64.5t24 48.5t15 29h65zM65 -22 q-35 -32 -67.5 -65t-57.5 -65t-39.5 -62t-14.5 -57q0 -12 4.5 -16.5t9.5 -4.5h1q9 0 19.5 10t25 33t34 60.5t47.5 93.5zM384 605q-11 -33 -29.5 -55t-42 -34t-49.5 -12.5t-53 10.5q-26 14 -38 37t3 46q12 18 30 21t32 -4t18.5 -20.5t-9.5 -28.5l-11 -11t-9.5 -12t-2 -12.5 t11.5 -11.5q18 -8 38.5 -4.5t39.5 15.5t35 31.5t25 44.5h11z"/>
<glyph horiz-adv-x="702" glyph-name="afii10050" unicode="" d="M1056 878q-7 4 -7 16t5 17q10 10 23.5 12.5t27 -1.5t26 -12.5t21.5 -19.5q17 -21 19 -54.5t-24 -71.5q-24 -35 -77.5 -60.5t-138.5 -25.5q-75 0 -136 13.5t-117.5 30t-114 30t-127.5 13.5q-27 0 -56 -1.5t-60 -7.5t-63.5 -18t-66.5 -33q-90 -58 -140 -140.5t-50 -173.5 q0 -36 9 -65t24.5 -51t36.5 -37t44 -23q11 24 28 45.5t38.5 37.5t46.5 25.5t52 9.5q29 0 53 -10.5t40 -28.5q38 42 59 94.5t21 109.5q0 34 -9.5 60t-25.5 43t-38 26t-46 9q-40 0 -75.5 -20t-62 -52.5t-40.5 -74t-11 -84.5l-8 -1q-3 45 11.5 88t42 76.5t64.5 54.5t79 21 q26 0 49 -9t40.5 -27.5t27.5 -46t10 -63.5q0 -58 -21.5 -113t-61.5 -98q20 -26 20 -61q0 -29 -11 -53t-29 -41.5t-40 -27.5t-44 -11l-1 8q21 1 42 10.5t37.5 26t27 39t10.5 49.5q0 29 -17 55q-38 -38 -88 -61t-111 -23q-25 0 -54 8q-15 -33 -15 -67q0 -32 11.5 -58.5 t31.5 -45t46.5 -28.5t55.5 -10q57 0 103 37t85 95.5t73.5 130.5t69.5 141l4 8q32 63 65.5 115.5t73.5 84.5q22 17 46 27t50 10q14 0 25.5 -3t17.5 -6l-4 -7q-5 3 -15.5 5.5t-23.5 2.5q-26 0 -48.5 -9.5t-43.5 -26.5q-41 -36 -64 -85t-40 -108l-2 -8q-11 -39 -22 -80.5 t-25 -86.5q-18 -57 -50 -102.5t-74.5 -77t-93.5 -48.5t-107 -17q-32 0 -59.5 10.5t-48.5 30t-33 47t-12 62.5t15 70q-24 9 -46 24.5t-38 38t-25.5 52.5t-9.5 68q0 78 37.5 151.5t104.5 131t159.5 92t203.5 34.5q67 0 125 -10t111.5 -21.5t105 -21.5t105.5 -10q68 0 121 9 t76 30q15 13 20 35.5t0 43.5t-20.5 37t-41.5 17q0 -3 -1 -15t-3 -14q-6 -7 -19 -7t-20 5zM279 325q-26 0 -49.5 -9t-43.5 -24t-36.5 -35.5t-27.5 -43.5q29 -8 51 -8q60 0 108.5 22.5t84.5 59.5q-15 18 -37.5 28t-49.5 10z"/>
<glyph horiz-adv-x="279" glyph-name="afii10098" unicode="" d="M135 415v-41q15 16 29.5 25t28.5 9q26 0 38.5 -13t15 -32.5t-3.5 -43.5t-18 -45q-17 -30 -35.5 -56t-38 -50.5t-37.5 -49t-33 -50.5q-8 -14 -11 -27t-2 -22t6.5 -14.5t16.5 -4.5q18 -1 43.5 15.5t52 43.5t51.5 61t44 68l6 -4q-20 -36 -44 -68t-47.5 -56.5t-45.5 -41 t-38 -21.5q-22 -7 -40 -4t-26 15q-14 19 -14 42.5t10.5 48.5t28 51.5t37 52.5t39.5 51t35 46q16 23 25 42.5t10.5 33t-5.5 20t-23 4.5q-12 -2 -26 -11.5t-29 -25.5v-63l-18 43q-27 -32 -56 -76t-58 -93l-6 4q9 14 21.5 35t28 45t32.5 48t35 45l-22 53q-5 8 -5 21 q0 10 6.5 17.5t18.5 7.5q23 0 23 -35z"/>
</font>
</defs>
</svg>
